<?xml version="1.0" encoding="utf-8"?>
<svg viewBox="-74.047 -61.9011 1321.672 740.7061" width="1321.672" height="740.7061" xmlns="http://www.w3.org/2000/svg">
  <defs/>
  <path d="M 531.986 351.993 C 531.986 351.993 492.423 352.982 465.663 376.612 C 438.902 400.231 413.89 432.896 397.846 467.506 C 381.803 502.116 367.676 528.785 369.425 559.551 C 371.175 590.328 388.633 610.965 417.199 619.045 C 445.776 627.137 470.164 629.508 470.164 629.508 L 469.54 676.088 L 670.013 676.088 L 668.208 582.939 C 668.208 582.939 676.363 583.411 683.082 576.539 C 689.789 569.668 686.714 548.731 686.714 548.731 C 686.714 548.731 712.071 567.182 733.751 565.306 C 755.432 563.418 769.893 547.028 772.879 535.575 C 775.865 524.123 779.174 505.765 778.996 478.072 C 778.806 450.391 776.188 390.539 776.188 390.539 C 776.188 390.539 771.698 380.859 741.272 379.363 C 710.845 377.855 703.459 387.973 703.459 387.973 L 702.712 408.207 C 702.712 408.207 693.599 386.718 679.26 376.992 C 664.922 367.278 639.575 352.879 613.216 352.66 C 586.856 352.441 531.986 352.004 531.986 352.004 L 531.986 351.993 Z" class="c" style="fill: rgb(255, 165, 0);" transform="matrix(1, 0, 0, 1, 1.1368683772161603e-13, 0)"/>
  <path d="M 617.483 582.283 L 668.219 582.283 C 668.219 582.283 677.099 582.72 683.093 576.539 C 689.075 570.358 686.725 555.81 686.725 555.81 L 687.092 440.561 C 687.092 440.561 687.371 433.529 682.369 428.798 C 677.366 424.068 671.25 424.068 671.25 424.068 L 476.893 424.068 C 476.893 424.068 465.64 423.642 461.473 429.811 C 457.307 435.98 458.833 443.738 458.833 443.738 L 458.554 546.395 C 458.554 546.395 510.506 557.698 536.208 557.985 C 536.208 557.985 540.932 556.547 542.815 559.712 C 544.687 562.865 542.815 560.506 542.815 560.506 C 542.815 560.506 550.937 557.272 551.772 550.389 C 552.608 543.494 551.906 524.733 560.529 524.503 C 569.141 524.273 570.913 536.761 570.857 546.66 C 570.801 556.558 566.356 569.334 566.356 569.334 C 566.356 569.334 564.997 574.744 572.695 576.919 C 580.394 579.094 602.208 584.101 617.483 582.317 L 617.483 582.283 Z M 861.618 458.85 C 861.618 458.85 828.384 476.253 808.508 516.596 C 788.633 556.949 777.402 592.239 775.475 620.45 C 773.548 648.66 782.304 671.001 784.8 676.088 L 977.352 676.088 L 1037.848 657.132 L 1012.391 524.514 C 1012.391 524.514 999.222 489.214 980.26 471.477 C 961.298 453.752 938.815 448.871 933.868 448.802 C 928.933 448.733 861.607 458.839 861.607 458.839 L 861.618 458.85 Z" class="h" style="fill: rgb(53, 53, 53);" transform="matrix(1, 0, 0, 1, 1.1368683772161603e-13, 0)"/>
  <path d="M 1000.715 677.769 L 1163.754 677.769 C 1174.494 677.769 1184.031 669.516 1187.407 659.434 L 1226.078 544.07 C 1231.425 528.129 1219.415 511.681 1202.425 511.681 L 1039.386 511.681 C 1028.646 511.681 1019.109 518.483 1015.733 528.566 L 977.062 643.93 C 971.715 659.871 983.725 677.769 1000.715 677.769 Z" class="c" style="fill: rgb(255, 165, 0);" transform="matrix(1, 0, 0, 1, 1.1368683772161603e-13, 0)"/>
  <path d="M 216.146 298.184 L 215.099 302.627 C 215.099 302.627 215.321 301.821 212.391 301.51 C 209.461 301.199 207.968 303.835 207.634 305.09 L 202.297 325.117 C 202.297 325.117 202.966 328.881 204.96 328.869 C 206.954 328.869 209.773 327.35 209.773 327.35 L 206.687 337.628 C 206.687 337.628 200.08 335.096 196.326 337.628 C 196.326 337.628 183.592 332.299 178.188 338.975 C 178.188 338.975 169.375 331.413 165.71 329.007 C 162.045 326.602 156.897 326.061 154.368 329.986 C 151.839 333.91 152.775 335.741 157.154 338.975 C 161.532 342.209 173.152 352.372 176.06 355.388 C 178.968 358.404 187.157 367.174 187.268 368.36 C 187.368 369.545 185.519 368.843 183.625 367.036 C 181.742 365.229 171.013 354.156 167.359 353.823 C 163.705 353.489 159.694 356.804 161.131 362.305 C 162.568 367.807 169.654 371.018 175.436 378.615 C 181.218 386.211 198.799 390.885 199.245 390.885 C 199.69 390.885 213.115 379.939 223.477 381.032 C 223.477 381.032 218.797 372.02 221.527 360.821 C 224.257 349.622 234.674 342.209 234.674 342.209 C 234.674 342.209 244.868 344.856 249.257 336.305 C 253.647 327.753 248.009 321.434 244.779 319.155 C 241.548 316.887 237.281 316.784 237.281 316.784 C 237.281 316.784 218.987 309.682 216.146 298.161 L 216.146 298.184 Z M 535.317 564.753 C 535.317 564.753 546.068 559.965 549.121 555.108 C 552.173 550.251 552.742 548.915 552.742 541.031 C 552.742 533.147 554.268 525.424 560.518 524.48 C 566.768 523.525 571.024 530.891 570.79 541.181 C 570.556 551.471 568.573 563.752 567.537 566.491 C 566.501 569.23 565.387 573.155 570.801 576.044 C 576.216 578.933 585.942 582.916 598.587 582.214 C 611.232 581.512 617.483 582.294 617.483 582.294 C 617.483 582.294 615.811 585.655 613.516 587.289 C 613.516 587.289 610.843 599.628 602.019 602.839 C 593.206 606.051 586.633 608.145 574.133 608.445 C 561.632 608.744 551.36 607.328 547.06 607.282 C 542.77 607.236 534.258 606.292 532.632 600.192 C 532.632 600.192 531.172 591.41 531.763 581.293 C 532.353 571.176 535.317 564.765 535.317 564.765 L 535.317 564.753 Z" class="b" style="fill: rgb(255, 255, 255);" transform="matrix(1, 0, 0, 1, 1.1368683772161603e-13, 0)"/>
  <path d="M 42.712 425.023 C 42.433 425.023 42.155 424.908 41.932 424.689 L -31.154 349.184 C -31.588 348.741 -31.588 348.016 -31.154 347.573 C -30.725 347.135 -30.034 347.135 -29.605 347.573 L 42.712 422.284 L 111.843 350.865 C 112.272 350.427 112.962 350.427 113.391 350.865 L 163.994 403.143 C 164.429 403.591 164.429 404.305 163.994 404.754 C 163.565 405.191 162.875 405.191 162.446 404.754 L 112.611 353.27 L 43.481 424.689 C 43.269 424.908 42.991 425.023 42.701 425.023 L 42.712 425.023 Z" class="c" style="fill: rgb(255, 165, 0);" transform="matrix(1, 0, 0, 1, 1.1368683772161603e-13, 0)"/>
  <path d="M 95.978 451.473 C 95.978 451.473 90.541 446.65 88.714 437.258 C 86.887 427.866 85.962 413.064 83.277 411.28 C 80.581 409.485 74.063 406.193 72.581 413.87 C 71.088 421.547 75.277 427.198 74.654 432.067 C 74.03 436.936 73.016 439.249 69.974 439.433 C 66.933 439.629 63.713 437.362 59.524 432.85 C 55.335 428.338 49.43 419.521 45.887 413.858 C 42.344 408.195 37.899 403.776 33.799 406.25 C 29.71 408.725 30.033 414.549 30.033 414.549 C 30.033 414.549 27.192 412.443 23.36 415.055 C 19.527 417.668 21.711 421.858 21.711 421.858 C 21.711 421.858 16.018 423.02 15.895 431.1 C 15.773 439.18 29.967 457.458 33.81 462.165 C 37.665 466.873 49.564 480.455 55.379 482.054 C 55.379 482.054 63.702 472.133 73.907 465.676 C 84.124 459.219 95.978 451.473 95.978 451.473 Z M 763.532 396.248 C 763.532 396.248 764.668 375.542 764.089 368.509 C 763.509 361.477 762.072 360.74 763.532 350.703 C 764.991 340.667 767.075 329.284 766.306 318.407 C 765.537 307.53 763.888 300.325 759.298 301.038 C 754.719 301.752 751.065 304.376 751.065 304.376 C 751.065 304.376 751.432 297.712 744.514 297.505 C 737.595 297.309 736.002 302.604 736.002 302.604 C 736.002 302.604 732.905 297.251 727.49 297.758 C 722.076 298.264 719.301 302.776 719.023 308.923 C 718.744 315.069 717.909 346.917 717.909 346.917 C 717.909 346.917 714.656 346.295 710.544 340.632 C 706.433 334.969 698.523 327.43 692.217 333.565 C 685.911 339.7 688.073 345.397 694.691 351.958 C 701.308 358.519 711.012 366.599 713.14 376.382 C 715.279 386.165 715.569 397.226 715.569 397.226 C 715.569 397.226 747.02 403.327 763.509 396.214 L 763.532 396.248 Z" class="b" style="fill: rgb(255, 255, 255);" transform="matrix(1, 0, 0, 1, 1.1368683772161603e-13, 0)"/>
  <circle cx="511.403" cy="432.678" r="14.46" class="b" style="fill: rgb(255, 255, 255);" transform="matrix(1.1141120195388794, 0, 0, 1.1509900093078613, 8.44968509674095, 11.980828285217285)"/>
  <path d="M 932.91 448.814 L 933.891 429.696 C 933.891 429.696 946.146 429.42 948.563 421.236 C 950.981 413.053 952.519 406.849 952.173 393.774 C 951.817 380.698 951.416 368.797 951.416 368.797 L 932.91 348.471 C 932.91 348.471 915.831 372.077 910.717 378.062 C 905.603 384.048 901.091 388.18 901.548 396.789 C 902.005 405.399 910.65 416.621 913.614 419.625 C 916.577 422.629 920.61 435.106 917.691 444.014 C 914.772 452.923 910.55 458.862 910.55 458.862 C 910.55 458.862 919.496 475.724 926.861 474.504 C 934.225 473.284 932.899 448.814 932.899 448.814 L 932.91 448.814 Z M 899.253 638.198 C 899.253 638.198 909.001 631.971 916.967 629.07 C 924.922 626.17 929.991 624.029 936.486 625.007 C 936.486 625.007 947.995 616.801 958.758 622.694 C 958.758 622.694 962.98 619.206 968.562 618.815 C 974.155 618.424 979.235 630.958 979.235 630.958 L 975.926 647.083 C 975.926 647.083 977.998 661.586 980.628 663.37 L 939.94 664.878 L 933.801 654.404 C 933.801 654.404 931.852 662.794 922.961 663.381 C 914.071 663.957 907.04 663.381 907.04 663.381 C 907.04 663.381 896.367 651.607 899.242 638.198 L 899.253 638.198 Z M 623.02 279.411 C 622.897 266.301 609.06 268.937 606.364 269.651 C 606.453 266.704 606.587 259.453 605.216 256.863 C 602.821 252.34 600.125 241.969 600.125 241.969 C 600.125 241.969 588.07 244.64 572.673 246.113 C 557.276 247.586 544.486 235.489 544.486 235.489 C 543.74 246.999 537.902 257.807 537.902 257.807 L 536.843 269.259 C 525.914 266.589 520.477 273.115 520.922 279.423 C 521.379 285.719 524.956 290.127 528.588 291.335 C 532.231 292.544 537.835 290.461 537.835 290.461 C 537.835 290.461 538.704 292.924 539.06 303.835 C 539.417 314.758 548.887 323.16 548.887 323.16 L 547.917 337.801 L 531.974 351.993 L 545.756 423.975 L 599.089 423.975 L 613.204 352.649 L 595.668 337.789 L 594.075 324.231 C 604.681 315.46 606.007 301.372 606.152 290.265 C 612.67 293.96 623.131 291.98 623.02 279.4 L 623.02 279.411 Z" class="b" style="fill: rgb(255, 255, 255);" transform="matrix(1, 0, 0, 1, 1.1368683772161603e-13, 0)"/>
  <path d="M 234.674 342.232 C 234.674 342.232 220.769 352.292 220.736 365.989 C 220.703 379.674 226.853 388.513 233.214 390.321 C 239.576 392.128 251.653 392.933 255.719 404.443 C 259.786 415.953 260.722 430.962 262.682 436.636 C 264.643 442.311 268.297 453.441 284.207 456.226 C 300.117 459.012 311.414 450.667 319.045 437.511 C 326.677 424.355 328.192 412.27 325.307 396.087 C 322.41 379.893 319.435 371.364 311.915 359.221 C 304.395 347.066 295.471 340.782 292.351 337.11 C 289.232 333.439 287.315 333.519 288.92 327.753 C 290.524 321.986 298.902 312.514 298.156 300.14 C 297.409 287.767 296.239 282.162 270.203 274.738 C 270.203 274.738 263.863 266.025 249.012 262.894 C 234.161 259.775 220.736 263.24 216.458 273.564 C 212.18 283.888 214.564 296.492 219.466 303.593 C 224.368 310.695 237.292 316.83 237.292 316.83 C 237.292 316.83 250.594 316.772 250.873 328.593 C 251.151 340.414 240.422 343.786 234.685 342.255 L 234.674 342.232 Z M 932.42 347.814 L 951.672 368.222 C 951.672 368.222 952.184 359.67 951.282 351.152 C 950.379 342.647 944.196 337.03 937.489 335.936 C 930.782 334.843 917.535 332.725 902.539 333.922 C 887.543 335.119 867.579 343.383 866.62 363.79 C 866.62 363.79 870.888 384.255 872.492 394.878 C 874.096 405.502 878.14 422.168 873.573 427.509 C 868.994 432.85 858.733 434.829 853.764 436.59 C 848.784 438.34 834.512 456.859 847.848 467.725 L 861.618 458.862 C 861.618 458.862 883.165 469.555 896.089 466.217 C 909.012 462.879 916.198 452.221 917.134 447.053 C 918.07 441.885 918.694 428.649 914.316 420.569 C 909.937 412.5 902.127 407.862 901.704 398.504 C 901.292 389.135 902.851 385.763 906.918 381.481 C 910.984 377.199 917.313 369.683 921.401 364.147 C 925.49 358.611 932.409 347.803 932.409 347.803 L 932.42 347.814 Z" class="c" style="fill: rgb(255, 165, 0);" transform="matrix(1, 0, 0, 1, 1.1368683772161603e-13, 0)"/>
  <path d="M 933.879 429.696 L 932.899 448.814 L 945.277 451.208 C 945.277 451.208 948.764 447.306 948.575 439.698 C 948.385 432.09 944.118 427.509 944.118 427.509 C 944.118 427.509 934.648 430.168 933.879 429.696 Z" class="g" style="fill: rgb(26, 26, 26);" transform="matrix(1, 0, 0, 1, 1.1368683772161603e-13, 0)"/>
  <path d="M 1104.951 588.613 C 1099.982 597.499 1100.551 607.443 1106.21 610.816 C 1111.87 614.188 1120.482 609.722 1125.451 600.837 C 1130.42 591.951 1129.852 582.006 1124.192 578.634 C 1118.532 575.262 1109.92 579.727 1104.951 588.613 Z" class="b" style="fill: rgb(255, 255, 255);" transform="matrix(1, 0, 0, 1, 1.1368683772161603e-13, 0)"/>
  <path d="M 1007.99 677.665 L 864.615 677.665 C 864.615 677.665 858.22 674.937 859.891 670.057 C 861.562 665.177 865.306 663.968 865.306 663.968 L 981.174 664.314 C 981.174 664.314 975.414 658.144 975.926 647.095 C 976.45 636.045 980.628 628.299 980.628 628.299 L 1022.451 499.653 C 1022.451 499.653 1028.267 485.185 1045.903 485.185 L 1232.205 485.185 L 1247.625 494.255 L 1057.435 493.541 C 1057.435 493.541 1037.013 496.407 1032.98 511.198 L 988.649 644.033 C 988.649 644.033 986.298 652.712 991.579 661.897 C 996.86 671.082 1007.968 677.688 1007.968 677.688 L 1007.99 677.665 Z" class="b" style="fill: rgb(255, 255, 255);" transform="matrix(1, 0, 0, 1, 1.1368683772161603e-13, 0)"/>
  <path d="M 899.253 638.198 C 899.253 638.198 924.387 622.775 937.277 625.007 C 937.277 625.007 944.831 617.906 955.883 621.439 L 954.413 618.804 C 954.413 618.804 943.806 607.547 928.275 607.225 C 912.756 606.902 898.139 620.944 899.253 638.198 Z" style="" transform="matrix(1, 0, 0, 1, 1.1368683772161603e-13, 0)"/>
  <path d="M 925.301 663.025 C 925.301 663.025 933.077 659.721 933.813 654.415 L 938.86 663.025 L 925.301 663.025 Z" class="g" style="fill: rgb(26, 26, 26);" transform="matrix(1, 0, 0, 1, 1.1368683772161603e-13, 0)"/>
  <path d="M 755.131 85.745 L 808.464 85.745 L 808.464 256.852 L 755.131 256.852 L 755.131 85.745 Z" class="c" style="fill: rgb(255, 165, 0);" transform="matrix(1, 0, 0, 1, 1.1368683772161603e-13, 0)"/>
  <path d="M 867.489 130.093 L 920.822 130.093 L 920.822 236.571 L 867.489 236.571 L 867.489 130.093 Z M 955.192 190.635 L 1008.525 190.635 L 1008.525 258.44 L 955.192 258.44 L 955.192 190.635 Z" class="f" style="fill: rgb(55, 53, 50);" transform="matrix(1, 0, 0, 1, 1.1368683772161603e-13, 0)"/>
  <path d="M 572.216 371.214 L 559.805 399.943 L 564.752 410.889 L 561.71 423.975 L 585.563 423.975 L 581.296 410.923 L 585.808 400.806 L 572.216 371.214 Z" class="c" style="fill: rgb(255, 165, 0);" transform="matrix(1, 0, 0, 1, 1.1368683772161603e-13, 0)"/>
  <path d="M 569.152 378.316 L 577.609 398.654 L 574.968 410.923 L 577.609 423.975 L 585.563 423.975 L 581.296 410.923 L 585.808 400.806 L 572.216 371.214 L 569.152 378.316 Z" class="b" style="fill: rgb(255, 255, 255);" transform="matrix(1, 0, 0, 1, 1.1368683772161603e-13, 0)"/>
  <path d="M 223.477 381.055 C 223.477 381.055 196.894 380.917 179.659 418.934 C 162.423 456.963 144.375 500.482 144.375 500.482 L 100.468 449.815 C 100.468 449.815 67.579 464.64 52.037 486.106 C 52.037 486.106 77.606 545.716 106.517 568.989 C 135.417 592.262 145.678 594.69 167.637 589.027 L 152.92 676.227 L 320.739 676.227 C 320.739 676.227 310.834 604.232 310.144 590.201 C 309.453 576.171 309.23 559.378 309.23 559.378 C 309.23 559.378 322.8 565.662 336.214 551.977 C 349.628 538.292 349.884 532.41 348.213 520.659 C 346.553 508.907 342.609 492.402 333.752 468.266 C 324.894 444.141 319.034 437.488 319.034 437.488 C 319.034 437.488 310.311 459.207 288.429 456.41 C 266.548 453.613 263.629 441.77 261.546 432.078 C 259.463 422.387 260.109 412.063 254.683 402.049 C 249.257 392.036 241.225 391.69 235.554 390.896 C 229.883 390.102 223.544 385.555 223.477 381.044 L 223.477 381.055 Z" class="h" style="fill: rgb(53, 53, 53);" transform="matrix(1, 0, 0, 1, 1.1368683772161603e-13, 0)"/>
  <path d="M 117.324 577.345 C 117.324 577.345 127.418 555.016 152.909 555.131 C 178.4 555.234 188.193 575.688 188.193 575.688 C 188.193 575.688 176.261 593.16 151.305 591.606 C 129.011 590.213 117.313 577.356 117.313 577.356 L 117.324 577.345 Z" style="fill: rgb(255, 165, 0);" transform="matrix(1, 0, 0, 1, 1.1368683772161603e-13, 0)"/>
  <path d="M -36.267 458.079 L -10.988 458.079 L -10.988 484.195 L -36.267 484.195 L -36.267 458.079 Z" class="c" style="fill: rgb(255, 165, 0);" transform="matrix(1, 0, 0, 1, 1.1368683772161603e-13, 0)"/>
  <path d="M -51.553 523.916 L -26.274 523.916 L -26.274 550.032 L -51.553 550.032 L -51.553 523.916 Z" class="g" style="fill: rgb(26, 26, 26);" transform="matrix(1, 0, 0, 1, 1.1368683772161603e-13, 0)"/>
  <path d="M 533.077 268.143 C 533.077 268.143 524.666 220.342 543.639 218.65 C 543.639 218.65 551.828 204.194 571.949 206.266 C 592.07 208.337 603.968 214.91 609.962 233.372 C 615.956 251.822 610.865 268.327 610.865 268.327 L 605.952 269.052 L 605.952 258.141 L 601.094 241.497 C 601.094 241.497 584.951 248.392 570.512 246.021 C 556.084 243.65 544.497 235.478 544.497 235.478 C 544.497 235.478 541.411 253.997 537.913 257.796 L 536.854 269.248 L 533.077 268.143 Z" class="f" style="fill: rgb(55, 53, 50);" transform="matrix(1, 0, 0, 1, 1.1368683772161603e-13, 0)"/>
  <path d="M 924.053 348.471 C 922.382 356.481 913.903 371.007 908.311 379.985 C 912.332 375.588 917.758 369.096 921.413 364.147 C 925.501 358.611 932.42 347.803 932.42 347.803 L 951.672 368.21 C 951.672 368.21 952.184 359.658 951.282 351.141 C 950.379 342.635 944.196 337.018 937.489 335.925 C 930.782 334.831 917.535 332.713 902.539 333.91 C 900.779 334.049 898.952 334.302 897.091 334.636 C 897.671 334.67 926.571 336.443 924.053 348.471 Z M 896.089 466.217 C 909.012 462.879 916.198 452.221 917.134 447.053 C 918.07 441.885 918.694 428.649 914.327 420.569 C 912.065 416.39 908.879 413.133 906.283 409.669 C 909.826 417.518 914.405 431.307 910.283 443.922 C 904.066 462.902 883.811 465.883 883.811 465.883 C 883.811 465.883 884.658 466.136 886.062 466.562 C 889.627 467 893.103 466.988 896.1 466.205 L 896.089 466.217 Z M 938.737 428.913 L 938.603 429.086 C 938.603 429.086 944.43 439.882 940.063 450.195 L 945.299 451.208 C 945.299 451.208 948.786 447.306 948.597 439.698 C 948.407 432.09 944.14 427.509 944.14 427.509 C 944.14 427.509 941.4 428.28 938.748 428.913 L 938.737 428.913 Z M 605.952 258.141 L 605.952 269.052 L 610.865 268.339 C 610.865 268.339 615.956 251.833 609.962 233.383 C 605.595 219.951 598.086 212.826 586.566 209.132 C 590.02 212.262 602.175 224.187 596.794 232.6 C 590.566 242.326 553.02 240.197 552.775 240.185 C 557.41 242.441 563.638 244.893 570.523 246.021 C 584.951 248.392 601.105 241.497 601.105 241.497 L 605.963 258.141 L 605.952 258.141 Z M 249.001 262.883 C 234.15 259.764 220.725 263.228 216.447 273.553 C 212.168 283.877 214.553 296.48 219.455 303.582 C 221.583 306.667 225.226 309.567 228.657 311.858 C 225.694 306.114 208.86 269.766 254.104 264.276 C 252.522 263.746 250.828 263.274 248.99 262.894 L 249.001 262.883 Z M 237.659 391.333 C 218.764 371.237 240.01 342.508 240.01 342.508 C 240.01 342.508 239.921 342.451 239.787 342.37 C 237.938 342.681 236.133 342.623 234.674 342.232 C 234.674 342.232 220.769 352.292 220.747 365.989 C 220.714 379.674 226.864 388.513 233.225 390.321 C 234.529 390.689 236.066 391.023 237.726 391.402 C 237.704 391.379 237.693 391.356 237.659 391.333 Z" class="b" style="fill: rgb(255, 255, 255);" transform="matrix(1, 0, 0, 1, 1.1368683772161603e-13, 0)"/>
  <path d="M 547.929 330.596 C 547.929 330.596 556.708 341.024 570.512 341.024 C 584.315 341.024 595.679 331.16 595.679 331.16 L 595.29 323.931 C 595.29 323.931 589.374 329.709 572.049 329.709 C 554.725 329.709 547.929 323.701 547.929 323.701 L 547.929 330.584 L 547.929 330.596 Z M 917.691 434.449 L 932.91 440.699 L 934.893 429.696 L 917.814 426.496 L 917.691 434.449 Z" class="e" style="fill: rgb(204, 204, 204);" transform="matrix(1, 0, 0, 1, 1.1368683772161603e-13, 0)"/>
  <path d="M 909.347 270.019 L 856.014 270.019 C 855.401 270.019 854.911 269.513 854.911 268.88 L 854.911 162.401 C 854.911 161.768 855.401 161.262 856.014 161.262 L 909.347 161.262 C 909.959 161.262 910.45 161.768 910.45 162.401 L 910.45 268.88 C 910.45 269.513 909.959 270.019 909.347 270.019 Z M 857.117 267.752 L 908.244 267.752 L 908.244 163.552 L 857.117 163.552 L 857.117 267.752 Z M 820.129 270.019 L 766.796 270.019 C 766.183 270.019 765.693 269.513 765.693 268.88 L 765.693 97.773 C 765.693 97.14 766.183 96.634 766.796 96.634 L 820.129 96.634 C 820.741 96.634 821.232 97.14 821.232 97.773 L 821.232 268.88 C 821.232 269.513 820.741 270.019 820.129 270.019 Z M 767.899 267.752 L 819.026 267.752 L 819.026 98.913 L 767.899 98.913 L 767.899 267.752 Z M 553.633 288.849 C 546.124 288.849 540.018 280.907 540.018 271.147 C 540.018 261.387 546.124 253.445 553.633 253.445 C 561.142 253.445 567.247 261.387 567.247 271.147 C 567.247 280.907 561.142 288.849 553.633 288.849 Z M 553.633 255.712 C 547.338 255.712 542.213 262.63 542.213 271.135 C 542.213 279.641 547.338 286.57 553.633 286.57 C 559.928 286.57 565.041 279.653 565.041 271.135 C 565.041 262.618 559.928 255.712 553.633 255.712 Z M 671.149 583.33 L 605.383 583.33 C 604.771 583.33 604.28 582.824 604.28 582.191 C 604.28 581.558 604.771 581.051 605.383 581.051 L 671.149 581.051 C 679.216 581.051 685.778 574.272 685.778 565.939 L 685.778 440.216 C 685.778 431.883 679.216 425.103 671.149 425.103 L 474.219 425.103 C 466.153 425.103 459.591 431.883 459.591 440.216 L 459.591 546.613 C 459.591 547.247 459.1 547.753 458.488 547.753 C 457.875 547.753 457.385 547.247 457.385 546.613 L 457.385 440.216 C 457.385 430.628 464.938 422.824 474.219 422.824 L 671.149 422.824 C 680.43 422.824 687.984 430.628 687.984 440.216 L 687.984 565.939 C 687.984 575.526 680.43 583.33 671.149 583.33 Z" style="" transform="matrix(1, 0, 0, 1, 1.1368683772161603e-13, 0)"/>
  <path d="M 572.963 521.913 C 563.47 521.913 555.75 513.937 555.75 504.13 C 555.75 494.324 563.47 486.348 572.963 486.348 C 582.455 486.348 590.176 494.324 590.176 504.13 C 590.176 513.937 582.455 521.913 572.963 521.913 Z M 572.963 488.615 C 564.685 488.615 557.944 495.579 557.944 504.13 C 557.944 512.682 564.674 519.646 572.963 519.646 C 581.252 519.646 587.981 512.682 587.981 504.13 C 587.981 495.579 581.241 488.615 572.963 488.615 Z M 702.367 410.486 C 701.966 410.486 701.576 410.256 701.375 409.853 C 694.78 395.96 688.942 386.879 683.516 382.056 C 659.518 360.74 637.136 357.137 617.405 353.961 C 615.678 353.685 613.962 353.408 612.28 353.121 C 611.681 353.019 611.274 352.439 611.366 351.82 C 611.466 351.198 612.035 350.796 612.625 350.876 C 614.307 351.164 616.012 351.44 617.739 351.705 C 637.771 354.928 660.476 358.576 684.953 380.318 C 690.613 385.348 696.629 394.671 703.347 408.84 C 703.705 409.592 703.178 410.471 702.367 410.474 L 702.367 410.486 Z M 493.749 630.567 C 430.613 630.567 392.142 617.112 376.3 589.557 C 359.666 560.621 368.501 517.401 404.108 453.544 C 424.195 417.53 450.076 388.652 459.468 380.318 C 483.934 358.576 506.64 354.928 526.682 351.705 C 528.409 351.429 530.114 351.152 531.796 350.876 C 532.398 350.796 532.966 351.198 533.055 351.82 C 533.153 352.44 532.743 353.024 532.142 353.121 C 530.459 353.408 528.744 353.673 527.017 353.961 C 507.275 357.137 484.892 360.74 460.905 382.056 C 451.614 390.321 425.956 418.934 406.013 454.707 C 370.84 517.781 362.005 560.264 378.182 588.417 C 394.292 616.456 437.052 629.807 505.303 628.173 C 514.561 627.942 542.525 628.173 542.804 628.173 C 543.416 628.173 543.895 628.691 543.895 629.312 C 543.895 629.934 543.405 630.44 542.793 630.44 C 542.503 630.44 514.594 630.221 505.358 630.44 C 501.403 630.532 497.526 630.59 493.738 630.59 L 493.749 630.567 Z" style="" transform="matrix(1, 0, 0, 1, 1.1368683772161603e-13, 0)"/>
  <path d="M 545.756 425.103 C 545.244 425.103 544.787 424.724 544.675 424.183 L 530.894 352.2 C 530.816 351.808 530.95 351.394 531.239 351.129 L 547.182 336.385 C 547.416 336.178 547.706 336.063 548.029 336.097 C 548.33 336.132 548.619 336.293 548.798 336.546 L 572.35 368.889 L 594.688 336.569 C 594.866 336.305 595.145 336.143 595.445 336.097 C 595.757 336.086 596.058 336.155 596.292 336.351 L 613.149 351.095 C 613.45 351.36 613.594 351.774 613.516 352.177 L 600.158 424.16 C 600.047 424.77 599.501 425.207 598.866 425.057 C 598.268 424.939 597.876 424.339 597.997 423.722 L 611.232 352.395 L 595.78 338.883 L 573.263 371.456 C 573.052 371.755 572.784 372.008 572.372 371.928 C 572.027 371.928 571.704 371.755 571.492 371.479 L 547.75 338.883 L 533.167 352.361 L 546.826 423.711 C 546.955 424.413 546.437 425.064 545.745 425.069 L 545.756 425.103 Z" style="" transform="matrix(1, 0, 0, 1, 1.1368683772161603e-13, 0)"/>
  <path d="M 548.363 425.103 C 548.207 425.103 548.051 425.069 547.895 425 C 547.347 424.734 547.107 424.062 547.36 423.492 L 571.381 370.351 C 571.559 369.948 571.949 369.695 572.372 369.695 C 572.796 369.695 573.186 369.948 573.375 370.351 L 597.228 423.492 C 597.484 424.056 597.239 424.735 596.693 425 C 596.142 425.255 595.496 425.01 595.234 424.447 L 572.383 373.528 L 549.366 424.459 C 549.176 424.873 548.786 425.115 548.374 425.115 L 548.363 425.103 Z" style="" transform="matrix(1, 0, 0, 1, 1.1368683772161603e-13, 0)"/>
  <path d="M 564.763 412.063 C 564.318 412.064 563.917 411.786 563.749 411.361 L 558.802 399.091 C 558.571 398.513 558.835 397.85 559.393 397.606 C 559.953 397.362 560.598 397.636 560.83 398.216 L 565.498 409.795 L 580.561 409.761 L 584.561 399.77 C 584.887 398.964 585.935 398.825 586.448 399.519 C 586.686 399.842 586.74 400.271 586.588 400.645 L 582.31 411.338 C 582.142 411.763 581.741 412.041 581.296 412.04 L 564.763 412.074 L 564.763 412.063 Z" style="" transform="matrix(1, 0, 0, 1, 1.1368683772161603e-13, 0)"/>
  <path d="M 561.71 425.103 C 561.632 425.103 561.543 425.103 561.454 425.069 C 560.863 424.923 560.499 424.309 560.641 423.699 L 563.693 410.647 C 563.838 410.037 564.417 409.657 565.019 409.807 C 565.61 409.956 565.977 410.566 565.832 411.176 L 562.78 424.229 C 562.658 424.739 562.218 425.098 561.71 425.103 Z M 585.095 425.103 C 584.616 425.103 584.182 424.781 584.037 424.298 L 580.227 411.211 C 580.052 410.61 580.38 409.977 580.962 409.795 C 581.545 409.607 582.163 409.95 582.332 410.555 L 586.143 423.642 C 586.352 424.368 585.828 425.099 585.095 425.103 Z M 590.722 288.849 C 583.213 288.849 577.107 280.907 577.107 271.147 C 577.107 261.387 583.213 253.445 590.722 253.445 C 598.231 253.445 604.336 261.387 604.336 271.147 C 604.336 280.907 598.231 288.849 590.722 288.849 Z M 590.722 255.712 C 584.427 255.712 579.302 262.63 579.302 271.135 C 579.302 279.641 584.427 286.57 590.722 286.57 C 597.016 286.57 602.141 279.653 602.141 271.135 C 602.141 262.618 597.016 255.712 590.722 255.712 Z" style="" transform="matrix(1, 0, 0, 1, 1.1368683772161603e-13, 0)"/>
  <path d="M 577.753 272.275 C 577.486 272.275 577.207 272.171 576.996 271.964 C 575.046 270.065 573.074 269.179 571.292 269.305 C 568.863 269.49 567.281 271.469 567.27 271.492 C 566.891 271.987 566.211 272.068 565.721 271.676 C 565.243 271.286 565.163 270.569 565.543 270.077 C 565.632 269.961 567.704 267.303 571.124 267.038 C 573.598 266.865 576.093 267.947 578.5 270.307 C 578.945 270.733 578.957 271.458 578.544 271.907 C 578.337 272.137 578.046 272.267 577.742 272.263 L 577.753 272.275 Z M 611.578 293.119 C 609.561 293.119 607.567 292.624 605.784 291.669 C 605.247 291.379 605.038 290.695 605.317 290.138 C 605.595 289.586 606.264 289.356 606.798 289.655 C 608.458 290.541 610.33 290.979 612.224 290.829 C 617.917 290.461 622.273 285.373 621.906 279.48 C 621.746 276.642 620.49 273.988 618.418 272.114 C 616.346 270.226 613.639 269.236 610.921 269.467 C 609.74 269.536 608.592 269.823 607.522 270.284 C 606.965 270.53 606.321 270.262 606.085 269.685 C 605.851 269.11 606.108 268.442 606.665 268.2 C 607.968 267.625 609.361 267.291 610.787 267.199 C 614.118 266.992 617.36 268.12 619.878 270.422 C 622.396 272.712 623.9 275.878 624.112 279.342 C 624.546 286.49 619.276 292.659 612.369 293.108 C 612.101 293.119 611.845 293.131 611.578 293.131 L 611.578 293.119 Z" style="" transform="matrix(1, 0, 0, 1, 1.1368683772161603e-13, 0)"/>
  <path d="M 614.107 287.295 C 613.873 287.295 613.639 287.215 613.438 287.054 L 605.706 280.884 C 605.431 280.669 605.27 280.332 605.272 279.975 C 605.272 279.618 605.439 279.285 605.718 279.077 L 614.263 272.551 C 614.75 272.169 615.446 272.278 615.8 272.793 C 616.165 273.297 616.06 274.012 615.566 274.381 L 608.191 280.021 L 614.775 285.27 C 615.254 285.649 615.344 286.363 614.976 286.858 C 614.764 287.146 614.43 287.307 614.107 287.307 L 614.107 287.295 Z M 532.364 293.119 C 532.097 293.119 531.841 293.119 531.585 293.096 C 528.231 292.878 525.167 291.324 522.95 288.723 C 520.743 286.144 519.621 282.765 519.831 279.331 C 520.042 275.866 521.546 272.701 524.064 270.41 C 526.582 268.12 529.824 266.992 533.155 267.188 C 534.582 267.28 535.963 267.613 537.278 268.189 C 537.835 268.431 538.102 269.098 537.857 269.674 C 537.623 270.249 536.988 270.525 536.42 270.272 C 535.339 269.8 534.203 269.524 533.022 269.455 C 530.236 269.259 527.596 270.215 525.513 272.102 C 523.437 273.973 522.18 276.628 522.025 279.469 C 521.847 282.323 522.761 285.074 524.588 287.215 C 526.398 289.359 528.969 290.657 531.718 290.817 C 533.568 290.967 535.473 290.53 537.133 289.643 C 537.671 289.35 538.337 289.567 538.615 290.127 C 538.893 290.691 538.681 291.37 538.147 291.658 C 536.364 292.613 534.381 293.108 532.364 293.108 L 532.364 293.119 Z" style="" transform="matrix(1, 0, 0, 1, 1.1368683772161603e-13, 0)"/>
  <path d="M 529.847 287.295 C 529.512 287.295 529.189 287.146 528.978 286.847 C 528.61 286.35 528.699 285.64 529.178 285.258 L 535.762 280.01 L 528.387 274.37 C 527.898 273.998 527.793 273.287 528.153 272.781 C 528.51 272.275 529.2 272.171 529.691 272.54 L 538.236 279.066 C 538.514 279.273 538.681 279.607 538.681 279.964 C 538.681 280.32 538.525 280.654 538.258 280.873 L 530.526 287.042 C 530.326 287.203 530.092 287.284 529.858 287.284 L 529.847 287.295 Z M 547.929 339.619 C 547.316 339.619 546.826 339.113 546.826 338.48 L 546.826 323.701 C 546.826 323.068 547.316 322.562 547.929 322.562 C 548.541 322.562 549.032 323.068 549.032 323.701 L 549.032 338.48 C 549.032 339.113 548.541 339.619 547.929 339.619 Z M 595.668 338.388 C 595.089 338.388 594.61 337.927 594.565 337.317 L 593.797 324 C 593.764 323.373 594.226 322.836 594.833 322.792 C 595.557 322.78 595.958 323.241 596.003 323.862 L 596.771 337.179 C 596.804 337.807 596.342 338.345 595.735 338.388 L 595.668 338.388 Z M 610.865 269.467 C 610.776 269.467 610.687 269.467 610.597 269.432 C 610.007 269.279 609.648 268.661 609.795 268.051 C 614.842 247.264 609.762 233.82 604.771 224.428 C 597.094 209.983 577.196 205.299 561.532 208.142 C 550.636 210.121 544.597 219.191 544.542 219.283 C 544.386 219.525 544.141 219.698 543.862 219.755 C 541.979 220.17 540.308 221.021 538.581 222.437 C 532.676 227.283 532.877 235.846 532.888 235.927 C 532.81 245.768 534.18 268.028 534.192 268.258 C 534.228 268.883 533.77 269.422 533.167 269.467 C 532.454 269.49 532.03 269.029 531.997 268.408 C 531.986 268.189 530.604 245.837 530.693 235.961 C 530.682 235.616 530.426 226.224 537.222 220.653 C 539.094 219.111 540.943 218.144 542.993 217.626 C 544.319 215.773 550.536 207.82 561.164 205.897 C 577.631 202.905 598.543 207.946 606.72 223.335 C 611.901 233.095 617.182 247.057 611.945 268.603 C 611.823 269.121 611.366 269.467 610.876 269.467 L 610.865 269.467 Z" style="" transform="matrix(1, 0, 0, 1, 1.1368683772161603e-13, 0)"/>
  <path d="M 492.446 18.32 C 492.208 18.318 491.978 18.238 491.788 18.09 C 491.302 17.714 491.207 17 491.577 16.502 C 494.128 13.003 496.824 9.561 499.576 6.27 C 499.966 5.798 500.668 5.74 501.125 6.155 C 501.582 6.569 501.637 7.282 501.236 7.754 C 498.497 11.039 495.858 14.414 493.326 17.872 C 493.119 18.158 492.792 18.325 492.446 18.32 Z M 508.979 -1.465 C 508.701 -1.465 508.422 -1.569 508.21 -1.787 C 507.778 -2.229 507.774 -2.95 508.199 -3.399 C 511.185 -6.529 514.305 -9.58 517.435 -12.445 C 517.89 -12.86 518.585 -12.814 518.984 -12.342 C 519.385 -11.87 519.34 -11.156 518.884 -10.742 C 515.775 -7.911 512.711 -4.895 509.748 -1.799 C 509.543 -1.581 509.261 -1.46 508.968 -1.465 L 508.979 -1.465 Z M 527.919 -18.787 C 527.585 -18.787 527.262 -18.937 527.05 -19.236 C 526.682 -19.732 526.772 -20.443 527.251 -20.825 C 530.604 -23.483 534.08 -26.062 537.601 -28.479 C 538.108 -28.828 538.793 -28.683 539.127 -28.157 C 539.461 -27.639 539.328 -26.925 538.815 -26.58 C 535.339 -24.197 531.897 -21.642 528.588 -19.018 C 528.387 -18.857 528.153 -18.787 527.919 -18.787 Z M 548.987 -33.244 C 548.138 -33.244 547.608 -34.193 548.032 -34.953 C 548.13 -35.128 548.272 -35.273 548.441 -35.373 C 552.118 -37.537 555.917 -39.586 559.716 -41.462 C 560.491 -41.816 561.348 -41.17 561.257 -40.298 C 561.218 -39.922 560.999 -39.589 560.674 -39.413 C 556.919 -37.56 553.165 -35.523 549.533 -33.394 C 549.366 -33.29 549.176 -33.244 548.987 -33.244 Z M 571.793 -44.558 C 571.358 -44.558 570.946 -44.834 570.768 -45.272 C 570.539 -45.853 570.816 -46.515 571.381 -46.745 C 575.291 -48.356 579.324 -49.853 583.357 -51.199 C 584.156 -51.473 584.944 -50.75 584.773 -49.899 C 584.693 -49.495 584.407 -49.169 584.026 -49.047 C 580.037 -47.712 576.06 -46.239 572.194 -44.639 C 572.06 -44.581 571.927 -44.558 571.782 -44.558 L 571.793 -44.558 Z M 595.847 -52.627 C 595.356 -52.627 594.911 -52.972 594.777 -53.478 C 594.625 -54.085 594.98 -54.704 595.568 -54.859 C 599.635 -55.93 603.812 -56.885 607.99 -57.714 C 608.586 -57.823 609.157 -57.418 609.272 -56.805 C 609.383 -56.183 608.993 -55.596 608.391 -55.481 C 604.269 -54.675 600.125 -53.72 596.103 -52.661 C 596.014 -52.638 595.925 -52.627 595.835 -52.627 L 595.847 -52.627 Z M 620.691 -57.541 C 619.842 -57.55 619.321 -58.505 619.753 -59.26 C 619.924 -59.558 620.216 -59.759 620.546 -59.809 C 624.68 -60.373 628.936 -60.822 633.192 -61.167 C 633.849 -61.247 634.328 -60.741 634.373 -60.12 C 634.42 -59.492 633.966 -58.945 633.359 -58.899 C 629.147 -58.566 624.925 -58.117 620.836 -57.553 L 620.691 -57.553 L 620.691 -57.541 Z M 672.809 -58.865 C 672.731 -58.865 671.127 -58.98 671.127 -58.98 C 670.52 -59.02 670.061 -59.561 670.102 -60.189 C 670.147 -60.81 670.693 -61.282 671.272 -61.247 L 672.876 -61.132 C 673.478 -61.086 673.935 -60.545 673.89 -59.924 C 673.857 -59.325 673.367 -58.865 672.798 -58.865 L 672.809 -58.865 Z M 645.904 -59.544 C 645.059 -59.53 644.517 -60.467 644.928 -61.229 C 645.119 -61.584 645.478 -61.805 645.87 -61.811 C 650.015 -61.927 654.248 -61.927 658.582 -61.834 C 659.195 -61.823 659.674 -61.305 659.652 -60.672 C 659.641 -60.039 659.162 -59.475 658.527 -59.556 C 654.226 -59.648 650.026 -59.636 645.926 -59.532 L 645.892 -59.532 L 645.904 -59.544 Z" style="" transform="matrix(1, 0, 0, 1, 1.1368683772161603e-13, 0)"/>
  <path d="M 1118.076 469.865 C 1117.842 469.865 1117.597 469.785 1117.396 469.624 C 1116.915 469.242 1116.83 468.527 1117.207 468.035 C 1119.803 464.594 1122.265 461.049 1124.526 457.492 C 1124.861 456.963 1125.54 456.825 1126.053 457.17 C 1126.565 457.515 1126.699 458.217 1126.365 458.747 C 1124.07 462.361 1121.563 465.952 1118.934 469.44 C 1118.722 469.727 1118.388 469.877 1118.065 469.877 L 1118.076 469.865 Z M 1131.98 448.043 C 1131.145 448.042 1130.615 447.121 1131.01 446.362 C 1133.016 442.552 1134.888 438.639 1136.57 434.726 C 1136.815 434.15 1137.472 433.897 1138.018 434.15 C 1138.575 434.403 1138.832 435.071 1138.575 435.647 C 1136.871 439.617 1134.977 443.588 1132.938 447.444 C 1132.737 447.824 1132.359 448.043 1131.969 448.043 L 1131.98 448.043 Z M 1142.23 424.183 C 1142.107 424.183 1141.985 424.16 1141.873 424.114 C 1141.296 423.91 1140.991 423.258 1141.193 422.663 C 1142.564 418.6 1143.801 414.422 1144.87 410.256 C 1145.026 409.646 1145.617 409.277 1146.207 409.45 C 1146.797 409.611 1147.143 410.233 1146.987 410.831 C 1145.906 415.067 1144.658 419.302 1143.255 423.412 C 1143.099 423.883 1142.675 424.171 1142.218 424.171 L 1142.23 424.183 Z M 1148.68 398.93 C 1147.889 398.803 1147.488 398.205 1147.6 397.583 C 1148.346 393.371 1148.948 389.043 1149.393 384.727 C 1149.46 384.105 1149.939 383.668 1150.608 383.714 C 1151.209 383.783 1151.644 384.347 1151.588 384.968 C 1151.131 389.342 1150.519 393.716 1149.772 397.986 C 1149.672 398.527 1149.215 398.918 1148.691 398.918 L 1148.68 398.93 Z M 1151.376 372.952 C 1150.73 372.929 1150.251 372.411 1150.274 371.778 C 1150.34 369.649 1150.374 367.519 1150.374 365.39 C 1150.374 363.261 1150.34 360.982 1150.262 358.772 C 1150.24 358.139 1150.719 357.621 1151.321 357.598 C 1151.967 357.598 1152.435 358.07 1152.457 358.691 C 1152.602 363.072 1152.605 367.455 1152.468 371.836 C 1152.446 372.446 1151.956 372.929 1151.365 372.929 L 1151.376 372.952 Z M 1150.496 346.836 C 1149.939 346.836 1149.46 346.399 1149.404 345.812 C 1148.981 341.519 1148.413 337.191 1147.711 332.932 C 1147.609 332.312 1148.013 331.724 1148.613 331.62 C 1149.26 331.482 1149.783 331.931 1149.884 332.552 C 1150.597 336.857 1151.165 341.231 1151.599 345.582 C 1151.664 346.205 1151.224 346.765 1150.619 346.825 L 1150.507 346.825 L 1150.496 346.836 Z M 1146.274 321.077 C 1145.772 321.077 1145.327 320.72 1145.204 320.202 C 1144.235 315.978 1143.121 311.754 1141.907 307.645 C 1141.726 307.044 1142.057 306.406 1142.642 306.229 C 1143.188 306.057 1143.834 306.379 1144.012 306.989 C 1145.238 311.144 1146.363 315.414 1147.343 319.684 C 1147.488 320.294 1147.121 320.904 1146.53 321.054 C 1146.452 321.077 1146.363 321.088 1146.274 321.088 L 1146.274 321.077 Z M 1138.854 296.077 C 1138.408 296.077 1137.996 295.801 1137.829 295.341 C 1136.325 291.266 1134.698 287.226 1132.982 283.336 C 1132.727 282.764 1132.972 282.087 1133.528 281.828 C 1134.082 281.57 1134.734 281.821 1134.988 282.392 C 1136.726 286.329 1138.386 290.403 1139.901 294.524 C 1140.115 295.112 1139.832 295.768 1139.266 295.997 C 1139.132 296.043 1138.999 296.066 1138.876 296.066 L 1138.854 296.077 Z M 1128.314 272.31 C 1127.924 272.31 1127.546 272.091 1127.345 271.711 C 1125.317 267.867 1123.156 264.103 1120.928 260.523 C 1120.596 259.997 1120.746 259.292 1121.262 258.958 C 1121.771 258.615 1122.454 258.77 1122.777 259.303 C 1125.039 262.917 1127.211 266.739 1129.272 270.629 C 1129.669 271.388 1129.138 272.308 1128.303 272.31 L 1128.314 272.31 Z M 1114.6 250.349 C 1114.265 250.349 1113.942 250.199 1113.719 249.9 C 1111.135 246.401 1108.427 243.04 1105.687 239.932 C 1105.276 239.472 1105.306 238.755 1105.754 238.332 C 1106.201 237.913 1106.891 237.944 1107.302 238.401 C 1110.099 241.567 1112.839 244.973 1115.469 248.53 C 1115.836 249.025 1115.747 249.739 1115.257 250.118 C 1115.056 250.268 1114.822 250.349 1114.588 250.349 L 1114.6 250.349 Z M 1097.531 231.081 C 1097.264 231.081 1097.008 230.989 1096.796 230.793 C 1093.69 227.903 1090.423 225.201 1087.014 222.702 C 1086.52 222.336 1086.405 221.626 1086.758 221.113 C 1087.103 220.596 1087.794 220.48 1088.295 220.837 C 1091.66 223.3 1095.014 226.086 1098.267 229.09 C 1098.724 229.504 1098.757 230.229 1098.356 230.69 C 1098.133 230.943 1097.832 231.07 1097.531 231.07 L 1097.531 231.081 Z M 1076.887 216.061 C 1076.72 216.061 1076.542 216.015 1076.374 215.934 C 1072.688 213.937 1068.855 212.243 1064.91 210.87 C 1064.33 210.675 1064.019 210.026 1064.219 209.431 C 1064.409 208.832 1065.033 208.51 1065.612 208.717 C 1069.556 210.075 1073.511 211.825 1077.388 213.92 C 1077.934 214.208 1078.135 214.898 1077.856 215.451 C 1077.656 215.842 1077.277 216.061 1076.887 216.061 Z M 1052.978 207.912 C 1048.7 207.302 1044.544 207.117 1040.433 207.371 C 1039.809 207.428 1039.308 206.933 1039.263 206.3 C 1039.229 205.674 1039.693 205.138 1040.299 205.103 C 1044.555 204.838 1048.867 205.023 1053.134 205.644 C 1053.974 205.78 1054.356 206.804 1053.823 207.487 C 1053.616 207.752 1053.307 207.907 1052.978 207.912 Z" class="l_white" style="fill: rgb(255, 255, 255);" transform="matrix(1, 0, 0, 1, 1.1368683772161603e-13, 0)"/>
  <path d="M 670.013 677.228 C 669.4 677.228 668.91 676.721 668.91 676.088 C 668.91 675.409 668.888 607.236 667.105 583.019 C 667.063 582.394 667.514 581.85 668.119 581.799 C 668.832 581.684 669.255 582.225 669.3 582.847 C 671.094 607.156 671.116 675.398 671.116 676.088 C 671.116 676.721 670.626 677.228 670.013 677.228 Z M 469.54 677.228 C 468.916 677.228 468.437 676.698 468.437 676.077 L 469.061 629.496 C 469.061 628.875 469.562 628.38 470.164 628.38 C 470.787 628.38 471.266 628.909 471.266 629.531 L 470.643 676.111 C 470.643 676.733 470.141 677.228 469.54 677.228 Z" style="" transform="matrix(1, 0, 0, 1, 1.1368683772161603e-13, 0)"/>
  <path d="M 862.71 677.228 L -10.041 677.228 C -10.654 677.228 -11.144 676.721 -11.144 676.088 C -11.144 675.455 -10.654 674.949 -10.041 674.949 L 862.71 674.949 C 863.323 674.949 863.813 675.455 863.813 676.088 C 863.813 676.721 863.323 677.228 862.71 677.228 Z M 573.687 659.917 C 573.074 659.917 572.584 659.411 572.584 658.777 L 572.584 609.055 C 572.584 608.422 573.074 607.915 573.687 607.915 C 574.3 607.915 574.79 608.422 574.79 609.055 L 574.79 658.777 C 574.79 659.411 574.3 659.917 573.687 659.917 Z M 605.395 583.33 C 604.414 583.238 603.222 583.134 601.785 583.019 C 585.285 581.673 569.531 579.566 565.933 573.282 C 564.997 571.648 564.941 569.863 565.766 567.964 C 569.687 558.941 571.804 538.096 566.98 529.452 C 565.676 527.116 564.028 525.873 561.933 525.642 C 559.983 525.424 558.49 525.884 557.309 526.989 C 553.722 530.362 553.8 539.351 553.856 544.726 C 553.856 545.635 553.867 546.464 553.856 547.201 C 553.733 557.916 535.629 565.858 534.86 566.192 C 534.3 566.431 533.659 566.158 533.423 565.582 C 533.191 565.004 533.455 564.341 534.013 564.097 C 534.192 564.028 551.549 556.408 551.661 547.177 L 551.661 544.76 C 551.605 538.637 551.516 529.383 555.839 525.32 C 557.488 523.766 559.638 523.122 562.167 523.387 C 564.975 523.686 567.236 525.343 568.896 528.324 C 574.199 537.843 571.882 559.505 567.782 568.908 C 567.258 570.128 567.27 571.153 567.827 572.142 C 571.336 578.266 592.794 580.015 601.952 580.763 C 603.4 580.878 604.615 580.982 605.495 581.074 C 606.098 581.141 606.539 581.693 606.486 582.317 C 606.431 582.904 605.952 583.342 605.395 583.342 L 605.395 583.33 Z M 583.224 596.497 C 577.564 596.497 571.058 596.002 563.548 594.817 C 562.947 594.725 562.535 594.138 562.624 593.516 C 562.713 592.895 563.248 592.457 563.872 592.561 C 607.177 599.375 616.413 582.559 616.491 582.386 C 616.781 581.834 617.449 581.615 617.973 581.914 C 618.508 582.202 618.719 582.881 618.43 583.445 C 618.118 584.078 611.489 596.486 583.201 596.486 L 583.224 596.497 Z" style="" transform="matrix(1, 0, 0, 1, 1.1368683772161603e-13, 0)"/>
  <path d="M 573.041 609.561 C 569.721 609.561 566.367 609.435 562.891 609.308 C 560.618 609.227 558.268 609.135 555.828 609.078 C 552.675 608.997 549.488 608.744 546.358 608.318 L 544.92 608.134 C 542.414 607.812 539.584 607.466 537.222 606.396 C 534.091 604.969 532.409 602.229 531.284 599.996 C 531.005 599.437 531.22 598.751 531.763 598.466 C 532.304 598.178 532.968 598.4 533.245 598.961 C 534.671 601.826 536.13 603.426 538.102 604.324 C 540.163 605.256 542.715 605.579 545.177 605.889 L 546.636 606.074 C 549.689 606.488 552.786 606.741 555.861 606.81 C 558.323 606.868 560.674 606.96 562.958 607.04 C 575.614 607.512 585.597 607.869 598.977 603.035 C 605.907 600.526 612.413 591.376 612.413 587.278 C 612.413 586.645 612.904 586.139 613.516 586.139 C 614.129 586.139 614.619 586.645 614.619 587.278 C 614.619 592.619 607.255 602.448 599.713 605.176 C 589.819 608.755 581.508 609.573 573.041 609.573 L 573.041 609.561 Z M 728.771 566.744 C 725.451 566.744 722.231 566.353 719.201 565.513 C 705.62 561.807 695.393 556.903 686.056 549.629 C 685.575 549.25 685.48 548.54 685.845 548.041 C 686.212 547.534 686.903 547.442 687.382 547.822 C 696.484 554.912 706.478 559.689 719.769 563.326 C 732.938 566.905 750.73 561.622 762.094 550.734 C 775.787 537.601 776.4 515.537 776.946 496.05 C 777.068 491.539 777.191 487.268 777.458 483.205 C 779.241 456.537 775.141 391.264 775.096 390.608 C 775.064 389.984 775.518 389.448 776.121 389.4 C 776.745 389.423 777.246 389.837 777.291 390.459 C 777.335 391.115 781.435 456.549 779.642 483.355 C 779.374 487.384 779.263 491.619 779.129 496.108 C 778.583 516.032 777.959 538.603 763.587 552.391 C 754.117 561.461 740.848 566.744 728.782 566.744 L 728.771 566.744 Z" style="" transform="matrix(1, 0, 0, 1, 1.1368683772161603e-13, 0)"/>
  <path d="M 704.874 531.559 C 704.406 531.559 703.971 531.248 703.826 530.764 C 696.796 507.652 702.133 394.384 702.356 389.572 C 702.389 388.951 702.957 388.502 703.514 388.49 C 704.127 388.525 704.584 389.054 704.562 389.687 C 704.506 390.861 699.013 507.353 705.932 530.085 C 706.108 530.686 705.786 531.321 705.208 531.513 C 705.096 531.547 704.985 531.559 704.874 531.559 Z M 611.578 293.119 C 609.561 293.119 607.567 292.624 605.784 291.669 C 605.247 291.379 605.038 290.695 605.317 290.138 C 605.595 289.586 606.264 289.356 606.798 289.655 C 608.458 290.541 610.33 290.979 612.224 290.829 C 617.917 290.461 622.273 285.373 621.906 279.48 C 621.746 276.642 620.49 273.988 618.418 272.114 C 616.346 270.226 613.639 269.236 610.921 269.467 C 609.74 269.536 608.592 269.823 607.522 270.284 C 606.965 270.53 606.321 270.262 606.085 269.685 C 605.851 269.11 606.108 268.442 606.665 268.2 C 607.968 267.625 609.361 267.291 610.787 267.199 C 614.118 266.992 617.36 268.12 619.878 270.422 C 622.396 272.712 623.9 275.878 624.112 279.342 C 624.546 286.49 619.276 292.659 612.369 293.108 C 612.101 293.119 611.845 293.131 611.578 293.131 L 611.578 293.119 Z" style="" transform="matrix(1, 0, 0, 1, 1.1368683772161603e-13, 0)"/>
  <path d="M 614.107 287.295 C 613.873 287.295 613.639 287.215 613.438 287.054 L 605.706 280.884 C 605.431 280.669 605.27 280.332 605.272 279.975 C 605.272 279.618 605.439 279.285 605.718 279.077 L 614.263 272.551 C 614.75 272.169 615.446 272.278 615.8 272.793 C 616.165 273.297 616.06 274.012 615.566 274.381 L 608.191 280.021 L 614.775 285.27 C 615.254 285.649 615.344 286.363 614.976 286.858 C 614.764 287.146 614.43 287.307 614.107 287.307 L 614.107 287.295 Z M 532.364 293.119 C 532.097 293.119 531.841 293.119 531.585 293.096 C 528.231 292.878 525.167 291.324 522.95 288.723 C 520.743 286.144 519.621 282.765 519.831 279.331 C 520.042 275.866 521.546 272.701 524.064 270.41 C 526.582 268.12 529.824 266.992 533.155 267.188 C 534.582 267.28 535.963 267.613 537.278 268.189 C 537.835 268.431 538.102 269.098 537.857 269.674 C 537.623 270.249 536.988 270.525 536.42 270.272 C 535.339 269.8 534.203 269.524 533.022 269.455 C 530.236 269.259 527.596 270.215 525.513 272.102 C 523.437 273.973 522.18 276.628 522.025 279.469 C 521.847 282.323 522.761 285.074 524.588 287.215 C 526.398 289.359 528.969 290.657 531.718 290.817 C 533.568 290.967 535.473 290.53 537.133 289.643 C 537.671 289.35 538.337 289.567 538.615 290.127 C 538.893 290.691 538.681 291.37 538.147 291.658 C 536.364 292.613 534.381 293.108 532.364 293.108 L 532.364 293.119 Z" style="" transform="matrix(1, 0, 0, 1, 1.1368683772161603e-13, 0)"/>
  <path d="M 529.847 287.295 C 529.512 287.295 529.189 287.146 528.978 286.847 C 528.61 286.35 528.699 285.64 529.178 285.258 L 535.762 280.01 L 528.387 274.37 C 527.898 273.998 527.793 273.287 528.153 272.781 C 528.51 272.275 529.2 272.171 529.691 272.54 L 538.236 279.066 C 538.514 279.273 538.681 279.607 538.681 279.964 C 538.681 280.32 538.525 280.654 538.258 280.873 L 530.526 287.042 C 530.326 287.203 530.092 287.284 529.858 287.284 L 529.847 287.295 Z M 547.929 339.619 C 547.316 339.619 546.826 339.113 546.826 338.48 L 546.826 323.701 C 546.826 323.068 547.316 322.562 547.929 322.562 C 548.541 322.562 549.032 323.068 549.032 323.701 L 549.032 338.48 C 549.032 339.113 548.541 339.619 547.929 339.619 Z M 595.668 338.388 C 595.089 338.388 594.61 337.927 594.565 337.317 L 593.797 324 C 593.764 323.373 594.226 322.836 594.833 322.792 C 595.557 322.78 595.958 323.241 596.003 323.862 L 596.771 337.179 C 596.804 337.807 596.342 338.345 595.735 338.388 L 595.668 338.388 Z M 610.865 269.467 C 610.776 269.467 610.687 269.467 610.597 269.432 C 610.007 269.279 609.648 268.661 609.795 268.051 C 614.842 247.264 609.762 233.82 604.771 224.428 C 597.094 209.983 577.196 205.299 561.532 208.142 C 550.636 210.121 544.597 219.191 544.542 219.283 C 544.386 219.525 544.141 219.698 543.862 219.755 C 541.979 220.17 540.308 221.021 538.581 222.437 C 532.676 227.283 532.877 235.846 532.888 235.927 C 532.81 245.768 534.18 268.028 534.192 268.258 C 534.228 268.883 533.77 269.422 533.167 269.467 C 532.454 269.49 532.03 269.029 531.997 268.408 C 531.986 268.189 530.604 245.837 530.693 235.961 C 530.682 235.616 530.426 226.224 537.222 220.653 C 539.094 219.111 540.943 218.144 542.993 217.626 C 544.319 215.773 550.536 207.82 561.164 205.897 C 577.631 202.905 598.543 207.946 606.72 223.335 C 611.901 233.095 617.182 247.057 611.945 268.603 C 611.823 269.121 611.366 269.467 610.876 269.467 L 610.865 269.467 Z" style="" transform="matrix(1, 0, 0, 1, 1.1368683772161603e-13, 0)"/>
  <path d="M 739.812 400.691 C 721.195 400.691 702.356 397.203 702.356 390.528 C 702.356 386.603 706.389 383.91 714.7 382.298 C 715.335 382.206 715.87 382.586 715.981 383.207 C 716.093 383.829 715.703 384.416 715.101 384.543 C 710.288 385.475 704.551 387.27 704.551 390.539 C 704.551 393.808 717.964 398.435 739.812 398.435 C 761.66 398.435 775.074 393.843 775.074 390.539 C 775.074 388.134 771.275 385.889 764.913 384.543 C 764.317 384.414 763.934 383.813 764.055 383.196 C 764.178 382.586 764.735 382.195 765.359 382.31 C 775.208 384.404 777.28 387.938 777.28 390.539 C 777.28 397.215 758.429 400.702 739.812 400.702 L 739.812 400.691 Z" style="" transform="matrix(1, 0, 0, 1, 1.1368683772161603e-13, 0)"/>
  <path d="M 716.126 398.516 C 715.58 398.516 715.123 398.101 715.034 397.549 C 714.878 396.409 714.8 394.994 714.734 393.348 C 714.344 385.049 713.675 371.157 700.607 359.416 C 691.304 351.06 687.115 344.787 687.415 339.7 C 687.594 336.788 689.243 334.279 692.485 332.034 C 700.239 326.648 705.798 333.277 710.712 339.113 C 714.299 343.383 718.009 347.803 722.477 348.125 C 734.554 349.011 738.698 361.189 738.865 361.707 C 739.066 362.305 738.754 362.95 738.174 363.146 C 737.6 363.342 736.978 363.024 736.782 362.432 C 736.626 361.972 732.916 351.164 722.321 350.381 C 716.951 349.99 712.94 345.213 709.052 340.598 C 704.116 334.716 699.849 329.652 693.71 333.91 C 691.047 335.752 689.744 337.64 689.61 339.827 C 689.354 344.097 693.421 349.932 702.044 357.69 C 715.825 370.063 716.538 385.13 716.917 393.221 C 716.995 394.809 717.062 396.191 717.196 397.203 C 717.285 397.825 716.861 398.4 716.271 398.493 C 716.215 398.493 716.16 398.504 716.115 398.504 L 716.126 398.516 Z" style="" transform="matrix(1, 0, 0, 1, 1.1368683772161603e-13, 0)"/>
  <path d="M 717.931 348.079 C 717.363 348.079 716.873 347.63 716.839 347.032 C 716.249 338.929 716.65 332.357 717.129 324.749 C 717.374 320.766 717.652 316.254 717.82 311.006 C 717.92 308.025 718.288 303.743 720.36 300.935 C 722.677 297.804 726.387 296.193 730.097 296.757 C 733.038 297.182 735.512 299.059 736.381 301.533 C 736.815 302.753 736.86 304.042 736.893 305.078 C 737.261 316.427 737.35 332.852 735.735 346.675 C 735.668 347.297 735.166 347.734 734.509 347.665 C 733.905 347.591 733.474 347.023 733.551 346.399 C 735.155 332.725 735.055 316.415 734.687 305.147 C 734.654 304.042 734.598 303.133 734.308 302.316 C 733.707 300.624 731.924 299.323 729.774 299.001 C 726.844 298.575 723.925 299.841 722.098 302.316 C 720.404 304.606 720.092 308.416 720.003 311.086 C 719.836 316.369 719.558 320.893 719.301 324.898 C 718.811 332.725 718.432 338.906 719.012 346.859 C 719.058 347.485 718.604 348.032 717.998 348.079 L 717.909 348.079 L 717.931 348.079 Z" style="" transform="matrix(1, 0, 0, 1, 1.1368683772161603e-13, 0)"/>
  <path d="M 750.051 347.423 C 749.316 347.343 748.881 346.779 748.959 346.146 C 750.485 333.082 750.831 319.063 749.984 304.457 C 749.906 303.064 749.783 301.844 749.215 300.946 C 748.268 299.461 746.107 298.713 744.503 298.656 C 742.843 298.575 738.754 298.978 736.704 303.801 C 736.459 304.376 735.801 304.629 735.255 304.388 C 734.698 304.134 734.453 303.467 734.687 302.891 C 736.481 298.656 740.224 296.239 744.581 296.377 C 746.809 296.457 749.683 297.516 751.065 299.692 C 752.001 301.165 752.112 302.983 752.19 304.307 C 753.048 319.051 752.702 333.208 751.154 346.41 C 751.087 346.986 750.608 347.412 750.062 347.412 L 750.051 347.423 Z" style="" transform="matrix(1, 0, 0, 1, 1.1368683772161603e-13, 0)"/>
  <path d="M 763.465 397.975 C 762.718 397.883 762.295 397.319 762.373 396.697 C 764.189 382.264 763.287 371.79 762.64 364.136 C 762.273 359.888 761.983 356.539 762.317 353.961 C 763.721 342.923 766.283 322.815 764.735 309.579 C 764.501 307.564 764.144 305.297 762.819 303.847 C 761.693 302.604 759.822 301.994 757.883 302.212 C 755.588 302.488 753.772 303.041 752.413 304.894 C 752.045 305.389 751.354 305.481 750.864 305.101 C 750.385 304.714 750.295 304.002 750.664 303.501 C 752.613 300.877 755.287 300.233 757.638 299.956 C 760.256 299.622 762.819 300.52 764.434 302.304 C 766.206 304.261 766.64 306.943 766.919 309.314 C 768.501 322.838 765.916 343.13 764.523 354.03 C 764.189 356.608 764.479 359.842 764.824 363.951 C 765.492 371.709 766.406 382.321 764.557 397.008 C 764.49 397.583 764.011 397.998 763.465 397.998 L 763.465 397.975 Z M 542.681 630.429 C 536.086 630.429 531.651 611.944 530.816 594.368 C 529.969 576.631 532.688 557.605 539.383 557.26 C 540.542 557.306 543.283 558.653 543.305 558.676 C 543.851 558.964 544.063 559.643 543.784 560.207 C 543.506 560.771 542.837 560.989 542.302 560.702 C 541.567 560.31 539.84 559.574 539.428 559.539 C 536.097 559.712 531.997 573.006 533.011 594.264 C 534.013 615.374 539.294 628.161 542.681 628.161 C 543.628 628.115 548.085 626.907 548.909 607.432 C 548.931 606.81 549.488 606.327 550.057 606.35 C 550.658 606.384 551.126 606.914 551.104 607.535 C 550.313 626.147 546.179 630.256 542.848 630.429 L 542.67 630.429 L 542.681 630.429 Z" style="" transform="matrix(1, 0, 0, 1, 1.1368683772161603e-13, 0)"/>
  <path d="M 538.292 559.539 C 534.314 559.136 530.459 558.756 526.593 558.377 C 511.185 556.869 495.264 555.303 479.656 552.288 C 461.206 548.72 442.21 543.529 419.861 535.944 C 419.285 535.75 418.971 535.112 419.159 534.517 C 419.349 533.918 419.962 533.596 420.541 533.791 C 442.79 541.342 461.707 546.521 480.057 550.066 C 495.565 553.071 511.441 554.624 526.805 556.132 C 530.66 556.512 534.526 556.892 538.403 557.295 C 539.006 557.361 539.447 557.914 539.394 558.538 C 539.339 559.125 538.86 559.562 538.303 559.562 L 538.292 559.539 Z M 153.031 592.642 C 113.759 592.642 73.116 538.902 51.023 486.566 C 50.867 486.187 50.912 485.749 51.157 485.415 C 51.235 485.3 59.658 474.044 72.782 464.824 C 90.207 452.578 99.677 448.906 100.078 448.745 C 100.49 448.595 100.936 448.699 101.236 449.01 C 101.749 449.539 152.263 501.978 167.816 534.183 C 168.082 534.742 167.864 535.42 167.325 535.702 C 166.781 535.982 166.12 535.756 165.844 535.196 C 151.282 505.051 105.548 456.756 100.189 451.139 C 97.771 452.175 88.669 456.41 74.019 466.689 C 62.788 474.585 55.09 483.977 53.296 486.267 C 76.236 540.272 118.928 595.634 158.613 589.96 C 200.838 583.998 218.731 527.496 237.726 454.27 C 237.882 453.66 238.484 453.314 239.074 453.464 C 239.665 453.625 240.01 454.247 239.854 454.857 C 220.647 528.911 202.487 586.058 158.925 592.216 C 156.964 592.492 155.003 592.63 153.031 592.63 L 153.031 592.642 Z" style="" transform="matrix(1, 0, 0, 1, 1.1368683772161603e-13, 0)"/>
  <path d="M 144.375 501.621 C 144.219 501.621 144.074 501.587 143.918 501.518 C 143.36 501.261 143.114 500.582 143.372 500.01 C 148.129 489.099 152.508 478.337 156.753 467.92 C 176.116 420.327 191.401 382.736 222.251 379.927 C 222.831 379.881 223.388 380.33 223.443 380.963 C 223.497 381.59 223.048 382.143 222.441 382.195 C 192.917 384.888 177.854 421.927 158.78 468.807 C 154.535 479.235 150.146 490.019 145.377 500.954 C 145.199 501.368 144.798 501.621 144.375 501.621 Z M 238.963 343.521 C 237.403 343.521 235.843 343.234 234.339 342.647 C 231.821 341.668 229.693 339.942 228.178 337.651 C 227.835 337.133 227.965 336.427 228.468 336.074 C 228.969 335.72 229.653 335.855 229.994 336.374 C 231.249 338.267 233.039 339.714 235.119 340.517 C 237.838 341.576 240.79 341.484 243.442 340.241 C 246.093 339.009 248.11 336.776 249.146 333.968 C 251.263 328.167 248.422 321.675 242.807 319.477 C 239.293 318.096 235.336 318.697 232.356 321.065 C 231.874 321.448 231.183 321.35 230.819 320.847 C 230.449 320.35 230.544 319.635 231.03 319.258 C 234.651 316.404 239.342 315.69 243.598 317.348 C 250.349 319.984 253.758 327.799 251.218 334.762 C 249.997 338.121 247.532 340.837 244.366 342.313 C 242.651 343.118 240.823 343.521 238.985 343.521 L 238.963 343.521 Z" style="" transform="matrix(1, 0, 0, 1, 1.1368683772161603e-13, 0)"/>
  <path d="M 239.854 337.467 C 239.52 337.467 239.186 337.306 238.963 337.007 L 233.147 328.754 C 232.938 328.455 232.879 328.069 232.991 327.718 C 233.103 327.373 233.381 327.097 233.727 326.993 L 243.642 324.035 C 244.227 323.862 244.837 324.213 245.001 324.818 C 245.169 325.418 244.835 326.046 244.255 326.222 L 235.843 328.731 L 240.734 335.672 C 241.232 336.383 240.798 337.383 239.953 337.473 C 239.917 337.476 239.88 337.479 239.843 337.479 L 239.854 337.467 Z M 220.747 361.972 C 214.207 361.35 209.617 358.875 207.032 354.617 C 202.208 346.686 206.119 335.556 206.286 335.085 L 215.087 297.908 C 215.232 297.297 215.801 296.929 216.413 297.067 C 217.004 297.217 217.36 297.838 217.215 298.448 L 208.381 335.752 C 208.303 335.982 204.637 346.433 208.893 353.408 C 211.099 357.034 215.121 359.152 220.847 359.693 C 221.449 359.75 221.895 360.303 221.839 360.924 C 221.783 361.511 221.304 361.96 220.747 361.96 L 220.747 361.972 Z" style="" transform="matrix(1, 0, 0, 1, 1.1368683772161603e-13, 0)"/>
  <path d="M 205.941 330.147 C 204.227 330.147 202.647 329.191 201.807 327.649 C 201.183 326.51 201.027 325.186 201.373 323.931 L 206.832 303.824 C 207.545 301.211 210.174 299.703 212.681 300.428 C 215.188 301.153 216.213 303.052 215.511 305.631 C 215.344 306.241 214.742 306.609 214.152 306.413 C 213.569 306.246 213.226 305.625 213.383 305.021 C 213.762 303.628 213.416 303.006 212.079 302.615 C 210.731 302.235 209.316 303.041 208.938 304.445 L 203.478 324.553 C 203.3 325.221 203.378 325.934 203.712 326.544 C 204.047 327.154 204.593 327.603 205.239 327.787 C 205.885 327.971 206.576 327.891 207.177 327.546 C 207.768 327.2 208.202 326.636 208.381 325.969 C 208.548 325.37 209.16 325.013 209.74 325.186 C 210.33 325.359 210.664 325.98 210.508 326.579 C 209.932 328.693 208.066 330.155 205.941 330.158 L 205.941 330.147 Z M 152.92 677.366 C 152.17 677.365 151.643 676.604 151.884 675.87 C 153.945 669.516 165.287 601.976 166.546 590.075 C 166.612 589.442 167.147 589.004 167.76 589.074 C 168.362 589.143 168.796 589.707 168.729 590.328 C 167.381 603.001 156.095 670 153.967 676.595 C 153.811 677.067 153.388 677.366 152.92 677.366 Z M 316.293 562.002 C 311.737 562.002 308.974 560.529 308.717 560.391 C 308.184 560.096 307.984 559.41 308.272 558.86 C 308.557 558.31 309.218 558.1 309.754 558.388 C 310.322 558.699 323.847 565.697 342.052 544.484 C 358.908 524.825 331.234 462.867 318.555 437.143 C 318.281 436.583 318.495 435.9 319.034 435.612 C 319.575 435.318 320.244 435.542 320.516 436.107 C 336.515 468.576 360.813 526.022 343.701 545.98 C 332.404 559.159 322.633 561.991 316.305 561.991 L 316.293 562.002 Z" style="" transform="matrix(1, 0, 0, 1, 1.1368683772161603e-13, 0)"/>
  <path d="M 320.739 677.366 C 320.215 677.366 319.758 676.986 319.658 676.434 C 319.513 675.582 304.74 591.122 308.951 548.524 C 313.051 507.158 314.355 471.465 312.728 445.315 C 312.687 444.689 313.147 444.147 313.753 444.106 C 314.366 444.106 314.879 444.544 314.923 445.165 C 316.55 471.442 315.246 507.261 311.135 548.754 C 306.946 591.03 321.663 675.191 321.819 676.031 C 321.931 676.641 321.53 677.239 320.939 677.354 C 320.872 677.366 320.806 677.366 320.739 677.366 Z M 199.69 392.036 C 199.534 392.036 199.378 392.001 199.234 391.932 C 199.167 391.897 197.652 391.218 191.134 389.457 C 180.316 386.545 175.681 380.848 171.203 375.346 L 169.721 373.539 C 168.596 372.192 167.192 370.846 165.844 369.545 C 162.513 366.345 159.36 363.318 159.382 359.727 C 159.393 357.805 160.318 356.033 162.178 354.295 C 163.482 353.086 165.019 352.522 166.835 352.626 C 171.96 352.925 177.464 358.749 179.592 361.235 C 181.642 363.629 183.38 365.356 184.628 366.437 C 182.778 363.974 179.024 360.084 176.294 357.253 L 173.932 354.789 C 171.37 352.096 166.456 348.309 162.123 344.96 C 158.023 341.795 154.48 339.067 153.132 337.467 C 151.561 335.614 151.628 332.46 153.31 329.606 C 154.747 327.143 157.555 324.841 161.12 325.715 C 166.534 327.062 173.331 333.174 176.985 336.454 C 177.553 336.961 178.021 337.386 178.366 337.686 C 179.347 336.73 180.929 335.2 183.814 334.693 C 190.276 333.542 193.852 335.246 195.279 336.224 C 196.393 335.533 198.688 334.428 201.373 334.935 C 202.699 335.188 205.294 335.959 206.665 336.581 C 207.222 336.834 207.478 337.502 207.222 338.077 C 206.977 338.653 206.331 338.906 205.773 338.664 C 204.581 338.123 202.141 337.386 200.972 337.168 C 198.198 336.65 195.936 338.48 195.914 338.503 C 195.479 338.871 194.833 338.825 194.443 338.411 C 194.421 338.399 191.535 335.602 184.182 336.915 C 181.954 337.306 180.784 338.445 180.004 339.194 C 179.436 339.746 178.578 340.586 177.586 339.907 C 177.252 339.677 176.528 339.032 175.536 338.146 C 172.283 335.211 165.498 329.122 160.596 327.902 C 158.201 327.292 156.218 328.984 155.182 330.768 C 154.045 332.713 153.878 334.889 154.781 335.959 C 155.984 337.375 159.605 340.172 163.437 343.13 C 167.838 346.525 172.818 350.37 175.503 353.19 L 177.854 355.641 C 183.937 361.949 187.647 365.943 187.914 368.049 C 188.059 369.28 187.379 369.741 187.079 369.867 C 186.555 370.121 184.928 370.88 177.943 362.731 C 173.888 358.001 169.687 355.066 166.702 354.893 C 165.521 354.847 164.507 355.181 163.638 355.975 C 162.256 357.264 161.577 358.496 161.566 359.739 C 161.543 362.328 164.351 365.022 167.325 367.876 C 168.718 369.223 170.166 370.604 171.381 372.054 L 172.885 373.884 C 177.341 379.352 181.553 384.52 191.691 387.259 C 198.431 389.089 200.002 389.803 200.158 389.872 C 200.925 390.24 201.018 391.328 200.325 391.829 C 200.139 391.965 199.918 392.037 199.69 392.036 Z" style="" transform="matrix(1, 0, 0, 1, 1.1368683772161603e-13, 0)"/>
  <path d="M 192.616 354.214 C 192.248 354.217 191.904 354.026 191.702 353.708 C 188.282 348.39 177.631 339.965 177.531 339.884 C 177.049 339.505 176.955 338.795 177.319 338.296 C 177.687 337.801 178.377 337.709 178.857 338.077 C 179.302 338.434 189.909 346.825 193.529 352.453 C 193.864 352.971 193.73 353.685 193.217 354.03 C 193.028 354.156 192.816 354.214 192.605 354.214 L 192.616 354.214 Z M 205.528 347.964 C 205.224 347.968 204.933 347.837 204.726 347.607 C 200.771 343.222 194.644 338.607 194.577 338.56 C 194.085 338.191 193.976 337.481 194.332 336.972 C 194.689 336.465 195.377 336.352 195.869 336.719 C 196.125 336.915 202.219 341.507 206.331 346.065 C 206.743 346.525 206.72 347.239 206.275 347.665 C 206.063 347.872 205.796 347.976 205.528 347.976 L 205.528 347.964 Z M 290.168 457.872 C 286.602 457.872 282.981 457.331 279.55 456.226 C 271.818 453.74 266.08 448.768 263.407 442.23 C 260.989 436.337 260.053 429.938 259.151 423.745 C 258.95 422.353 258.75 420.971 258.527 419.59 C 256.922 409.438 254.349 399.505 246.483 395.569 C 244.043 394.349 241.414 393.727 238.874 393.129 C 234.718 392.139 230.418 391.126 226.808 387.524 C 221.895 382.609 219.421 375.519 219.644 367.024 C 220.134 348.666 234.763 341.426 234.908 341.357 C 235.458 341.082 236.119 341.333 236.367 341.91 C 236.623 342.474 236.389 343.153 235.843 343.418 C 235.286 343.694 222.296 350.174 221.839 367.094 C 221.694 372.561 222.708 380.261 228.334 385.901 C 231.498 389.066 235.309 389.975 239.353 390.931 C 242.016 391.564 244.767 392.208 247.419 393.543 C 256.198 397.94 258.972 408.495 260.677 419.245 C 260.9 420.638 261.1 422.03 261.301 423.423 C 262.181 429.477 263.095 435.727 265.401 441.367 C 267.83 447.283 273.077 451.795 280.185 454.074 C 288.831 456.859 298.735 455.823 305.42 451.45 C 309.709 448.641 313.608 444.36 317.018 438.731 C 326.042 423.837 327.602 409.105 322.421 387.892 C 316.36 363.054 306.846 353.454 296.774 343.303 C 294.513 341.024 292.173 338.664 289.833 336.097 C 288.608 334.751 287.338 333.082 287.215 330.987 C 287.07 328.397 288.541 325.554 289.722 323.275 C 289.956 322.815 290.19 322.378 290.39 321.963 L 291.259 320.202 C 292.362 317.981 293.51 315.69 294.368 313.342 C 296.863 306.586 297.599 300.117 296.551 294.121 C 294.223 280.792 270.515 275.325 270.269 275.268 C 270.082 275.227 269.91 275.135 269.768 275.003 C 258.46 264.632 238.606 258.532 224.97 266.29 C 211.857 273.737 215.321 289.943 215.366 290.104 C 215.377 291.059 215.433 307.115 239.609 316.577 C 240.177 316.795 240.467 317.451 240.244 318.05 C 240.032 318.625 239.386 318.936 238.829 318.706 C 213.115 308.635 213.182 291.082 213.193 290.334 C 213.16 290.334 209.405 272.551 223.911 264.31 C 238.317 256.115 259.106 262.342 271.016 273.127 C 273.946 273.829 296.251 279.607 298.713 293.729 C 299.827 300.14 299.058 307.023 296.429 314.171 C 295.526 316.634 294.345 318.994 293.22 321.261 L 292.351 322.999 C 292.139 323.425 291.906 323.885 291.66 324.357 C 290.613 326.383 289.299 328.904 289.41 330.86 C 289.488 332.23 290.479 333.496 291.426 334.544 C 293.733 337.076 296.05 339.412 298.301 341.68 C 308.595 352.073 318.321 361.891 324.549 387.339 C 329.897 409.231 328.248 424.47 318.878 439.94 C 315.302 445.856 311.169 450.368 306.59 453.372 C 302.055 456.341 296.173 457.895 290.134 457.895 L 290.168 457.872 Z M 118.104 578.484 C 117.959 578.484 117.825 578.461 117.681 578.392 C 117.118 578.154 116.849 577.49 117.079 576.908 C 122.728 562.773 136.509 553.991 153.043 553.991 C 169.576 553.991 182.656 562.509 188.705 576.228 C 188.962 576.804 188.705 577.472 188.159 577.736 C 187.606 577.989 186.957 577.74 186.7 577.172 C 181.018 564.27 168.116 556.259 153.043 556.259 C 137.969 556.259 124.41 564.5 119.107 577.771 C 118.928 578.208 118.516 578.473 118.093 578.473 L 118.104 578.484 Z M -72.944 338.227 C -73.557 338.227 -74.047 337.72 -74.047 337.087 L -74.047 272.643 C -74.047 256.978 -61.714 244.237 -46.551 244.237 L 232.133 244.237 C 232.746 244.237 233.236 244.743 233.236 245.376 C 233.236 246.009 232.746 246.516 232.133 246.516 L -46.551 246.516 C -60.499 246.516 -71.841 258.244 -71.841 272.643 L -71.841 337.087 C -71.841 337.72 -72.331 338.227 -72.944 338.227 Z M 65.529 568.851 L -46.551 568.851 C -61.714 568.851 -74.047 556.109 -74.047 540.444 L -74.047 429.166 C -74.047 428.533 -73.557 428.027 -72.944 428.027 C -72.331 428.027 -71.841 428.533 -71.841 429.166 L -71.841 540.444 C -71.841 554.855 -60.488 566.572 -46.551 566.572 L 65.529 566.572 C 66.142 566.572 66.632 567.078 66.632 567.711 C 66.632 568.344 66.142 568.851 65.529 568.851 Z M 570.812 331.045 C 536.476 331.045 536.476 307.979 536.476 269.777 L 536.476 258.198 C 536.476 257.888 536.598 257.588 536.81 257.381 C 538.481 255.735 541.957 243.892 543.873 236.387 C 540.887 233.533 539.584 231.208 539.55 231.139 C 539.251 230.593 539.441 229.899 539.974 229.596 C 540.503 229.289 541.173 229.486 541.467 230.034 C 541.578 230.241 553.131 250.487 587.858 243.535 C 590.499 243.005 600.448 240.738 600.448 240.738 C 601.027 240.623 601.595 240.968 601.751 241.544 C 601.785 241.67 605.161 254.423 606.754 257.692 C 606.821 257.842 606.865 258.003 606.865 258.152 L 607.378 271.147 C 607.378 307.242 607.378 331.056 570.801 331.056 L 570.812 331.045 Z M 538.67 258.613 L 538.67 269.777 C 538.67 307.818 538.67 328.777 570.812 328.777 C 605.194 328.777 605.194 308.324 605.194 271.193 L 604.681 258.486 C 603.233 255.321 600.749 246.286 599.913 243.189 C 597.306 243.776 590.421 245.33 588.282 245.756 C 565.866 250.245 552.63 243.73 545.734 238.033 C 544.397 243.143 541.032 255.471 538.681 258.624 L 538.67 258.613 Z" style="" transform="matrix(1, 0, 0, 1, 1.1368683772161603e-13, 0)"/>
  <path d="M 565.988 295.813 C 565.821 295.813 565.654 295.778 565.498 295.698 C 565.197 295.548 558.112 291.807 559.07 286.018 C 559.682 282.358 563.203 282.438 565.743 282.473 C 567.938 282.553 568.907 282.427 568.996 281.771 C 569.531 278.145 569.386 257.07 569.386 256.863 C 569.386 256.23 569.799 255.724 570.489 255.724 C 571.091 255.724 571.581 256.23 571.592 256.852 C 571.592 257.726 571.737 278.318 571.18 282.116 C 570.768 284.844 567.949 284.798 565.71 284.74 C 562.88 284.706 561.498 284.832 561.242 286.398 C 560.551 290.541 566.423 293.626 566.49 293.66 C 567.036 293.937 567.247 294.627 566.98 295.18 C 566.791 295.583 566.401 295.813 565.999 295.813 L 565.988 295.813 Z M 573.921 308.174 C 572.751 308.174 571.503 307.944 570.166 307.495 C 569.59 307.302 569.276 306.663 569.464 306.068 C 569.654 305.47 570.278 305.136 570.846 305.343 C 573.275 306.16 575.302 306.091 576.84 305.101 C 579.436 303.444 580.004 299.715 580.015 299.68 C 580.104 299.07 580.628 298.621 581.263 298.725 C 581.864 298.817 582.277 299.392 582.188 300.014 C 582.165 300.21 581.486 304.802 578.01 307.023 C 576.806 307.795 575.436 308.186 573.91 308.186 L 573.921 308.174 Z M 847.235 468.599 C 847.046 468.599 846.856 468.553 846.678 468.45 C 842.678 466.056 840.974 460.612 841.876 453.142 C 842.778 445.683 845.653 440.297 850.432 437.12 C 851.469 436.429 852.616 435.819 853.942 435.278 C 856.014 434.415 858.242 433.805 860.393 433.218 C 864.582 432.09 868.548 431.02 871.567 428.131 C 874.085 425.725 875.199 421.777 874.609 417.288 C 870.108 382.759 865.595 364.262 865.551 364.078 C 865.517 363.963 865.517 363.848 865.517 363.733 C 866.03 354.283 870.219 346.756 877.984 341.357 C 894.106 330.147 915.541 331.447 934.381 334.21 C 940.386 335.085 946.458 336.915 950.09 344.315 C 953.978 352.246 953.477 361.834 952.752 368.36 C 952.686 368.981 952.129 369.476 951.538 369.361 C 950.935 369.29 950.502 368.729 950.569 368.106 C 951.26 361.868 951.75 352.729 948.129 345.351 C 945.555 340.114 941.489 337.536 934.069 336.466 C 915.641 333.772 894.718 332.46 879.199 343.245 C 872.091 348.194 868.225 355.066 867.712 363.687 C 868.18 365.655 872.492 384.082 876.781 416.989 C 877.461 422.226 876.102 426.887 873.049 429.811 C 869.629 433.08 865.217 434.277 860.938 435.428 C 858.755 436.015 856.694 436.579 854.755 437.396 C 853.563 437.891 852.527 438.432 851.613 439.042 C 847.402 441.839 844.862 446.673 844.049 453.441 C 843.592 457.216 843.469 463.926 847.77 466.505 C 848.293 466.815 848.472 467.506 848.171 468.058 C 847.97 468.415 847.603 468.622 847.224 468.622 L 847.235 468.599 Z M 809.377 645.875 C 809.077 645.875 808.765 645.748 808.553 645.484 C 808.151 645.014 808.196 644.296 808.653 643.884 C 844.372 611.633 924.131 606.35 924.933 606.304 C 925.635 606.304 926.058 606.753 926.103 607.374 C 926.135 608.002 925.674 608.54 925.067 608.583 C 924.276 608.629 845.252 613.866 810.102 645.61 C 809.89 645.794 809.634 645.886 809.377 645.886 L 809.377 645.875 Z" style="" transform="matrix(1, 0, 0, 1, 1.1368683772161603e-13, 0)"/>
  <path d="M 784.811 677.228 C 784.41 677.228 784.02 676.998 783.82 676.595 C 780.455 669.505 777.926 661.793 776.322 653.667 C 775.698 650.49 775.208 647.256 774.851 644.056 C 770.372 604.036 786.204 562.417 798.492 534.586 C 815.226 496.695 835.715 471.592 861.094 457.861 C 861.64 457.584 862.298 457.78 862.576 458.333 C 862.855 458.897 862.654 459.576 862.119 459.863 C 837.186 473.364 817.02 498.111 800.487 535.529 C 788.298 563.107 772.612 604.347 777.024 643.803 C 777.369 646.934 777.859 650.111 778.472 653.218 C 780.043 661.149 782.494 668.688 785.78 675.605 C 786.138 676.357 785.611 677.236 784.8 677.239 L 784.811 677.228 Z M 1013.249 527.749 C 1012.825 527.749 1012.413 527.484 1012.235 527.047 C 1011.834 526.068 1009.505 520.325 1009.104 519.347 C 992.303 479.258 970.935 457.746 941.868 451.645 C 939.595 451.162 932.721 449.93 932.721 449.93 L 933.1 447.697 C 933.1 447.697 940.018 448.94 942.313 449.424 C 971.737 455.605 994.242 478.187 1011.121 518.46 C 1011.533 519.439 1013.873 525.205 1014.274 526.183 C 1014.506 526.762 1014.241 527.425 1013.683 527.668 C 1013.538 527.726 1013.405 527.749 1013.26 527.749 L 1013.249 527.749 Z M 934.57 430.559 C 933.378 430.559 932.275 430.49 931.35 430.41 C 927.663 430.087 922.259 429.408 918.494 428.625 C 917.901 428.5 917.518 427.904 917.636 427.29 C 917.764 426.683 918.336 426.29 918.928 426.404 C 922.605 427.175 927.919 427.831 931.54 428.154 C 935.183 428.464 938.013 428.257 940.408 427.474 C 944.319 426.197 947.004 423.135 948.597 418.128 C 951.26 409.761 951.115 400.668 950.97 391.886 L 950.948 390.677 C 950.881 386.039 950.736 381.4 950.591 376.762 L 950.357 369.131 C 950.223 368.521 950.58 367.888 951.17 367.738 C 951.783 367.623 952.34 367.957 952.474 368.567 C 952.507 368.716 952.552 368.889 952.552 369.108 L 952.786 376.693 C 952.931 381.343 953.076 386.004 953.142 390.654 L 953.142 391.863 C 953.298 400.841 953.443 410.118 950.669 418.854 C 948.842 424.62 945.7 428.154 941.065 429.661 C 938.86 430.387 936.576 430.594 934.57 430.594 L 934.57 430.559 Z" style="" transform="matrix(1, 0, 0, 1, 1.1368683772161603e-13, 0)"/>
  <path d="M 890.63 467.54 C 882.151 467.54 872.67 465.169 862.331 460.45 C 861.941 460.266 861.529 460.082 861.139 459.886 C 860.59 459.615 860.36 458.933 860.627 458.367 C 860.883 457.803 861.54 457.55 862.097 457.838 C 862.465 458.022 862.844 458.194 863.234 458.367 C 876.057 464.226 887.466 466.378 897.147 464.744 C 905.236 463.385 911.53 458.171 914.895 450.068 C 919.006 440.135 917.903 428.038 912.065 419.245 C 911.04 417.691 909.926 416.172 908.812 414.641 C 903.587 407.47 898.194 400.046 901.336 389.768 C 902.718 385.233 905.971 381.642 909.113 378.166 C 909.826 377.383 910.528 376.601 911.185 375.841 C 915.797 370.477 919.752 365.448 923.295 360.441 L 923.864 359.658 C 930.526 350.68 931.339 348.563 931.373 348.068 C 931.373 348.114 931.384 348.298 931.506 348.471 C 931.395 348.125 931.306 347.918 931.306 347.803 C 931.306 347.308 931.618 346.871 932.063 346.721 C 932.52 346.56 933.01 346.733 933.3 347.135 C 933.512 347.435 937.846 353.546 952.162 367.968 C 952.597 368.406 952.608 369.131 952.184 369.568 C 951.761 370.006 951.059 370.029 950.636 369.591 C 941.656 360.544 935.573 353.696 932.877 350.232 C 931.919 352.165 929.802 355.376 925.613 361.028 L 925.067 361.764 C 921.491 366.829 917.48 371.916 912.823 377.326 C 912.154 378.109 911.441 378.891 910.717 379.697 C 907.742 382.989 904.667 386.396 903.431 390.436 C 900.623 399.598 905.447 406.227 910.561 413.248 C 911.686 414.802 912.823 416.356 913.87 417.933 C 920.12 427.348 921.312 440.297 916.9 450.932 C 913.235 459.771 906.339 465.469 897.481 466.953 C 895.215 467.326 892.925 467.512 890.63 467.506 L 890.63 467.54 Z" style="" transform="matrix(1, 0, 0, 1, 1.1368683772161603e-13, 0)"/>
  <path d="M 923.797 381.504 C 924.677 381.366 925.267 381.746 925.512 385.014 C 925.791 388.663 924.877 389.296 924.086 389.273 C 923.295 389.239 922.504 388.111 922.538 385.509 C 922.571 382.908 922.638 381.688 923.786 381.504 L 923.797 381.504 Z M 948.185 380.019 C 949.054 379.847 949.655 380.215 950.023 383.472 C 950.424 387.109 949.533 387.777 948.742 387.777 C 947.951 387.777 947.115 386.672 947.071 384.071 C 947.026 381.469 947.048 380.249 948.185 380.019 Z M 951.404 373.459 C 951.148 373.459 950.892 373.366 950.691 373.182 C 949.533 372.158 947.85 371.226 944.252 372.204 C 943.65 372.342 943.06 371.997 942.904 371.387 C 942.756 370.778 943.108 370.157 943.695 369.994 C 948.352 368.751 950.736 370.224 952.117 371.456 C 952.574 371.87 952.63 372.584 952.229 373.056 C 952.017 373.32 951.705 373.447 951.393 373.447 L 951.404 373.459 Z M 927.551 475.678 C 921.435 475.678 911.475 463.132 909.402 460.439 C 908.875 459.753 909.265 458.733 910.104 458.605 C 910.494 458.545 910.884 458.704 911.129 459.023 C 916.276 465.722 925.022 474.515 928.153 473.295 C 931.863 471.811 932.364 457.538 931.807 448.883 L 932.788 429.627 C 932.821 429.005 933.244 428.602 933.946 428.556 C 934.559 428.591 935.016 429.12 934.982 429.753 L 934.002 448.871 C 934.258 452.75 935.239 472.904 928.944 475.413 C 928.509 475.586 928.041 475.666 927.551 475.666 L 927.551 475.678 Z M 945.589 451.335 C 945.366 451.335 945.143 451.265 944.954 451.127 C 944.459 450.761 944.344 450.051 944.697 449.539 C 951.984 438.927 942.67 428.729 942.269 428.292 C 941.843 427.844 941.859 427.121 942.302 426.692 C 942.736 426.254 943.43 426.265 943.851 426.715 C 943.962 426.83 954.836 438.697 946.491 450.851 C 946.28 451.162 945.934 451.323 945.6 451.323 L 945.589 451.335 Z M 854.053 622.222 C 853.496 622.222 853.017 621.785 852.961 621.198 C 849.151 581.339 870.576 515.41 870.798 514.743 C 870.989 514.145 871.615 513.824 872.191 514.029 C 872.77 514.236 873.071 514.881 872.882 515.468 C 872.67 516.124 851.402 581.592 855.156 620.967 C 855.212 621.592 854.77 622.147 854.165 622.211 L 854.053 622.211 L 854.053 622.222 Z M 933.679 412.27 C 931.963 412.27 930.459 411.81 929.178 410.889 C 925.824 408.495 925.356 403.868 925.345 403.672 C 925.293 403.048 925.734 402.496 926.337 402.429 C 926.983 402.406 927.473 402.832 927.54 403.453 C 927.54 403.488 927.93 407.24 930.448 409.024 C 931.941 410.083 933.957 410.279 936.431 409.577 C 937.032 409.415 937.623 409.761 937.779 410.371 C 937.937 410.975 937.594 411.598 937.01 411.763 C 935.829 412.097 934.726 412.258 933.69 412.258 L 933.679 412.27 Z M 1107.425 608.548 C 1105.72 608.548 1104.127 608.122 1102.701 607.271 C 1096.573 603.611 1095.849 593.021 1101.074 583.664 C 1103.57 579.198 1107.046 575.641 1110.845 573.673 C 1114.789 571.625 1118.622 571.509 1121.663 573.316 C 1124.705 575.124 1126.509 578.634 1126.766 583.18 C 1127.011 587.577 1125.774 592.457 1123.279 596.923 C 1120.783 601.389 1117.307 604.946 1113.508 606.914 C 1111.413 607.996 1109.341 608.548 1107.414 608.548 L 1107.425 608.548 Z M 1116.95 574.099 C 1115.324 574.099 1113.552 574.571 1111.747 575.503 C 1108.283 577.299 1105.107 580.568 1102.801 584.688 C 1098.111 593.067 1098.523 602.402 1103.692 605.487 C 1106.132 606.937 1109.308 606.787 1112.628 605.072 C 1116.093 603.277 1119.268 600.008 1121.574 595.887 C 1123.88 591.755 1125.028 587.289 1124.805 583.296 C 1124.582 579.451 1123.123 576.539 1120.683 575.089 C 1119.569 574.421 1118.31 574.099 1116.95 574.099 Z" style="" transform="matrix(1, 0, 0, 1, 1.1368683772161603e-13, 0)"/>
  <path d="M 989.63 677.354 C 981.207 677.354 973.553 673.315 968.617 666.259 C 963.693 659.203 962.378 650.421 965.03 642.169 L 1003.701 521.614 C 1007.204 510.65 1017.124 503.246 1028.3 503.256 L 1191.34 503.256 C 1193.289 503.256 1195.217 503.474 1197.077 503.912 C 1197.166 503.935 1197.256 503.969 1197.334 504.015 L 1213.41 513.085 C 1214.079 513.466 1214.098 514.453 1213.445 514.861 C 1213.141 515.05 1212.763 515.058 1212.452 514.881 L 1196.498 505.88 C 1194.827 505.5 1193.078 505.304 1191.329 505.304 L 1028.289 505.304 C 1017.95 505.304 1008.826 512.118 1005.573 522.259 L 966.902 642.813 C 964.451 650.444 965.665 658.547 970.222 665.062 C 974.779 671.577 981.842 675.306 989.63 675.306 C 990.176 675.306 990.621 675.766 990.621 676.33 C 990.621 676.894 990.176 677.354 989.63 677.354 Z" style="" transform="matrix(1, 0, 0, 1, 1.1368683772161603e-13, 0)"/>
  <path d="M 1163.754 678.793 L 1000.715 678.793 C 992.337 678.793 984.683 674.65 979.703 667.421 C 974.834 660.354 973.497 651.457 976.127 643.607 L 1014.797 528.244 C 1018.318 517.724 1028.211 510.668 1039.397 510.668 L 1202.436 510.668 C 1211.004 510.668 1219.014 514.858 1223.838 521.867 C 1228.428 528.531 1229.598 536.75 1227.025 544.415 L 1188.354 659.779 C 1184.655 670.805 1174.316 678.805 1163.754 678.805 L 1163.754 678.793 Z M 1039.386 512.705 C 1029.047 512.705 1019.911 519.22 1016.669 528.9 L 977.998 644.264 C 975.581 651.492 976.817 659.698 981.318 666.224 C 985.92 672.912 992.994 676.733 1000.726 676.733 L 1163.765 676.733 C 1173.503 676.733 1183.062 669.309 1186.482 659.088 L 1225.153 543.725 C 1227.515 536.692 1226.445 529.153 1222.234 523.041 C 1217.766 516.561 1210.369 512.694 1202.436 512.694 L 1039.397 512.694 L 1039.386 512.705 Z M 958.635 664.509 C 957.833 664.371 957.443 663.773 957.554 663.163 C 958.234 659.514 955.259 653.587 953.098 649.259 C 952.485 648.027 951.917 646.899 951.46 645.898 C 950.97 644.804 950.48 643.527 949.956 642.134 C 947.015 634.307 942.971 623.626 928.654 626.17 C 928.587 626.193 910.516 631.476 899.877 639.13 C 899.387 639.487 898.696 639.36 898.339 638.842 C 897.994 638.324 898.119 637.614 898.618 637.254 C 909.569 629.381 927.406 624.167 928.164 623.96 C 944.363 621.025 948.965 633.237 952.006 641.317 C 952.507 642.652 952.975 643.895 953.443 644.943 C 953.889 645.909 954.435 647.026 955.036 648.211 C 957.476 653.092 960.529 659.169 959.705 663.589 C 959.604 664.13 959.148 664.509 958.624 664.509 L 958.635 664.509 Z" style="" transform="matrix(1, 0, 0, 1, 1.1368683772161603e-13, 0)"/>
  <path d="M 939.394 664.521 C 939.116 664.521 938.848 664.417 938.626 664.199 C 932.654 658.225 931.172 648.764 931.172 647.636 C 931.172 647.014 931.662 646.508 932.264 646.508 C 932.866 646.508 933.367 647.014 933.367 647.636 C 933.367 648.603 934.849 657.258 940.152 662.564 C 940.586 663.002 940.598 663.727 940.174 664.176 C 939.962 664.406 939.673 664.521 939.383 664.521 L 939.394 664.521 Z M 975.001 664.44 C 974.79 664.44 974.589 664.383 974.4 664.256 C 973.888 663.919 973.743 663.215 974.077 662.691 C 975.792 659.963 974.322 656.591 972.539 654.53 C 970.656 652.355 968.941 647.832 966.957 642.583 C 964.462 635.988 961.632 628.518 957.944 624.363 C 951.839 617.503 937.946 625.56 937.801 625.64 C 937.266 625.94 936.598 625.756 936.297 625.215 C 936 624.668 936.183 623.975 936.709 623.661 C 937.344 623.281 952.285 614.637 959.56 622.821 C 963.537 627.286 966.445 634.975 969.007 641.743 C 970.835 646.577 972.561 651.135 974.177 653.011 C 976.472 655.67 978.321 660.124 975.915 663.934 C 975.703 664.268 975.358 664.452 974.99 664.452 L 975.001 664.44 Z" style="" transform="matrix(1, 0, 0, 1, 1.1368683772161603e-13, 0)"/>
  <path d="M 907.052 664.509 C 906.762 664.509 906.472 664.394 906.249 664.153 C 899.32 656.533 896.156 645.622 897.793 634.952 C 900.634 616.398 916.822 603.576 933.813 606.35 C 939.327 607.248 947.761 609.676 957.398 620.3 C 957.811 620.76 957.788 621.474 957.354 621.911 C 956.908 622.337 956.217 622.326 955.794 621.865 C 946.625 611.748 938.659 609.458 933.478 608.606 C 917.625 606.005 902.629 617.998 899.977 635.309 C 898.44 645.288 901.392 655.486 907.854 662.599 C 908.266 663.059 908.255 663.773 907.809 664.199 C 907.598 664.406 907.33 664.509 907.052 664.509 Z" style="" transform="matrix(1, 0, 0, 1, 1.1368683772161603e-13, 0)"/>
  <path d="M 979.513 632.915 C 979.046 632.915 978.622 632.604 978.466 632.132 C 977.575 629.278 974.455 621.508 970.801 619.943 C 965.286 617.572 958.368 623.339 958.301 623.396 C 957.832 623.8 957.133 623.728 956.752 623.235 C 956.367 622.749 956.437 622.032 956.908 621.635 C 957.231 621.359 964.952 614.971 971.637 617.837 C 976.973 620.127 980.405 630.97 980.55 631.43 C 980.739 632.028 980.418 632.671 979.837 632.857 C 979.725 632.892 979.614 632.915 979.502 632.915 L 979.513 632.915 Z" style="" transform="matrix(1, 0, 0, 1, 1.1368683772161603e-13, 0)"/>
  <path d="M 973.62 621.589 C 973.52 621.589 973.419 621.577 973.33 621.554 C 972.747 621.388 972.404 620.766 972.561 620.162 C 990.967 551.367 976.45 508.642 976.305 508.216 C 976.095 507.628 976.391 506.977 976.962 506.766 C 977.531 506.542 978.169 506.849 978.366 507.445 C 978.522 507.871 993.273 551.217 974.678 620.772 C 974.545 621.278 974.099 621.601 973.62 621.601 L 973.62 621.589 Z M 188.783 382.747 L 177.297 382.747 C 176.684 382.747 176.194 382.241 176.194 381.608 C 176.194 380.974 176.684 380.468 177.297 380.468 L 188.783 380.468 C 189.396 380.468 189.886 380.974 189.886 381.608 C 189.886 382.241 189.396 382.747 188.783 382.747 Z M 164.964 382.747 L 152.641 382.747 C 152.029 382.747 151.538 382.241 151.538 381.608 C 151.538 380.974 152.029 380.468 152.641 380.468 L 164.964 380.468 C 165.576 380.468 166.067 380.974 166.067 381.608 C 166.067 382.241 165.576 382.747 164.964 382.747 Z M 140.308 382.747 L 127.975 382.747 C 127.362 382.747 126.872 382.241 126.872 381.608 C 126.872 380.974 127.362 380.468 127.975 380.468 L 140.308 380.468 C 140.921 380.468 141.411 380.974 141.411 381.608 C 141.411 382.241 140.921 382.747 140.308 382.747 Z M 115.653 382.747 L 103.32 382.747 C 102.707 382.747 102.217 382.241 102.217 381.608 C 102.217 380.974 102.707 380.468 103.32 380.468 L 115.653 380.468 C 116.266 380.468 116.756 380.974 116.756 381.608 C 116.756 382.241 116.266 382.747 115.653 382.747 Z M 90.998 382.747 L 78.676 382.747 C 78.063 382.747 77.573 382.241 77.573 381.608 C 77.573 380.974 78.063 380.468 78.676 380.468 L 90.998 380.468 C 91.61 380.468 92.101 380.974 92.101 381.608 C 92.101 382.241 91.61 382.747 90.998 382.747 Z M 66.342 382.747 L 54.02 382.747 C 53.407 382.747 52.917 382.241 52.917 381.608 C 52.917 380.974 53.407 380.468 54.02 380.468 L 66.342 380.468 C 66.955 380.468 67.445 380.974 67.445 381.608 C 67.445 382.241 66.955 382.747 66.342 382.747 Z M 41.687 382.747 L 29.354 382.747 C 28.741 382.747 28.251 382.241 28.251 381.608 C 28.251 380.974 28.741 380.468 29.354 380.468 L 41.687 380.468 C 42.3 380.468 42.79 380.974 42.79 381.608 C 42.79 382.241 42.3 382.747 41.687 382.747 Z M 17.032 382.747 L 4.698 382.747 C 4.086 382.747 3.595 382.241 3.595 381.608 C 3.595 380.974 4.086 380.468 4.698 380.468 L 17.032 380.468 C 17.644 380.468 18.135 380.974 18.135 381.608 C 18.135 382.241 17.644 382.747 17.032 382.747 Z M -7.624 382.747 L -19.946 382.747 C -20.558 382.747 -21.049 382.241 -21.049 381.608 C -21.049 380.974 -20.558 380.468 -19.946 380.468 L -7.624 380.468 C -7.011 380.468 -6.521 380.974 -6.521 381.608 C -6.521 382.241 -7.011 382.747 -7.624 382.747 Z M -32.279 382.747 L -44.601 382.747 C -45.214 382.747 -45.704 382.241 -45.704 381.608 C -45.704 380.974 -45.214 380.468 -44.601 380.468 L -32.279 380.468 C -31.666 380.468 -31.176 380.974 -31.176 381.608 C -31.176 382.241 -31.666 382.747 -32.279 382.747 Z M 54.923 482.998 C 54.797 482.998 54.673 482.974 54.555 482.929 C 39.682 477.393 15.672 440.918 14.792 431.215 C 14.324 426.036 17.422 423.308 19.873 422.237 C 18.837 419.302 19.795 416.298 22.48 414.307 C 23.527 413.524 24.585 413.03 25.644 412.822 C 27.515 412.431 29.409 413.11 31.281 414.768 C 31.738 415.182 31.794 415.896 31.404 416.367 C 31.003 416.851 30.312 416.897 29.855 416.494 C 28.496 415.297 27.248 414.814 26.056 415.055 C 25.321 415.193 24.552 415.562 23.772 416.149 C 21.622 417.749 21.087 420.074 22.357 422.353 C 22.524 422.663 22.547 423.043 22.402 423.365 C 22.268 423.699 21.978 423.941 21.644 424.022 C 21.432 424.068 16.486 425.345 16.987 431.008 C 17.789 439.813 41.141 475.54 55.301 480.8 C 55.87 481.007 56.17 481.663 55.959 482.25 C 55.799 482.7 55.386 482.998 54.923 482.998 Z" style="" transform="matrix(1, 0, 0, 1, 1.1368683772161603e-13, 0)"/>
  <path d="M 95.978 453.026 C 95.674 453.03 95.383 452.9 95.176 452.67 C 88.357 445.154 86.842 435.025 85.371 425.23 C 84.837 421.65 84.324 418.278 83.578 415.009 C 83.232 413.524 82.853 412.362 82.085 411.602 C 81.149 410.67 79.667 410.359 78.33 410.175 C 76.737 409.968 75.589 410.267 74.832 411.107 C 72.325 413.893 73.907 421.973 74.954 427.313 C 75.367 429.408 75.723 431.215 75.779 432.389 C 75.857 433.932 75.823 436.199 74.676 438.064 C 73.74 439.571 72.403 440.446 70.788 440.573 C 65.395 441.045 57.83 432.976 54.834 429.5 C 52.059 426.277 47.848 419.832 45.063 415.573 C 44.183 414.238 43.447 413.11 42.946 412.374 C 39.258 406.964 36.662 404.685 32.696 407.229 C 31.303 408.115 30.524 409.128 30.29 410.325 C 29.799 412.984 32.206 416.356 33.955 418.808 C 34.378 419.395 34.768 419.947 35.091 420.442 C 37.62 424.275 47.09 436.602 50.644 440.055 C 51.09 440.481 51.112 441.206 50.689 441.655 C 50.266 442.104 49.575 442.127 49.129 441.701 C 45.419 438.087 35.905 425.713 33.264 421.72 C 32.952 421.248 32.574 420.718 32.172 420.154 C 30.178 417.357 27.438 413.536 28.117 409.887 C 28.451 408.069 29.599 406.515 31.515 405.295 C 37.977 401.151 42.032 407.125 44.717 411.073 C 45.23 411.821 45.976 412.961 46.856 414.319 C 49.608 418.531 53.775 424.896 56.449 428.004 C 60.917 433.195 66.922 438.628 70.587 438.328 C 71.523 438.248 72.225 437.776 72.793 436.855 C 73.417 435.842 73.651 434.507 73.551 432.516 C 73.506 431.503 73.161 429.776 72.771 427.774 C 71.568 421.627 69.919 413.214 73.194 409.565 C 74.453 408.172 76.269 407.62 78.586 407.931 C 80.28 408.161 82.207 408.575 83.6 409.979 C 84.814 411.199 85.327 412.868 85.694 414.491 C 86.463 417.841 87.009 421.42 87.522 424.885 C 88.937 434.346 90.407 444.129 96.758 451.116 C 97.17 451.576 97.148 452.29 96.702 452.727 C 96.49 452.934 96.223 453.038 95.955 453.038 L 95.978 453.026 Z M 40.584 451.116 C 40.272 451.116 39.96 450.978 39.748 450.713 C 39.748 450.713 35.013 444.9 29.744 438.34 C 25.911 433.563 21.856 426.139 20.731 424.022 C 20.396 423.918 20.107 423.688 20.006 423.377 C 19.806 422.778 19.906 422.191 20.474 421.984 C 20.653 421.927 20.82 421.869 20.931 421.846 C 21.421 421.743 22.123 421.915 22.357 422.376 C 22.402 422.468 27.159 431.561 31.426 436.878 C 36.696 443.439 41.431 449.251 41.431 449.251 C 41.821 449.735 41.765 450.448 41.297 450.851 C 41.097 451.035 40.84 451.116 40.584 451.116 Z M -15.712 491.654 L -40.713 491.654 C -41.326 491.654 -41.816 491.147 -41.816 490.514 L -41.816 464.686 C -41.816 464.053 -41.326 463.547 -40.713 463.547 L -15.712 463.547 C -15.099 463.547 -14.609 464.053 -14.609 464.686 L -14.609 490.514 C -14.609 491.147 -15.099 491.654 -15.712 491.654 Z M -39.621 489.386 L -16.815 489.386 L -16.815 465.825 L -39.621 465.825 L -39.621 489.386 Z M -15.712 544.277 L -40.713 544.277 C -41.326 544.277 -41.816 543.771 -41.816 543.138 L -41.816 517.298 C -41.816 516.665 -41.326 516.158 -40.713 516.158 L -15.712 516.158 C -15.099 516.158 -14.609 516.665 -14.609 517.298 L -14.609 543.138 C -14.609 543.771 -15.099 544.277 -15.712 544.277 Z M -39.621 542.01 L -16.815 542.01 L -16.815 518.449 L -39.621 518.449 L -39.621 542.01 Z M 86.541 277.512 L 13.745 277.512 C 13.132 277.512 12.642 277.006 12.642 276.372 C 12.642 275.739 13.132 275.233 13.745 275.233 L 86.541 275.233 C 87.154 275.233 87.644 275.739 87.644 276.372 C 87.644 277.006 87.154 277.512 86.541 277.512 Z M -11.267 277.512 L -30.385 277.512 C -30.998 277.512 -31.488 277.006 -31.488 276.372 C -31.488 275.739 -30.998 275.233 -30.385 275.233 L -11.267 275.233 C -10.654 275.233 -10.164 275.739 -10.164 276.372 C -10.164 277.006 -10.654 277.512 -11.267 277.512 Z M 86.541 294.731 L -30.385 294.731 C -30.998 294.731 -31.488 294.224 -31.488 293.591 C -31.488 292.958 -30.998 292.452 -30.385 292.452 L 86.53 292.452 C 87.143 292.452 87.633 292.958 87.633 293.591 C 87.633 294.224 87.143 294.731 86.53 294.731 L 86.541 294.731 Z M 23.326 312.122 L -30.385 312.122 C -30.998 312.122 -31.488 311.616 -31.488 310.983 C -31.488 310.35 -30.998 309.843 -30.385 309.843 L 23.326 309.843 C 23.939 309.843 24.429 310.35 24.429 310.983 C 24.429 311.616 23.939 312.122 23.326 312.122 Z M 1025.237 331.735 L 968.818 331.597 C 968.216 331.597 967.726 331.091 967.726 330.458 C 967.726 329.824 968.216 329.33 968.829 329.33 L 1024.145 329.468 L 1024.145 37.197 L 741.249 37.197 L 741.249 273.334 C 741.249 273.967 740.759 274.473 740.146 274.473 C 739.534 274.473 739.043 273.967 739.043 273.334 L 739.043 36.069 C 739.043 35.436 739.534 34.929 740.146 34.929 L 1025.237 34.929 C 1025.849 34.929 1026.34 35.436 1026.34 36.069 L 1026.34 330.596 C 1026.34 330.895 1026.228 331.183 1026.017 331.401 C 1025.805 331.609 1025.526 331.735 1025.237 331.735 Z" style="" transform="matrix(1, 0, 0, 1, 1.1368683772161603e-13, 0)"/>
  <path d="M 998.576 270.019 L 945.255 270.019 C 944.642 270.019 944.152 269.513 944.152 268.88 L 944.152 201.075 C 944.152 200.442 944.642 199.935 945.255 199.935 L 998.576 199.935 C 999.189 199.935 999.679 200.442 999.679 201.075 L 999.679 268.88 C 999.679 269.513 999.189 270.019 998.576 270.019 Z M 946.346 267.752 L 997.473 267.752 L 997.473 202.214 L 946.346 202.214 L 946.346 267.752 Z M 943.973 403.304 C 943.128 403.309 942.593 402.368 943.011 401.608 C 943.176 401.308 943.464 401.102 943.795 401.048 C 947.706 400.357 948.419 396.306 948.53 394.384 C 945.756 394.142 941.912 393.566 940.876 392.289 C 939.773 390.919 938.158 382.01 937.511 378.247 C 937.409 377.631 937.807 377.045 938.403 376.935 C 939.027 376.808 939.573 377.234 939.673 377.855 C 940.62 383.438 942.001 389.987 942.57 390.85 C 943.071 391.322 946.413 391.966 949.711 392.197 C 950.268 392.231 950.703 392.692 950.736 393.267 C 950.903 396.306 949.744 402.291 944.152 403.281 C 944.085 403.292 944.029 403.292 943.973 403.292 L 943.973 403.304 Z M 917.691 381.964 C 917.613 381.964 917.524 381.964 917.446 381.93 C 916.856 381.789 916.487 381.182 916.622 380.572 C 916.678 380.353 917.881 375.07 921.914 372.768 C 924.12 371.502 926.705 371.387 929.59 372.434 C 930.169 372.641 930.47 373.286 930.27 373.884 C 930.069 374.483 929.445 374.782 928.866 374.586 C 926.615 373.781 924.621 373.838 922.972 374.771 C 919.797 376.578 918.772 381.044 918.761 381.09 C 918.65 381.619 918.193 381.976 917.691 381.976 L 917.691 381.964 Z M 1014.797 678.793 L 866.386 678.793 C 862.131 678.793 858.655 675.214 858.655 670.805 C 858.655 666.397 862.119 662.817 866.386 662.817 L 981.018 662.817 C 981.63 662.817 982.121 663.324 982.121 663.957 C 982.121 664.59 981.63 665.096 981.018 665.096 L 866.386 665.096 C 863.334 665.096 860.86 667.663 860.86 670.805 C 860.86 673.948 863.345 676.514 866.386 676.514 L 1014.797 676.514 C 1015.41 676.514 1015.9 677.021 1015.9 677.654 C 1015.9 678.287 1015.41 678.793 1014.797 678.793 Z" style="" transform="matrix(1, 0, 0, 1, 1.1368683772161603e-13, 0)"/>
  <path d="M 920.053 665.096 C 919.474 665.096 918.995 664.636 918.95 664.026 C 918.92 663.401 919.381 662.867 919.986 662.829 C 931.852 662.115 932.509 653.84 932.531 653.483 C 932.576 652.861 933.111 652.424 933.701 652.424 C 934.303 652.459 934.771 653 934.737 653.621 C 934.737 653.725 933.991 664.268 920.12 665.096 L 920.053 665.096 Z" style="" transform="matrix(1, 0, 0, 1, 1.1368683772161603e-13, 0)"/>
  <path d="M 524.231 126.387 C 524.231 195.159 470.264 250.901 403.696 250.901 C 337.127 250.901 283.171 195.147 283.171 126.387 C 283.171 57.627 337.138 1.861 403.696 1.861 C 470.253 1.861 524.231 57.615 524.231 126.387 Z" class="c" style="fill: rgb(255, 165, 0);" transform="matrix(1, 0, 0, 1, 1.1368683772161603e-13, 0)"/>
  <path d="M 243.453 92.03 L 364.679 92.03 L 364.679 -33.221 C 364.679 -33.221 314.901 -36.72 276.709 5.855 C 238.506 48.43 243.453 92.018 243.453 92.018 L 243.453 92.03 Z" class="g" style="fill: rgb(26, 26, 26);" transform="matrix(1, 0, 0, 1, 1.1368683772161603e-13, 0)"/>
  <path d="M 377.057 228.894 C 309.497 228.894 254.538 172.116 254.538 102.331 C 254.538 32.547 309.497 -24.243 377.057 -24.243 C 377.77 -24.243 378.338 -23.645 378.338 -22.919 C 378.338 -22.194 377.759 -21.596 377.057 -21.596 C 310.912 -21.596 257.112 33.997 257.112 102.32 C 257.112 170.643 310.923 226.235 377.057 226.235 C 400.275 226.235 422.803 219.364 442.199 206.381 C 442.79 205.978 443.592 206.151 443.982 206.772 C 444.372 207.394 444.205 208.211 443.603 208.614 C 423.794 221.885 400.777 228.894 377.057 228.894 Z" class="g" style="fill: rgb(26, 26, 26);" transform="matrix(1, 0, 0, 1, 1.1368683772161603e-13, 0)"/>
  <path d="M 497.281 119.918 C 496.412 119.815 495.911 119.147 496.011 118.422 C 496.679 113.139 497.014 107.729 497.014 102.331 C 497.014 34.008 443.202 -21.584 377.068 -21.584 C 376.355 -21.584 375.787 -22.183 375.787 -22.908 C 375.787 -23.633 376.366 -24.232 377.068 -24.232 C 444.628 -24.232 499.587 32.547 499.587 102.343 C 499.587 107.845 499.242 113.381 498.562 118.779 C 498.479 119.44 497.937 119.936 497.292 119.941 L 497.281 119.918 Z" class="g" style="fill: rgb(26, 26, 26);" transform="matrix(1, 0, 0, 1, 1.1368683772161603e-13, 0)"/>
  <path d="M 377.057 103.655 L 255.819 103.655 C 255.106 103.655 254.538 103.056 254.538 102.331 C 254.538 101.606 255.118 101.008 255.819 101.008 L 375.765 101.008 L 375.765 -22.908 C 375.765 -23.645 376.344 -24.232 377.046 -24.232 C 377.748 -24.232 378.327 -23.633 378.327 -22.908 L 378.327 102.331 C 378.327 103.068 377.748 103.655 377.046 103.655 L 377.057 103.655 Z" class="g" style="fill: rgb(26, 26, 26);" transform="matrix(1, 0, 0, 1, 1.1368683772161603e-13, 0)"/>
</svg>