<?xml version="1.0" encoding="utf-8"?>
<svg id="a" class="max-w-[550px]" viewBox="0 0 1219 753.29" xmlns="http://www.w3.org/2000/svg">
  <defs>
    <style>.b{fill:#fff}.c{fill:#ffce26}.e{fill:#ccc}.f{fill:#373532}.g{fill:#1a1a1a}.l_white{fill:#fff}</style>
  </defs>
  <path d="M1011.87 443.44s-3.58-31.88 19.76-31.88h143.76s30.63-1.39 32.42 2.55c0 0 9.96 7.37 9.96 21.17 0 0-.35 33.99-21.63 27.74h-169.78s-12.76-.81-14.49-19.57Z" class="b"/>
  <path d="M95.76 543.4 78.29 752.12h126.28l-24.48-210.23s-36.1 12.1-84.33 1.51Z" class="f"/>
  <rect width="590.03" height="372.73" x="178.33" y="379.39" class="b" rx="137.95" ry="137.95"/>
  <path d="M383 333.67h267.66s6.46 2.31 9.04 9.39c0 0 11.7.26 20.93 4.66l3.48-.95-7.37-20.72s-5.01-10.36-17.87-11.37H370.25s-7.94.54-10.67 5.81c0 0-4.87 16.14-8.43 19.22l51.48 187.98s4.54 14.36 18.75 15.53h180.18l4.9-18.58H440.98s-15.51 1.89-20.05-11.89l-46.37-167.87s.23-9.95 8.43-11.21Z" class="c" style="fill: rgb(255, 165, 0);"/>
  <path d="M936.95 466.08s-26.35-.11-45.95 11.61c-19.61 11.73-37.32 31.14-46.37 43.51-9.05 12.38-22.42 25.39-31.46 21.81-9.05-3.59-14.07-6.79-15.82-15.36-1.76-8.57-.44-100.23-.44-100.23s.3-7.07-7.76-8.02c-8.06-.96-22.29 4.76-22.29 4.76l.39 52.51v33.3l15.54 119.45s23.51 6.63 41.59 2.19c18.09-4.44 42.28-11.9 50.59-20.79 0 0 1.88 30.82-.76 49.56-2.64 18.73-15.48 90.97-15.48 90.97l186.06.68-12.95-43.28-4.05-29.05s7.96 24.14 24.68 31.85c16.71 7.71 35.44 8.34 46.95-.77 11.51-9.1 23.03-23.83 29.58-39.76 6.55-15.93 12.61-63.17 12.61-63.17s-20.28-19.27-54.37-22.49l-4.36-.26s.81-33.88-9.96-63.91c-10.77-30.03-25.69-39.68-31.08-42.54-5.39-2.87-29.54-16.08-63.84-13.65-34.29 2.43-41.03 1.06-41.03 1.06ZM921.74 384.17s-6.31-12.84-1.09-23.49c5.23-10.65 21.15-16.17 31.58-16.37 10.44-.2 24.5-.25 37.38 9.03 0 0-3.16-22.5 15.05-27.48 18.2-4.98 32.35 9.75 34.75 15.22 2.4 5.47 9.45 21.99-9.19 30.93-18.64 8.93-19.18 4-19.18 4s5.16 13.67-.63 25.03c-5.8 11.35-15.12 30.51-29.75 32.45-14.63 1.95-58.14-49.32-58.14-49.32h-.77Z" class="f"/>
  <path d="m977.83 469.72 1.17-36.31s-3.91-5.95-2.36-10.39c0 0 13.81-3.5 12.89-14.37-.91-10.86-11.55-10.61-11.55-10.61s-7.24-12.99-1.71-27.82c0 0-14.13 4.41-25.82 4.81-11.7.4-26.43-1.43-26.43-1.43l-2.18 39.35s-3.98 31.49 17.45 30.75l.77 20.46s-10.26 26.77-2.6 28.22c7.66 1.45 39.69-21.25 40.37-22.65Z" class="b"/>
  <path d="M171.77 198.79s-46.82-11.35-75.34 35.48c-24.4 40.07-38.4 88.15-40.03 108.57-1.63 20.42-1.12 60.62 30.3 77.23l-3.71 115.27s14.08 16.08 71.85 9.8l23.5-42.19V402.83s4.18-18.7 17.62-20.59l51.38-151.81 29.89-1.06s-29.53-34.38-67.43-29.16c-37.9 5.22-38.01-1.43-38.01-1.43Z" class="c" style="fill: rgb(255, 165, 0);"/>
  <path d="M258.05 212.31s7.13-6.87-.69-20.68c-7.83-13.8-13.55-13.89-13.17-19.99.38-6.11 2.55-13.05 9-21.92 6.45-8.87 10.28-19.86 8.8-36.56-1.47-16.7-9.32-23.2-19.78-28.56-10.46-5.36-28.7-16.05-46.14-3.71 0 0-39.52 5.77-43.1 15.2-3.57 9.43-2.84 36.83-1.97 43.74.88 6.91 2.09 29.32-7.96 34.97-10.05 5.64-18.08 6.68-25.18 8.3-7.11 1.61-25.43 18.36-17.23 43.26 0 0 20.56-24.96 41.81-26.31 21.24-1.34 29.33-1.25 29.33-1.25l38.93 1.25s24.37-1.53 47.35 12.26Z" class="f"/>
  <path d="M236.06 135.98c-.88-.33-1.56-.07-2.51 3.14-1.06 3.58-.25 4.42.58 4.56.82.14 1.88-.81 2.38-3.42.51-2.61.69-3.84-.45-4.27ZM210.09 129.75c-.89-.31-1.57-.03-2.43 3.2-.96 3.61-.13 4.43.69 4.54.83.12 1.86-.86 2.29-3.48.44-2.62.59-3.86-.56-4.26Z" class="g"/>
  <path d="m212.94 183.61-4.15 18.1s2.95 30.3-4.53 29.58c-7.47-.72-32.49-32.49-32.49-32.49l11.39-44.48s-14.58.32-11.63-14.89c2.95-15.21 17.81-7.64 17.81-7.64s8.46-6.91 9.88-15.48c1.42-8.56 3.07-16.18 3.07-16.18s10.34 11.27 22.91 14.22c12.57 2.95 18.37 11.05 18.37 11.05l-8.96 41.75s-6.08 21.49-21.68 16.47ZM227.67 287.63l-7.37-9.92s6.83.09 10.06 2.62l-2.69 7.3ZM225.34 297.09l-13.71 39.46s-10.83-2.77-12.4-2.05c-1.57.72-12.65 16.69-12.65 16.69s-15.83-10.25-22.22-17.22c-6.39-6.96-10.81-13.49-10.81-13.49s20.23-23.7 22.78-28.02 16.25-14.19 25.99-13.98l13.79 15.07 9.23 3.54ZM346.2 275.75l-5.79 16.12s-7.05 1.66-16.51 1.5c-9.46-.17-15.98-.26-17.5 4.77s-3.03 10.45 1.2 12.1c0 0-5.63 7.03-4.94 10.25.7 3.21 3.05 5.96 3.05 5.96s-4.43 3-3.11 8.2c1.32 5.2 4.25 12.71 19.1 12.13 14.85-.58 26.31-3.19 29.43-5.83 3.12-2.64 9.72-16.04 9.28-30.29-.43-14.24 1.3-22.75-14.22-34.91ZM490.53 401.43s-8-8.91-16.87-9.47c-8.86-.55-15.03 1.06-15.03 1.06s-4.67-3.98-9.43-2.21-4.95 7.92-4.95 7.92-4.24 2.43-4.15 6.08c.09 3.65 1.47 9.46 1.47 9.46s-1.85 5.98 1.4 12.6c3.25 6.62 10.6 17.72 12.81 20.43 2.21 2.71 7.19 16.82 7.19 16.82s13.26-5.8 20.66-6.23c7.39-.43 23.06.25 23.06.25l-2.77-12.71s.66-12.94-.3-16.86c-.95-3.91-5.07-12.9-5.07-12.9l-21.22-1.7-12.87-14.09 26.07 1.55ZM786.51 435.73l.45-11.44s5.06-20.35-.45-35.88c-5.51-15.53-9.7-19.87-18.15-23.41-8.45-3.54-15.63-1.88-15.63-1.88s-5.26-3.78-13.47-4.19c-8.21-.4-8.21 4.19-8.21 4.19s5.48 25.84 2.15 35.01c1.14 1.19 7.11-.82 7.11-.82s2.74 4.57 7.58 4.28c4.83-.29 8.94-4.4 10.11-6.88 1.17-2.49 2.49-5.57 2.49-5.57s6.79 8.33 6.32 15.81c0 0-3.33 3.25-6.75 3.87-3.42.62-12.43 1.13-12.89 10.58-.46 9.44 10.97 13.29 20.05 9.75v11.09s16.87-2.76 19.28-4.51ZM1119.4 554.83s18.72 1.63 22.18 14.58c3.46 12.96-.91 32.9-4.67 37.11-3.77 4.21-9.34 9.52-20.29 8.81-10.95-.71-15.38-.98-18.35-2.73-2.97-1.75-9.13-4.96-4.84-13.2l-.02-2.28s-10.82-8.06-.4-17.71c-.01-2.15-3.66-11.6 1.62-16.26 5.29-4.66 14.45-6.41 14.45-6.41l-.52 7.18s3.81 1.52 5.86 1.26c2.05-.25 3.94-1.26 3.94-1.26l1.04-9.09Z" class="b"/>
  <path d="M660.67 469.05s-31.96 3.21-44.44 34.9c-12.48 31.68-11.66 25.01-18.77 42.82-7.11 17.8-14.36 26.15-24.69 24.4-10.33-1.76-12.44 1.6-20.3-22.46-7.87-24.07-27.03-82.56-27.03-82.56s-12.22-13.2-43.2-7.48c-30.98 5.71-36.07 20.7-36.07 20.7l14.54 72.47s19.51 78.01 52.6 95.37c33.1 17.36 46.98 16.64 62.23 15.46 15.25-1.18 17.84-3.19 17.84-3.19s-3.67 74.1-10.5 91.89h198.75s-3.72-69.81-1.15-96.88c2.57-27.06 1.28-41 1.28-41s-18.92-112.82-36.5-129.75c-17.58-16.93-84.59-14.66-84.59-14.66Z" class="f"/>
  <path d="M702.34 504.13s12.6 12.98 13.69 21.99c1.1 9.01-1.98 18.31-8.42 33.11-6.45 14.79-12.89 52 20.51 59.91 33.4 7.91 51.57-.32 59.48-12.83 7.9-12.51 7.83-34.73 4.57-46.32-3.26-11.59-7.88-23.29-19.66-41.59-11.77-18.31-20.62-30.16-27.26-34.68 0 0-7.91 15.59-17.72 17.64-9.82 2.05-25.2 2.77-25.2 2.77ZM691.74 480.7s18.02.7 26.85-4.47c8.83-5.17 15.85-12.37 15.85-12.37s-11.21-15.23-10.03-30.1c1.17-14.88 8.73-27.18 9.23-38.61.5-11.42 2.73-29.25-9.77-41.65-12.5-12.4-33.68-7.99-42.35-6.17 0 0-23.69-7.28-31.78-1.26-8.1 6.02-7.65 22.47-7.24 25.2.41 2.74 8.08 17.29 17.31 21.9 9.23 4.61 13.19 16.19 10.11 24.83 0 0-5.93 9.28-10.58 11.82-4.65 2.54-9.12 10.24-7.84 20.89 1.29 10.65 10.51 29.69 40.25 29.99Z" class="c" style="fill: rgb(255, 165, 0);"/>
  <path d="M691.64 480.7s-4.94 12.34 2.2 18.16c7.14 5.82 18.24 5.93 30.55 3.52 12.3-2.42 18.79-11.87 21.1-20.66 2.31-8.79 1.48-12.51-2.31-14.61-3.79-2.1-9.41-4.1-9.41-4.1s-7.29 12.01-20.47 15.08c-13.19 3.08-21.65 2.6-21.65 2.6Z" class="b"/>
  <path d="m227.67 287.63-22.23-26.39-9.84 8.29 20.76 24.65 8.27 2.05 3.04-8.6z" class="g"/>
  <path d="m307.16 389.6 52.42-152.85H254.74L202.32 389.6h104.84z" class="b"/>
  <path d="m464.46 399.89 45.74 4.21-.43 12.14-32.45-2.27-12.86-14.08z" class="g"/>
  <path d="M669.86 405.09c-1.62-3.96-7.88-9.83-12.82-13.24s-12.3-13.32-14.45-16.99l-.82 3.55s-1.1-2.58-3.81-2.66c-2.71-.09-3.88 1.89-4.62 4.02-.73 2.12-6.76 22.63-6.76 22.63s.03 4.47 2.88 5.2c1.9.49 4.28-.22 5.69-.75l-3.64 15.65s-2.38 21.76 18.5 21.43c0 0 1.52-4.01 2.65-6.15 1.14-2.13 10-12.06 14-14.77 4-2.71 4.82-13.97 3.2-17.92Z" class="b"/>
  <path d="m787.74 418.59-.78 5.7.39 11.77s10.76-4.35 9.55-8.63c-1.22-4.29-9.16-8.83-9.16-8.83ZM1127.71 613.59s9.12-4.56 10.66-9.77c0 0 5.09 2.93 3.21 6.45s-13.86 3.32-13.86 3.32ZM1091.87 604.78l2.33-6.96s-7.48-4.03-4.91-12.16c0 0-13.09-3.59-17.28 1.91-4.91 6.45 19.86 17.21 19.86 17.21ZM1108.56 563.92l.52-44.62 65.2-55.59h12.87l-68.45 59.58.26 40.64s-8.79 2.51-10.4 0ZM1108.59 615.39l.49 136.64h9.28V615.27l-9.77.12z" class="g"/>
  <path d="M1195.87 452.1c-11.43 1.72-13.33-12.29-13.33-12.29-4.56-.29-8.69 3.01-12.13 5.58-4.41 3.31-7.75 6.86-13.67 5.21-2.88-.81-5.6-2.26-8.58-2.62-7.6-.92-17.37 7.64-24.37 2.58-2.43-1.75-3.38-4.91-3.71-7.89-.33-2.98-.21-6.05-1.16-8.89-2.29-6.85-9.41-9.26-16.04-8.03-6.39 1.19-10.64 4.97-14.13 10.3-2.83 4.3-5.42 9.05-9.79 11.75-3.37 2.08-7.56 2.71-11.44 1.89-6.98-1.47-10.8-7.54-16.37-11.38-5.2-3.59-11.67-5.07-17.98-4.9-6.31.17-12.5 1.93-18.33 4.36-3.06 1.28-3.25 4.13-2.79 6.8.57 3.31 2 6.23 3.57 9.21 2.55 4.86 7.74 9.19 13.45 9.82 0 .1 171.11.1 171.11.1 9.75 0 18.19-11.67 18.19-26.07-12.02-4.83-11.08 12.74-22.5 14.46ZM893.63 255.87H759.72c-15.03 0-27.23-12.2-27.23-27.23v-71.39c0-15.02 12.2-27.22 27.22-27.22h133.92c15.03 0 27.23 12.2 27.23 27.23v71.39c0 15.03-12.2 27.22-27.22 27.22Z" class="c" style="fill: rgb(255, 165, 0);"/>
  <path d="M550.73 210.7h31.87c17.64 0 32.07-14.43 32.07-32.07s-14.43-32.07-32.07-32.07h-31.87c-17.64 0-32.07 14.44-32.07 32.07s14.43 32.07 32.07 32.07Z" class="f"/>
  <path d="M1206.04 437.63c0 4.77-2.42 8.64-5.39 8.64s-5.39-3.87-5.39-8.64 2.41-8.64 5.39-8.64 5.39 3.87 5.39 8.64ZM236.98 139.93c-.88-.33-1.56-.07-2.51 3.14-1.05 3.58-.24 4.42.58 4.56.82.14 1.88-.81 2.38-3.42.51-2.61.69-3.84-.45-4.27ZM211.03 133.52c-.86-.36-1.56-.12-2.61 3.06-1.17 3.54-.39 4.41.43 4.57.82.16 1.91-.75 2.5-3.34.59-2.59.82-3.82-.31-4.29Z" class="g"/>
  <path d="m205.44 261.24-3.73-4.8-10 8.22 4.51 4.87 9.22-8.29z" class="b"/>
  <path d="m350.33 236.75 2.23-5.46-104.34-.84-52.62 152.82h8.24l50.9-146.52h95.59z" class="e"/>
  <path d="m186.57 351.19 7.17-10.05s8.94 9.65 6.15 13.39c-2.79 3.73-13.32-3.34-13.32-3.34ZM153.55 320.48l6.78-8.43s-6.15-3.54-9.67-1.55c-3.51 1.99 2.89 9.99 2.89 9.99ZM195.6 358.96s-24.07 61.66-67.72 79.73c-34.79 14.4-42.94 5.34-42.94 5.34l1.76-23.96s8.59 6.97 26.75 2.87c18.17-4.1 37.21-20.22 48.05-28.71 10.84-8.5 34.1-35.27 34.1-35.27ZM878.07 539.55s-17.58 31.21-12.3 76.69l9.18-5.42s-4.05-12.06-2.99-26.39c1.06-14.33 1.5-25.32 6.12-44.87Z" class="g"/>
  <path d="m180.09 735.3-1.89-9.12v-12.91h-73.86l25.82-46.96h48.17v-22.9h-35.59l27.91-50.77-1.55 4.67h9.23v-44.42L67.38 752.13h15.61l9.24-16.83h87.86z" class="c" style="fill: rgb(255, 165, 0);"/>
  <path d="m67.38 752.13 110.95-199.24v-47.62L40.79 752.13h26.59z" class="b"/>
  <path d="M631.51 426.57s11.44 13 22.1 8.6l-2.94 10s-17.64-.4-19.16-18.6ZM302.36 338.42s2.03 10.03 17.97 12.78l1.75-5.1s-10.55 2.44-19.72-7.67ZM302.43 331.83s16.52 10.29 42.71-2.64l-26.45.73s-11.58-1.68-12.97-3.48l-3.29 5.39ZM304.4 315.43s20.37 8.41 40.73-4.77l-24.47 2.87s-11.58-1.68-12.97-3.48l-3.29 5.39Z" class="e"/>
  <path d="m321.03 346.94-10.37 32.46 17.26.04s11.78-22.09 14.31-34.56c0 0-15.19 2.96-21.2 2.06ZM242.03 520.96h48.53v48.53h-48.53z" class="c" style="fill: rgb(255, 165, 0);"/>
  <path d="M210.97 406.7h48.53v48.53h-48.53z" class="g"/>
  <path d="M759.21 210.29c0 10.44-8.46 18.9-18.9 18.9s-18.9-8.46-18.9-18.9 8.46-18.9 18.9-18.9 18.9 8.46 18.9 18.9Z" class="b"/>
  <path d="M766.82 404.95s-9.97 8.79-36.7 4.45l2.86-10.07 7.34-2.01s1.78 4.32 7.58 4.28c5.8-.04 12.17-11.07 12.17-11.07s5.9 5.47 6.75 14.42Z" class="e"/>
  <path d="M1004.66 325.85c-16.14 4.42-15.48 22.62-15.13 26.67l6.87 6.97s-2.23-30.08 25.66-32.8c-5.08-1.88-10.98-2.6-17.4-.84ZM959.15 344.28c-2.43-.05-4.75-.02-6.91.02-10.44.21-26.35 5.72-31.58 16.37-5.23 10.65 1.09 23.49 1.09 23.49.77-.01 3.05 2.67 6.72 6.77 10.53-4.03 23.29-8.99 23.8-9.05.88-.11 23.4-12.26 23.4-12.26-10.44 2.69-45.7 2.81-39.74-10.81 3.34-7.63 14.25-12.08 23.22-14.53ZM642.39 371.27c.6 4.07 4.04 8.5 6.38 11.71 3.71 5.06 8.23 8.66 13.53 11.91-8.01-7.65-11.93-19.36-10.12-30.29.69-4.19 2.25-8.37 5.22-11.39 2.54-2.58 5.97-4.17 9.51-4.91 3.54-.74 7.21-.67 10.81-.29 1.05.11 2.41.07 2.76-.93-5.34-1.46-10.74-2.67-16.26-3.18-4.61-.42-10.66-.79-14.59 2.16-8.1 6.02-7.65 22.47-7.24 25.2ZM666.15 398.13c.55.82 1.87 2.86 2.83 5.04.71-1.18 0-2.8-2.83-5.04ZM670.72 415.41c-1.7 4.35-3.93 7.79-7.47 10.89-2.82 2.48-5.91 4.74-8.14 7.77-2.71 3.69-3.96 8.33-3.93 12.9.07 14.37 10.66 26.7 23.93 31.14 5.39 1.81 10.81 2.21 16.43 2.58-14.34-.93-30.44-15.99-32.18-30.02-2.42-19.44 10.57-29.56 11.37-35.25Z" class="b"/>
  <path d="M668.58 400.56c-.21 1.1.16 1.85.5 2.62-.3-1.53-.51-2.64-.5-2.62ZM727.03 533.18c2.42-17.8-9.67-29.89-9.67-29.89-7.8.5-15.03.83-15.03.83s12.6 12.98 13.69 21.99c1.1 9.01-1.98 18.31-8.42 33.11-6.45 14.79-12.89 52 20.51 59.91-37.15-21.06-3.5-68.16-1.09-85.96ZM258.05 212.31s7.13-6.87-.7-20.68c-7.83-13.8-13.55-13.89-13.17-19.99.17-2.65.7-5.48 1.75-8.53-.67-.52-6.63 3.77-4.14 15.52 2.02 9.58 5 20.76 2.24 27.01 4.59 1.68 9.33 3.85 14.02 6.67ZM204.8 76.52c.05.23 38.12 4.25 46.3 28.62 5.98 17.81 3.76 35.99 2.13 44.51 6.42-8.86 10.22-19.84 8.76-36.5-1.47-16.7-9.32-23.2-19.78-28.56-8.72-4.46-22.84-12.63-37.4-8.07ZM182.5 129.66c-14.26 2.5 11.01 16 11.01 16s14.68-23.83 14.7-24.49c.02-.66-6.79-22.19-6.79-22.19s-4.66 28.19-18.92 30.68Z" class="b"/>
  <path d="m628.01 398.19 7.91 2.37-1.24 5.97-3.03 1.84-2.2-.77-2.87-1.8 1.43-7.61z" style="fill:#b5b5b5"/>
  <path d="M511.53 646.19s21.01 14.6 44.5 16.46c23.49 1.86 47.81-6.48 47.81-6.48s2.78-37.66-42.2-40.44c-44.97-2.78-50.12 30.46-50.12 30.46Z" class="c" style="fill: rgb(255, 165, 0);"/>
  <path d="M510.22 417.82c-.1 0-32.22-2.71-32.22-2.71.2-2.31 31.16.3 31.16.3l.88-10.52-45.68-3.85c.2-2.32 47.03 1.63 47.03 1.63 1.06 1.26-.02 14.08-.02 14.08-.61.96-.88 1.06-1.15 1.06Z" class="g"/>
  <path d="M516.45 418.34c-.1 0-6.35-.53-6.35-.53.2-2.32 5.29-1.89 5.29-1.89l.89-10.51-5.09-.43c.2-2.32 6.45-1.79 6.45-1.79 1.05 1.25-.03 14.07-.03 14.07-.04.61-.56 1.06-1.15 1.06ZM440.42 411.93c-.57-.15-14.09-7.74-14.09-7.74.18-2.1 16.23-7.84 16.23-7.84.78 2.18-12.88 7.07-12.88 7.07l11.31 6.35c.23 1.96-.16 2.17-.56 2.17ZM469.77 429.74c-21.68-14.86-25.91-25.46-26.57-30.48-.38-2.91.22-5.38 1.74-7.17 4.95-5.89 13.8.58 14.18.86.39.43 17.7 21.98 27.71 25.72-11.11-1.68-27.6-21.95-29.2-23.94-.96-.67-7.59-5.08-10.91-1.14-1.08 1.27-1.5 3.14-1.21 5.37.49 3.73 3.89 13.99 24.93 28.66.07 1.94-.3 2.12-.66 2.12Z" class="g"/>
  <path d="M461.11 441.42c-1.63-1.05-21.87-19.07-22.17-34.27-.08-4.32 1.45-8.02 4.56-10.98-1.06 4.21-2.31 7.24-2.23 10.93.28 14.18 20.41 32.11 20.61 32.29-.13 1.9-.45 2.03-.77 2.03ZM491.18 403.3c-.94-.47-7.34-7.75-14.15-9.43-6.97-1.72-20 .07-20.13.1.23-2.37 13.31-4.16 20.69-2.35 7.54 1.85 14.19 9.44 14.47 9.76-.33 1.83-.61 1.92-.88 1.92ZM506.34 459.05c-1.25-1.31-4.37-12.3-3.71-19.63 1.06-11.98-5.03-23.07-5.1-23.18 2.29-.66 8.54 10.68 7.4 23.39-.61 6.91 2.49 17.83 2.53 17.95-.9 1.46-1.01 1.48-1.12 1.48Z" class="g"/>
  <path d="M463.27 465.28c-2.58-4.59-6.86-15.08-8.43-17.31-5.21-6.79-17.97-23.37-14.36-34.07-1.03 10.27 11.17 26.1 15.18 31.31 3.14 4.33 8.47 17.91 8.7 18.48-.79 1.56-.94 1.59-1.08 1.59ZM1115.86 616.49c-2.23 0-4.41-.13-6.48-.28-13.67-1.05-17.53-5.96-18.37-9.89-.92-4.26 1.53-8.5 3.16-9.39.5 2.39-1.66 5.58-.88 8.99 1.03 4.48 6.66 7.23 16.27 7.97 6.09.47 13.1.62 19.03-1.87 4.84-2.02 7.72-5.36 9.62-11.17 3.68-11.23 4.27-18.97 2.35-30.63-.89-5.45-9.23-16.36-21.99-17.79 13.38-.83 23.1 10.17 24.27 17.42 1.99 12.09 1.37 20.1-2.44 31.73-2.11 6.43-5.48 10.31-10.92 12.58-4.31 1.81-9.05 2.33-13.63 2.33Z" class="g"/>
  <path d="M1112.67 567c-2.42 0-4.96-.7-7.67-2.09 5.82.39 9.6.43 13.36-1.97-.96 3.36-3.25 4.06-5.68 4.06ZM1110.62 601.37c-3.02 0-6.12-.23-9.44-.52-3.59-.31-6.35-1.23-8.46-2.81-2.27-1.7-3.91-4.36-4.51-7.28-1.02-4.93.66-9.56 4.58-12.7-1.83 4.43-3.16 8.13-2.32 12.23.5 2.38 1.82 4.54 3.64 5.9 1.75 1.31 4.13 2.08 7.27 2.35 7.6.66 13.96 1 20.9-1.09-3.55 3.49-7.54 3.91-11.66 3.91ZM216.36 295.34c-.89-.41-21.65-25.06-21.65-25.06.14-1.64 9.99-9.92 9.99-9.92 1.63.14 24.38 27.15 24.38 27.15-1.77 1.5-23.78-24.62-23.78-24.62l-8.07 6.79 20.02 23.76c-.35 1.82-.62 1.91-.89 1.91Z" class="g"/>
  <path d="M195.6 270.69c-.89-.41-4.93-5.21-4.93-5.21.14-1.64 9.99-9.93 9.99-9.93 1.63.14 5.67 4.94 5.67 4.94-1.77 1.5-5.07-2.42-5.07-2.42l-8.07 6.8 3.3 3.91c-.35 1.82-.62 1.91-.89 1.91ZM219.8 313.87c-3.84-.95-6.94-1.91-10.96-3.36 4.79-.74 7.73.17 11.24 1.07.71 1.94.23 2.28-.28 2.28ZM225.41 297.52c-6.63-1.06-14.61-2.67-19.25-5.82 5.55.98 13.23 2.5 19.44 3.51.87 1.9.37 2.3-.19 2.3ZM215.6 326.12c-6.9-.68-11.01-1.71-11.18-1.75.61-2.24 4.7-1.21 11.29-.56.99 1.86.48 2.31-.11 2.31ZM230.82 281.75c-6.01-3.46-12.39-3.92-12.46-3.92.44-2.29 7.17-1.81 13.06 1.77.17 1.95-.21 2.15-.6 2.15ZM153.55 321.64c-.03-3.01 20.81-29.83 26.34-34.54 9.72-8.27 22.58-9.72 23.12-9.78.13 2.32-12.45 3.75-21.62 11.54-5.35 4.56-26.71 32.04-26.93 32.32-.22.3-.57.45-.92.45ZM185.72 352.36c2.13-6.95 9.78-19.02 13.5-19.02.55 0 1.36.15 2.48.36 2.39.44 6.02 1.11 10.14.91-4.31 2.52-8.2 1.8-10.55 1.37-3.63-.24-9.36 7.14-14.57 15.82-.21.36-.6.56-.99.56ZM94.33 369.06c13-26.24 45.62-53.04 55.29-59.52-9.68 9.28-41.25 36.12-54.27 58.94-.22.37-.61.58-1.01.58ZM328.64 379.61c4.44-11.75 9.1-23.28 12.47-35.05-1.19 12.57-5.91 24.26-11.45 34.45-.21.39-.61.6-1.02.6Z" class="g"/>
  <path d="M104.03 425.39c-6.08 0-12.06-1.32-17.85-4.29-37.8-19.35-42.24-69.76-12.84-145.77 4.02-10.42 19.11-45.93 44.24-65.9 17.79-14.15 43.91-12.96 54.34-11.79-10.36 1.17-35.77 0-52.9 13.61-24.67 19.61-39.55 54.64-43.51 64.92-28.9 74.74-24.84 124.15 11.74 142.87 37.08 19 83.42-33.56 111.11-64.94-22.19 28.64-59.81 71.29-94.32 71.29ZM276.42 230.54c-14.52-18.12-44.02-31.04-66.54-29.16 23.2-4.23 53.44 9.08 67.47 27.3-.43 1.79-.67 1.87-.93 1.87ZM217.86 185.01c-2.27 0-4.78-.38-7.68-1.14-3.78-1-9.28-2.66-13.05-4.12 4.52-.73 9.92.9 13.63 1.88 3.75.99 6.71 1.27 9.33.93 4.3-.58 7.61-3.17 10.13-7.93 2.3-4.31 3.97-9.23 5.25-15.48.54-2.67 1.23-6.22 1.98-10.04 1.89-9.65 4.02-20.58 5.01-24.04 1.28 4-.95 15.37-2.73 24.49-.74 3.82-1.43 7.38-1.98 10.05-1.32 6.47-3.05 11.59-5.47 16.11-2.9 5.46-6.78 8.45-11.87 9.13-.82.11-1.67.17-2.54.17ZM183.29 155.48c-1.04 0-2.08-.12-3.09-.37-7.1-1.7-11.5-8.86-9.79-15.96 1.7-7.11 8.89-11.48 15.96-9.8 2.59.62 4.9 1.98 6.68 3.93-3.18-.04-5.09-1.15-7.22-1.67-5.77-1.38-11.76 2.23-13.17 8.09-1.4 5.85 2.23 11.77 8.09 13.17a11 11 0 0 0 5.83-.21c-.6 2.62-1.94 2.83-3.29 2.83Z" class="g"/>
  <path d="M179.61 148.98c-.54-2.19 7.22-6.28 7.22-6.28l-6.68-7c1.69-1.6 9.42 6.51 9.42 6.51-.3 1.83-9.42 6.63-9.42 6.63-.17.1-.35.14-.54.14ZM136.78 321.64c-1.16-34.82 11.33-64.97 11.46-65.27 2.02 1.19-10.3 30.94-10.3 64.11 0 .64-.53 1.16-1.16 1.16ZM216.3 167.29c-2.72 0-4.9-.79-6.51-2.37-3.07-3.02-2.74-7.76-2.72-7.96 2.3.21 2.05 4.06 4.36 6.31 1.37 1.35 3.42 1.92 6.12 1.63-.29 2.36-.78 2.38-1.25 2.38ZM326.63 348.08c-3.08 0-6.33-.19-9.69-.58-7.11-.81-17.2-5.92-16.29-14.29.32-2.84 1.96-5.26 4.51-6.64-.77 3.05-1.98 4.82-2.21 6.89-.77 7.05 8.9 11.12 14.25 11.74 17.81 2.04 29.59-1.79 33.3-6.53 2.78-3.54 4.86-8.21 6.37-14.25 2.33-9.31 2.98-19.26 1.87-28.75-1.16-9.89-12.68-18.91-12.8-19 1.92-1.45 13.83 7.88 15.1 18.74 1.13 9.77.47 20-1.92 29.58-1.59 6.37-3.82 11.32-6.8 15.12-3.99 5.1-13.61 7.98-25.7 7.98Z" class="g"/>
  <path d="M317.71 313.62c-1.29 0-2.33-.04-3.05-.15-3.42-.46-7.33-.97-9.03-3.72-1.98-3.17-2.45-6.84-1.29-10.05.95-2.66 2.98-4.85 6.04-6.51 2.64-1.43 5.39-1.26 8.06-1.11 3.06.12 4.25.13 5.39.13 19.47 0 23.2-4.35 23.23-4.4 1.45 1.96-2.91 7.19-26.87 6.67-4.34-.23-6.64-.36-8.7.74-2.54 1.38-4.21 3.15-4.96 5.26-.91 2.55-.51 5.48 1.08 8.05 1.13 1.81 4.38 2.24 6.52 2.52 5.9.86 27.96-1.52 29.9-2.28-1.36 3.02-18.34 4.85-26.31 4.85Z" class="g"/>
  <path d="M321.85 331.47c-3.08 0-6.15-.12-8.99-.41-5.9-.6-11.96-4.57-11.31-11.85.3-3.5 2.65-7.23 5.99-9.51-1.44 3.79-3.45 6.92-3.69 9.71-.5 5.72 4.43 8.86 9.24 9.35 13.27 1.33 31.68-1.21 31.88-1.24.17 2.32-11.51 3.95-23.12 3.95ZM204.06 232.43c-10.42 0-30.84-29.46-33.23-32.98-.17-.94 11.16-45.12 11.16-45.12 2.25.58-8.95 44.24-8.95 44.24 9.23 13.43 25.72 33.54 31.81 31.41 4.05-1.4 3.95-16.74 2.57-27.18.02-.41 4.39-19.46 4.39-19.46 2.27.53-2.05 19.37-2.05 19.37.64 4.96 3.04 26.97-4.14 29.46-.49.17-1 .25-1.55.25Z" class="g"/>
  <path d="M307.16 390.76H202.32c-1.1-1.53 51.32-154.38 51.32-154.38 1.1-.78 105.94-.78 105.94-.78 1.1 1.54-17.45 55.6-17.45 55.6-2.2-.75 15.83-53.28 15.83-53.28H255.57l-51.63 150.52h102.39l14.14-41.24c2.2.76-12.21 42.78-12.21 42.78-.16.47-.6.78-1.1.78Z" class="g"/>
  <path d="M204.49 384.45h-8.9c-1.1-1.54 51.32-154.38 51.32-154.38 1.1-.78 105.94-.78 105.94-.78 1.1 1.54-.63 6.57-.63 6.57-2.2-.76-.99-4.25-.99-4.25H248.84l-51.63 150.52h7.28c1.16 1.8.64 2.32 0 2.32ZM246.68 134.74c-1.16-1.65-1.35-13.21-19.96-18.72-13.89-4.12-20.65-9.73-23.56-12.9-.87 7.12-3.99 24.98-13.89 29.43 9.99-7.03 11.84-32.26 11.86-32.51 2.22-.4 7.28 8.14 26.25 13.76 20.39 6.04 20.47 19.24 20.46 19.8 0 .63-.52 1.15-1.16 1.15Z" class="g"/>
  <path d="M241.79 134.43c-1.1-.77-2.08-2.74-5.09-2.74 4.33-2.72 6.07.95 6.14 1.11-.73 1.6-.89 1.63-1.05 1.63ZM221.59 126.54c-.97-.48-6.05-4.75-14.71-1.13 9.21-6.32 15.24-1.12 15.48-.89-.13 1.89-.45 2.02-.77 2.02ZM196.95 356.84c-2.25 0-5.35-1.07-9.3-3.2-5.73-3.1-12.53-8.1-19.13-14.09s-12.25-12.26-15.9-17.66c-4.03-5.98-5.11-10.07-3.22-12.17 2.52-2.76 7.12-.84 11.26 1.41-5.68-.44-8.44-1.06-9.54.15-.76.84-.32 3.78 3.42 9.32 3.54 5.25 9.07 11.37 15.54 17.23 6.47 5.87 13.1 10.75 18.68 13.77 5.88 3.18 8.85 3.33 9.61 2.5 1.04-1.16.1-5.21-6-12.84 8.12 6.43 10.12 11.77 7.72 14.4-.72.79-1.76 1.19-3.13 1.19ZM336.09 249.11c2.7-1.37 7.64-6.65 9.73-13.95 2.1-7.3.74-14.36-2.97-15.43-3.5-.97-7.94 3.43-10.25 10.03.57-8.67 6.2-13.62 10.89-12.26 5.09 1.46 7.09 9.5 4.56 18.3-2.27 7.88-7.29 13.31-11.97 13.31ZM303.95 249.11c2.72-1.38 7.64-6.65 9.73-13.95 2.1-7.3.74-14.36-2.97-15.43-3.51-.97-7.94 3.43-10.25 10.03.57-8.67 6.18-13.62 10.89-12.26 5.09 1.46 7.09 9.5 4.56 18.3-2.27 7.87-7.28 13.31-11.97 13.31ZM271.57 249.11c2.71-1.38 7.64-6.65 9.73-13.95 1.07-3.71 1.29-7.4.62-10.4-.61-2.75-1.89-4.54-3.59-5.03-3.52-.97-7.94 3.43-10.25 10.03.58-8.67 6.2-13.62 10.89-12.26 2.55.74 4.4 3.14 5.21 6.75.76 3.37.52 7.47-.65 11.55-2.27 7.87-7.28 13.3-11.97 13.3ZM333.66 263.01h-66.67c0-2.32 66.67-2.32 66.67-2.32 1.16 1.8.64 2.32 0 2.32ZM327.66 280.81H261c0-2.32 66.66-2.32 66.66-2.32 1.16 1.81.64 2.32 0 2.32ZM305.72 314.03h-56.24c0-2.32 56.24-2.32 56.24-2.32 1.16 1.81.64 2.32 0 2.32ZM307.2 298.25h-52.36c0-2.32 52.36-2.32 52.36-2.32 1.16 1.8.64 2.32 0 2.32ZM302.67 331.47h-59.05c0-2.32 59.05-2.32 59.05-2.32 1.16 1.81.64 2.32 0 2.32ZM304.4 348.91h-66.66c0-2.32 66.66-2.32 66.66-2.32 1.16 1.8.64 2.32 0 2.32ZM952.05 404.08c-1.17-.07-1.98-.51-2.58-1.27-2.08-2.7-.88-9.16-.73-9.89 1.81 2.81 1.47 7.07 2.56 8.47 2.63.37 4.22-4.6 4.69-8 2.05 2.07.63 10.7-3.94 10.7ZM925.88 402.62c-1.18-.07-1.99-.5-2.59-1.28-2.08-2.69-.88-9.16-.73-9.89 1.81 2.81 1.48 7.06 2.56 8.47 2.65.36 4.23-4.6 4.69-8.01 2.05 2.07.64 10.7-3.94 10.7ZM582.88 752.51c4.91-19.45 7.7-65.88 9.2-90.82l.13-2.3c2.32.14 2.18 2.44 2.18 2.44-1.51 25.05-4.3 71.68-10.41 89.89-.16.49-.61.79-1.1.79ZM781.63 752.51c-1.19-1.51-5.65-47.8-2.38-97.12.83-12.38 1.27-26.09 1.35-41.89 2.24 15.87 1.8 29.62.97 42.05-3.27 49.13 1.16 95.24 1.2 95.69-1.08 1.27-1.12 1.28-1.15 1.28Z" class="g"/>
  <path d="M565.5 663.81c-1.16 0-2.31-.01-3.48-.05-17.36-.47-33.65-5.35-47.12-14.09a84.24 84.24 0 0 1-14.25-11.68C479.67 616.6 469.34 587.07 462 561c-8.01-28.4-11.9-51.43-16.83-80.58.32-2.35 9.55-20.92 41.91-23.84 29.17-2.62 38.83 8.34 39.23 8.81 6.28 18.89 12.35 37.39 18.4 55.89 3.07 9.38 6.14 18.76 9.2 28.15 2.69 8.36 4.79 14.84 11.05 18.42 6.11 3.49 13.77 2.68 19.47-2.09 5.49-4.59 8.68-11.57 11.48-18.32 1.43-3.43 2.81-6.89 4.21-10.36 4.52-11.26 9.2-22.9 15.08-33.68 8.38-15.37 18.71-25.86 30.7-31.15 5.27-2.33 9.36-3.55 14.58-4.34-4.64 3.05-8.57 4.22-13.64 6.46-11.51 5.09-21.48 15.23-29.6 30.14-5.82 10.66-10.47 22.24-14.97 33.44-1.39 3.47-2.78 6.94-4.21 10.38-2.91 7.02-6.25 14.28-12.14 19.21-6.46 5.39-15.13 6.31-22.12 2.32-7.04-4.02-9.37-11.24-11.62-18.22-3.54-10.87-6.6-20.25-9.68-29.63-6.03-18.42-12.07-36.84-18.11-55.25-1.27-1.28-11.16-10.24-37.12-7.86-28.73 2.59-38.58 18.26-39.93 20.66 5 29.56 8.89 52.54 16.86 80.82 7.26 25.79 17.47 54.99 38.06 76 4.2 4.29 8.86 8.11 13.86 11.36 13.11 8.51 28.99 13.26 45.93 13.72 18.88.53 37-3.26 52.3-10.93 10.57-5.3 20.42-12.59 29.27-21.65 7.51-7.68 14.42-16.74 20.53-26.94 4.89-8.18 9.28-17.07 13.03-26.43 2.69-6.74 5-13.5 6.84-20.1.6-2.17 1.38-5.03 1.98-7.96 1.66 3.46.88 6.38.26 8.59-1.87 6.68-4.2 13.53-6.93 20.34-3.8 9.47-8.23 18.48-13.19 26.77-6.19 10.35-13.21 19.55-20.84 27.36-9.04 9.25-19.1 16.68-29.89 22.1-14.71 7.37-31.9 11.23-49.93 11.23ZM815.02 544.26c-5.31 0-10.38-2.13-14.02-6.14-5.45-6-5.43-13.59-5.42-20.94l-.05-31.16c-.02-9.62.04-18.86.1-28.1.07-9.46.13-18.92.1-28.76 2.35 9.85 2.29 19.31 2.21 28.78-.06 9.23-.13 18.47-.1 28.08l.06 31.18c-.02 7.21-.03 14.03 4.81 19.37 4.75 5.22 12.3 6.8 19.16 4.03 6.63-2.66 11.63-8.08 16.59-13.87 2.58-3.02 5.12-6.09 7.67-9.17 7.6-9.15 15.44-18.61 24.27-26.77 27.7-25.61 63.11-26.62 68.45-25.7-5.53 1.47-39.83 2.41-66.87 27.41-8.73 8.06-16.52 17.46-24.06 26.55-2.56 3.09-5.12 6.17-7.71 9.19-4.95 5.79-10.37 11.67-17.48 14.52-2.55 1.02-5.16 1.52-7.73 1.52ZM809.4 633.89c-8.81 0-17.8-1.12-26.9-3.34 14.63 1.19 28.5 1.92 41.69-.08 11.69-1.78 23.31-5.66 34.54-11.54 5.36-2.81 9.31-5.09 14.78-9.03-4.22 5.91-8.23 8.23-13.69 11.09-11.47 6-23.33 9.97-35.26 11.78-4.97.76-10.02 1.13-15.15 1.13ZM650.66 445.81c-7.84-.72-13.46-3.61-16.81-8.58-6.12-9.08-2.43-21.7-2.27-22.23l10.32-42.22c2.25.55-8.09 42.82-8.09 42.82-.05.18-3.54 12.18 1.97 20.34 2.95 4.36 8 6.9 14.99 7.55.99 1.87.49 2.32-.11 2.32Z" class="g"/>
  <path d="M631.41 409.12c-4.99-1.21-6.54-3.98-5.81-6.64l6.8-24.24c.76-2.66 3.59-4.2 6.17-3.47 2.15.6 3.15 1.34 3.81 2.35-5.85-.51-7.35.33-7.74 1.75l-6.8 24.24c-.4 1.42.45 2.91 1.86 3.31 2.39.67 3.89-.16 4.3-1.58 1.6 2.84-.41 4.28-2.59 4.28Z" class="g"/>
  <path d="M690.69 481.84c-1.81-.37-3.43-.68-5.05-1-7.41-1.44-15.07-2.93-21.26-7.46-6.72-4.91-11.7-12.27-13.67-20.19-1.89-7.63-.73-14.81 3.2-19.71 1.84-2.29 4.1-4.17 6.27-5.98 2.9-2.42 5.64-4.7 7.45-7.85 3.67-6.39 2.03-16.97-3.37-21.77-1.56-1.38-3.33-2.53-5.2-3.74-1.96-1.26-3.97-2.57-5.75-4.17-3.03-2.74-5.52-5.62-7.4-8.57-4.91-7.7-6.01-16.68-3.1-25.29 1.46-4.3 3.34-8.96 6.15-10.98.44-.3 10.57-7.06 30.85 1.2 2.54-.83 15.62-4.76 28.05-2.39 10.04 1.9 32.72 10.93 26.62 53.56-.55 3.76-1.91 8-3.34 12.5-4.66 14.54-10.44 32.63 4.13 52.32-17.14-19.27-10.9-38.78-6.34-53.04 1.4-4.4 2.74-8.56 3.24-12.12 5.82-40.65-15.37-49.18-24.75-50.96-13-2.45-27.14 2.39-27.29 2.45-20.24-8.08-29.47-1.9-29.85-1.64-2.57 1.85-4.54 7.64-5.29 9.83-2.68 7.93-1.67 16.21 2.85 23.3 1.77 2.78 4.13 5.5 7.01 8.1 1.64 1.48 3.57 2.74 5.45 3.94 1.86 1.21 3.8 2.45 5.49 3.95 6.23 5.55 8.07 17.3 3.83 24.66-2.01 3.51-5.04 6.04-7.97 8.48-2.19 1.82-4.26 3.54-5.95 5.65-3.47 4.32-4.47 10.77-2.75 17.69 1.83 7.4 6.49 14.28 12.78 18.88 5.78 4.22 13.18 5.66 20.34 7.05 1.64.32 3.26.63 4.86.98.77 1.92.28 2.3-.25 2.3Z" class="g"/>
  <path d="M682.98 346.98c-1.12-.85-5.25-15.56-5.25-15.56-2.55-9.18-10.97-15.59-20.49-15.59h-284.1c-4.33 0-9.39 1.57-12.9 4 2.61-4.63 8.06-6.32 12.9-6.32h284.1c10.56 0 19.91 7.11 22.72 17.29l4.13 14.71c-.9 1.46-1.01 1.48-1.12 1.48ZM458.63 544.79h-34.56c-10.57 0-19.9-7.11-22.72-17.29l-50.93-184.13c2.23-.61 53.17 183.51 53.17 183.51 2.54 9.18 10.96 15.59 20.49 15.59h34.56c1.16 1.8.64 2.32 0 2.32ZM598.74 544.79h-47.21c0-2.32 47.21-2.32 47.21-2.32 1.16 1.8.64 2.32 0 2.32Z" class="g"/>
  <path d="M659.71 344.22c-2.6-6.19-7.17-9.39-13.36-9.39H631.5c0-2.32 14.85-2.32 14.85-2.32 7.3 0 12.7 3.83 14.48 10.24-.92 1.46-1.02 1.47-1.12 1.47ZM454.36 525.79h-16.11c-8.82 0-16.61-5.93-18.96-14.42l-45.46-164.34c-.96-3.48-.26-7.13 1.93-10 2.18-2.87 5.5-4.51 9.11-4.51h201.29c0 2.32-201.29 2.32-201.29 2.32a9.07 9.07 0 0 0-7.27 3.6 9.043 9.043 0 0 0-1.54 7.97l45.47 164.34c2.08 7.5 8.95 12.73 16.73 12.73h16.11c1.16 1.8.64 2.32 0 2.32ZM606.47 525.79H544.6c0-2.32 61.87-2.32 61.87-2.32 1.16 1.8.64 2.32 0 2.32Z" class="g"/>
  <path d="M497.86 368.35h-76.24c0-2.32 76.24-2.32 76.24-2.32 1.16 1.81.64 2.32 0 2.32ZM502.75 384.95h-30.2c0-2.32 30.2-2.32 30.2-2.32 1.16 1.81.64 2.32 0 2.32ZM457.74 384.95h-31.22c0-2.32 31.22-2.32 31.22-2.32 1.16 1.81.64 2.32 0 2.32ZM631.65 368.35h-76.24c0-2.32 76.24-2.32 76.24-2.32 1.16 1.81.64 2.32 0 2.32ZM632.05 384.95h-71.74c0-2.32 71.74-2.32 71.74-2.32 1.16 1.81.64 2.32 0 2.32ZM631.65 418.31h-58.48c0-2.32 58.48-2.32 58.48-2.32 1.16 1.8.64 2.32 0 2.32ZM633.03 434.91h-54.96c0-2.32 54.96-2.32 54.96-2.32 1.16 1.8.64 2.32 0 2.32ZM533.06 468.27h-6.59c0-2.32 6.59-2.32 6.59-2.32 1.16 1.8.64 2.32 0 2.32ZM537.96 484.87h-6.03c0-2.32 6.03-2.32 6.03-2.32 1.16 1.8.64 2.32 0 2.32ZM658.7 468.27h-68.08c0-2.32 68.08-2.32 68.08-2.32 1.16 1.8.64 2.32 0 2.32ZM631.21 484.87h-35.69c0-2.32 35.69-2.32 35.69-2.32 1.16 1.8.64 2.32 0 2.32ZM1076.43 718.85c-5.95 0-12.18-1.19-18.66-3.55-13.41-4.9-23.31-15.88-30.26-33.58 8.86 16.19 18.32 26.74 31.06 31.4 19.07 6.97 35.17 3.45 49.21-10.71-8.13 11.5-19.17 16.44-31.35 16.44ZM1118.7 692.07c6.24-12.6 11.95-26.45 14.32-38.87 1.06-5.5 2.31-13.25 3.65-21.45 1.19-7.21 2.45-14.98 3.76-22.39.98 7.81-.28 15.56-1.46 22.77-1.35 8.21-2.62 15.97-3.66 21.5-2.43 12.71-8.28 26.88-15.64 37.92-.22.33-.6.52-.96.52ZM1049.57 652.11c9.69-35.14 20.64-64.38 20.75-64.67 2.06 1.11-8.86 30.3-19.64 63.87-.16.5-.62.81-1.11.81Z" class="g"/>
  <path d="M1091.87 606.35c-12.09-4.81-20.05-10.3-21.73-14.77-.5-1.35-.47-2.67.1-3.8 2.41-4.77 8.46-5.9 18.04-3.34-6.34.7-13.68-.18-15.96 4.38 1.43 5.76 9.09 10.88 20 15.29.46 1.96.03 2.24-.43 2.24ZM1132.35 615.39c-1.41 0-2.99-.09-4.75-.26 10.54-1.32 12.14-3.54 12.87-5.91 1.06 4.49-1.95 6.17-8.12 6.17ZM1141.57 610.71c-.77-2.6-1.57-4.13-3.69-6.45 3.67.58 5.57 3.11 4.8 5.64-.15.49-.61.82-1.11.82Z" class="g"/>
  <path d="M1082.84 585.58c-1.15-1.71-.26-53.96-22.66-88.36-22.22-34.15-81.56-31.09-82.13-31.05.5-2.35 61.14-5.47 84.08 29.79 22.79 35.01 21.89 87.97 21.88 88.5-.02.63-.53 1.13-1.16 1.13ZM858.55 753.19c6.71-36.17 20.9-116.97 14.75-144.83-7.61-34.51 4.61-68.86 4.73-69.2 2.05 1.12-9.93 34.87-2.46 68.7 6.22 28.25-8.02 109.5-15.89 144.43-.13.54-.6.9-1.13.9ZM940.53 444.87c-3.39 0-6.15-.43-8.56-1.32-4.81-1.78-7.94-5.55-9.58-11.51-1.32-4.83-1.9-10.2-1.8-16.9l1.5-41.58c2.32.08.82 41.63.82 41.63-.1 6.46.45 11.63 1.71 16.24 1.43 5.19 4.1 8.45 8.16 9.96 2.49.92 5.43 1.3 9.29 1.14 3.84-.14 9.47-.55 13.39-1.13-3.66 2.9-9.39 3.31-13.29 3.45-.56.02-1.1.03-1.63.03ZM977.53 423.36c-2.35 0-4.64-.62-6.67-1.8 2.83-1.03 4.73-.52 6.67-.52 6.18-.09 11.01-5.06 10.93-11.08-.09-6.03-5.1-10.99-11.08-10.78-2.19.03-4.29.7-6.08 1.95.85-3.42 3.4-4.23 6.05-4.27 7.41 0 13.33 5.82 13.43 13.06.1 7.31-5.76 13.33-13.06 13.43h-.19Z" class="g"/>
  <path d="M979.89 417.53c-.75-.28-8.59-6.97-8.59-6.97.11-1.85 9.43-8.07 9.43-8.07 1.29 1.93-6.75 7.3-6.75 7.3l6.66 5.69c-.1 1.91-.43 2.04-.76 2.04ZM930.08 417.18c-2.42-1.55-5.74-5.59-5.99-8.65-.11-1.33.39-2.16.83-2.61 1.82-1.89 4.76-.46 6.7.49 1.2-2.06 2.4-8.43 3.18-12.58 1.88 2.58-.14 13.44-.5 14.52-1.57 1.2-2.41.77-3.7.14-1.19-.58-3.38-1.64-4-.98-.02 2.97 2.75 6.49 4.19 7.58-.01 1.92-.36 2.09-.7 2.09ZM940 427.08c-1.22 0-2.55-.23-3.96-.69 3.3-1.36 5.42-1.46 7.04-2.45 2.74-1.69 3.34-5.5 3.35-5.53 2.26.53 1.54 5.23-2.12 7.5-1.26.79-2.71 1.18-4.31 1.18ZM939.17 493.74c-1.22 0-2.29-.24-3.14-.77-6.45-4 .72-24.96 2.43-29.65l-.08-19.34c2.32 0 2.4 19.54 2.4 19.54-3.7 10.28-7.16 25.22-3.53 27.48 5.47 3.41 26.91-11.46 39.44-21.84l1.15-35.79c2.32.07 1.15 36.38 1.15 36.38-3.51 3.44-28.51 23.99-39.82 23.99ZM987.62 368.95c-.26-2.29 8.52-4.37 8.52-4.37.53 2.26-8.25 4.34-8.25 4.34-.09.02-.18.03-.26.03ZM1043.26 753.19c-2.49-6.41-4.1-12.04-5.79-18.01-3.72-13.15-7.57-26.75-8.92-39.41-4.59-43.18-.67-146.29-.63-147.33 2.28 1.12-1.63 104.07 2.93 147.08 1.33 12.47 5.16 25.97 8.86 39.02 1.7 5.98 3.31 11.64 4.68 17.2-.94 1.43-1.04 1.44-1.12 1.44ZM977.64 398.39c-6.56-8.57-3.95-21.83-2.62-26.99-6.97 2.13-30.06 8.25-52.02 3.31 25.94 3.45 53.06-6.08 53.34-6.17 1.44 1.62-4.01 19 2.26 28.02-.49 1.75-.72 1.82-.95 1.82Z" class="g"/>
  <path d="M980.98 434.64c-7.02-1.38-5.48-12.02-5.41-12.47 1.94 2.66 1.65 9.42 4.79 10.09 4.19.81 16.8-7.21 26.72-26.69 7.72-15.11 5.04-25.78 1.44-32.07-3.34-5.82-7.87-8.59-9.04-8.66-1.06-.79-13.28-21.59-45.11-19.56-16.12 1.07-27.21 6.16-32.07 14.72-4.02 7.06-3.49 15.99 1.52 25.82-7.37-9.35-7.89-19.3-3.54-26.96 5.26-9.26 17-14.76 33.92-15.88 30.62-2.11 43.96 16.43 46.05 19.67 2.48.66 7.07 4.12 10.28 9.7 3.88 6.79 6.8 18.24-1.38 34.28-9.65 18.91-22.02 28.01-28.18 28.01Z" class="g"/>
  <path d="M1014.99 377.5c-2.45 0-4-.33-4.19-.37 1.09-2.13 14.87.64 27.01-12.96 4.81-5.4 5.28-13.37 1.25-21.33-4.7-9.27-15.43-18-29.33-16.72-6.58.63-11.61 3.09-14.91 7.3-5.97 7.58-4.48 18.46-4.46 18.57-2.37-.15-3.96-11.61 2.62-19.99 3.72-4.74 9.28-7.5 16.54-8.19 14.81-1.33 26.55 8.01 31.61 17.98 4.49 8.85 3.89 17.79-1.58 23.92-9.07 10.15-19.06 11.79-24.56 11.79ZM1154.06 753.29H0c0-2.32 1154.06-2.32 1154.06-2.32 1.16 1.8.64 2.32 0 2.32ZM361.59 380.55h-50.32c0-2.32 50.32-2.32 50.32-2.32 1.16 1.8.63 2.32 0 2.32Z" class="g"/>
  <path d="M206.16 753.29c-15.99 0-29-13.01-29-29V407.23c0-11.74 7.85-23.02 18.65-26.84-8.98 5.63-16.33 16.22-16.33 26.84V724.3c0 14.71 11.97 26.67 26.68 26.67 1.16 1.8.64 2.32 0 2.32ZM767.24 501.64c-1.16-1.16-1.16-72.49-1.16-72.49 2.32 0 2.32 71.32 2.32 71.32 0 .64-.52 1.16-1.16 1.16ZM766.84 407.26c-1.16-7.11-2.73-11.67-6.41-16.39 5.81 3.67 7.58 8.81 7.58 15.23 0 .64-.53 1.16-1.16 1.16Z" class="g"/>
  <path d="M67.38 753.29c-1.01-1.72 109.93-200.96 109.93-200.96 2.02 1.12-108.92 200.36-108.92 200.36-.21.38-.6.6-1.01.6ZM82.98 753.29c-1.01-1.72 94.33-172.94 94.33-172.94 2.02 1.12-93.32 172.34-93.32 172.34-.21.38-.6.6-1.01.6ZM39.57 753.29c-1.01-1.72 137.75-250.9 137.75-250.9 2.02 1.12-136.73 250.3-136.73 250.3-.21.38-.6.6-1.01.6Z" class="g" style="fill: rgb(255, 165, 0);"/>
  <path d="M178.33 645.44h-35.28c0-2.32 35.28-2.32 35.28-2.32 1.16 1.8.64 2.32 0 2.32ZM177.45 667.47h-45.6c0-2.32 45.6-2.32 45.6-2.32 1.16 1.8.64 2.32 0 2.32ZM178.33 598.47h-8.7c0-2.32 8.7-2.32 8.7-2.32 1.16 1.8.64 2.32 0 2.32ZM178.33 714.43h-73.71c0-2.32 73.7-2.32 73.7-2.32 1.16 1.8.64 2.32 0 2.32ZM180.09 736.46H93.08c0-2.32 87.02-2.32 87.02-2.32 1.16 1.8.64 2.32 0 2.32ZM133.1 548.61c-10.35 0-20.35-1.08-30.23-3.25-4.94-1.09-9.75-2.22-14.19-4.07-2.54-1.05-6.7-2.75-6.86-5.89-.77-16.03 2.72-113.83 2.75-114.82 2.29 1.07-1.2 98.78-.43 114.7.08 1.66 3.6 3.11 5.11 3.73 4.59 1.91 9.29 3.01 14.12 4.08 16.26 3.57 32.9 4.14 50.84 1.75-7.03 3.28-14.14 3.77-21.11 3.77Z" class="g"/>
  <path d="M84.43 672.74c-1.15-1.26 10.18-129.44 10.18-129.44 2.31.2-9.03 128.39-9.03 128.39-.05.6-.56 1.06-1.15 1.06ZM1185.38 452.98c-2.98-5.07-4-10.14-4-15.35 0-5.86 1.26-11.44 3.63-16.13-.14 5.42-1.31 10.63-1.31 16.13 0 4.9.95 9.63 2.74 13.72-.76 1.6-.9 1.63-1.06 1.63ZM1200.19 464.86c-3.91 0-7.65-1.71-10.82-4.92 4.38 1.14 7.55 2.6 10.82 2.6 9.09 0 16.49-11.17 16.49-24.91s-7.39-24.91-16.49-24.91c-3.47 0-6.81 1.64-9.63 4.73 1.57-5.16 5.49-7.05 9.63-7.05 10.37 0 18.81 12.22 18.81 27.23s-8.44 27.24-18.81 27.24Z" class="g"/>
  <path d="M1200.19 447.43c-3.93 0-7.01-4.31-7.01-9.81s3.08-9.8 7.01-9.8 7.01 4.31 7.01 9.8-3.08 9.81-7.01 9.81Zm0-17.29c-2.54 0-4.69 3.43-4.69 7.48s2.15 7.49 4.69 7.49 4.69-3.43 4.69-7.49-2.14-7.48-4.69-7.48ZM1029.08 464.86c-10.38 0-18.81-12.22-18.81-27.24s8.43-27.23 18.81-27.23c-9.09 2.32-16.5 13.49-16.5 27.23s7.4 24.91 16.5 24.91c1.16 1.81.64 2.32 0 2.32ZM1200.19 412.72h-41.5c0-2.32 41.5-2.32 41.5-2.32 1.16 1.8.64 2.32 0 2.32Z" class="g"/>
  <path d="M1126.89 412.72h-97.81c0-2.32 97.81-2.32 97.81-2.32 1.16 1.8.64 2.32 0 2.32ZM1198.36 464.86h-169.28c0-2.32 169.28-2.32 169.28-2.32 1.16 1.81.64 2.32 0 2.32Z" class="g"/>
  <path d="M1109.08 520.46c-.75-2.05 64.45-57.64 64.45-57.64 1.51 1.76-63.7 57.36-63.7 57.36-.22.18-.49.28-.76.28Z" class="f"/>
  <path d="M1118.35 565.08c-1.16-1.16-1.16-41.5-1.16-41.5.41-.88 70.64-60.75 70.64-60.75 1.51 1.76-68.32 61.29-68.32 61.29v39.81c0 .64-.52 1.16-1.16 1.16ZM1118.35 752.51h-9.27c-1.16-1.16-1.16-137.46-1.16-137.46 2.32 0 2.32 135.14 2.32 135.14h6.95V615.88c2.32 0 2.32 135.47 2.32 135.47 0 .64-.52 1.16-1.16 1.16ZM1109.08 565.08c-1.16-1.16-1.16-45.78-1.16-45.78 2.32 0 2.32 44.62 2.32 44.62 0 .64-.53 1.16-1.16 1.16Z" class="g"/>
  <path d="M1110.08 584.47c-2.47 0-4.63-.14-6.02-.27-7-.63-13.8-2.28-13.32-14.45.47-12.15 17.49-14.08 18.22-14.16.09 2.32-15.51 4.11-15.9 14.25-.4 10.19 4.61 11.46 11.21 12.05 2.76.25 12.26.87 17.87-1.61-2.8 3.77-7.88 4.2-12.06 4.2ZM868.63 274.37c14.71-2.32 26.68-14.28 26.68-29V175.2c0-14.71-11.97-26.67-26.68-26.67h-132.7c-14.71 0-26.67 11.97-26.67 26.67v70.17c0 14.71 11.96 26.68 26.67 26.68h75.56c0 2.32-75.56 2.32-75.56 2.32-15.99 0-28.99-13-28.99-29V175.2c0-15.99 13-29 28.99-29h132.7c15.99 0 29 13.01 29 29v70.17c0 15.99-13.01 29-29 29Z" class="g"/>
  <path d="M568.14 194.83h-72.41c-7.15 0-12.96-5.82-12.96-12.96v-34.04c2.32 0 2.32 34.04 2.32 34.04 0 5.87 4.78 10.64 10.64 10.64h72.41c5.87 0 10.65-4.77 10.65-10.64v-40.53c0-5.87-4.78-10.65-10.65-10.65h-72.41c0-2.32 72.41-2.32 72.41-2.32 7.15 0 12.96 5.82 12.96 12.97v40.53c0 7.14-5.81 12.96-12.96 12.96Z" class="l_white" style="fill: rgb(255, 165, 0);"/>
  <path d="M768.36 441.4c15.81-3.97 27.38-8.87 27.38-13.98 0-2.61-2.38-4.95-7.05-6.95 6.52.26 9.37 3.32 9.37 6.95 0 6.62-11.61 12.11-29.58 13.97-.03 0-.08.01-.12.01ZM733.39 400.48c3.95-2.48 5.9-5.06 5.98-5.17 1.77 1.51-.77 4.97-5.94 5.17h-.04ZM730.38 364.28c6.81-11.21 22.22-3.68 22.86-3.35-1.18 2.01-15.45-4.94-21.96 2.93-.23.28-.56.42-.89.42Z" class="g"/>
  <path d="M786.48 437.55c-1.15-1.29-.86-9.13-.96-11.24-.03-.48.11-1.24.46-3.07 1.39-7.41 5.09-27.1-3.08-43.08-4.11-8.05-15.46-16.81-25.8-17.02-7.81 0-13.58 9.54-15.71 18.49-1.77 7.37-1.38 15.85 3.5 18.2 2.28 1.1 4.37 1.17 6.4.2 6.96-3.34 10.29-17.51 10.32-17.66 2.12 1.15-1.36 15.93-9.31 19.75-2.66 1.27-5.49 1.2-8.41-.2-6.44-3.12-6.58-13.18-4.75-20.84 2.35-9.8 8.91-20.27 17.8-20.27 11.76.23 23.65 9.67 28.05 18.29 8.53 16.7 4.73 36.94 3.29 44.57-.2 1.11-.43 2.26-.41 2.53.1 2.22-.19 9.91-.2 10.24-.03.63-.54 1.12-1.16 1.12Z" class="g"/>
  <path d="M758.81 430.99c-1.83 0-3.57-.21-5.19-.67-2.15-.61-3.86-1.56-5.08-2.84-1.64-1.73-2.55-4.22-2.58-7.02-.02-2.81.48-6.64 2.95-8.92 2.6-2.4 6.26-3.04 9.49-3.6 7.9-1.45 11.35-4.84 11.55-10.32 2.15 4.7-.09 10.57-9.84 12.37-4.38.76-7.54 1.31-9.62 3.25-1.95 1.8-2.23 5.29-2.21 7.2.02 2.21.71 4.15 1.94 5.45.92.97 2.29 1.71 4.04 2.21 7.52 2.15 20.39-2.07 27.56-8.99-4.14 7.21-14.42 11.89-23.02 11.89ZM100.64 227.51c-7.54-18.72-.04-37.52 16.73-45.47 3.7-1.76 7.81-2.7 11.77-3.61 6.02-1.39 11.71-2.71 15.93-6.63 5.52-5.13 6.38-13.09 6.41-17.37.03-4.07-.62-8.18-1.25-12.15-.4-2.54-.82-5.17-1.06-7.8-.71-7.64-.94-14.28-.69-20.33.36-8.86.67-17.14 7.01-23.24 3.94-3.79 9.35-5.51 13.07-6.48 4.69-1.22 9.51-1.89 14.18-2.54 3.07-.43 4.28-.41 5.59-.39 2.41.03 5.15.07 6.39-1 .18-.15 18.23-15.77 49.02 3.68 20.17 12.74 20.35 23.23 18.88 43.86-.73 10.09-5.94 18.35-10.53 25.65-4.69 7.45-8.74 13.89-6.11 19.71 1.58 3.49 4.06 6.55 6.67 9.79 6.38 7.89 12.97 16.04 6.07 30.46 4.16-14.1-1.69-21.34-7.87-29.01-2.6-3.21-5.28-6.54-6.98-10.29-3.15-6.96 1.21-13.89 6.26-21.9 4.45-7.07 9.49-15.08 10.16-24.59 1.46-20.22 1.29-29.67-17.79-41.73-29.2-18.43-45.56-4.5-46.25-3.9-1.92 1.67-5.1 1.62-7.97 1.58-1.17-.02-2.32-.03-3.16.08-6.67.93-11.42 1.59-15.98 2.77-5.6 1.46-9.32 3.28-12.04 5.91-5.66 5.45-5.96 12.91-6.27 20.8-.28 6.81-.06 13.36.64 20.89.24 2.55.65 5.14 1.05 7.65.64 4.06 1.3 8.26 1.27 12.53-.05 8.04-2.59 14.81-7.15 19.05-4.67 4.36-10.93 5.8-16.99 7.2-3.84.88-7.81 1.8-11.29 3.45-15.92 7.55-22.75 24.75-16.63 41.82-.82 1.53-.96 1.55-1.09 1.55Z" class="g"/>
  <path d="M224.77 161.21c2.16-2.45 3.85-4.07 4.66-5.02 1.13-1.34 1.63-2.58 1.73-3.12-1.18-.78-4.97-3.54-5.48-6.76-.45-2.86.73-13.93.88-15.18 1.94 3.57 1.07 12.66 1.41 14.82.32 1.98 3.08 4.33 4.74 5.36.42.26 1.06.92.66 2.49-.6 2.37-3.81 7.14-8.53 7.4h-.06ZM710.84 504.74c-2.62 0-4.95-.16-6.8-.34-5.9-.59-10.89-4.12-13.02-9.22-2.97-7.14-1.06-14.48-.97-14.79 1.49-.83 32.01 1.14 43.29-17.97 1.55-.48 9.07 1.12 12.61 7.38 2.22 3.92 2.35 8.73.39 14.29-6.16 17.51-23.72 20.65-35.5 20.65Zm-17.67-10.45c1.8 4.31 6.05 7.3 11.11 7.81 9.68.95 32.9 1.08 39.89-18.77 1.72-4.9 1.65-9.07-.23-12.38-2.41-4.26-7.17-6.04-9.05-6.59-11.22 17.79-37.25 17.78-42.79 17.55-.38 2.08-1.02 7.37 1.07 12.39Z" class="g"/>
  <path d="M752.07 623.4c-1.4 0-2.83-.03-4.31-.1-10.82-.46-18.73-2.01-25.63-5.01-13.75-5.97-20.99-17.27-20.91-32.7.06-10.11 2.52-20.68 7.33-31.44.53-1.2 1.09-2.4 1.66-3.59 1.99-4.26 4.06-8.65 4.88-13.25 2.63-14.48-8.33-27.48-15.1-33.94 8.71 5.1 20.22 18.8 17.39 34.36-.89 4.89-3.01 9.43-5.07 13.82-.56 1.19-1.12 2.37-1.64 3.56-4.67 10.46-7.07 20.72-7.13 30.5-.07 14.42 6.68 24.99 19.52 30.55 6.63 2.87 14.28 4.36 24.8 4.82 15.69.64 26.88-2.32 33.97-9.14 6.15-5.92 8.54-14.11 9.48-19.93 2.45-15.46 1.27-30.27-3.39-42.82-3.86-10.4-9.94-19.95-15.83-29.2-1.63-2.56-3.26-5.11-4.84-7.69-6.78-11.01-12.75-20.03-22.7-27.57 11.65 5.92 18 15.52 24.67 26.35 1.58 2.56 3.2 5.11 4.83 7.66 5.96 9.35 12.12 19.01 16.06 29.64 4.79 12.93 6.01 28.14 3.49 43.99-.98 6.17-3.54 14.87-10.15 21.24-6.89 6.64-17.18 9.88-31.38 9.88ZM962.08 391.18c-1.15-1.36-1.06-3.77-5.33-5.49-4.45-1.79-7.08.46-7.2.56-1.41-1.86 2.17-5.05 8.07-2.71 5.97 2.4 5.63 6.43 5.62 6.6a1.16 1.16 0 0 1-1.15 1.04ZM932.01 386.29c-.89-.4-3.54-2.65-7.97-.86 5.01-4.51 8.6-1.29 8.75-1.16-.15 1.89-.46 2.02-.78 2.02Z" class="g"/>
  <path d="M1141.78 391.55c.92-5.67 2.74-9.75 4.36-13.78.52 4.95-1.33 9.08-3.32 13.13-.2.41-.61.65-1.04.65Zm9.92-24.76c.21-5.71 1.36-10.02 2.31-14.31 1.3 4.85.13 9.23-1.2 13.49-.16.5-.61.82-1.11.82Zm5.77-26.03c-.57-5.7-.2-10.14-.04-14.5 2.15 4.53 1.76 9.03 1.19 13.49-.08.59-.57 1.01-1.15 1.01Zm.99-26.63c-1.41-5.47-1.88-9.9-2.56-14.25 2.99 4.07 3.47 8.57 3.72 13.02-1.12 1.23-1.14 1.23-1.16 1.23Zm-4.12-26.33c-2.25-5.15-3.59-9.39-5.11-13.48 3.71 3.36 5.08 7.67 6.23 12.02-.93 1.45-1.03 1.46-1.12 1.46Zm-9.27-24.97c-2.95-4.57-5.1-8.47-7.43-12.23 4.34 2.61 6.52 6.58 8.47 10.57-.7 1.63-.88 1.67-1.05 1.67Zm-14-22.67c-3.54-3.91-6.42-7.32-9.44-10.58 4.78 1.74 7.69 5.2 10.36 8.72-.43 1.78-.67 1.86-.92 1.86Zm-18.14-19.53c-3.07-2.34-5.49-4.34-7.97-6.26-1.04-.79-2.07-1.57-3.1-2.34 2.42-1.09 3.47-.31 4.52.5 2.52 1.95 4.98 3.99 7.33 6.07-.13 1.9-.45 2.03-.77 2.03Zm-21.41-15.88c-4.38-2.54-8.24-4.76-12.11-6.78 4.99 0 8.91 2.25 12.73 4.64.14 1.95-.24 2.15-.62 2.15Zm-23.62-12.37c-4.53-1.83-8.7-3.4-12.84-4.78 4.94-.8 9.16.79 13.29 2.55.43 1.96 0 2.23-.45 2.23Zm-117.53-5.12c-.22-2.32 4.43-4.08 12.57-5.98-7.44 4.12-12.11 5.89-12.15 5.9-.14.05-.27.08-.42.08Zm92.23-3.29a183.22 183.22 0 0 0-13.27-2.66c4.79-1.58 9.22-.68 13.54.38.72 1.93.25 2.28-.27 2.28Zm-66.28-2.88c4.23-2.97 8.73-3.46 13.19-3.77-4.24 2.63-8.67 3.11-13.02 3.76-.05 0-.12.01-.17.01Zm39.94-1.36c-4.46-.36-8.92-.55-13.35-.56 4.5-2.3 9.01-2.12 13.44-1.75 1.01 1.86.51 2.32-.1 2.32ZM738.57 127.03c-2.42-4.98-4-9.13-5.79-13.14 3.94 3.14 5.56 7.38 6.9 11.63-.88 1.49-.99 1.51-1.11 1.51Zm-10.88-24.28c-3.22-4.31-5.69-7.99-8.35-11.52 4.56 2.2 7.09 5.95 9.35 9.77-.59 1.7-.8 1.75-1 1.75Zm-16.03-21.23c-3.81-3.52-7.01-6.61-10.37-9.55 4.94 1.25 8.2 4.38 11.21 7.59-.27 1.85-.56 1.95-.84 1.95Zm-20.04-17.59c-4.16-2.76-7.86-5.24-11.69-7.59 5.1.41 8.85 2.92 12.37 5.49.03 1.93-.33 2.1-.68 2.1ZM668.9 49.95c-4.34-2.12-8.37-4.05-12.5-5.88 5.11-.27 9.18 1.69 13.03 3.69.28 1.96-.12 2.19-.54 2.19Zm-24.39-10.83c-4.46-1.6-8.69-3.07-12.96-4.43 5.02-.83 9.28.64 13.36 2.18.5 1.96.06 2.25-.41 2.25Zm-25.41-8.13c-4.5-1.17-8.84-2.24-13.22-3.21 4.91-1.28 9.3-.2 13.53.93.68 1.94.21 2.28-.3 2.28Zm-26.05-5.84c-4.47-.8-8.89-1.52-13.35-2.16 4.81-1.65 9.26-.93 13.56-.14.83 1.91.34 2.3-.21 2.3Zm-26.44-3.82c-4.47-.48-8.93-.89-13.38-1.22 4.64-1.98 9.13-1.57 13.51-1.09.96 1.87.46 2.32-.13 2.32ZM301.76 187.26c-1.12-1.51-.51-6.4 1.56-14.59.22 8.59-.39 13.52-.4 13.57-.07.58-.58 1.02-1.16 1.02Zm6.41-25.98c.28-5.75 1.84-10 3.52-14.15.49 4.97-1.05 9.17-2.42 13.35-.16.49-.61.79-1.1.79Zm9.97-24.77c.87-5.65 2.94-9.66 5.14-13.59-.14 5.01-2.21 8.98-4.1 12.93-.2.41-.61.66-1.05.66Zm13.06-23.29c1.46-5.52 4.04-9.23 6.71-12.81-.79 4.93-3.34 8.6-5.73 12.29-.22.34-.6.53-.98.53Zm15.97-21.37c1.99-5.27 5.04-8.6 8.19-11.81-1.46 4.79-4.46 8.09-7.31 11.4-.22.27-.55.41-.87.41Zm18.68-19.03c2.61-5.03 6.08-7.92 9.56-10.61-2.01 4.49-5.44 7.34-8.78 10.32-.22.2-.5.29-.77.29Zm21.06-16.35c3.05-4.62 6.87-7.02 10.71-9.26-2.62 4.22-6.4 6.6-10.06 9.06-.2.13-.43.2-.65.2Zm23-13.48c3.48-4.22 7.57-6.13 11.63-7.87-3.09 3.86-7.14 5.74-11.11 7.75-.16.08-.34.12-.52.12Zm24.46-10.58c3.65-3.74 7.81-5.13 11.95-6.41-3.42 3.47-7.54 4.86-11.55 6.34-.13.05-.26.07-.4.07Zm25.58-7.54c3.9-3.17 8.34-3.97 12.97-4.66-4.24 2.98-8.63 3.77-12.73 4.64-.08.02-.16.03-.24.03Zm26.38-4.03c4.19-2.76 8.68-3.13 13.23-3.42-4.37 2.6-8.83 2.97-13.11 3.41h-.12Z" class="l_white" style="fill: rgb(255, 165, 0);"/>
  <path d="M566.67 700.66H210.16c0-2.32 356.51-2.32 356.51-2.32 1.16 1.8.64 2.32 0 2.32ZM276.72 468.27h-48.53c-1.16-1.16-1.16-49.69-1.16-49.69 1.16-1.16 49.69-1.16 49.69-1.16 1.16 1.16 1.16 49.68 1.16 49.68 0 .64-.52 1.16-1.16 1.16Zm-47.36-2.32h46.2v-46.2h-46.2v46.2ZM276.72 554.14h-48.53c-1.16-1.16-1.16-49.68-1.16-49.68 1.16-1.16 49.69-1.16 49.69-1.16 1.16 1.16 1.16 49.69 1.16 49.69 0 .64-.52 1.16-1.16 1.16Zm-47.36-2.32h46.2v-46.2h-46.2v46.2ZM326.41 653.67c-1.16-1.16-1.16-234.38-1.16-234.38 2.32 0 2.32 233.22 2.32 233.22 0 .64-.53 1.16-1.16 1.16ZM199.18 92.77c-1.07-.71-3.93-7.52-3.93-7.52 2.14-.89 4.99 5.92 4.99 5.92-.77 1.58-.92 1.61-1.07 1.61ZM1097.69 560.38c-.78-7.76 10.04-11.45 10.5-11.6-1.99 3.11-9.1 6.38-9.34 10.5-.04.61-.55 1.09-1.16 1.09ZM740.31 230.35c-11.06 0-20.06-9-20.06-20.06s8.99-20.06 20.06-20.06 20.07 9 20.07 20.06-9.01 20.06-20.07 20.06Zm0-37.8c-9.78 0-17.73 7.96-17.73 17.74s7.96 17.74 17.73 17.74 17.74-7.96 17.74-17.74-7.96-17.74-17.74-17.74ZM876.97 197.92H775.9c0-2.32 101.07-2.32 101.07-2.32 1.16 1.81.64 2.32 0 2.32ZM876.97 224.29H775.9c0-2.32 101.07-2.32 101.07-2.32 1.16 1.8.64 2.32 0 2.32ZM603.84 657.33c-.32-10.78-4.2-20.16-12.09-27.66-7.96-7.57-19.02-12.32-31.15-13.38-23.48-2.07-44.47 10.69-47.94 29 1.41-19.89 23.62-33.5 48.13-31.32 12.66 1.1 24.21 6.08 32.54 14.02 8.41 8 12.55 18.04 11.65 28.28-.05.6-.56 1.06-1.15 1.06Z" class="g"/>
  <path d="M528.92 37.92c-10.45 0-18.95-8.5-18.95-18.96S518.47 0 528.92 0s18.96 8.5 18.96 18.96-8.51 18.96-18.96 18.96Zm0-35.59c-9.17 0-16.63 7.46-16.63 16.63s7.45 16.63 16.63 16.63 16.63-7.46 16.63-16.63-7.46-16.63-16.63-16.63Z" class="l_white"/>
</svg>