<?xml version="1.0" encoding="utf-8"?>
<svg version="1.1" id="Layer_1" x="0px" y="0px" viewBox="0 0 1000 1000" style="enable-background:new 0 0 1000 1000;" xmlns="http://www.w3.org/2000/svg">
  <defs/>
  <style type="text/css">
	.st0{display:none;}
	.st1{display:inline;}
	.st2{fill:#FFCC66;}
	.st3{fill:#FFFFFF;}
	.st4{fill:#333333;}
	.st5{fill:#666766;}
</style>
  <g>
    <g class="st0">
      <path class="st1" d="M994.6,870.1H3.4c-0.5,0-0.9-0.4-0.9-0.9c0-0.5,0.4-0.9,0.9-0.9h991.2c0.5,0,0.9,0.4,0.9,0.9&#10;&#9;&#9;&#9;&#9;C995.5,869.7,995.1,870.1,994.6,870.1z"/>
    </g>
    <circle class="st2" cx="307.1" cy="389.7" r="127.8" style="fill: rgb(255, 165, 0);"/>
    <path class="st3" d="M788.7,911H393.4c-8.4,0-15.3-6.9-15.3-15.3V406c0-8.4,6.9-15.3,15.3-15.3h395.3c8.4,0,15.3,6.9,15.3,15.3&#10;&#9;&#9;&#9;v489.7C804,904.1,797.1,911,788.7,911z"/>
    <path class="st2" d="M85.7,737.1c0,0-17.5,6.9-27.6,21C48,772.2,25,805.6,17.9,829.5c-7.1,23.9-14.5,35.5-15.1,56.3&#10;&#9;&#9;&#9;c-0.6,20.8,0,38.7,6.7,48.9l211.9,0.6l11-138.4c0,0-14-31.8-28.8-46.2c-14.8-14.4-33.8-23.6-47.9-23.1L85.7,737.1z" style="fill: rgb(255, 165, 0);"/>
    <path class="st4" d="M236.9,935.5h177.3c11.7,0,22-7.2,25.7-17.8l42-121.4c5.8-16.8-7.2-34.1-25.7-34.1H279&#10;&#9;&#9;&#9;c-11.7,0-22,7.2-25.7,17.8l-42,121.4C205.4,918.2,218.4,935.5,236.9,935.5z"/>
    <path class="st2" d="M615.9,177.5c0,0-13-14.3-11-24.1c2-9.8,10.9-17.8,17.9-18.6c7.1-0.8,15.9,3.4,15.9,3.4s6.2-6.8,21.7-2.7&#10;&#9;&#9;&#9;c15.5,4.1,24.3,22.9,24.3,22.9s16.6,2.3,16.5,18.4c-0.1,16.1-10.1,31.2-22.5,40.7c-12.4,9.5-10.9,9.9-14.3,9.4&#10;&#9;&#9;&#9;c-3.4-0.5-9-1.9-6.4-15.8l-7.4-21.6c0,0-11.7-1.1-4.2-15.8c0,0-10.8-12.8-25.1-12.4L615.9,177.5z" style="fill: rgb(255, 165, 0);"/>
    <path class="st2" d="M774.5,881.3v54h181.7l-0.5-38.9c0,0,23.1-8.5,30.3-34.5c7.2-26.1,0.2-48.6-3.2-60.1&#10;&#9;&#9;&#9;c-3.3-11.5-16.2-47-23.6-63.1c-7.4-16.1-16.4-38.6-21.4-47.1c-5-8.5-15.2-23.2-32.2-29.1c-16.9-5.9-36.7-5.9-36.7-5.9l-34.2-0.7&#10;&#9;&#9;&#9;c0,0-11.1,0.8-27,6.5c-16,5.8-25.6,8.7-42.2,5.8c-16.5-2.9-28.8-15.7-35.5-27.4c-6.7-11.7-12.9-34.4-14.4-44&#10;&#9;&#9;&#9;c-1.5-9.5-2.1-21.7-2.1-21.7s-4-6.1-31.1-4.9c-27.1,1.2-34.1,5.1-34.5,6.2c-0.4,1,2.5,28.7,9,52.9c6.5,24.2,20.3,54.6,36.5,73.1&#10;&#9;&#9;&#9;c16.2,18.5,43.4,41.6,74.8,45.8L774.5,881.3z" style="fill: rgb(255, 165, 0);"/>
    <path class="st4" d="M890.8,744.3l-112.7,0.9c0,0-21.1,2.8-23.2,25.5c-2,22.7,0.8,86.1,0.8,86.1s2.6,22.8,22.5,25.4l108.9-1.2&#10;&#9;&#9;&#9;c0,0-18.6-11.4-35.1-25.5c-16.5-14.1-25.6-24.5-25.6-24.5s13.6-34.1,35-50.4l53.9,38.8C915.2,819.2,896.4,770.4,890.8,744.3z"/>
    <path class="st4" d="M641.1,745.3l0,55h-55c0,30.4,24.6,55,55,55c30.4,0,55-24.6,55-55C696.1,770,671.4,745.3,641.1,745.3z"/>
    <path class="st2" d="M570.1,780h54.4v-54.4c0,0-22.3-1.5-39.5,17C567.8,761,570.1,780,570.1,780z" style="fill: rgb(255, 165, 0);"/>
    <path class="st3" d="M174.4,650.4c0,0,4.8,5.1,6,11.5c2.5,13.6-6.1,22.8-6.1,22.8s0.8,24.8-17.4,24.5l-1.3,19.7&#10;&#9;&#9;&#9;c0,0,2,22.4-4.8,23.1c-6.8,0.7-17.1-13.6-17.1-13.6s7.8-10.4,7.6-19.7c-0.3-9.3-0.1-15.9-8.2-27.6c-8.1-11.7-8.9-19.9-6.9-24.5&#10;&#9;&#9;&#9;c1.9-4.6,6.4-15.4,6.6-18.6c0.2-3.2-2-14-2-14s3.9,3.5,4.4,7.7c0.5,4.2,0.1,8.9,0.1,8.9l9.7-0.4L174.4,650.4z"/>
    <path class="st3" d="M122.6,906.6c0,0,23.9-11.7,29.2-11.9s8.1-0.3,8.1-0.3s9-7.1,19.9-2c0,0,5.7-4.8,11.4-4&#10;&#9;&#9;&#9;c5.7,0.8,8.9,7.4,8.9,7.4s-2.8,9.9-2.3,14c0.5,4,3.6,17.5,14,22.4c0,0-4.1,5.3-14-1c0,0-7.7,5.5-18.7,3.2c0,0-6.3,2-10.1,0.6&#10;&#9;&#9;&#9;c-3.8-1.4-7-4-8.5-6.1c-1.5-2-4.8-9.2-4.8-9.2s-0.7,15.9-19.8,15.2c0,0-6.8-2.5-11-11.8C120.6,913.8,122.6,906.6,122.6,906.6z"/>
    <path class="st3" d="M857.7,783.8c0,0-4.4-8.7-8.2-16.9c-3.8-8.2-5.9-15.2-11.2-14.3c-5.3,0.9-3.8,9.7-2.8,12.7&#10;&#9;&#9;&#9;c1,3,5,14.1,0.8,15.3s-10.2-1.1-16.4-6.7c-6.2-5.5-17-15.9-17-15.9s-6-4-9.8-0.7c-3.8,3.3-0.6,8-0.6,8s-5.1-0.2-6.5,2&#10;&#9;&#9;&#9;c-1.4,2.2-1.6,5.9-0.3,7.5c0,0-6.6,5-2.5,12.3c4.1,7.4,20.2,21.2,24.8,24.6c4.6,3.5,16,10.9,21.3,11.8c0,0,5.9-12.5,12.5-21.8&#10;&#9;&#9;&#9;C848.6,792.6,857.7,783.8,857.7,783.8z"/>
    <path class="st3" d="M701.6,580.4c0,0,1.3-22.7-1.1-31.8c-2.4-9.1-5.1-15.2-12.8-17.3c-7.7-2.1-14.9-3.7-14.9-3.7h-8.4l5.2,9.4&#10;&#9;&#9;&#9;l-7.8,4.1l-5.2-9.2c0,0-10.6,2.8-12.1,10.7c-1.5,8-1,22.6,3.3,31.4c4.4,8.8,8.3,14.3,17.9,13.7c9.6-0.5,14.5-1.5,20.2-4.1&#10;&#9;&#9;&#9;c5.7-2.7,6.4-4.7,6.4-4.7l1.6,2.9L701.6,580.4z"/>
    <path class="st3" d="M827,572.3l-6.2,30.1c0,0-3,15.6-1.7,22.8c1.3,7.1,2.1,16.9,17.2,17.1l-1.5,13.5c0,0-10.6,28.5,2.4,28.9&#10;&#9;&#9;&#9;c13,0.4,18.8-9,23.3-15c4.5-6,8.5-13.2,8.5-13.2l0.7-32.3c0,0,14.5,3.5,15-9.8c0.5-13.3-15-11.3-15-11.3s-17.4-9.6-25.4-15.8&#10;&#9;&#9;&#9;C836.4,581,827,572.3,827,572.3z"/>
    <path class="st2" d="M350.2,845.5c-5.4,9.4-4.8,19.8,1.4,23.4c6.2,3.6,15.5-1.1,20.9-10.5c5.4-9.4,4.8-19.8-1.4-23.4&#10;&#9;&#9;&#9;C365,831.4,355.6,836.1,350.2,845.5z" style="fill: rgb(255, 165, 0);"/>
    <g>
      <g>
        <path class="st3" d="M211.9,361.9c4.5-1.2,8.6-2.4,12.7-3.5c2.3-0.6,4.6-1.2,6.9-1.9c0.7-0.2,1.1-0.1,1.6,0.5&#10;&#9;&#9;&#9;&#9;&#9;c7.8,10.6,17.2,19.5,27.4,27.6c3.3,2.6,6.7,3.2,10.6,2.2c3.9-1,7.5-2.8,10.9-5c8.3-5.3,15.6-11.9,22.6-18.8&#10;&#9;&#9;&#9;&#9;&#9;c12.8-12.6,24.5-26.2,35.5-40.3c0.7-0.8,1.2-1.1,2.2-0.8c6.9,2,13.8,3.8,20.7,5.8c0.3,0.1,0.7,0.2,1.1,0.4&#10;&#9;&#9;&#9;&#9;&#9;c-0.2,0.4-0.3,0.7-0.5,1c-13.4,22.8-28,44.7-44.9,65.1c-8.5,10.3-17.6,20.1-28.4,28c-3.5,2.5-7.2,4.7-11,6.7&#10;&#9;&#9;&#9;&#9;&#9;c-8.3,4.3-16.7,4.2-25.2,0.4c-8.3-3.8-14.9-9.7-20.3-16.9c-7.9-10.4-13.2-22.1-17.2-34.4C214.9,372.8,213.5,367.4,211.9,361.9z"/>
      </g>
    </g>
    <path class="st4" d="M85.7,737.1c0,0,27.3,12.6,41.5,4.3c14.2-8.3,14.9-20.7,14.3-30.1c-0.6-9.4-8.7-21.8-12.3-26.7&#10;&#9;&#9;&#9;c-3.6-4.9-4.3-10.5-3-18.1c1.2-7.5,6.2-12.6,6.6-18.6c0.4-6-3.4-16-3.4-16s5.8,4.9,5.9,10.7c0.1,5.8,0,7.8,0,7.8l5.6,0.5&#10;&#9;&#9;&#9;c0,0,1.7-2,3.2-2.1c1.5-0.1,5.2,2.8,5.2,2.8l17.7-0.7c0,0,3.4-2.2,5.4-1.4c2,0.8,3.2,1.4,3.2,1.4l2.5,0c0,0,0.6-13.7-1.7-20.1&#10;&#9;&#9;&#9;c-2.4-6.4-4.7-11.3-17.1-13.2c-12.4-1.9-24.9-3.4-36.4,3.7c0,0-30.2-2.2-32.2,24.4c0,0,6,33.9,7.5,43.4c1.5,9.5,3.7,18.6-5.7,21.8&#10;&#9;&#9;&#9;c-9.4,3.2-20.8,4.4-23.8,15.1c-2.9,10.7-1.7,15.3,2.7,18.9L85.7,737.1z"/>
    <path class="st4" d="M156.9,709.2l-1.2,18.4l11.2,2.1c0,0,4.8-3.2,4-10.3c-0.8-7-4.5-12.1-4.5-12.1S158.9,710.6,156.9,709.2z"/>
    <path class="st4" d="M516,253.4c0,0,17.8,57.7,18.9,61.3c1.2,3.6,5.6,28.6,19.8,27.4c14.2-1.1,18.5-16.2,20.3-20.8&#10;&#9;&#9;&#9;c1.9-4.6,12.6-32,20.8-43.4c8.2-11.3,20.8-19,34-19.9c13.2-0.9,54.1-2,64.9,5.3c10.7,7.3,30.1,31.2,44.8,61.4&#10;&#9;&#9;&#9;c14.7,30.2,18.3,33,19.5,45.3l-32.8,0.8l-97.4-0.5c0,0-12,18.5-25.3,28.9c0,0-10.5,6.5-16.4,9.4c-5.9,2.9-22.6,8.8-39.3,8.3&#10;&#9;&#9;&#9;c-16.7-0.5-40.4-5.4-55.4-25.5c-15-20.1-20.4-33.5-23.9-45.2c-3.6-11.7-10-36.3-12.7-52c-2.7-15.7-5.4-30.7-5.4-30.7&#10;&#9;&#9;&#9;s4.8-9.2,30.6-13S516,253.4,516,253.4z"/>
    <path class="st3" d="M685.5,583.7l4.9,9.2c0,0,4.2,1.5,5.9,0c1.7-1.5,1.1-4.8,1.1-4.8l-5-9.3C692.4,578.8,688.4,583.3,685.5,583.7&#10;&#9;&#9;&#9;z"/>
    <path class="st3" d="M627.1,246.6v-8.9c0,0-15.3-1.8-18.4-7.5c-3.1-5.7-3.1-11.1-2-13.9c1-2.8,2.2-11,2.2-11s-8.9-6.3-7.9-9.8&#10;&#9;&#9;&#9;c1-3.5,13.6-11.8,13.6-11.8l5.3-22.7c0,0,20.5,2.8,25.8,13.5c0,0-5.2,14.1,4.4,15c0,0,4.6-6.3,12.1-4.3c7.5,2,10.4,5.9,11,13.4&#10;&#9;&#9;&#9;c0.6,7.5-6.7,13.2-15.7,12.5c0,0-2.2,14.6,3,15.3c5.1,0.7,8.3-1.8,8.3-1.8l1.7,18.3L627.1,246.6z"/>
    <path class="st3" d="M504,261.9c0,0-2.1-11.4-1.4-25.8c0.7-14.4-0.9-16.7,0.6-23.1c1.5-6.4,7.4-15.2,1.9-16.6&#10;&#9;&#9;&#9;c-5.6-1.4-12.8-0.8-15.8,4.9c-2.9,5.7-5.4,18.9-7.2,20.7c-1.8,1.8-5.6,3.4-8.1,2.5c-2.5-0.9-4.3-2.9-5.8-6.5&#10;&#9;&#9;&#9;c-1.5-3.7-5.6-14.8-10.9-20.2c-5.3-5.3-12.3-10.8-17.9-9c-5.6,1.8-5.8,6.5-5.8,6.5s-8.4,0-8.2,8.3c0,0,0.8,3.2,4.9,9&#10;&#9;&#9;&#9;c4.2,5.8,7.1,10,9.4,15.4c2.3,5.4,6.1,16.6,12.9,21.9c6.8,5.3,12.2,8.3,13,17.2c0,0,4.6,0.8,17.8-0.5&#10;&#9;&#9;&#9;C496.7,265.3,504,261.9,504,261.9z"/>
    <path class="st5" d="M502.7,249.9l2,12c0,0,12.9-4.7,12.3-8C516.5,250.7,502.7,249.9,502.7,249.9z"/>
    <path class="st5" d="M459.9,255.9c0,0,5.6,6.6,5.5,11.2c0,0-13.9,0-14.8-3C449.6,261,459.9,255.9,459.9,255.9z"/>
    <path class="st3" d="M613.3,260.3l8.2-13.6c0,0,48.8-5.5,57.5-4.4l10.9,16.1c0,0-37.7-3.3-48.7-2.4&#10;&#9;&#9;&#9;C630.1,256.9,613.3,260.3,613.3,260.3z"/>
    <polygon class="st5" points="638.2,236.3 627.1,245.7 627.1,237.6 &#9;&#9;"/>
    <path class="st4" d="M121.8,906.6l23.9-10.9c0,0,11.2-3,14.1-1.4c0,0,8.7-5.6,18.4-3c0,0-3.1-4.9-8.7-8.1s-16.3-7-23.3-5.1&#10;&#9;&#9;&#9;C139.3,880.1,124.4,886.2,121.8,906.6z"/>
    <path class="st4" d="M143.3,935.3h24.1c0,0-9.8-6.9-11.4-14.5C156,920.7,148.8,933.6,143.3,935.3z"/>
    <path class="st3" d="M461.6,761.9l-12.7-7.4H271.1c0,0-20.7-3.4-29.9,18.6l-41.5,125.3c0,0-11.8,34.5,28.2,37.3l0.3-1.2&#10;&#9;&#9;&#9;c0,0-17-7.7-18.2-21.4c-1.2-13.7,12.9-45.6,12.9-45.6l32-91.8c0,0,11.3-13.4,21.8-13.4L461.6,761.9z"/>
    <circle class="st2" cx="462.2" cy="143.1" r="47.7" style="fill: rgb(255, 165, 0);"/>
    <g id="Layer_2">
      <path class="st3" d="M941.9,698.8c6.1-6.2,9.8-10.4,4.8-28.5s-26-22.9-35.4-30c-9.4-7.1-13.1-9.5-10.9-24.3s8.4-23.2,8.4-23.2&#10;&#9;&#9;&#9;&#9;c6.8-22.2-19.8-35-42.1-40.5c-22.3-5.4-36.9,0.2-36.9,0.2c-19.2,7.9-17.6,36.6-17.6,36.6c3.6,16.1,1.6,25,1.6,25&#10;&#9;&#9;&#9;&#9;c-3.2,12.3-15.5,19.1-15.5,19.1c-19.7,22-4.2,33.5-4.2,33.5c1.6,1.8,17.8-6.4,17.8-6.4c9.9-4.6,21.6-4.3,21.6-4.3l1.4,0l33.8,0.2&#10;&#9;&#9;&#9;&#9;C928.1,653.9,941.9,698.8,941.9,698.8z" style="fill: rgb(51, 51, 51);"/>
      <path class="st3" d="M836.2,642.2l-1.2,14l33.8,0.2l0.9-32.3c0,0,13.6,3.5,14.8-10.3c1.3-13.8-14.8-10.9-14.8-10.9&#10;&#9;&#9;&#9;&#9;s-40.3-23.8-41.7-30.3c-1.4-6.5-7.6,32.5-7.6,32.5s-4.1,22.1,2.5,32c-0.5-0.6,4.6,3.6,4.6,3.6L836.2,642.2z"/>
    </g>
    <path class="st4" d="M462.2,197.6v5.9c0,0,2.9,5.7,4.3,10.6c1.4,4.9,2.7,10.3,10.4,10.1c7.7-0.2,7.2-17.5,11.7-22.2l0-5.2&#10;&#9;&#9;&#9;c0,0-3.8,2.2-12.1,2C468.1,198.7,462.2,197.6,462.2,197.6z"/>
    <rect x="485.3" y="478.6" class="st2" width="25.6" height="32.4" style="fill: rgb(255, 165, 0);"/>
    <rect x="442.5" y="461.3" class="st4" width="25.4" height="49.3"/>
    <path class="st3" d="M166.9,651.1c0,0,3.4-2.2,5.4-1.4c2,0.8,3.2,1.4,3.2,1.4l2.5,0c0,0,0.6-13.7-1.7-20.1&#10;&#9;&#9;&#9;c-2.4-6.4-4.7-11.3-17.1-13.2c-6.3-1-12.6-1.8-18.9-1.5c9.5,1.3,20,4.6,22.9,13.1c3.2,9.3,3.4,16.9,3,21.7L166.9,651.1z"/>
    <path class="st3" d="M141.5,711.3c-0.6-9.4-8.7-21.8-12.3-26.7c-3.6-4.9-4.3-10.5-3-18.1c0.2-1.4,0.6-2.6,1-3.9&#10;&#9;&#9;&#9;c0,0-5.5,9.3-1.9,24.2c3.3,13.6,17.9,45.4-13.3,57.2c5.5,0.4,10.9-0.2,15.1-2.7C141.3,733.1,142.1,720.7,141.5,711.3z"/>
    <path class="st3" d="M166.4,707.4c0,0-2.2,0.9-4.6,1.6c1.7,3.9,3,10.6,0.5,19.9l4.6,0.9c0,0,4.8-3.2,4-10.3&#10;&#9;&#9;&#9;C170.1,712.4,166.4,707.4,166.4,707.4z"/>
    <path class="st3" d="M621.4,146.9c0.8-6.2,5.9-9.5,10.2-11.2c-2.8-0.7-5.9-1.2-8.8-0.9c-7.1,0.8-15.9,8.8-17.9,18.6&#10;&#9;&#9;&#9;c-2,9.8,11,24.1,11,24.1l5.5-16.2c11.5-0.3,20.7,7.9,23.9,11.1C642.5,161.7,619.9,157.6,621.4,146.9z"/>
    <path class="st3" d="M660.5,135.6c-15.5-4.1-21.7,2.7-21.7,2.7l5.3,3.6c0,0,7.5-9.3,26.6-1.1C667.8,138.5,664.4,136.6,660.5,135.6&#10;&#9;&#9;&#9;z"/>
    <path class="st2" d="M511.3,406.9c0,0,8.6-26.5,37.3-24.6c28.6,1.8,35.1,22.6,36.8,25.4c0,0-15.4,9.3-38.3,8.5&#10;&#9;&#9;&#9;C524.2,415.4,511.3,406.9,511.3,406.9z" style="fill: rgb(255, 165, 0);"/>
    <g>
      <g>
        <path d="M425.3,511.8h-25.6c-0.6,0-1.1-0.5-1.1-1.1v-79.4c0-0.6,0.5-1.1,1.1-1.1h25.6c0.6,0,1.1,0.5,1.1,1.1v25.5&#10;&#9;&#9;&#9;&#9;&#9;c0,0.6-0.5,1.1-1.1,1.1s-1.1-0.5-1.1-1.1v-24.4h-23.4v77.2h23.4v-23.4c0-0.6,0.5-1.1,1.1-1.1s1.1,0.5,1.1,1.1v24.4&#10;&#9;&#9;&#9;&#9;&#9;C426.4,511.3,425.9,511.8,425.3,511.8z"/>
      </g>
      <g>
        <path d="M468.1,511.8h-25.6c-0.6,0-1.1-0.5-1.1-1.1v-49.4c0-0.6,0.5-1.1,1.1-1.1h25.6c0.6,0,1.1,0.5,1.1,1.1v49.4&#10;&#9;&#9;&#9;&#9;&#9;C469.1,511.3,468.7,511.8,468.1,511.8z M443.6,509.6H467v-47.2h-23.4V509.6z"/>
      </g>
      <g>
        <path d="M510.8,511.8h-25.6c-0.6,0-1.1-0.5-1.1-1.1v-19.6c0-0.6,0.5-1.1,1.1-1.1c0.6,0,1.1,0.5,1.1,1.1v18.5h23.4v-29.3h-16.2&#10;&#9;&#9;&#9;&#9;&#9;c-0.6,0-1.1-0.5-1.1-1.1c0-0.6,0.5-1.1,1.1-1.1h17.3c0.6,0,1.1,0.5,1.1,1.1v31.4C511.9,511.3,511.4,511.8,510.8,511.8z"/>
      </g>
    </g>
    <g>
      <g>
        <path d="M704.4,451.5H573c-0.6,0-1.1-0.5-1.1-1.1s0.5-1.1,1.1-1.1h131.4c0.6,0,1.1,0.5,1.1,1.1S705,451.5,704.4,451.5z"/>
      </g>
      <g>
        <path d="M704.4,503.1h-54.2c-0.6,0-1.1-0.5-1.1-1.1s0.5-1.1,1.1-1.1h54.2c0.6,0,1.1,0.5,1.1,1.1S705,503.1,704.4,503.1z"/>
      </g>
      <g>
        <path d="M639.8,503.1H573c-0.6,0-1.1-0.5-1.1-1.1s0.5-1.1,1.1-1.1h66.7c0.6,0,1.1,0.5,1.1,1.1S640.4,503.1,639.8,503.1z"/>
      </g>
      <g>
        <path d="M704.4,522.7h-42.6c-0.6,0-1.1-0.5-1.1-1.1c0-0.6,0.5-1.1,1.1-1.1h42.6c0.6,0,1.1,0.5,1.1,1.1&#10;&#9;&#9;&#9;&#9;&#9;C705.5,522.2,705,522.7,704.4,522.7z"/>
      </g>
      <g>
        <path d="M650.2,522.7H573c-0.6,0-1.1-0.5-1.1-1.1c0-0.6,0.5-1.1,1.1-1.1h77.2c0.6,0,1.1,0.5,1.1,1.1&#10;&#9;&#9;&#9;&#9;&#9;C651.3,522.2,650.8,522.7,650.2,522.7z"/>
      </g>
      <g>
        <path d="M704.4,471.1H633c-0.6,0-1.1-0.5-1.1-1.1s0.5-1.1,1.1-1.1h71.4c0.6,0,1.1,0.5,1.1,1.1S705,471.1,704.4,471.1z"/>
      </g>
      <g>
        <path d="M621.6,471.1H573c-0.6,0-1.1-0.5-1.1-1.1s0.5-1.1,1.1-1.1h48.6c0.6,0,1.1,0.5,1.1,1.1S622.2,471.1,621.6,471.1z"/>
      </g>
    </g>
    <g>
      <g>
        <path d="M520.8,606.2H389.4c-0.6,0-1.1-0.5-1.1-1.1s0.5-1.1,1.1-1.1h131.4c0.6,0,1.1,0.5,1.1,1.1S521.4,606.2,520.8,606.2z"/>
      </g>
      <g>
        <path d="M520.8,657.8H389.4c-0.6,0-1.1-0.5-1.1-1.1c0-0.6,0.5-1.1,1.1-1.1h131.4c0.6,0,1.1,0.5,1.1,1.1&#10;&#9;&#9;&#9;&#9;&#9;C521.9,657.4,521.4,657.8,520.8,657.8z"/>
      </g>
      <g>
        <path d="M520.8,677.5H389.4c-0.6,0-1.1-0.5-1.1-1.1c0-0.6,0.5-1.1,1.1-1.1h131.4c0.6,0,1.1,0.5,1.1,1.1&#10;&#9;&#9;&#9;&#9;&#9;C521.9,677,521.4,677.5,520.8,677.5z"/>
      </g>
      <g>
        <path d="M520.8,625.9H389.4c-0.6,0-1.1-0.5-1.1-1.1s0.5-1.1,1.1-1.1h131.4c0.6,0,1.1,0.5,1.1,1.1S521.4,625.9,520.8,625.9z"/>
      </g>
    </g>
    <g>
      <g>
        <path d="M650.2,606.2H573c-0.6,0-1.1-0.5-1.1-1.1s0.5-1.1,1.1-1.1h77.2c0.6,0,1.1,0.5,1.1,1.1S650.8,606.2,650.2,606.2z"/>
      </g>
      <g>
        <path d="M665.8,657.8H573c-0.6,0-1.1-0.5-1.1-1.1c0-0.6,0.5-1.1,1.1-1.1h92.7c0.6,0,1.1,0.5,1.1,1.1&#10;&#9;&#9;&#9;&#9;&#9;C666.9,657.4,666.4,657.8,665.8,657.8z"/>
      </g>
      <g>
        <path d="M675.1,677.5H573c-0.6,0-1.1-0.5-1.1-1.1c0-0.6,0.5-1.1,1.1-1.1h102.1c0.6,0,1.1,0.5,1.1,1.1&#10;&#9;&#9;&#9;&#9;&#9;C676.2,677,675.7,677.5,675.1,677.5z"/>
      </g>
      <g>
        <path d="M655.9,625.9H573c-0.6,0-1.1-0.5-1.1-1.1s0.5-1.1,1.1-1.1h82.9c0.6,0,1.1,0.5,1.1,1.1S656.5,625.9,655.9,625.9z"/>
      </g>
    </g>
    <g>
      <path d="M955.7,933.9c-0.6,0-1.1-0.5-1.1-1.1l0.1-1.4c0.6-13,0.6-13,0-32.7l-0.1-2.1c0-0.6,0.4-1.1,1-1.1c0.7,0,1.1,0.5,1.1,1&#10;&#9;&#9;&#9;&#9;l0.1,2.1c0.6,19.8,0.6,19.8,0,32.9l-0.1,1.4C956.7,933.4,956.2,933.9,955.7,933.9z"/>
    </g>
    <g>
      <path d="M916.4,821.4c-0.4,0-0.8-0.2-1-0.6c-17.9-35.5-29.4-92.4-29.5-93c-0.1-0.6,0.3-1.1,0.8-1.3c0.6-0.1,1.1,0.3,1.3,0.8&#10;&#9;&#9;&#9;&#9;c0.1,0.6,11.6,57.2,29.3,92.5c0.3,0.5,0.1,1.2-0.5,1.4C916.7,821.4,916.6,821.4,916.4,821.4z"/>
    </g>
    <g>
      <path d="M774,936.3c-0.6,0-1.1-0.5-1.1-1.1c0-0.2,0.4-25,0.5-53.9c0-0.6,0.5-1.1,1.1-1.1c0.6,0,1.1,0.5,1.1,1.1&#10;&#9;&#9;&#9;&#9;c-0.1,29-0.5,53.7-0.5,54C775.1,935.9,774.6,936.3,774,936.3z"/>
    </g>
    <g>
      <path d="M778.1,746.2c-0.7-0.1-1.1-0.6-1.1-1.2c2.2-17.9,6.8-35.6,10.5-46.1c0.2-0.6,0.8-0.9,1.4-0.7c0.6,0.2,0.9,0.8,0.7,1.4&#10;&#9;&#9;&#9;&#9;c-3.6,10.5-8.2,28-10.4,45.7C779.1,745.8,778.6,746.2,778.1,746.2z"/>
    </g>
    <g>
      <path d="M842,643.3c-2.2,0-4.3,0-6-0.1c-3.9-0.2-6.8-0.8-9.3-1.9c-4.3-2-6.9-5.7-8-11.4c-1.6-8.6-0.4-17.3,0.8-25.7l0.2-1.1&#10;&#9;&#9;&#9;&#9;c0.7-5.2,6.1-30.5,6.4-31.2c0.2-0.5,0.9-0.8,1.4-0.5c0.5,0.2,0.8,0.9,0.5,1.4c0,0-5.4,24.6-6.3,30.6l-0.2,1.1&#10;&#9;&#9;&#9;&#9;c-1.2,8.3-2.4,16.8-0.9,25c0.9,4.9,3.2,8.1,6.8,9.8c2.2,1,5,1.6,8.5,1.7c3.6,0.2,8.8,0.2,12.5-0.1c0.6-0.1,1.1,0.4,1.1,1&#10;&#9;&#9;&#9;&#9;c0,0.6-0.4,1.1-1,1.1C846.7,643.3,844.3,643.3,842,643.3z"/>
    </g>
    <g>
      <path d="M869.7,604.1c-0.2,0-0.3,0-0.5-0.1c-36.2-19.3-44.5-33-44.8-33.5c-0.3-0.5-0.1-1.2,0.4-1.5c0.5-0.3,1.2-0.1,1.5,0.4&#10;&#9;&#9;&#9;&#9;c0.1,0.1,8.5,13.8,44,32.7c0.5,0.3,0.7,0.9,0.4,1.5C870.4,603.9,870,604.1,869.7,604.1z"/>
    </g>
    <path d="M850.6,597.3c-0.8-0.2-1.5,0-2.1,3.1c-0.7,3.4,0.1,4.1,0.9,4.2c0.8,0.1,1.7-0.9,2-3.3&#10;&#9;&#9;&#9;C851.6,598.8,851.7,597.6,850.6,597.3z"/>
    <path d="M827.9,593.7c-0.8-0.3-1.5,0-2.2,3c-0.8,3.4,0,4.1,0.7,4.2s1.7-0.8,2.1-3.3C828.8,595.2,829,594.1,827.9,593.7z"/>
    <g>
      <path d="M824.2,587.1c-0.3,0-0.7-0.2-0.9-0.5c-0.3-0.5-0.2-1.2,0.3-1.5c1.5-1,4-2.1,8.4-0.3c0.6,0.2,0.8,0.8,0.6,1.4&#10;&#9;&#9;&#9;&#9;c-0.2,0.6-0.9,0.8-1.4,0.6c-3.4-1.3-5.1-0.7-6.4,0.1C824.6,587.1,824.4,587.1,824.2,587.1z"/>
    </g>
    <g>
      <path d="M873.5,625.9c-0.3,0-0.5,0-0.8,0c-2.2-0.1-4.4-0.9-6.2-2.2c-0.5-0.3-0.6-1-0.3-1.5c0.3-0.5,1-0.6,1.5-0.3&#10;&#9;&#9;&#9;&#9;c1.5,1.1,3.3,1.7,5.1,1.8c2.7,0.1,5.3-0.7,7.4-2.5c2-1.8,3.3-4.3,3.4-7c0.2-2.7-0.7-5.3-2.5-7.4c-1.8-2-4.3-3.3-7-3.4&#10;&#9;&#9;&#9;&#9;c-2-0.1-4,0.3-5.8,1.4c-0.5,0.3-1.2,0.1-1.5-0.4c-0.3-0.5-0.1-1.2,0.4-1.5c2.1-1.2,4.5-1.8,7-1.6c3.3,0.2,6.3,1.7,8.5,4.2&#10;&#9;&#9;&#9;&#9;c2.2,2.5,3.2,5.6,3,8.9c-0.2,3.3-1.7,6.3-4.2,8.5C879.3,624.9,876.5,625.9,873.5,625.9z"/>
    </g>
    <g>
      <path d="M875.2,620.7c-0.3,0-0.6-0.1-0.8-0.3l-6.8-6.8c-0.2-0.2-0.4-0.6-0.3-0.9c0-0.3,0.2-0.6,0.5-0.8l9.1-5.1&#10;&#9;&#9;&#9;&#9;c0.5-0.3,1.2-0.1,1.5,0.4c0.3,0.5,0.1,1.2-0.4,1.5l-7.9,4.4l5.8,5.8c0.4,0.4,0.4,1.1,0,1.5C875.7,620.6,875.5,620.7,875.2,620.7z&#10;&#9;&#9;&#9;&#9;"/>
    </g>
    <g>
      <path d="M838.8,686.3c-1.1,0-2.3-0.1-3.5-0.3c-1.8-0.4-3.3-1.4-4.2-3.1c-4.1-7.2,1.9-24.8,2.5-26.7l1.1-14.1c0-0.6,0.6-1.1,1.2-1&#10;&#9;&#9;&#9;&#9;c0.6,0,1,0.6,1,1.2l-1.1,14.2c0,0.1,0,0.2-0.1,0.3c-0.1,0.2-6.5,18.4-2.7,25c0.6,1.1,1.6,1.8,2.8,2c18.6,3.6,31.7-27.6,31.8-27.9&#10;&#9;&#9;&#9;&#9;c0.2-0.5,0.8-0.8,1.4-0.6c0.6,0.2,0.8,0.9,0.6,1.4C869,658.1,857.2,686.3,838.8,686.3z"/>
    </g>
    <g>
      <path d="M839.2,625.9c-1.3,0-2.8-0.3-4.3-1c-0.6-0.2-0.8-0.9-0.6-1.4c0.2-0.6,0.9-0.8,1.4-0.6c2.3,1,4.3,1,5.9,0.2&#10;&#9;&#9;&#9;&#9;c2.7-1.4,3.5-4.8,3.5-4.9c0.1-0.6,0.7-0.9,1.3-0.8c0.6,0.1,0.9,0.7,0.8,1.3c0,0.2-1.1,4.5-4.6,6.3&#10;&#9;&#9;&#9;&#9;C841.6,625.7,840.4,625.9,839.2,625.9z"/>
    </g>
    <g>
      <path d="M941.8,700.3c-0.4,0-0.7-0.2-0.9-0.5c-0.3-0.5-0.2-1.2,0.3-1.5c7.7-5.1,7.7-19.7,4.3-28c-2.7-6.5-7.7-12.6-14.6-17.7&#10;&#9;&#9;&#9;&#9;c-5.1-3.8-10.6-6.5-16.5-9.5l-1.8-0.9c-4.3-2.2-10.3-5.7-12.7-11.5c-3.1-7.8-1-15.3,1.3-20.9c0.4-1.1,0.9-2.2,1.4-3.4&#10;&#9;&#9;&#9;&#9;c2.7-6.6,5.8-14.1,5.5-21.1c-0.3-6.1-3.3-14-8.6-17.4c-7-4.5-13.4-7.8-18.7-9.7c-4.5-1.6-44.4-15.3-59.3,2.1&#10;&#9;&#9;&#9;&#9;c-4.9,5.7-7.6,13.8-8.3,24.6c-0.2,3.9,0.4,7.8,1.1,11.6c0.7,3.8,1.3,7.6,1.1,11.6c-0.3,7.3-3.2,14.2-8,19.5&#10;&#9;&#9;&#9;&#9;c-1.7,1.8-3.6,3.3-5.5,4.7c-1.6,1.2-3.2,2.4-4.6,3.8c-2.9,2.9-5.1,6.4-6.4,10.2c-2.2,6.4-2.4,15.2,3.4,20.8&#10;&#9;&#9;&#9;&#9;c0.4,0.4,0.4,1.1,0,1.5c-0.4,0.4-1.1,0.4-1.5,0c-6.5-6.3-6.3-16-3.9-23c1.4-4.1,3.8-7.9,6.9-11c1.5-1.5,3.2-2.7,4.8-4&#10;&#9;&#9;&#9;&#9;c1.9-1.4,3.7-2.8,5.2-4.4c4.5-4.9,7.2-11.3,7.5-18.1c0.2-3.7-0.5-7.5-1.1-11.1c-0.7-3.9-1.4-8-1.1-12.1&#10;&#9;&#9;&#9;&#9;c0.7-11.4,3.6-19.8,8.8-25.9c15.8-18.4,57-4.4,61.6-2.7c5.4,1.9,12,5.4,19.1,9.9c6.2,3.9,9.3,12.7,9.6,19.1&#10;&#9;&#9;&#9;&#9;c0.4,7.5-2.8,15.2-5.7,22.1c-0.5,1.1-0.9,2.3-1.4,3.4c-2.2,5.6-4.1,12.3-1.3,19.3c2.1,5.2,7.7,8.4,11.7,10.4l1.8,0.9&#10;&#9;&#9;&#9;&#9;c5.7,2.8,11.5,5.7,16.8,9.7c7.3,5.4,12.5,11.7,15.3,18.6c3.6,8.8,3.8,24.7-5.2,30.6C942.2,700.2,942,700.3,941.8,700.3z"/>
    </g>
    <g>
      <path d="M868.6,657.5c-0.6,0-1.1-0.5-1.1-1.1l0.7-31.2c0-0.6,0.5-1.1,1.1-1.1c0.6,0,1.1,0.5,1.1,1.1l-0.7,31.2&#10;&#9;&#9;&#9;&#9;C869.6,657,869.1,657.5,868.6,657.5z"/>
    </g>
    <g>
      <path d="M940.5,900c-37.8,0-87.7-38.2-115.1-67.9c-0.3-0.3-0.4-0.7-0.2-1.1c0.1-0.2,6-15.9,16.2-29.3c10.7-14.2,18.8-22,18.9-22&#10;&#9;&#9;&#9;&#9;c0.4-0.3,0.9-0.4,1.3-0.1c0.4,0.3,45.4,28.9,69.8,52.7c0.4,0.4,0.4,1.1,0,1.5c-0.4,0.4-1.1,0.4-1.5,0c-22.5-22-62.8-48.2-68.7-52&#10;&#9;&#9;&#9;&#9;c-2,2-9.1,9.3-18,21.2c-8.8,11.7-14.5,25.2-15.7,28.2c41.1,44.4,102,80.8,134.3,61.1c52.8-32.1,10.9-122.2-11.7-170.7l-1.5-3.3&#10;&#9;&#9;&#9;&#9;c-0.9-1.9-1.8-4.2-2.8-6.8c-5.1-12.8-12.8-32.3-30.1-42.8c-11.3-6.9-22.9-11.1-45.8-11.1c-0.6,0-1.1-0.5-1.1-1.1&#10;&#9;&#9;&#9;&#9;c0-0.6,0.5-1.1,1.1-1.1c23.4,0,35.3,4.4,46.9,11.5c17.9,10.9,26.1,31.6,31,43.9c1.1,2.6,2,4.9,2.8,6.7l1.5,3.3&#10;&#9;&#9;&#9;&#9;c22.8,49.1,65.3,140.4,10.9,173.4C956.3,898.2,948.7,900,940.5,900z"/>
    </g>
    <g>
      <path d="M776.9,670.8c-12.8,0-25.5-3.9-35.6-13.9c-7-7-12.7-15.9-17.5-27.3c-6.8-16-10.8-35.2-11.3-54.2c0-0.6,0.5-1.1,1.1-1.1&#10;&#9;&#9;&#9;&#9;c0.6,0,1.1,0.5,1.1,1.1c0.5,18.7,4.4,37.6,11.1,53.4c4.7,11.1,10.3,19.8,17.1,26.6c18.5,18.5,46.6,15,66.8,5.6&#10;&#9;&#9;&#9;&#9;c7.4-3.5,15.9-5.3,25.1-5.5c0.6,0,1.1,0.5,1.1,1.1c0,0.6-0.5,1.1-1.1,1.1c-8.9,0.1-17,1.9-24.2,5.3&#10;&#9;&#9;&#9;&#9;C800.6,667.5,788.7,670.8,776.9,670.8z"/>
    </g>
    <g>
      <path d="M768.2,749.3c-22.1-1.6-37.5-13-53.8-25.1c-37.2-27.6-62.5-82.5-67.6-147c0-0.6,0.4-1.1,1-1.2c0.6-0.1,1.1,0.4,1.2,1&#10;&#9;&#9;&#9;&#9;c5,63.8,30,118.2,66.7,145.4c16,11.9,31.2,23.1,52.6,24.7c0.6,0,1,0.6,1,1.2C769.2,748.8,768.7,749.3,768.2,749.3z"/>
    </g>
    <g>
      <path d="M828.1,616.4c-0.5,0-0.9-0.3-1.1-0.8c-0.6-2.5-1.7-8.6,0.4-10.2c1.3-1,4-0.1,6.1,0.9l2.4-13.4c0.1-0.6,0.6-1,1.3-0.9&#10;&#9;&#9;&#9;&#9;c0.6,0.1,1,0.7,0.9,1.3l-2.7,14.8c-0.1,0.3-0.3,0.6-0.6,0.8c-0.3,0.1-0.7,0.1-1,0c-2.1-1.1-4.6-1.9-5.2-1.7&#10;&#9;&#9;&#9;&#9;c-0.6,0.5-0.4,4.4,0.4,8c0.1,0.6-0.2,1.2-0.8,1.3C828.3,616.4,828.2,616.4,828.1,616.4z"/>
    </g>
    <g>
      <path d="M701.6,581.4c-0.7,0-1.1-0.5-1.1-1.1c0.6-10.3,0.8-38.3-5.6-43.6c-7.7-6.3-11.3-7.8-21.4-0.1c-0.7,0.5-1.4,1-2.2,1.6&#10;&#9;&#9;&#9;&#9;c-3.2,2.3-6.8,4.8-7,8c-0.1,2.1,1.4,4.5,4.4,7c4.7,4,11.3,1.3,21.3-8.6c0.4-0.4,1.1-0.4,1.5,0c0.4,0.4,0.4,1.1,0,1.5&#10;&#9;&#9;&#9;&#9;c-6.9,6.7-16.8,15-24.2,8.7c-3.6-3.1-5.3-5.9-5.2-8.8c0.2-4.2,4.5-7.2,7.9-9.6c0.7-0.5,1.4-1,2.1-1.5c10.6-8.1,15.3-7.1,24,0.1&#10;&#9;&#9;&#9;&#9;c8.6,7,6.5,43.8,6.4,45.4C702.7,581,702.2,581.4,701.6,581.4z"/>
    </g>
    <g>
      <path d="M781.5,883.4c-7.1,0-13.7-2.7-18.8-7.7c-5.2-5-8-11.8-8.1-18.9l-0.9-85.5c-0.1-7.2,2.7-14,7.7-19.1&#10;&#9;&#9;&#9;&#9;c5-5.2,11.8-8,18.9-8.1l110.7-0.7c0.6,0,1.1,0.5,1.1,1.1c0,0.6-0.5,1.1-1.1,1.1l-110.7,0.7c-13.7,0.1-24.7,11.4-24.5,25.1&#10;&#9;&#9;&#9;&#9;l0.9,85.5c0.1,6.6,2.7,12.8,7.5,17.4c4.7,4.6,11,7.2,17.6,7.1l105.6-1.2c0.6,0,1.1,0.5,1.1,1.1c0,0.6-0.5,1.1-1.1,1.1l-105.6,1.2&#10;&#9;&#9;&#9;&#9;C781.7,883.4,781.6,883.4,781.5,883.4z"/>
    </g>
    <g>
      <g>
        <g>
          <path d="M829.4,824.7c-15.6-2.4-46.1-32.5-48.5-40.9c-1.4-4.7,1.1-7.9,3.3-9.3c-1.5-2.5-1.2-5.5,1.1-7.9c0.9-0.9,1.8-1.6,2.8-2&#10;&#9;&#9;&#9;&#9;&#9;&#9;c1.7-0.7,3.7-0.4,5.8,0.8c0.5,0.3,0.7,0.9,0.4,1.5c-0.3,0.5-1,0.7-1.5,0.4c-1.5-0.9-2.8-1.1-3.9-0.6c-0.7,0.3-1.4,0.8-2,1.4&#10;&#9;&#9;&#9;&#9;&#9;&#9;c-1.8,1.9-1.9,4.2-0.2,6c0.2,0.3,0.3,0.6,0.2,0.9c-0.1,0.3-0.3,0.6-0.6,0.8c-0.2,0.1-4.7,2.2-3.2,7.4&#10;&#9;&#9;&#9;&#9;&#9;&#9;c2.3,7.9,32.2,37.1,46.6,39.4c0.6,0.1,1,0.6,0.9,1.2C830.4,824.3,829.9,824.7,829.4,824.7z"/>
        </g>
        <g>
          <path d="M816.4,787.3c-0.2,0-0.4-0.1-0.6-0.2c-2.7-1.7-7.9-6-10-7.8c-0.5-0.4-0.5-1.1-0.1-1.5c0.4-0.5,1.1-0.5,1.5-0.1&#10;&#9;&#9;&#9;&#9;&#9;&#9;c4.3,3.7,8,6.5,9.8,7.7c0.5,0.3,0.7,1,0.3,1.5C817.1,787.1,816.8,787.3,816.4,787.3z"/>
        </g>
        <g>
          <path d="M806.5,779.6c-0.2,0-0.5-0.1-0.7-0.3c-3.7-3.1-7.2-6.2-8.8-7.8c-0.4-0.4-0.8-0.8-1.3-1.3c-2.4-2.2-5.8-5.3-5.8-8.8&#10;&#9;&#9;&#9;&#9;&#9;&#9;c0-1.8,0.8-3.4,2.4-4.9c5.5-5.1,10.5-0.3,13.8,2.9c0.6,0.6,1.5,1.5,2.6,2.6c3.4,3.4,8.6,8.6,11.7,11c0.5,0.4,0.6,1,0.2,1.5&#10;&#9;&#9;&#9;&#9;&#9;&#9;c-0.4,0.5-1,0.6-1.5,0.2c-3.3-2.5-8.5-7.7-11.9-11.2c-1.1-1.1-2-2-2.6-2.6c-4.5-4.3-7.4-6-10.8-2.9c-1.2,1.1-1.8,2.2-1.8,3.3&#10;&#9;&#9;&#9;&#9;&#9;&#9;c0,2.6,2.9,5.3,5.1,7.2c0.5,0.5,1,0.9,1.4,1.3c1.6,1.6,5.1,4.7,8.7,7.7c0.5,0.4,0.5,1.1,0.1,1.5&#10;&#9;&#9;&#9;&#9;&#9;&#9;C807.1,779.4,806.8,779.6,806.5,779.6z"/>
        </g>
        <g>
          <path d="M856.9,784.9c-0.3,0-0.6-0.1-0.9-0.4c-2.9-3.8-5.2-10.5-7.1-15.8c-0.8-2.4-1.6-4.5-2.2-6c-0.4-0.9-0.7-1.8-1-2.8&#10;&#9;&#9;&#9;&#9;&#9;&#9;c-1.5-4.5-2.8-7.2-7.2-6.6c-0.8,0.1-1.4,0.6-1.9,1.4c-1.5,2.4-1.2,7.6,0.7,12.9c2.7,7.5,3.3,12.2-1.3,14.4&#10;&#9;&#9;&#9;&#9;&#9;&#9;c-4,1.9-10.8-2.6-16.9-7.3c-0.5-0.4-0.6-1-0.2-1.5c0.4-0.5,1-0.6,1.5-0.2c2.8,2.1,11.3,8.7,14.7,7c2.4-1.1,3.2-3.4,0.2-11.7&#10;&#9;&#9;&#9;&#9;&#9;&#9;c-2.1-6-2.3-11.7-0.5-14.7c0.8-1.3,2-2.2,3.4-2.4c6.5-1,8.2,4,9.6,8c0.3,0.9,0.6,1.8,1,2.6c0.7,1.6,1.4,3.7,2.3,6.1&#10;&#9;&#9;&#9;&#9;&#9;&#9;c1.8,5.2,4.1,11.6,6.8,15.2c0.4,0.5,0.3,1.1-0.2,1.5C857.4,784.8,857.2,784.9,856.9,784.9z"/>
        </g>
        <g>
          <path d="M809.1,797.6c-0.2,0-0.5-0.1-0.7-0.2c0,0-5.6-4.5-11.9-9.7c-4.6-3.7-9.8-9.9-11.3-11.6c-0.3,0-0.7-0.2-0.8-0.5&#10;&#9;&#9;&#9;&#9;&#9;&#9;c-0.3-0.5-0.3-1.1,0.2-1.4c0.1-0.1,0.3-0.2,0.4-0.2c0.4-0.2,1.2-0.1,1.5,0.2c0.1,0.1,6.3,7.7,11.3,11.8&#10;&#9;&#9;&#9;&#9;&#9;&#9;c6.3,5.1,11.9,9.7,11.9,9.7c0.5,0.4,0.5,1.1,0.2,1.5C809.7,797.4,809.4,797.6,809.1,797.6z"/>
        </g>
      </g>
    </g>
    <g>
      <path d="M652,580.8c-3.5-0.5-5.2-1.8-5.2-3.7c0-1.1,1-2.3,1.6-2.9c0.4-0.4,1.1-0.4,1.5,0.1c0.4,0.4,0.4,1.1-0.1,1.5&#10;&#9;&#9;&#9;&#9;c-0.6,0.5-0.9,1.2-1,1.4c0,0.9,2.2,1.4,3.2,1.5c0.6,0.1,1,0.6,0.9,1.2C653,580.5,652.5,580.8,652,580.8z"/>
    </g>
    <g>
      <path d="M694,582.8c-0.5,0-1-0.4-1.1-1c-0.1-0.6,0.4-1.1,1-1.2l5.5-0.6c10.7-1.7,13.1-4,13.1-4.6c0-0.7-1.1-1.5-3-2.1&#10;&#9;&#9;&#9;&#9;c-2.1-0.4-6.1-1.2-7.3-1.2c-0.7,0-1.2-0.4-1.2-1c0-0.6,0.4-1.1,1-1.1c1.6,0,7.4,1.1,8,1.2c1.2,0.4,4.5,1.5,4.6,4.2&#10;&#9;&#9;&#9;&#9;c0.1,3-4.9,5.3-14.9,6.8l-5.6,0.6C694.1,582.8,694,582.8,694,582.8z"/>
    </g>
    <g>
      <g>
        <path d="M633.5,787.1h-51.8c-0.6,0-1.1-0.5-1.1-1.1c0-0.6,0.5-1.1,1.1-1.1h50.7v-50.7c0-0.6,0.5-1.1,1.1-1.1&#10;&#9;&#9;&#9;&#9;&#9;c0.6,0,1.1,0.5,1.1,1.1V786C634.6,786.6,634.1,787.1,633.5,787.1z"/>
      </g>
    </g>
    <g>
      <path class="st3" d="M71.6,746.3c-0.2,0-0.4,0-0.5-0.1c-3.9-2.3-5.6-7.4-4.7-14.5c0.9-7.1,3.7-12.2,8.4-15.2&#10;&#9;&#9;&#9;&#9;c1-0.7,2.1-1.2,3.4-1.8c2-0.8,4.2-1.4,6.3-2c4.1-1.1,8-2.1,11-4.8c2.5-2.3,3.6-6,3-10.3c-4.4-32.8-8.8-50.3-8.9-50.5&#10;&#9;&#9;&#9;&#9;c0-0.1,0-0.2,0-0.3c0.5-9,4.6-16.1,12.2-21.2c8.4-5.6,18.1-5.1,20.3-4.9c1.6-1.3,3.6-2.4,6.2-3.4c11.7-4.9,26.4-2,34.2,0.2&#10;&#9;&#9;&#9;&#9;c3.2,0.9,7.9,2.5,11,6c3.9,4.3,5,10.4,5.6,16.3c1.1,10.7,0.4,11.6,0,12c-0.2,0.2-0.7,0.4-1,0.4c-0.1,0-2.5,0-2.5,0l0-2.2l1.8,0&#10;&#9;&#9;&#9;&#9;c0.1-0.8,0.2-3.2-0.5-9.8c-0.6-5.8-1.6-11.4-5.1-15.3c-2.8-3.1-7-4.5-10-5.4c-7.5-2.1-21.7-4.9-32.8-0.3c-2.6,1.1-4.5,2.2-6,3.4&#10;&#9;&#9;&#9;&#9;c-0.2,0.2-0.6,0.2-0.8,0.2c-0.1,0-10.6-1.4-19.3,4.5c-7,4.7-10.8,11.2-11.3,19.4c0.5,1.9,4.7,19.4,8.9,50.6&#10;&#9;&#9;&#9;&#9;c0.7,5-0.7,9.4-3.7,12.2c-3.4,3.1-7.7,4.2-11.9,5.3c-2.1,0.6-4.2,1.1-6.1,1.9c-1.2,0.5-2.2,1-3.1,1.6c-4.1,2.7-6.6,7.2-7.4,13.7&#10;&#9;&#9;&#9;&#9;c-0.4,3.6-0.6,9.9,3.6,12.4c0.5,0.3,0.7,1,0.4,1.5C72.3,746.2,72,746.3,71.6,746.3z"/>
    </g>
    <g>
      <path d="M166.9,652.2c-7.3,0-18.7-0.2-18.7-0.2l0-2.2c0,0,11.3,0.1,18.6,0.2c0.6,0,1.1,0.5,1.1,1.1&#10;&#9;&#9;&#9;&#9;C168,651.7,167.5,652.2,166.9,652.2z"/>
    </g>
    <g>
      <path d="M114.7,745.3c-14.2,0-28.6-6.8-29.5-7.2c-0.5-0.3-0.8-0.9-0.5-1.4c0.3-0.5,0.9-0.8,1.4-0.5c0.3,0.1,27.1,12.8,42.8,3.6&#10;&#9;&#9;&#9;&#9;c6.9-4,10.7-11.7,11.4-22.9c0.8-12.8-6.2-22.5-10.3-28.4c-0.5-0.7-1-1.4-1.4-2c-8-11.7-2.9-23.6,0.8-32.4&#10;&#9;&#9;&#9;&#9;c0.6-1.3,1.1-2.6,1.6-3.8c3.2-8.3-3.4-17.7-3.5-17.8c-0.3-0.4-0.3-1,0.1-1.4c0.4-0.4,1-0.4,1.4-0.1c8.5,6.1,7.9,15.2,7.2,18.7&#10;&#9;&#9;&#9;&#9;l4.8,0c0.6,0,1.1,0.5,1.1,1.1c0,0.6-0.5,1.1-1.1,1.1l-6.1-0.1c-0.3,0-0.7-0.2-0.9-0.4c-0.2-0.3-0.3-0.6-0.2-1&#10;&#9;&#9;&#9;&#9;c0.1-0.3,1.8-5.9-0.9-11.6c1.1,3.5,1.7,7.9,0,12.2c-0.5,1.2-1,2.5-1.6,3.8c-3.7,8.7-8.3,19.6-1.1,30.3c0.4,0.6,0.9,1.3,1.4,2&#10;&#9;&#9;&#9;&#9;c4.3,6.1,11.6,16.2,10.7,29.8c-0.7,11.9-4.9,20.2-12.4,24.6C125.5,744.3,120.1,745.3,114.7,745.3z"/>
    </g>
    <g>
      <path d="M34.5,914.5c-0.3,0-0.6-0.1-0.8-0.4c-0.4-0.4-0.3-1.1,0.1-1.5C68.8,882,147,877,147.8,877c0.7,0,1.1,0.4,1.1,1&#10;&#9;&#9;&#9;&#9;c0,0.6-0.4,1.1-1,1.1c-0.8,0-78.2,5-112.7,35.1C35,914.4,34.8,914.5,34.5,914.5z"/>
    </g>
    <g>
      <path d="M9.5,935.7c-0.4,0-0.8-0.2-1-0.6c-22.9-44.2,10-118.2,33-155c5.5-8.8,11.6-18,18.6-26.3c6.6-7.7,15.6-12.8,25-17.7&#10;&#9;&#9;&#9;&#9;c0.5-0.3,1.2-0.1,1.5,0.5c0.3,0.5,0.1,1.2-0.5,1.5c-9.6,5-18.1,9.8-24.4,17.2c-7,8.2-13,17.4-18.4,26.1&#10;&#9;&#9;&#9;&#9;C22.2,815.2-12,890.7,10.5,934.1c0.3,0.5,0.1,1.2-0.5,1.5C9.8,935.7,9.7,935.7,9.5,935.7z"/>
    </g>
    <g>
      <path d="M232.4,797.9c-0.4,0-0.8-0.3-1-0.7c-0.4-0.9-0.8-1.9-1.2-2.8c-16.5-38-37.4-58.4-65.9-64.2c-2.2-0.4-9-1.6-9-1.6l0.4-2.1&#10;&#9;&#9;&#9;&#9;c0,0,6.8,1.2,9,1.6c28.8,5.9,50.9,27.3,67.4,65.5c0.4,0.9,0.8,1.9,1.2,2.8c0.2,0.6,0,1.2-0.6,1.4&#10;&#9;&#9;&#9;&#9;C232.7,797.9,232.6,797.9,232.4,797.9z"/>
    </g>
    <g>
      <path d="M157.2,710.3c-1,0-2,0-3.2-0.1c-3.4-0.3-8.7-0.9-12.6-1.7c-0.6-0.1-1-0.7-0.8-1.3c0.1-0.6,0.7-0.9,1.3-0.8&#10;&#9;&#9;&#9;&#9;c3.6,0.7,8.8,1.4,12.4,1.7c3.6,0.3,6.3,0.1,8.7-0.6c3.8-1.2,6.5-4.1,8-8.9c1.8-5.6,2.3-10.5,2.4-16.1c0-0.6,0.5-1.1,1.1-1.1&#10;&#9;&#9;&#9;&#9;c0.6,0,1.1,0.5,1.1,1.1c-0.1,5.8-0.6,10.8-2.5,16.7c-1.8,5.5-4.9,8.8-9.4,10.3C161.7,710,159.6,710.3,157.2,710.3z"/>
    </g>
    <g>
      <path d="M150.3,753.1c-6,0-15.7-11.9-17.8-14.4c-0.4-0.5-0.3-1.1,0.2-1.5c0.5-0.4,1.1-0.3,1.5,0.2c5,6.4,13.6,14.7,16.7,13.5&#10;&#9;&#9;&#9;&#9;c3.6-1.4,4.1-15,3.6-23.2l1-18.3c0-0.6,0.5-1,1.1-1c0.6,0,1.1,0.5,1,1.1l-1,18.1c0.3,3.7,1.2,22.8-5,25.2&#10;&#9;&#9;&#9;&#9;C151.3,753,150.8,753.1,150.3,753.1z"/>
    </g>
    <g>
      <path d="M168,730c-0.2,0-0.4-0.1-0.6-0.2c-0.5-0.3-0.6-1-0.3-1.5c7.2-10.1-2.3-20.1-2.4-20.1c-0.4-0.4-0.4-1.1,0-1.5&#10;&#9;&#9;&#9;&#9;c0.4-0.4,1.1-0.4,1.5,0c0.1,0.1,10.8,11.4,2.6,22.9C168.7,729.8,168.3,730,168,730z"/>
    </g>
    <g>
      <path d="M78.3,892.1c-0.6,0-1-0.4-1.1-1c-3.7-37.8,17.3-100.4,17.5-101c0.2-0.6,0.8-0.9,1.4-0.7c0.6,0.2,0.9,0.8,0.7,1.4&#10;&#9;&#9;&#9;&#9;c-0.2,0.6-21.1,62.7-17.4,100.1c0.1,0.6-0.4,1.1-1,1.2C78.4,892.1,78.3,892.1,78.3,892.1z"/>
    </g>
    <g>
      <path d="M156.3,692.9c-1.7,0-3.2-0.4-4.4-1.3c-3.3-2.3-3.7-6.7-3.8-6.8c-0.1-0.6,0.4-1.1,1-1.2c0.6,0,1.1,0.4,1.2,1&#10;&#9;&#9;&#9;&#9;c0,0,0.4,3.6,2.9,5.3c1.5,1,3.4,1.2,5.9,0.5c0.6-0.1,1.2,0.2,1.3,0.8c0.2,0.6-0.2,1.2-0.8,1.3&#10;&#9;&#9;&#9;&#9;C158.4,692.8,157.3,692.9,156.3,692.9z"/>
    </g>
    <g>
      <path d="M352.9,864.2c-1.8,0-3.6-0.4-5.1-1.3c-6.7-3.8-7.5-15-1.8-24.8c5.7-9.8,15.7-14.7,22.4-10.9c3.3,1.9,5.3,5.6,5.6,10.4&#10;&#9;&#9;&#9;&#9;c0.3,4.6-1.1,9.8-3.8,14.5c-2.7,4.7-6.5,8.4-10.6,10.5C357.3,863.6,355,864.2,352.9,864.2z M347.9,839.1&#10;&#9;&#9;&#9;&#9;c-5.1,8.8-4.7,18.6,1,21.9c2.6,1.5,6.1,1.4,9.7-0.4c3.8-1.9,7.2-5.3,9.7-9.7c2.5-4.3,3.8-9.1,3.5-13.3c-0.2-4-1.8-7.1-4.5-8.6&#10;&#9;&#9;&#9;&#9;C361.7,825.7,353,830.2,347.9,839.1L347.9,839.1z"/>
    </g>
    <g>
      <path d="M224.9,936.6c-9.2,0-17.5-4.3-22.8-11.7c-5.4-7.4-6.8-16.7-3.9-25.4l42-126.9c3.8-11.6,14.6-19.3,26.7-19.3h177.3&#10;&#9;&#9;&#9;&#9;c2.1,0,4.2,0.2,6.2,0.7c0.6,0.1,0.9,0.7,0.8,1.3c-0.1,0.6-0.7,1-1.3,0.8c-1.9-0.4-3.8-0.6-5.8-0.6H266.9&#10;&#9;&#9;&#9;&#9;c-11.2,0-21.2,7.2-24.7,17.8l-42,126.9c-2.7,8-1.3,16.6,3.6,23.4c5,6.9,12.6,10.8,21.1,10.8c0.6,0,1.1,0.5,1.1,1.1&#10;&#9;&#9;&#9;&#9;C225.9,936.1,225.5,936.6,224.9,936.6z"/>
    </g>
    <g>
      <path d="M414.2,936.6H236.9c-9.3,0-18-4.4-23.3-11.8c-5-7-6.3-15.7-3.5-23.7l42-121.4c3.8-11.1,14.6-18.5,26.7-18.5h177.3&#10;&#9;&#9;&#9;&#9;c9.3,0,18,4.4,23.3,11.8c5,7,6.3,15.7,3.5,23.7l-42,121.4C437.1,929.1,426.3,936.6,414.2,936.6z M278.9,763.3&#10;&#9;&#9;&#9;&#9;c-11.2,0-21.2,6.9-24.7,17.1l-42,121.4c-2.6,7.4-1.4,15.3,3.2,21.8c4.8,6.8,12.9,10.9,21.5,10.9h177.3c11.2,0,21.2-6.8,24.7-17&#10;&#9;&#9;&#9;&#9;l42-121.4c2.6-7.4,1.4-15.3-3.2-21.8c-4.9-6.8-12.9-10.9-21.5-10.9H278.9z"/>
    </g>
    <g>
      <path d="M172.9,936.6c-15.2,0-19-17.9-19-20.4c0-0.6,0.5-1.1,1.1-1.1c0.6,0,1.1,0.5,1.1,1.1c0,0.2,2.4,18.2,16.8,18.2&#10;&#9;&#9;&#9;&#9;c3.3,0,5.5-0.8,6.4-2.2c1.9-3.2-1.4-9.7-3.9-14.4c-0.6-1.2-1.2-2.2-1.6-3.2c-0.5-1-1-2.3-1.5-3.6c-2.9-7.4-6.8-17.6-20.9-15.1&#10;&#9;&#9;&#9;&#9;c-0.1,0-17.8,5-28.2,12.3c-0.5,0.3-1.2,0.2-1.5-0.3c-0.3-0.5-0.2-1.2,0.3-1.5c10.7-7.5,28.2-12.4,29-12.6&#10;&#9;&#9;&#9;&#9;c15.9-2.8,20.4,8.8,23.4,16.5c0.5,1.3,0.9,2.4,1.4,3.4c0.4,0.9,1,2,1.6,3.1c2.8,5.5,6.4,12.3,3.8,16.5&#10;&#9;&#9;&#9;&#9;C179.8,935.5,177,936.6,172.9,936.6z"/>
    </g>
    <g>
      <path d="M185.7,936.6c-0.6,0-1-0.4-1.1-1c0-0.6,0.4-1.1,1-1.1c5.9-0.4,9.6-2,10.7-4.7c1-2.5-0.4-5.3-1.9-7&#10;&#9;&#9;&#9;&#9;c-1.8-2.1-3.5-6.4-5.5-11.3c-2.4-6.3-5.2-13.3-8.8-17.3c-6-6.5-19.6,1.1-19.7,1.2c-0.5,0.3-1.2,0.1-1.5-0.4&#10;&#9;&#9;&#9;&#9;c-0.3-0.5-0.1-1.2,0.4-1.5c0.6-0.4,15.3-8.6,22.4-0.8c3.9,4.2,6.7,11.5,9.3,18c1.8,4.6,3.5,8.9,5.1,10.7c2,2.3,3.7,5.9,2.3,9.2&#10;&#9;&#9;&#9;&#9;C197.3,933,194.3,936,185.7,936.6C185.7,936.6,185.7,936.6,185.7,936.6z"/>
    </g>
    <g>
      <path d="M134.8,936.6c-0.8,0-1.6,0-2.3-0.1c-0.6-0.1-1-0.6-0.9-1.2c0.1-0.6,0.6-1,1.2-0.9c1,0.1,2,0.1,3.1,0.1&#10;&#9;&#9;&#9;&#9;c17.4-0.9,18.7-14.3,18.7-14.9c0-0.6,0.6-1,1.2-1c0.6,0,1,0.6,1,1.2c0,0.2-1.4,15.9-20.8,16.9&#10;&#9;&#9;&#9;&#9;C135.5,936.6,135.2,936.6,134.8,936.6z"/>
    </g>
    <g>
      <path d="M135.4,936.6c-0.2,0-0.4-0.1-0.6-0.2c-10.3-6.8-15.7-19.5-13.7-32.2c1.3-8.5,5.8-16,12.4-21.1c6.7-5.1,14.8-7.2,22.9-6&#10;&#9;&#9;&#9;&#9;c5.4,0.9,13.7,3.2,23.1,13.2c0.4,0.4,0.4,1.1,0,1.5c-0.4,0.4-1.1,0.4-1.5,0c-9-9.6-16.8-11.8-21.9-12.6c-7.5-1.2-15,0.8-21.2,5.6&#10;&#9;&#9;&#9;&#9;c-6.2,4.8-10.3,11.8-11.6,19.8c-1.9,11.9,3.1,23.8,12.7,30.1c0.5,0.3,0.6,1,0.3,1.5C136.1,936.4,135.8,936.6,135.4,936.6z"/>
    </g>
    <g>
      <path d="M199.7,898.5c-0.5,0-0.9-0.3-1-0.8c0-0.1-1.7-6.1-5.9-7.8c-5.4-2.2-12.2,3.2-12.3,3.3c-0.5,0.4-1.1,0.3-1.5-0.2&#10;&#9;&#9;&#9;&#9;c-0.4-0.5-0.3-1.1,0.2-1.5c0.3-0.3,7.9-6.3,14.4-3.6c5.3,2.2,7.1,9,7.2,9.3c0.2,0.6-0.2,1.2-0.8,1.3&#10;&#9;&#9;&#9;&#9;C199.9,898.5,199.8,898.5,199.7,898.5z"/>
    </g>
    <g>
      <path d="M205.3,935.4c-5.6,0-9-4.2-9.1-4.2c-0.4-0.5-0.3-1.1,0.2-1.5c0.5-0.4,1.1-0.3,1.5,0.2c0.2,0.3,5.2,6.2,12.8,1.8&#10;&#9;&#9;&#9;&#9;c0.5-0.3,1.2-0.1,1.5,0.4c0.3,0.5,0.1,1.2-0.4,1.5C209.5,934.9,207.3,935.4,205.3,935.4z"/>
    </g>
    <g>
      <path d="M663.8,228.1c-0.7,0-1.4-0.1-2.1-0.3c-5.5-1.7-5.7-10-5.5-13.6c0.2-4.2,0.8-4.4,1.4-4.5c0.6-0.1,1.2,0.3,1.3,0.8&#10;&#9;&#9;&#9;&#9;c0.1,0.3,0,0.6-0.1,0.8c-0.3,1.2-1,7.9,1,11.8c0.7,1.4,1.6,2.2,2.7,2.6c4.3,1.3,9.9-4,19.9-13.5l2.5-2.4&#10;&#9;&#9;&#9;&#9;c12.2-11.6,18-27.7,14.1-39.3c-2.2-6.6-7.3-10.6-14.4-11.3c-0.6-0.1-1-0.6-1-1.2c0.1-0.6,0.6-1,1.2-1c7.9,0.8,13.7,5.4,16.2,12.8&#10;&#9;&#9;&#9;&#9;c4.2,12.5-1.6,29.2-14.6,41.5l-2.5,2.4C674.1,223,668.7,228.1,663.8,228.1z"/>
    </g>
    <g>
      <path d="M195.5,891.5c-0.1,0-0.2,0-0.3,0c-0.6-0.2-0.9-0.8-0.8-1.3c18-65.3,3.8-105.8,3.7-106.2c-0.2-0.6,0.1-1.2,0.6-1.4&#10;&#9;&#9;&#9;&#9;c0.6-0.2,1.2,0.1,1.4,0.6c0.1,0.4,14.6,41.5-3.6,107.5C196.4,891.2,195.9,891.5,195.5,891.5z"/>
    </g>
    <g>
      <path d="M465.7,764.9c-0.2,0-0.4,0-0.5-0.1l-15.5-8.8c-0.5-0.3-0.7-0.9-0.4-1.5c0.3-0.5,1-0.7,1.5-0.4l15.5,8.8&#10;&#9;&#9;&#9;&#9;c0.5,0.3,0.7,0.9,0.4,1.5C466.5,764.7,466.1,764.9,465.7,764.9z"/>
    </g>
    <g>
      <g>
        <path class="st3" d="M359.3,728.5h-94.7c-0.3,0-0.7-0.2-0.9-0.5c-0.2-0.3-0.3-0.6-0.1-1l16.5-46.8c0.2-0.6,0.8-0.9,1.4-0.7&#10;&#9;&#9;&#9;&#9;&#9;c0.6,0.2,0.9,0.8,0.7,1.4l-16,45.3h93.2c0.6,0,1.1,0.5,1.1,1.1C360.4,728,359.9,728.5,359.3,728.5z"/>
      </g>
      <g>
        <path class="st3" d="M383.3,661.6h-76.1c-0.6,0-1.1-0.5-1.1-1.1c0-0.6,0.5-1.1,1.1-1.1h76.1c0.6,0,1.1,0.5,1.1,1.1&#10;&#9;&#9;&#9;&#9;&#9;C384.3,661.1,383.9,661.6,383.3,661.6z"/>
      </g>
      <g>
        <path class="st3" d="M359.3,728.5c-0.1,0-0.2,0-0.4-0.1c-0.6-0.2-0.9-0.8-0.7-1.4l23.7-66.9c0.2-0.6,0.8-0.9,1.4-0.7&#10;&#9;&#9;&#9;&#9;&#9;c0.6,0.2,0.9,0.8,0.7,1.4l-23.7,66.9C360.2,728.2,359.8,728.5,359.3,728.5z"/>
      </g>
    </g>
    <g>
      <path d="M145.3,683.9c-2.8,0-5.4-1.8-7.4-5.2c-1.9-3.2-3.1-7.6-3.2-12.2c-0.1-4.6,0.7-9,2.4-12.4c1.8-3.6,4.4-5.6,7.2-5.7&#10;&#9;&#9;&#9;&#9;c2.8,0.1,5.6,1.8,7.6,5.2c1.9,3.2,3.1,7.6,3.2,12.2c0.1,4.6-0.7,9-2.4,12.4c-1.8,3.6-4.4,5.6-7.2,5.7&#10;&#9;&#9;&#9;&#9;C145.5,683.9,145.4,683.9,145.3,683.9z M144.6,650.6c-2.2,0.1-4.1,1.7-5.5,4.5c-1.6,3-2.3,7.1-2.2,11.3c0.1,4.3,1.2,8.2,2.9,11.2&#10;&#9;&#9;&#9;&#9;c1.6,2.7,3.6,4.2,5.7,4.1c2-0.1,3.9-1.7,5.4-4.5c1.5-3,2.3-7.1,2.2-11.3c-0.1-4.3-1.2-8.2-2.9-11.2&#10;&#9;&#9;&#9;&#9;C148.6,652.1,146.6,650.6,144.6,650.6z"/>
    </g>
    <g>
      <path d="M172.1,683.9c-1.8,0-3.3-0.6-4.7-2c-0.4-0.4-0.4-1.1,0-1.5c0.4-0.4,1.1-0.4,1.5,0c1.1,1,2,1.5,3.4,1.4&#10;&#9;&#9;&#9;&#9;c2-0.1,3.9-1.7,5.4-4.5c1.5-3,2.3-7.1,2.2-11.3c-0.3-8.4-4.1-15.3-8.4-15.3c-2.2,0.1-4.1,1.7-5.5,4.5c-1.5,3-2.3,7.1-2.2,11.3&#10;&#9;&#9;&#9;&#9;c0.1,3.4,0.5,5.7,1.4,8c0.2,0.6-0.1,1.2-0.6,1.4c-0.6,0.2-1.2-0.1-1.4-0.6c-1-2.6-1.5-5.1-1.6-8.7c-0.1-4.6,0.7-9,2.4-12.4&#10;&#9;&#9;&#9;&#9;c1.8-3.6,4.4-5.6,7.2-5.7c5.6-0.1,10.5,7.5,10.8,17.4c0.1,4.6-0.7,9-2.4,12.4c-1.8,3.6-4.4,5.6-7.2,5.7&#10;&#9;&#9;&#9;&#9;C172.3,683.9,172.2,683.9,172.1,683.9z"/>
    </g>
    <g>
      <path d="M162,668.8c-0.3,0-0.6-0.1-0.8-0.4c-0.3-0.3-2.6-2.9-6.3-0.1c-0.5,0.3-1.1,0.3-1.5-0.2c-0.4-0.5-0.3-1.1,0.2-1.5&#10;&#9;&#9;&#9;&#9;c4.4-3.4,8-1.2,9.3,0.5c0.4,0.5,0.3,1.1-0.2,1.5C162.4,668.7,162.2,668.8,162,668.8z"/>
    </g>
    <g>
      <g>
        <path class="st3" d="M462.2,206c-0.6,0-1.1-0.5-1.1-1.1v-7.3c0-0.3,0-0.6,0-0.9c0-0.3,0.2-0.6,0.5-0.8c0.3-0.2,0.6-0.2,0.9-0.1&#10;&#9;&#9;&#9;&#9;&#9;c8.2,2.7,17.4,2.7,25.7,0c0.3-0.1,0.6-0.1,0.9,0.1c0.3,0.2,0.4,0.5,0.5,0.8c0,0.3,0,0.6,0,0.8v3.7c0,0.6-0.5,1.1-1.1,1.1&#10;&#9;&#9;&#9;&#9;&#9;s-1.1-0.5-1.1-1.1v-3c-7.9,2.2-16.4,2.2-24.2,0v6.6C463.2,205.5,462.8,206,462.2,206z"/>
      </g>
      <g>
        <path class="st3" d="M475.4,200c-4.6,0-9.2-0.7-13.5-2.1c-18.3-5.9-30.6-22.8-30.6-42c0-24.3,19.8-44.1,44.1-44.1&#10;&#9;&#9;&#9;&#9;&#9;c24.3,0,44.1,19.8,44.1,44.1c0,19.3-12.3,36.2-30.7,42C484.5,199.3,480,200,475.4,200z M475.4,113.9c-23.1,0-42,18.8-42,42&#10;&#9;&#9;&#9;&#9;&#9;c0,18.3,11.7,34.4,29.1,40c8.2,2.7,17.4,2.7,25.7,0c17.5-5.6,29.2-21.6,29.2-40C517.4,132.7,498.6,113.9,475.4,113.9z"/>
      </g>
      <g>
        <path class="st3" d="M449.5,174.8c-0.5,0-0.9,0-1.3,0c-0.6,0-1.1-0.5-1-1.1c0-0.6,0.5-1,1.1-1c2.5,0.1,6.1,0,8.5-2&#10;&#9;&#9;&#9;&#9;&#9;c0.4-0.4,0.8-0.8,1.2-1.3c-1-0.8-1.9-1.6-2.7-2.6c-2.1-2.7-3-6.2-2.6-9.7c0.2-1.2,1.3-5.9,3.7-7.2c0.9-0.5,1.8-0.5,2.7-0.1&#10;&#9;&#9;&#9;&#9;&#9;c1.7,0.8,2.3,3.1,2.8,4.6l0.1,0.3c0.5,1.8,0.8,3.7,0.8,5.6c0,1.7-0.3,5.2-1.9,8.4c3.3,1.7,7.9,2.6,13.8,2.4&#10;&#9;&#9;&#9;&#9;&#9;c3.5-0.1,6.4-0.6,8.9-1.5c2.9-1.1,5.3-2.9,6.9-5.1c-0.1-0.1-0.2-0.1-0.3-0.2c-2.6-1.5-4.4-3.9-4.7-6.3c-0.2-1.4,0.1-3,0.8-4.5&#10;&#9;&#9;&#9;&#9;&#9;c0.5-1.1,1.5-2.6,3.2-3.1c1.4-0.4,2.4,0,3,0.4c2.2,1.6,2.3,6,2.3,6.9c0,2.1-0.5,4-1.3,5.8c4.1,1.5,9.1,1.7,13.8,1.7&#10;&#9;&#9;&#9;&#9;&#9;c0.6,0,1.1,0.5,1.1,1.1s-0.5,1.1-1.1,1.1c-5.1,0-10.4-0.2-14.9-1.9c-1.8,2.7-4.6,4.9-8.1,6.2c-2.7,1-5.8,1.6-9.6,1.7&#10;&#9;&#9;&#9;&#9;&#9;c-6.4,0.1-11.4-0.7-15-2.7c-0.5,0.6-1,1.2-1.6,1.8C455.6,174.4,452.2,174.8,449.5,174.8z M457.8,151.6c-0.1,0-0.2,0-0.4,0.1&#10;&#9;&#9;&#9;&#9;&#9;c-1.3,0.7-2.4,4-2.6,5.6c-0.4,2.9,0.4,5.8,2.1,8.1c0.6,0.8,1.3,1.4,2.1,2.1c1-2,1.5-4.5,1.5-7.2c0-1.7-0.2-3.4-0.7-5l-0.1-0.3&#10;&#9;&#9;&#9;&#9;&#9;c-0.3-1.1-0.8-2.8-1.6-3.2C458,151.6,457.9,151.6,457.8,151.6z M490.6,152.1c-0.1,0-0.3,0-0.5,0.1c-1,0.3-1.6,1.4-1.9,2&#10;&#9;&#9;&#9;&#9;&#9;c-0.5,1.1-0.8,2.3-0.6,3.3c0.2,1.8,1.6,3.6,3.6,4.7c0.1,0.1,0.2,0.1,0.3,0.2c0.7-1.5,1.1-3.2,1.1-5c0-2-0.5-4.4-1.4-5.1&#10;&#9;&#9;&#9;&#9;&#9;C491.1,152.2,490.9,152.1,490.6,152.1z" style="fill-rule: evenodd; fill: rgba(255, 255, 255, 0);"/>
      </g>
    </g>
    <g>
      <path class="st3" d="M427.2,132.4c-0.2,0-0.5-0.1-0.6-0.2l-47.7-35.9c-0.5-0.4-0.6-1-0.2-1.5c0.4-0.5,1-0.6,1.5-0.2l47.7,35.9&#10;&#9;&#9;&#9;&#9;c0.5,0.4,0.6,1,0.2,1.5C427.9,132.2,427.5,132.4,427.2,132.4z"/>
    </g>
    <g>
      <path class="st3" d="M385.6,208.4c-0.3,0-0.7-0.2-0.9-0.5c-0.3-0.5-0.2-1.2,0.3-1.5l45.1-29.3c0.5-0.3,1.2-0.2,1.5,0.3&#10;&#9;&#9;&#9;&#9;c0.3,0.5,0.2,1.2-0.3,1.5l-45.1,29.3C386,208.4,385.8,208.4,385.6,208.4z" style="fill-rule: evenodd; paint-order: stroke; fill: rgb(51, 51, 51);"/>
    </g>
    <g>
      <path class="st3" d="M475.4,101.9c-0.6,0-1.1-0.5-1.1-1.1V64.5c0-0.6,0.5-1.1,1.1-1.1c0.6,0,1.1,0.5,1.1,1.1v36.4&#10;&#9;&#9;&#9;&#9;C476.4,101.4,476,101.9,475.4,101.9z"/>
    </g>
    <g>
      <path class="st3" d="M519.3,132.4c-0.4,0-0.8-0.2-0.9-0.6c-0.3-0.5-0.1-1.2,0.4-1.5l24.5-13.3c0.5-0.3,1.2-0.1,1.5,0.4&#10;&#9;&#9;&#9;&#9;c0.3,0.5,0.1,1.2-0.4,1.5l-24.5,13.3C519.7,132.3,519.5,132.4,519.3,132.4z"/>
    </g>
    <g>
      <path class="st3" d="M564.7,231.5c-0.3,0-0.5-0.1-0.7-0.3l-48.5-43.1c-0.4-0.4-0.5-1.1-0.1-1.5c0.4-0.4,1.1-0.5,1.5-0.1&#10;&#9;&#9;&#9;&#9;l48.5,43.1c0.4,0.4,0.5,1.1,0.1,1.5C565.2,231.4,565,231.5,564.7,231.5z"/>
    </g>
    <g>
      <path d="M631.7,178.6c-0.4,0-0.7-0.2-0.9-0.5c-2.8-4.8-7.7-3.4-7.9-3.3c-0.6,0.2-1.2-0.1-1.3-0.7c-0.2-0.6,0.1-1.2,0.7-1.3&#10;&#9;&#9;&#9;&#9;c2.3-0.7,7.4-0.8,10.4,4.3c0.3,0.5,0.1,1.2-0.4,1.5C632,178.6,631.9,178.6,631.7,178.6z"/>
    </g>
    <path d="M624.7,182.8c-0.9-0.1-1.4,0.2-1.7,3.3c-0.3,3.5,0.6,4.1,1.4,4s1.6-1.1,1.5-3.6C625.9,184.1,625.8,183,624.7,182.8z"/>
    <g>
      <path d="M626.8,247.6c-0.6,0-1.1-0.5-1.1-1.1l0.3-8.8c0-0.6,0.4-1.1,1.1-1c0.6,0,1.1,0.5,1,1.1l-0.3,8.8&#10;&#9;&#9;&#9;&#9;C627.9,247.2,627.4,247.6,626.8,247.6z"/>
    </g>
    <g>
      <path class="st3" d="M726.3,371.7c-0.6,0-1.1-0.5-1.1-1.1c0.1-29.4-1.1-54.8-1.2-55.9c-0.4-8.3-4.7-18.4-9.2-28.1&#10;&#9;&#9;&#9;&#9;c-3.6-7.7-7.8-13.6-12.7-17.9c-6.3-5.5-12.5-8.5-19.6-9.3c-15.7-1.8-47.5-1.7-47.8-1.7c-6.8,0.4-12.7,1.2-19.1,4.1&#10;&#9;&#9;&#9;&#9;c-9.4,4.2-17.6,12.5-24.2,24.7c-4.8,8.7-8.6,18.2-12.2,27.3c-1.2,2.9-2.3,5.8-3.5,8.6c-2.4,5.8-5.1,11.8-10,15.8&#10;&#9;&#9;&#9;&#9;c-5.3,4.5-12.5,5.2-18.3,1.9c-5.8-3.3-7.7-9.3-9.6-15l-7.9-24.3c-2.5-7.5-4.9-15.4-7.3-23.1c-2.4-7.8-4.9-15.8-7.4-23.5&#10;&#9;&#9;&#9;&#9;c-0.2-0.6,0.1-1.2,0.7-1.4c0.6-0.2,1.2,0.1,1.4,0.7c2.5,7.7,5,15.7,7.4,23.5c2.4,7.6,4.8,15.5,7.2,23l7.9,24.3&#10;&#9;&#9;&#9;&#9;c1.8,5.6,3.5,10.9,8.6,13.8c5,2.8,11.2,2.2,15.8-1.7c4.5-3.7,7-9.2,9.4-15c1.2-2.8,2.3-5.7,3.5-8.6c3.7-9.2,7.5-18.7,12.3-27.5&#10;&#9;&#9;&#9;&#9;c6.9-12.6,15.4-21.2,25.2-25.6c6.7-3,12.8-3.8,19.9-4.3c0.4,0,32.3-0.1,48.1,1.7c7.6,0.9,14.2,4,20.8,9.8&#10;&#9;&#9;&#9;&#9;c5.1,4.5,9.4,10.6,13.2,18.6c4.6,9.9,9,20.2,9.4,28.9c0.1,1.1,1.3,26.5,1.2,56C727.3,371.3,726.9,371.7,726.3,371.7z"/>
    </g>
    <g>
      <path class="st3" d="M548.2,417.2c-18.9,0-37.9-6.1-52.7-21.1c-17.2-17.6-25.7-41.8-31.7-63.2c-6-21.1-9.2-40.7-12.7-61.3&#10;&#9;&#9;&#9;&#9;l-1.2-7.3c-0.1-0.6,0.3-1.1,0.9-1.2c0.6-0.1,1.1,0.3,1.2,0.9l1.2,7.3c3.5,20.6,6.7,40.1,12.6,61.1c6,21.1,14.3,45.1,31.2,62.3&#10;&#9;&#9;&#9;&#9;c26.3,26.8,66.5,24.2,94.7,9.8l3-1.5c41.3-25,52.7-80.6,52.8-81.2c0.1-0.6,0.7-1,1.3-0.8c0.6,0.1,1,0.7,0.8,1.3&#10;&#9;&#9;&#9;&#9;c-0.1,0.6-11.7,57.1-53.8,82.6l-3.1,1.5C579.6,413,563.9,417.2,548.2,417.2z"/>
    </g>
    <g>
      <path class="st3" d="M759.3,371.9c-0.5,0-0.9-0.3-1-0.8c-10.1-33-31.5-73-53.3-99.5c-0.4-0.5-0.3-1.1,0.1-1.5&#10;&#9;&#9;&#9;&#9;c0.5-0.4,1.1-0.3,1.5,0.1c22,26.7,43.6,67,53.7,100.2c0.2,0.6-0.1,1.2-0.7,1.3C759.5,371.9,759.4,371.9,759.3,371.9z"/>
    </g>
    <g>
      <path d="M616,178.6c-0.2,0-0.5-0.1-0.7-0.2c-0.5-0.4-11.3-9.3-11.5-21.4c-0.1-6.8,3.2-13.2,9.8-18.9c4.3-3.8,9.2-5.5,14.3-5&#10;&#9;&#9;&#9;&#9;c11.4,1,20.3,11.9,20.7,12.4c0.4,0.5,0.3,1.1-0.2,1.5c-0.5,0.4-1.1,0.3-1.5-0.2c-0.1-0.1-8.8-10.7-19.2-11.6&#10;&#9;&#9;&#9;&#9;c-4.6-0.4-8.8,1.1-12.7,4.5c-6.1,5.3-9.1,11.1-9,17.3c0.2,11.1,10.6,19.7,10.7,19.8c0.5,0.4,0.5,1.1,0.2,1.5&#10;&#9;&#9;&#9;&#9;C616.7,178.5,616.4,178.6,616,178.6z"/>
    </g>
    <g>
      <path d="M684.5,159.2c-0.4,0-0.8-0.2-1-0.6c-0.1-0.2-9.3-19.8-25.8-22.8c-15.9-2.9-18.2,2.5-18.2,2.5c-0.2,0.5-0.8,0.8-1.4,0.6&#10;&#9;&#9;&#9;&#9;c-0.6-0.2-0.8-0.8-0.7-1.3c0.2-0.7,2.9-7.1,20.6-3.9c17.6,3.2,27,23.2,27.4,24c0.2,0.5,0,1.2-0.5,1.4&#10;&#9;&#9;&#9;&#9;C684.8,159.2,684.7,159.2,684.5,159.2z"/>
    </g>
    <g>
      <path d="M626.2,238.3c-15.1,0-19-7.7-20.1-11.6c-1.3-5,1.5-17.3,2.4-20.6c-1.8-1.1-6.5-4.1-8.2-7.8c-1.1-2.3-0.5-4.9,1.4-6.5&#10;&#9;&#9;&#9;&#9;c2.6-2.2,10-6.6,11.8-7.7c0.6-3,3.9-19.1,5.7-22.5c0.3-0.5,0.9-0.7,1.5-0.4c0.5,0.3,0.7,0.9,0.4,1.5c-1.5,2.8-4.6,17.1-5.6,22.3&#10;&#9;&#9;&#9;&#9;c-0.1,0.3-0.2,0.6-0.5,0.7c-0.1,0.1-9.2,5.4-12,7.7c-1.1,0.9-1.5,2.6-0.8,3.9c1.8,3.9,7.9,7.2,8,7.2c0.4,0.2,0.6,0.7,0.5,1.2&#10;&#9;&#9;&#9;&#9;c0,0.2-3.9,15.2-2.6,20.3c1.4,5.2,7.1,13.3,29.6,8.8c0.6-0.1,1.1,0.3,1.3,0.8c0.1,0.6-0.3,1.2-0.8,1.3&#10;&#9;&#9;&#9;&#9;C633.6,237.9,629.6,238.3,626.2,238.3z"/>
    </g>
    <g>
      <g>
        <path d="M660.8,211.9c-4.2,0-8.4-1.9-11.1-5.5c-0.4-0.5-0.3-1.1,0.2-1.5c0.5-0.4,1.1-0.3,1.5,0.2c3.4,4.4,9.3,5.9,14.4,3.5&#10;&#9;&#9;&#9;&#9;&#9;c2.9-1.3,5.1-3.7,6.2-6.7c1.1-3,1-6.2-0.3-9.1c-2.7-6-9.8-8.6-15.8-5.9c-1.9,0.9-3.5,2.2-4.7,3.9c-0.3,0.5-1,0.6-1.5,0.3&#10;&#9;&#9;&#9;&#9;&#9;c-0.5-0.3-0.6-1-0.3-1.5c1.4-2,3.4-3.6,5.6-4.6c7.1-3.2,15.4-0.1,18.7,6.9c1.6,3.4,1.7,7.2,0.4,10.8c-1.3,3.5-3.9,6.3-7.3,7.9&#10;&#9;&#9;&#9;&#9;&#9;C664.8,211.5,662.8,211.9,660.8,211.9z"/>
      </g>
      <g>
        <path d="M663.1,206.5c-0.3,0-0.5-0.1-0.7-0.3l-8.5-7.4c-0.3-0.2-0.4-0.6-0.4-0.9c0-0.3,0.2-0.7,0.5-0.8l11.3-6.7&#10;&#9;&#9;&#9;&#9;&#9;c0.5-0.3,1.2-0.1,1.5,0.4c0.3,0.5,0.1,1.2-0.4,1.5l-10,6l7.4,6.4c0.4,0.4,0.5,1.1,0.1,1.5C663.7,206.4,663.4,206.5,663.1,206.5z&#10;&#9;&#9;&#9;&#9;&#9;"/>
      </g>
    </g>
    <g>
      <path class="st3" d="M468.1,268.9c-2.6,0-5-0.1-7.2-0.3c-7.2-0.7-11-2.5-11.4-5.2c-0.5-3.6,4.5-6.1,8.4-7.7&#10;&#9;&#9;&#9;&#9;c0.6-0.2,1.2,0,1.4,0.6c0.2,0.6,0,1.2-0.6,1.4c-4.7,1.9-7.2,3.8-7,5.4c0.2,1.1,2.7,2.7,9.4,3.4c6.3,0.6,14.6,0.3,23.3-0.9&#10;&#9;&#9;&#9;&#9;c8.7-1.2,16.7-3.2,22.6-5.5c6.3-2.5,8.3-4.7,8.2-5.8c-0.2-1.4-3.3-3.1-11.4-3.5c-0.6,0-1.1-0.5-1-1.1c0-0.6,0.4-1.1,1.1-1&#10;&#9;&#9;&#9;&#9;c8.5,0.5,13,2.3,13.5,5.4c0.4,2.7-2.8,5.5-9.5,8.1c-6.1,2.4-14.3,4.4-23.1,5.6C478.8,268.5,473.1,268.9,468.1,268.9z"/>
    </g>
    <g>
      <path d="M503.9,262.7c-0.5,0-0.9-0.3-1-0.8c-1.8-6.7-1.7-13.7-1.5-20.2c0.2-5.4,0-10.9-0.2-16.3c-0.1-1.7-0.1-3.5-0.2-5.2&#10;&#9;&#9;&#9;&#9;c-0.2-6,1.3-11.9,4.3-18.1c0.5-1.1,1.1-2.2,0.8-3.1c-0.5-1.8-3.7-3-5.7-3.1c-2.3-0.1-4.9,0.8-7.6,2.9c-5.1,3.9-7.3,13.4-8.6,19.1&#10;&#9;&#9;&#9;&#9;c-0.6,2.6-0.9,3.9-1.4,4.6c-2.8,4.3-8.3,3.5-10.9,2.5c-2.8-1.1-3.1-1.7-4.1-4.6c-0.8-2.2-2.1-5.8-5.6-12.6&#10;&#9;&#9;&#9;&#9;c-6.9-13.3-15.1-19.6-23.1-17.7c-1.6,0.4-3.6,2-4.4,4.4c-0.9,2.5-0.2,5.3,1.9,8c2.7,3.5,7.4,11.7,11.9,19.6&#10;&#9;&#9;&#9;&#9;c4.8,8.3,10.1,17.8,11.8,19c0.5,0.3,0.6,1,0.2,1.5c-0.4,0.5-1,0.6-1.5,0.2c-1.9-1.3-5.9-8.3-12.4-19.6&#10;&#9;&#9;&#9;&#9;c-4.5-7.8-9.1-15.9-11.7-19.3c-3.3-4.2-3-7.8-2.3-10c1.1-3.2,3.9-5.2,6-5.8c5.3-1.3,15.5-0.6,25.5,18.8&#10;&#9;&#9;&#9;&#9;c3.6,6.9,4.9,10.6,5.7,12.9c0.9,2.5,0.9,2.5,2.9,3.3c2,0.8,6.2,1.4,8.3-1.7c0.2-0.4,0.7-2.3,1.1-3.9c1.4-6,3.7-15.9,9.4-20.3&#10;&#9;&#9;&#9;&#9;c3.1-2.4,6.1-3.5,9-3.3c2.5,0.1,6.8,1.6,7.7,4.7c0.5,1.7-0.3,3.3-1,4.6c-2.9,5.9-4.2,11.4-4.1,17.1c0,1.7,0.1,3.5,0.2,5.2&#10;&#9;&#9;&#9;&#9;c0.2,5.4,0.4,11,0.2,16.4c-0.2,6.4-0.3,13.2,1.4,19.6c0.2,0.6-0.2,1.2-0.8,1.3C504.1,262.6,504,262.7,503.9,262.7z"/>
    </g>
    <g>
      <path d="M465.6,268.5c-0.5,0-1-0.4-1.1-0.9c-0.6-4.3-2.1-9.9-6.1-12c-7-3.6-14.6-14.1-19.8-27.5c-2.1-5.4-5.4-9.9-8.3-13.8&#10;&#9;&#9;&#9;&#9;c-3.7-5-6.9-9.3-5.9-13.6c1.3-5.7,6.4-7.3,8.9-7.4c0.6,0,1.1,0.5,1.1,1.1c0,0.6-0.5,1.1-1,1.1c-0.2,0-5.6,0.2-6.9,5.7&#10;&#9;&#9;&#9;&#9;c-0.7,3.3,2,7,5.6,11.8c3,4.1,6.4,8.7,8.6,14.3c4.9,12.7,12.3,23,18.7,26.4c4.8,2.5,6.6,8.8,7.2,13.6c0.1,0.6-0.3,1.1-0.9,1.2&#10;&#9;&#9;&#9;&#9;C465.7,268.5,465.6,268.5,465.6,268.5z"/>
    </g>
    <g>
      <path d="M670.8,244c-0.6,0-1-0.4-1.1-1l-1.2-17.3c0-0.6,0.4-1.1,1-1.1c0.6,0,1.1,0.4,1.1,1l1.2,17.3&#10;&#9;&#9;&#9;&#9;C671.9,243.4,671.4,243.9,670.8,244C670.8,243.9,670.8,244,670.8,244z"/>
    </g>
    <g>
      <path d="M613.2,216.6c-3.5,0-5.7-1.5-5.9-1.6c-0.5-0.3-0.6-1-0.3-1.5c0.3-0.5,1-0.6,1.5-0.3c0.2,0.1,4.8,3.3,11.3-0.9&#10;&#9;&#9;&#9;&#9;c0.5-0.3,1.2-0.2,1.5,0.3c0.3,0.5,0.2,1.2-0.3,1.5C618.1,216,615.4,216.6,613.2,216.6z"/>
    </g>
    <g>
      <path d="M612.7,263.2c-0.2,0-0.3,0-0.5-0.1c-0.5-0.3-0.8-0.9-0.5-1.4c1.6-3.2,6.9-13.9,9.2-15.2c2.7-1.5,49.4-4.6,57.6-4.6&#10;&#9;&#9;&#9;&#9;c3.6,0,10.2,12.6,12.9,18.1c0.3,0.5,0,1.2-0.5,1.4c-0.5,0.3-1.2,0.1-1.4-0.5c-4.5-9-9.5-16.7-11-16.9c-9.6,0-53.9,3.2-56.5,4.4&#10;&#9;&#9;&#9;&#9;c-1.1,0.6-5.2,7.9-8.2,14.3C613.5,263,613.1,263.2,612.7,263.2z"/>
    </g>
    <g>
      <g>
        <path d="M272,425.5c-4.2,0-8.6-1-13-3c-7.8-3.6-14.6-9.2-20.7-17.3c-7.2-9.4-12.7-20.5-17.4-34.7c-1.2-3.6-2.2-7.2-3.2-11&#10;&#9;&#9;&#9;&#9;&#9;c-0.5-1.7-1-3.4-1.5-5.1c-0.1-0.3,0-0.6,0.1-0.8c0.1-0.3,0.4-0.4,0.7-0.5l14.9-4.1c1.6-0.4,3.1-0.9,4.7-1.3c1.1-0.3,2,0,2.7,0.9&#10;&#9;&#9;&#9;&#9;&#9;c7,9.5,15.9,18.4,27.2,27.4c2.9,2.3,6,2.9,9.7,2c3.3-0.8,6.5-2.3,10.5-4.8c8.7-5.5,16.2-12.5,22.5-18.6&#10;&#9;&#9;&#9;&#9;&#9;c11.5-11.3,23.1-24.5,35.4-40.2c0.9-1.2,2-1.5,3.4-1.1c5.1,1.5,10.2,2.9,15.2,4.3l5.4,1.5c0.2,0.1,0.5,0.2,0.8,0.2l0.4,0.1&#10;&#9;&#9;&#9;&#9;&#9;c0.3,0.1,0.5,0.3,0.7,0.6c0.1,0.3,0.1,0.6,0,0.9l-0.1,0.3c-0.1,0.3-0.2,0.5-0.4,0.8c-15.1,25.6-29.8,46.9-45,65.2&#10;&#9;&#9;&#9;&#9;&#9;c-7.6,9.2-17,19.7-28.6,28.2c-3.2,2.3-6.8,4.6-11.2,6.8C281,424.4,276.6,425.5,272,425.5z M218.7,354.9c0.4,1.4,0.8,2.8,1.2,4.1&#10;&#9;&#9;&#9;&#9;&#9;c1,3.8,2,7.3,3.2,10.9c4.6,14,10,24.8,17,34c5.9,7.8,12.4,13.2,19.9,16.6c8.4,3.8,16.6,3.7,24.3-0.3c4.2-2.2,7.8-4.4,10.9-6.7&#10;&#9;&#9;&#9;&#9;&#9;c11.4-8.4,20.7-18.8,28.2-27.8c15.1-18.2,29.7-39.3,44.7-64.7l-5.3-1.5c-5.1-1.4-10.2-2.8-15.3-4.3c-0.6-0.2-0.7-0.1-1.1,0.4&#10;&#9;&#9;&#9;&#9;&#9;c-12.4,15.8-24.1,29-35.6,40.4c-6.3,6.2-13.9,13.3-22.8,18.9c-4.2,2.7-7.7,4.3-11.2,5.1c-4.4,1.1-8.2,0.3-11.6-2.4&#10;&#9;&#9;&#9;&#9;&#9;c-11.5-9.1-20.5-18.2-27.6-27.8c-0.1-0.2-0.2-0.2-0.4-0.1c-1.6,0.4-3.1,0.9-4.7,1.3L218.7,354.9z"/>
      </g>
    </g>
    <g>
      <path class="st3" d="M293.5,498.2c-71.1,0-128.9-57.8-128.9-128.9s57.8-128.9,128.9-128.9c65.4,0,120.4,48.9,128,113.7&#10;&#9;&#9;&#9;&#9;c0.1,0.6-0.4,1.1-0.9,1.2c-0.6,0.1-1.1-0.4-1.2-0.9c-7.5-63.7-61.6-111.8-125.9-111.8c-69.9,0-126.7,56.9-126.7,126.7&#10;&#9;&#9;&#9;&#9;c0,69.9,56.9,126.7,126.7,126.7c18.3,0,35.9-3.8,52.4-11.3c0.5-0.3,1.2,0,1.4,0.5c0.2,0.5,0,1.2-0.5,1.4&#10;&#9;&#9;&#9;&#9;C330,494.4,312.1,498.2,293.5,498.2z"/>
    </g>
    <g>
      <path d="M668.5,588.7c-1.2,0-2.5,0-3.8-0.1c-5.9-0.4-9.8-2.6-13.2-7.5c-5.4-7.8-8.5-16.8-9-26.1c-0.5-10.1,0.1-20.3,13.8-24.1&#10;&#9;&#9;&#9;&#9;c0.6-0.2,1.2,0.2,1.3,0.7c0.2,0.6-0.2,1.2-0.7,1.3c-11,3.1-12.8,10.1-12.2,21.9c0.5,8.9,3.4,17.6,8.6,25c3,4.4,6.4,6.3,11.6,6.6&#10;&#9;&#9;&#9;&#9;c6.8,0.4,12.2-0.3,17-2.4c8.2-3.6,12.3-7.7,11.9-11.9c-0.3-3.2-3.2-5.4-3.8-5.5c-0.6-0.1-1-0.7-0.9-1.3c0.1-0.6,0.6-1,1.2-0.9&#10;&#9;&#9;&#9;&#9;c1.7,0.3,5.1,3.3,5.6,7.3c0.5,3.7-1.5,9.2-13.1,14.3C678.6,587.8,674,588.7,668.5,588.7z"/>
    </g>
    <g>
      <path d="M665.8,575.6c-0.6,0-1.1-0.5-1.1-1c0-0.6,0.4-1.1,1-1.1c3.9-0.2,8-1.1,12.5-2.8l0.4-0.2c3.7-1.4,7.5-2.8,10.3-5.4&#10;&#9;&#9;&#9;&#9;c2-1.9,3-4.1,2.8-6.5c-0.3-3-2.3-6-5.4-7.9c-0.5-0.3-0.7-1-0.3-1.5c0.3-0.5,1-0.7,1.5-0.3c3.7,2.3,6.1,5.9,6.4,9.6&#10;&#9;&#9;&#9;&#9;c0.3,3.1-0.9,6-3.5,8.3c-3.1,2.8-7.3,4.4-11,5.8l-0.4,0.2C674.2,574.4,669.9,575.4,665.8,575.6&#10;&#9;&#9;&#9;&#9;C665.8,575.6,665.8,575.6,665.8,575.6z"/>
    </g>
    <g>
      <path d="M659.4,560.3c-0.6,0-1.1-0.5-1.1-1c0-0.6,0.4-1.1,1-1.1c3.6-0.1,8-1.2,13.2-3.2c0.5-0.2,1.2,0.1,1.4,0.6&#10;&#9;&#9;&#9;&#9;c0.2,0.6-0.1,1.2-0.6,1.4C667.9,559.1,663.2,560.2,659.4,560.3C659.4,560.3,659.4,560.3,659.4,560.3z"/>
    </g>
    <g>
      <path d="M784,669.2c-0.6,0-1.1-0.5-1.1-1.1V517.6c0-0.6,0.5-1.1,1.1-1.1s1.1,0.5,1.1,1.1v150.6&#10;&#9;&#9;&#9;&#9;C785.1,668.8,784.6,669.2,784,669.2z"/>
    </g>
    <g>
      <path class="st3" d="M784,454.6c-0.6,0-1.1-0.5-1.1-1.1v-68.1c0-7.6-7.2-13.7-16.1-13.7h-40.6c-0.6,0-1.1-0.5-1.1-1.1&#10;&#9;&#9;&#9;&#9;c0-0.6,0.5-1.1,1.1-1.1h40.6c10,0,18.2,7.1,18.2,15.9v68.1C785.1,454.1,784.6,454.6,784,454.6z"/>
    </g>
    <g>
      <path class="st3" d="M726.3,371.7h-98c-0.6,0-1.1-0.5-1.1-1.1c0-0.6,0.5-1.1,1.1-1.1h98c0.6,0,1.1,0.5,1.1,1.1&#10;&#9;&#9;&#9;&#9;C727.3,371.3,726.9,371.7,726.3,371.7z"/>
    </g>
    <g>
      <path class="st3" d="M356.5,655.7c-0.6,0-1.1-0.5-1.1-1.1V385.4c0-8.7,8.2-15.9,18.2-15.9H479c0.6,0,1.1,0.5,1.1,1.1&#10;&#9;&#9;&#9;&#9;c0,0.6-0.5,1.1-1.1,1.1H373.6c-8.9,0-16.1,6.1-16.1,13.7v269.1C357.5,655.2,357,655.7,356.5,655.7z"/>
    </g>
    <g>
      <path d="M693.4,595c-0.5,0-1-0.1-1.5-0.2c-1.4-0.4-2.6-1.3-3.3-2.6l-4.1-7.4c-0.3-0.5-0.1-1.2,0.4-1.5c0.5-0.3,1.2-0.1,1.5,0.4&#10;&#9;&#9;&#9;&#9;l4.1,7.4c0.4,0.8,1.1,1.3,2,1.6c0.8,0.2,1.7,0.1,2.5-0.3c0.8-0.4,1.3-1.1,1.6-2c0.2-0.8,0.1-1.7-0.3-2.5l-4.9-8.9&#10;&#9;&#9;&#9;&#9;c-0.3-0.5-0.1-1.2,0.4-1.5c0.5-0.3,1.2-0.1,1.5,0.4l4.9,8.9c0.7,1.3,0.9,2.7,0.5,4.1c-0.4,1.4-1.3,2.6-2.6,3.3&#10;&#9;&#9;&#9;&#9;C695.2,594.8,694.3,595,693.4,595z"/>
    </g>
    <g>
      <path d="M661.9,542.1c-0.4,0-0.7-0.2-0.9-0.6l-43.7-78.8c-0.7-1.3-0.9-2.7-0.5-4.1c0.4-1.4,1.3-2.6,2.6-3.3&#10;&#9;&#9;&#9;&#9;c1.3-0.7,2.7-0.9,4.1-0.5c1.4,0.4,2.6,1.3,3.3,2.6l43.9,78.9c0.3,0.5,0.1,1.2-0.4,1.5c-0.5,0.3-1.2,0.1-1.5-0.4l-43.9-78.9&#10;&#9;&#9;&#9;&#9;c-0.4-0.8-1.1-1.3-2-1.6c-0.8-0.2-1.7-0.1-2.5,0.3c-0.8,0.4-1.3,1.1-1.6,2c-0.2,0.8-0.1,1.7,0.3,2.5l43.7,78.8&#10;&#9;&#9;&#9;&#9;c0.3,0.5,0.1,1.2-0.4,1.5C662.2,542.1,662,542.1,661.9,542.1z"/>
    </g>
    <g>
      <path d="M682.7,531.4c-0.2,0-0.3,0-0.5-0.1c-9.7-4.9-15.9-1.9-16-1.9c-0.5,0.2-1.2,0.1-1.4-0.5c-0.3-0.5-0.1-1.2,0.5-1.4&#10;&#9;&#9;&#9;&#9;c0.3-0.1,7.2-3.6,17.9,1.9c0.5,0.3,0.7,0.9,0.5,1.5C683.5,531.2,683.1,531.4,682.7,531.4z"/>
    </g>
    <g>
      <path d="M599.6,893.2H455.3c-0.6,0-1.1-0.5-1.1-1.1c0-0.6,0.5-1.1,1.1-1.1h144.3c0.6,0,1.1,0.5,1.1,1.1&#10;&#9;&#9;&#9;&#9;C600.7,892.8,600.2,893.2,599.6,893.2z"/>
    </g>
    <g>
      <path d="M769.8,893.2h-59.9c-0.6,0-1.1-0.5-1.1-1.1c0-0.6,0.5-1.1,1.1-1.1h59.9c0.6,0,1.1,0.5,1.1,1.1&#10;&#9;&#9;&#9;&#9;C770.9,892.8,770.4,893.2,769.8,893.2z"/>
    </g>
    <g>
      <path d="M165.5,685.7c-0.2,0-0.5-0.1-0.7-0.2c-0.5-0.4-0.5-1.1-0.2-1.5c3.4-4.2,3.4-5.7,3.2-6.2c-0.2-0.6-1.5-0.9-2.6-1.2&#10;&#9;&#9;&#9;&#9;c-1.5-0.3-3-0.7-3.7-2c-1.6-2.9-0.4-12.7-0.1-14.7c0.1-0.6,0.7-1,1.2-0.9c0.6,0.1,1,0.6,0.9,1.2c-0.6,4.2-1.1,11.5-0.1,13.3&#10;&#9;&#9;&#9;&#9;c0.2,0.4,1.4,0.7,2.3,0.9c1.6,0.4,3.6,0.8,4.2,2.6c0.6,1.8-0.5,4.3-3.5,8.2C166.2,685.6,165.8,685.7,165.5,685.7z"/>
    </g>
    <g>
      <path d="M655.9,543.2c-0.6,0-1-0.4-1.1-1c-0.1-0.6,0.4-1.1,1-1.2c0.1,0,9.4-0.9,13-4.8c0.4-0.4,1.1-0.5,1.5-0.1&#10;&#9;&#9;&#9;&#9;c0.4,0.4,0.5,1.1,0.1,1.5C666.3,542.2,656.5,543.2,655.9,543.2C656,543.2,656,543.2,655.9,543.2z"/>
    </g>
    <g>
      <path d="M651,190.3c-3.2-0.4-5.4-1.8-6.6-4c-2.4-4.2-0.3-10.3,0.4-12c-5.5-10.1-27.7-12.9-27.9-13c-0.6-0.1-1-0.6-0.9-1.2&#10;&#9;&#9;&#9;&#9;c0.1-0.6,0.6-1,1.2-0.9c1,0.1,24.2,3.1,29.8,14.6c0.1,0.3,0.1,0.6,0,0.9c0,0.1-2.9,6.7-0.7,10.6c0.9,1.6,2.5,2.5,4.8,2.9&#10;&#9;&#9;&#9;&#9;c0.6,0.1,1,0.6,0.9,1.2C652,190,651.6,190.3,651,190.3z"/>
    </g>
    <g>
      <path class="st3" d="M959.9,607.2c-0.2,0-0.3,0-0.5-0.1c-0.5-0.3-0.7-0.9-0.4-1.5c1.9-3.5,3.8-7.2,5.7-11&#10;&#9;&#9;&#9;&#9;c0.3-0.5,0.9-0.8,1.4-0.5c0.5,0.3,0.8,0.9,0.5,1.4c-1.9,3.9-3.8,7.6-5.7,11.1C960.7,607,960.3,607.2,959.9,607.2z M970.9,584.9&#10;&#9;&#9;&#9;&#9;c-0.1,0-0.3,0-0.4-0.1c-0.5-0.2-0.8-0.9-0.5-1.4c1.7-3.8,3.3-7.6,4.9-11.4c0.2-0.5,0.9-0.8,1.4-0.6c0.6,0.2,0.8,0.9,0.6,1.4&#10;&#9;&#9;&#9;&#9;c-1.6,3.8-3.2,7.6-4.9,11.4C971.7,584.7,971.3,584.9,970.9,584.9z M980.3,561.9c-0.1,0-0.3,0-0.4-0.1c-0.6-0.2-0.8-0.8-0.6-1.4&#10;&#9;&#9;&#9;&#9;c1.5-3.9,2.8-7.9,4.1-11.7c0.2-0.6,0.8-0.9,1.4-0.7c0.6,0.2,0.9,0.8,0.7,1.4c-1.3,3.8-2.7,7.8-4.1,11.7&#10;&#9;&#9;&#9;&#9;C981.2,561.7,980.8,561.9,980.3,561.9z M988.2,538.4c-0.1,0-0.2,0-0.3,0c-0.6-0.2-0.9-0.8-0.7-1.3c1.2-4,2.3-8,3.3-11.9&#10;&#9;&#9;&#9;&#9;c0.1-0.6,0.7-0.9,1.3-0.8c0.6,0.1,0.9,0.7,0.8,1.3c-1,3.9-2.1,8-3.3,12C989.1,538.1,988.7,538.4,988.2,538.4z M994.3,514.3&#10;&#9;&#9;&#9;&#9;c-0.8-0.1-1.2-0.7-1.1-1.3c0.9-4,1.7-8.1,2.3-12.1c0.1-0.6,0.7-1,1.2-0.9c0.6,0.1,1,0.7,0.9,1.2c-0.7,4.1-1.5,8.2-2.4,12.2&#10;&#9;&#9;&#9;&#9;C995.3,514,994.8,514.3,994.3,514.3z M998.5,489.9c-0.7-0.1-1.1-0.6-1.1-1.2c0.5-4.1,0.9-8.3,1.3-12.3c0-0.6,0.5-1.1,1.2-1&#10;&#9;&#9;&#9;&#9;c0.6,0,1,0.6,1,1.2c-0.3,4.1-0.8,8.2-1.3,12.4C999.5,489.5,999.1,489.9,998.5,489.9z M1000.5,465.2c-0.6,0-1.1-0.5-1.1-1.1&#10;&#9;&#9;&#9;&#9;c0.1-2.3,0.1-4.7,0.1-7c0-1.8,0-3.6-0.1-5.3c0-0.6,0.5-1.1,1.1-1.1c0.6,0,1.1,0.5,1.1,1.1c0,1.8,0.1,3.6,0.1,5.4&#10;&#9;&#9;&#9;&#9;c0,2.4,0,4.7-0.1,7.1C1001.5,464.7,1001.1,465.2,1000.5,465.2z M999.9,440.4c-0.6,0-1-0.4-1.1-1c-0.3-4.1-0.8-8.2-1.3-12.3&#10;&#9;&#9;&#9;&#9;c-0.1-0.6,0.3-1.1,0.9-1.2c0.6-0.1,1.1,0.3,1.2,0.9c0.6,4.1,1,8.3,1.4,12.4C1001,439.8,1000.6,440.3,999.9,440.4&#10;&#9;&#9;&#9;&#9;C999.9,440.4,999.9,440.4,999.9,440.4z M996.4,415.8c-0.5,0-1-0.4-1.1-0.9c-0.8-4-1.8-8.1-2.9-12c-0.2-0.6,0.2-1.2,0.8-1.3&#10;&#9;&#9;&#9;&#9;c0.6-0.2,1.2,0.2,1.3,0.8c1.1,4,2.1,8.1,2.9,12.1c0.1,0.6-0.3,1.2-0.8,1.3C996.6,415.8,996.5,415.8,996.4,415.8z M989.9,391.9&#10;&#9;&#9;&#9;&#9;c-0.4,0-0.9-0.3-1-0.7c-1.3-3.9-2.8-7.7-4.4-11.5c-0.2-0.5,0-1.2,0.6-1.4c0.6-0.2,1.2,0,1.4,0.6c1.6,3.8,3.1,7.7,4.5,11.6&#10;&#9;&#9;&#9;&#9;c0.2,0.6-0.1,1.2-0.7,1.4C990.1,391.9,990,391.9,989.9,391.9z" style="fill: rgb(255, 165, 0);"/>
    </g>
    <g>
      <path class="st3" d="M962.1,340.4c-0.3,0-0.6-0.1-0.9-0.4l-1.5-1.9c-0.4-0.5-0.3-1.1,0.2-1.5c0.5-0.4,1.1-0.3,1.5,0.2l1.5,2&#10;&#9;&#9;&#9;&#9;c0.4,0.5,0.3,1.2-0.2,1.5C962.6,340.3,962.3,340.4,962.1,340.4z M952.7,328.9c-0.3,0-0.6-0.1-0.8-0.4c-2.7-3.1-5.6-6-8.5-8.9&#10;&#9;&#9;&#9;&#9;c-0.4-0.4-0.4-1.1,0-1.5c0.4-0.4,1.1-0.4,1.5,0c3,2.9,5.9,5.9,8.6,9c0.4,0.4,0.4,1.1-0.1,1.5&#10;&#9;&#9;&#9;&#9;C953.2,328.8,952.9,328.9,952.7,328.9z M934.9,311.7c-0.2,0-0.5-0.1-0.7-0.2c-3.2-2.6-6.4-5.2-9.8-7.5c-0.5-0.3-0.6-1-0.3-1.5&#10;&#9;&#9;&#9;&#9;c0.3-0.5,1-0.6,1.5-0.3c3.4,2.4,6.7,5,9.9,7.6c0.5,0.4,0.5,1.1,0.1,1.5C935.5,311.6,935.2,311.7,934.9,311.7z M914.7,297.3&#10;&#9;&#9;&#9;&#9;c-0.2,0-0.4,0-0.6-0.2c-3.5-2.1-7.1-4.1-10.8-5.9c-0.5-0.3-0.8-0.9-0.5-1.4c0.3-0.5,0.9-0.7,1.4-0.5c3.7,1.8,7.4,3.9,11,6&#10;&#9;&#9;&#9;&#9;c0.5,0.3,0.7,1,0.4,1.5C915.4,297.2,915,297.3,914.7,297.3z M892.5,286.3c-0.1,0-0.3,0-0.4-0.1c-3.8-1.5-7.7-2.9-11.6-4.2&#10;&#9;&#9;&#9;&#9;c-0.6-0.2-0.9-0.8-0.7-1.4c0.2-0.6,0.8-0.9,1.4-0.7c4,1.3,7.9,2.7,11.7,4.2c0.6,0.2,0.8,0.9,0.6,1.4&#10;&#9;&#9;&#9;&#9;C893.3,286.1,892.9,286.3,892.5,286.3z M868.9,278.8c-0.1,0-0.2,0-0.3,0c-3.9-1-8-1.8-12.1-2.5c-0.6-0.1-1-0.7-0.9-1.2&#10;&#9;&#9;&#9;&#9;c0.1-0.6,0.6-1,1.2-0.9c4.1,0.7,8.3,1.5,12.2,2.5c0.6,0.1,0.9,0.7,0.8,1.3C869.8,278.4,869.4,278.8,868.9,278.8z M782.8,278.4&#10;&#9;&#9;&#9;&#9;c-0.5,0-0.9-0.3-1-0.8c-0.2-0.6,0.2-1.2,0.8-1.3c0.2-0.1,4.6-1.3,12.3-2.5c0.6-0.1,1.1,0.3,1.2,0.9c0.1,0.6-0.3,1.1-0.9,1.2&#10;&#9;&#9;&#9;&#9;c-7.5,1.2-12,2.4-12.1,2.4C783,278.4,782.9,278.4,782.8,278.4z M844.4,274.6c-4.1-0.4-8.3-0.7-12.4-0.8c-0.6,0-1.1-0.5-1-1.1&#10;&#9;&#9;&#9;&#9;c0-0.6,0.5-1,1.1-1c4.2,0.2,8.4,0.4,12.4,0.8c0.6,0.1,1,0.6,1,1.2C845.4,274.2,845,274.6,844.4,274.6z M807.3,274.4&#10;&#9;&#9;&#9;&#9;c-0.6,0-1-0.4-1.1-1c-0.1-0.6,0.4-1.1,1-1.2c4.1-0.4,8.3-0.6,12.5-0.7c0.6-0.1,1.1,0.5,1.1,1.1c0,0.6-0.5,1.1-1.1,1.1&#10;&#9;&#9;&#9;&#9;C815.6,273.8,811.4,274.1,807.3,274.4C807.3,274.4,807.3,274.4,807.3,274.4z" style="fill: rgb(255, 165, 0);"/>
    </g>
    <g>
      <path d="M632.7,839.9c-29.8,0-54-24.2-54-54c0-29.8,24.2-54,54-54c29.8,0,54,24.2,54,54c0,4.6-0.6,9.1-1.7,13.5&#10;&#9;&#9;&#9;&#9;c-0.1,0.6-0.7,0.9-1.3,0.8c-0.6-0.1-0.9-0.7-0.8-1.3c1.1-4.2,1.6-8.6,1.6-13c0-28.6-23.3-51.8-51.8-51.8&#10;&#9;&#9;&#9;&#9;c-28.6,0-51.8,23.3-51.8,51.8c0,28.6,23.3,51.8,51.8,51.8c8.8,0,17.5-2.2,25.1-6.5c0.5-0.3,1.2-0.1,1.5,0.4&#10;&#9;&#9;&#9;&#9;c0.3,0.5,0.1,1.2-0.4,1.5C650.9,837.5,641.8,839.9,632.7,839.9z"/>
    </g>
    <g>
      <path class="st3" d="M67.2,689.3c-0.2,0-0.4,0-0.5-0.1c-1.9-1.1-3.7-2.2-5.5-3.5c-0.5-0.3-0.6-1-0.2-1.5c0.3-0.5,1-0.6,1.5-0.2&#10;&#9;&#9;&#9;&#9;c1.7,1.2,3.5,2.3,5.3,3.4c0.5,0.3,0.7,1,0.4,1.5C68,689.1,67.6,689.3,67.2,689.3z M52.5,677.7c-0.3,0-0.6-0.1-0.8-0.3&#10;&#9;&#9;&#9;&#9;c-2.8-2.9-5.5-6.2-7.9-9.8c-0.3-0.5-0.2-1.2,0.3-1.5c0.5-0.3,1.2-0.2,1.5,0.3c2.4,3.5,5,6.7,7.7,9.5c0.4,0.4,0.4,1.1,0,1.5&#10;&#9;&#9;&#9;&#9;C53.1,677.6,52.8,677.7,52.5,677.7z M38.4,657.5c-0.4,0-0.8-0.2-1-0.6c-1.8-3.5-3.6-7.4-5.2-11.4c-0.2-0.6,0.1-1.2,0.6-1.4&#10;&#9;&#9;&#9;&#9;c0.5-0.2,1.2,0.1,1.4,0.6c1.6,3.9,3.3,7.7,5.1,11.2c0.3,0.5,0.1,1.2-0.5,1.5C38.7,657.4,38.6,657.5,38.4,657.5z M29.2,634.4&#10;&#9;&#9;&#9;&#9;c-0.5,0-0.9-0.3-1-0.8c-1.2-3.8-2.3-7.9-3.2-12.1c-0.1-0.6,0.2-1.2,0.8-1.3c0.6-0.1,1.2,0.2,1.3,0.8c1,4.1,2,8.1,3.2,11.9&#10;&#9;&#9;&#9;&#9;c0.2,0.6-0.1,1.2-0.7,1.3C29.4,634.4,29.3,634.4,29.2,634.4z M23.4,610.3c-0.5,0-1-0.4-1.1-0.9c-0.5-2.8-0.9-5.5-1.3-8.2&#10;&#9;&#9;&#9;&#9;c-0.2-1.4-0.4-2.7-0.6-4.1c-0.1-0.6,0.3-1.1,0.9-1.2c0.6-0.1,1.1,0.3,1.2,0.9c0.2,1.4,0.4,2.7,0.6,4.1c0.4,2.7,0.8,5.4,1.3,8.1&#10;&#9;&#9;&#9;&#9;c0.1,0.6-0.3,1.1-0.9,1.3C23.6,610.3,23.5,610.3,23.4,610.3z M20.2,585.7c-0.6,0-1-0.4-1.1-1c-0.4-4.2-0.6-8.4-0.8-12.4&#10;&#9;&#9;&#9;&#9;c0-0.6,0.4-1.1,1-1.1c0.7,0,1.1,0.4,1.1,1c0.2,4,0.4,8.2,0.8,12.3C21.3,585.1,20.9,585.7,20.2,585.7&#10;&#9;&#9;&#9;&#9;C20.3,585.7,20.2,585.7,20.2,585.7z M19.2,560.9c-0.6-0.1-1.1-0.5-1.1-1.1c0-4.2,0.2-8.4,0.4-12.4c0-0.6,0.6-1,1.1-1&#10;&#9;&#9;&#9;&#9;c0.6,0,1,0.5,1,1.1c-0.2,4-0.4,8.2-0.4,12.3C20.3,560.5,19.8,560.9,19.2,560.9z M20.6,536.2c-0.7-0.1-1.1-0.6-1.1-1.2&#10;&#9;&#9;&#9;&#9;c0.5-4.1,1.1-8.3,1.8-12.3c0.1-0.6,0.7-1,1.2-0.9c0.6,0.1,1,0.7,0.9,1.2c-0.7,4-1.3,8.1-1.8,12.2&#10;&#9;&#9;&#9;&#9;C21.7,535.8,21.2,536.2,20.6,536.2z M24.9,511.8c-0.1,0-0.2,0-0.3,0c-0.6-0.1-0.9-0.7-0.8-1.3c1-4.1,2.1-8.1,3.3-12&#10;&#9;&#9;&#9;&#9;c0.2-0.6,0.8-0.9,1.4-0.7c0.6,0.2,0.9,0.8,0.7,1.3c-1.2,3.9-2.3,7.9-3.3,11.9C25.9,511.4,25.4,511.8,24.9,511.8z" style="fill: rgb(255, 165, 0);"/>
    </g>
    <g>
      <path class="st3" d="M48.2,458c-0.2,0-0.4-0.1-0.6-0.2c-0.5-0.3-0.6-1-0.3-1.5c2.1-3,4.3-6.1,6.6-9c0.4-0.5,1-0.6,1.5-0.2&#10;&#9;&#9;&#9;&#9;c0.5,0.4,0.6,1,0.2,1.5c-2.2,2.9-4.4,5.9-6.5,8.9C48.9,457.9,48.6,458,48.2,458z M62.7,439.6c-0.3,0-0.5-0.1-0.7-0.3&#10;&#9;&#9;&#9;&#9;c-0.4-0.4-0.5-1.1-0.1-1.5c2.7-3.1,5.7-6.1,8.6-9c0.4-0.4,1.1-0.4,1.5,0c0.4,0.4,0.4,1.1,0,1.5c-2.9,2.9-5.8,5.9-8.5,8.9&#10;&#9;&#9;&#9;&#9;C63.3,439.5,63,439.6,62.7,439.6z M80.4,422.3c-0.3,0-0.6-0.1-0.8-0.4c-0.4-0.5-0.3-1.1,0.1-1.5c3.1-2.7,6.4-5.3,9.7-7.8&#10;&#9;&#9;&#9;&#9;c0.5-0.4,1.1-0.3,1.5,0.2c0.4,0.5,0.3,1.2-0.2,1.5c-3.3,2.5-6.5,5.1-9.6,7.7C80.9,422.2,80.7,422.3,80.4,422.3z M100.3,407.4&#10;&#9;&#9;&#9;&#9;c-0.4,0-0.7-0.2-0.9-0.5c-0.3-0.5-0.2-1.2,0.3-1.5c3.5-2.3,7.1-4.4,10.7-6.5c0.5-0.3,1.2-0.1,1.5,0.4c0.3,0.5,0.1,1.2-0.4,1.5&#10;&#9;&#9;&#9;&#9;c-3.6,2-7.1,4.2-10.5,6.4C100.7,407.3,100.5,407.4,100.3,407.4z M121.9,395.3c-0.4,0-0.8-0.2-1-0.6c-0.3-0.5,0-1.2,0.5-1.4&#10;&#9;&#9;&#9;&#9;c3.7-1.8,7.6-3.5,11.4-5c0.6-0.2,1.2,0.1,1.4,0.6c0.2,0.6-0.1,1.2-0.6,1.4c-3.8,1.5-7.6,3.2-11.3,4.9&#10;&#9;&#9;&#9;&#9;C122.2,395.2,122.1,395.3,121.9,395.3z M144.9,386.1c-0.5,0-0.9-0.3-1-0.7c-0.2-0.6,0.1-1.2,0.7-1.4c3.9-1.3,8-2.4,12-3.4&#10;&#9;&#9;&#9;&#9;c0.6-0.2,1.2,0.2,1.3,0.8c0.1,0.6-0.2,1.2-0.8,1.3c-4,1-8,2.1-11.9,3.4C145.2,386.1,145.1,386.1,144.9,386.1z" style="fill: rgb(255, 165, 0);"/>
    </g>
    <g>
      <path d="M485.9,208.2h-22.7c-0.6,0-1.1-0.5-1.1-1.1s0.5-1.1,1.1-1.1h22.7c0.6,0,1.1,0.5,1.1,1.1S486.5,208.2,485.9,208.2z"/>
    </g>
    <g>
      <path d="M482.7,218.6h-14.6c-0.6,0-1.1-0.5-1.1-1.1s0.5-1.1,1.1-1.1h14.6c0.6,0,1.1,0.5,1.1,1.1S483.3,218.6,482.7,218.6z"/>
    </g>
    <g>
      <path class="st3" d="M585.8,409.4c-0.5,0-0.9-0.3-1-0.8c-4.2-15.1-19.2-25.7-36.6-25.7c-16.5,0-30.9,9.5-35.9,23.6&#10;&#9;&#9;&#9;&#9;c-0.2,0.6-0.8,0.8-1.4,0.7c-0.6-0.2-0.9-0.8-0.7-1.4c5.3-15,20.5-25.1,37.9-25.1c18.3,0,34.2,11.2,38.6,27.3&#10;&#9;&#9;&#9;&#9;c0.2,0.6-0.2,1.2-0.8,1.3C586,409.4,585.9,409.4,585.8,409.4z"/>
    </g>
    <g>
      <path class="st3" d="M974.4,375.3c-9.7,0-17.6-7.9-17.6-17.6c0-9.7,7.9-17.6,17.6-17.6c9.7,0,17.6,7.9,17.6,17.6&#10;&#9;&#9;&#9;&#9;C992.1,367.4,984.2,375.3,974.4,375.3z M974.4,342.2c-8.5,0-15.5,6.9-15.5,15.5c0,8.5,6.9,15.5,15.5,15.5&#10;&#9;&#9;&#9;&#9;c8.5,0,15.5-6.9,15.5-15.5C989.9,349.2,983,342.2,974.4,342.2z" style="fill: rgb(255, 165, 0);"/>
    </g>
    <g>
      <path class="st3" d="M34.5,493.6c-9.7,0-17.6-7.9-17.6-17.6c0-9.7,7.9-17.6,17.6-17.6s17.6,7.9,17.6,17.6&#10;&#9;&#9;&#9;&#9;C52.1,485.7,44.2,493.6,34.5,493.6z M34.5,460.5c-8.5,0-15.5,6.9-15.5,15.5c0,8.5,6.9,15.5,15.5,15.5S50,484.5,50,476&#10;&#9;&#9;&#9;&#9;C50,467.5,43,460.5,34.5,460.5z" style="fill: rgb(255, 165, 0);"/>
    </g>
    <g/>
  </g>
</svg>