<?xml version="1.0" encoding="utf-8"?>
<svg viewBox="-261.8989 15.9494 857.826 556.1456" width="857.826" height="556.1456" xmlns="http://www.w3.org/2000/svg">
  <defs/>
  <g>
    <path fill="#2C3541" opacity="1.000000" stroke="none" d="M 127.965 564.079 C 129.116 564.099 135.992 565.054 137.128 564.935 C 142.72 564.346 140.407 566.022 141.893 571.734 C 134.259 572.095 126.572 572.095 118.416 572.095 C 118.185 569.644 118.423 567.192 119.273 564.476 C 122.578 564.167 125.272 564.123 127.965 564.079 Z"/>
    <path opacity="1.000000" stroke="none" d="M 408.057 152.034 C 418.984 149.076 429.761 145.076 440.884 143.466 C 451.039 141.995 461.571 142.956 471.933 143.125 C 486.937 143.37 501.305 147.079 515.293 152.143 C 532.148 158.244 548.328 165.751 560.641 179.369 C 575.365 195.652 585.095 214.721 589.806 236.093 C 592.257 247.213 593.321 258.64 594.944 269.939 C 597.411 287.114 594.775 303.979 592.095 320.903 C 588.683 342.455 581.506 362.732 571.855 382.125 C 563.996 397.917 554.259 412.618 542.561 425.865 C 535.549 433.806 528.082 441.363 520.556 448.826 C 516.544 452.804 511.971 456.217 507.125 460.072 C 506.331 460.398 506.123 460.599 505.976 460.863 C 504.896 461.605 503.816 462.348 502.011 463.102 C 500.51 463.108 499.733 463.101 498.905 462.709 C 496.928 454.85 494.864 447.41 493.124 439.895 C 491.831 434.315 490.957 428.638 489.845 422.629 C 488.636 417.897 487.479 413.54 486.553 408.853 C 486.342 406.767 485.962 404.992 485.452 403.256 C 478.028 377.944 467.048 353.599 464.443 326.98 C 463.714 319.527 459.306 311.61 466.716 304.817 C 467.72 303.896 467.543 301.687 468.327 300.035 C 469.486 298.464 470.949 296.891 470.863 295.407 C 470.041 281.199 468.755 267.016 468.016 252.805 C 467.488 242.659 463.956 237.81 454.009 234.648 C 453.98 229.494 453.93 224.808 453.926 219.735 C 454.548 218.14 454.818 216.56 455.754 215.789 C 460.142 212.172 460.273 210.015 456.089 205.917 C 456.437 204.05 456.809 202.593 456.879 201.122 C 457.261 193.111 454.456 190.186 446.521 190.211 C 445.694 190.213 444.856 190.167 444.042 190.28 C 439.644 190.889 436.125 189.85 433.065 186.207 C 430.099 182.676 425.383 183.053 422.128 186.34 C 418.303 190.203 418.972 194.908 423.965 199.947 C 423.94 201.591 424.95 202.787 424.706 204.151 C 423.644 204.928 426.1 205.579 424.821 206.173 C 426.731 206.446 411.265 206.079 406.891 205.596 C 406.938 189.511 406.909 173.891 407.009 158.272 C 407.022 156.19 407.691 154.113 408.057 152.034 M 512.372 219.223 C 508.698 214.736 505.024 210.249 501.802 206.315 C 498.736 210.202 495.168 214.727 492.061 218.668 C 495.172 222.712 498.788 227.41 501.711 231.209 C 504.717 227.806 508.298 223.753 512.372 219.223 Z" style="fill: rgb(255, 165, 0);"/>
    <path fill="#CACDEA" opacity="1.000000" stroke="none" d="M -34.127 257.044 C -34.102 219.229 -34.276 181.412 -33.949 143.6 C -33.826 129.339 -26.749 118.562 -13.095 114.755 C -11.385 114.278 -9.535 114.122 -7.749 114.121 C 57.554 114.082 122.857 114.079 188.594 114.391 C 189.284 121.105 192.982 123.808 198.849 121.483 C 201.571 120.404 203.868 118.298 206.514 116.967 C 208.898 115.768 211.494 114.991 213.996 114.028 C 216.343 114.046 218.69 114.063 221.938 114.07 C 236.191 114.108 249.541 114.157 262.768 114.525 C 262.187 120.051 264.391 122.938 269.133 121.911 C 272.808 121.114 276.103 118.607 279.596 116.92 C 281.726 115.89 283.911 114.973 286.531 114.036 C 293.321 114.029 299.65 113.991 305.98 113.954 C 327.004 114.006 348.028 114.057 369.751 114.438 C 385.962 119.547 391.533 130.456 391.097 146.134 C 390.544 166.037 390.991 185.969 390.537 205.949 C 385.269 205.893 379.344 207.43 376.006 205.162 C 373.039 203.146 373.147 196.828 371.469 192.579 C 370.822 190.943 368.989 189.776 367.696 188.395 C 367.272 190.284 366.168 192.319 366.54 194.036 C 368.292 202.13 370.56 210.112 372.434 218.183 C 375.051 229.457 377.483 240.774 379.585 252.097 C 373.471 250.509 367.767 248.897 362.055 246.805 C 362.037 214.182 362.028 182.039 362.019 149.896 C 362.017 143.048 362.015 143.043 355.374 143.043 C 276.266 143.042 197.158 143.034 118.05 143.046 C 79.079 143.051 40.108 143.092 0.698 143.112 C -2.968 142.775 -3.094 144.841 -3.074 147.229 C -3.015 154.383 -3.054 161.537 -3.054 168.691 C -3.054 235.243 -3.055 301.794 -3.053 368.346 C -3.053 371.272 -3.861 374.801 1.596 374.09 C 23.521 374.083 44.989 374.059 66.659 374.312 C 68.161 378.463 69.462 382.337 70.524 386.418 C 64.318 395.157 58.351 403.689 51.89 412.175 C 33.251 412.117 15.107 412.103 -3.038 412.092 C -22.019 412.079 -33.112 401.043 -33.121 382.085 C -33.139 342.3 -33.113 302.515 -33.169 262.73 C -33.172 260.834 -33.794 258.939 -34.127 257.044 Z"/>
    <path opacity="1.000000" stroke="none" d="M -34.468 257.198 C -33.794 258.939 -33.172 260.834 -33.169 262.73 C -33.113 302.515 -33.139 342.3 -33.121 382.085 C -33.112 401.043 -22.019 412.079 -3.038 412.092 C 15.107 412.103 33.251 412.117 51.78 412.584 C 51.191 417.188 52.863 420.305 55.635 423.322 C 61.562 429.773 67.24 436.454 73.004 443.465 C 70.525 453.67 70.612 463.468 72.337 473.26 C 65.22 473.232 58.557 473.225 51.894 473.217 C 6.588 473.165 -38.718 473.112 -84.151 472.752 C -87.865 468.669 -91.452 464.894 -95.063 460.691 C -95.407 455.32 -96.012 450.374 -95.987 445.432 C -95.942 436.371 -97.638 427.834 -101.166 419.417 C -105.57 408.909 -109.158 398.058 -112.633 387.287 C -101.545 387.201 -90.92 387.218 -80.296 387.155 C -74.126 387.119 -71.308 384.605 -71.252 378.484 C -71.135 365.705 -71.303 352.923 -71.255 339.721 C -70.892 330.332 -73.052 328.062 -81.857 328.03 C -92.263 327.992 -102.669 327.945 -113.069 327.542 C -113.028 326.461 -112.993 325.741 -112.957 325.021 C -107.998 317.073 -103.437 308.84 -97.993 301.239 C -87.739 286.923 -74.456 275.786 -58.932 267.606 C -51.228 263.547 -42.87 260.731 -34.468 257.198 M -63.569 303.726 C -61.479 306.524 -59.39 309.323 -57.533 311.809 C -55.746 309.362 -53.751 306.629 -51.908 304.105 C -53.812 301.473 -55.787 298.742 -57.438 296.459 C -59.182 298.536 -61.154 300.883 -63.569 303.726 Z" style="fill: rgb(255, 165, 0);"/>
    <path opacity="1.000000" stroke="none" d="M 435.734 473.638 C 406.467 473.621 377.201 473.605 347.351 473.155 C 342.66 469.94 338.487 467.248 334.456 464.358 C 324.185 456.992 315.565 448.227 310.96 436.12 C 308 428.336 307.968 420.318 309.362 412.163 C 329.893 412.078 349.952 412.038 370.471 412.035 C 374.25 412.082 377.571 412.167 380.888 412.084 C 391.638 411.814 401.615 404.395 405.313 394.252 C 409.149 394.08 412.529 393.989 415.959 394.296 C 422.584 421.009 429.159 447.323 435.734 473.638 Z" style="fill: rgb(255, 165, 0);"/>
    <path opacity="1.000000" stroke="none" d="M 72.791 473.28 C 70.612 463.468 70.525 453.67 73.291 443.293 C 75.367 439.756 77.141 436.814 79.383 433.914 C 89.991 433.966 100.132 433.853 110.266 434.054 C 113.744 434.123 114.908 432.889 115.035 429.498 C 115.252 423.705 120.063 461.679 120.233 463.192 C 120.648 466.91 121.894 470.534 122.806 474.196 C 124.285 482.03 125.773 489.862 127.233 497.699 C 127.531 499.296 127.927 500.913 127.931 502.522 C 127.974 520.327 127.948 538.133 127.432 556.396 C 123.983 556.947 121.043 557.04 118.102 557.133 C 116.722 549.303 114.875 541.523 114.054 533.635 C 112.078 514.648 108.056 496.22 100.726 478.557 C 100.359 477.672 100.19 476.705 99.866 475.179 C 99.681 474.331 99.499 474.14 99.255 474.007 C 99.255 474.007 99.077 474.044 98.99 473.603 C 96.952 469.154 95.001 465.147 92.596 461.124 C 89.388 461.107 86.633 461.107 82.996 461.107 C 86.641 465.898 89.739 469.969 92.881 474.073 C 92.926 474.106 93.038 474.114 93.038 474.114 C 93.346 475.698 93.821 477.27 93.937 478.868 C 95.182 495.923 92.852 512.506 87.711 528.806 C 84.843 537.899 82.645 547.204 79.533 556.763 C 75.978 557.116 73.035 557.121 70.092 557.125 C 71.18 547.869 72.232 538.609 73.367 529.36 C 74.502 520.105 76.664 510.857 76.628 501.612 C 76.595 493.053 74.25 484.504 72.978 475.224 C 72.952 474.092 72.872 473.686 72.791 473.28 M 92.371 476.577 C 92.371 476.577 92.469 476.521 92.371 476.577 Z" style="fill: rgb(62, 66, 93);"/>
    <path opacity="1.000000" stroke="none" d="M -115.901 143.094 C -139.528 142.515 -155.645 124.851 -153.835 102.746 C -152.192 82.691 -136.996 69.594 -118.298 69.138 C -108.48 68.898 -98.648 68.96 -88.826 69.126 C -71.711 69.414 -55.243 85.072 -54.977 103.103 C -54.846 111.999 -55.979 120.249 -61.679 127.518 C -62.545 128.622 -62.157 131.128 -61.676 132.791 C -60.157 138.041 -58.318 143.197 -56.268 149.406 C -62.589 146.052 -67.812 143.255 -73.067 140.519 C -73.951 140.059 -75.197 139.332 -75.898 139.626 C -88.719 145.02 -102.201 142.547 -115.901 143.094 M -95.559 119.933 C -92.72 122.51 -90.845 120.607 -88.815 118.626 C -86.894 116.75 -87.473 115.419 -88.986 113.57 C -90.998 111.11 -90.531 109.137 -86.915 109.131 C -84.032 109.126 -82.721 107.533 -83.327 105.069 C -83.76 103.311 -85.153 100.678 -86.47 100.448 C -91.185 99.624 -90.638 97.996 -88.492 94.798 C -87.862 93.859 -88.669 91.087 -89.712 90.135 C -90.784 89.156 -93.611 88.519 -94.52 89.221 C -98.105 91.989 -99.309 90.993 -100.141 86.987 C -100.384 85.814 -102.403 84.168 -103.543 84.219 C -105.321 84.297 -108.36 85.4 -108.558 86.487 C -109.336 90.776 -110.687 91.004 -114.208 88.906 C -115.329 88.239 -118.163 89.396 -119.502 90.546 C -120.303 91.233 -120.38 93.998 -119.648 95.009 C -117.287 98.275 -117.824 99.904 -121.795 100.149 C -124.877 100.339 -125.092 102.285 -125.081 104.641 C -125.07 106.976 -124.93 108.992 -121.803 109.118 C -118.181 109.264 -116.993 111.033 -119.594 113.877 C -121.875 116.371 -120.725 117.882 -118.9 119.733 C -117.16 121.497 -115.763 122.382 -113.498 120.27 C -111.282 118.203 -109.166 118.254 -108.917 121.999 C -108.688 125.441 -106.293 125.184 -103.897 125.298 C -101.222 125.426 -99.999 124.531 -99.783 121.661 C -99.721 120.839 -97.454 120.185 -95.559 119.933 Z" style="fill: rgb(255, 165, 0);"/>
    <path fill="#BBC1DE" opacity="1.000000" stroke="none" d="M 227.164 412.219 C 227.164 426.51 227.164 440.801 227.164 456.056 C 232.208 456.056 237.109 455.957 242.005 456.076 C 251.858 456.316 258.777 463.329 259 473.59 C 231.543 474.058 204.104 474.127 176.666 474.166 C 159.036 474.192 141.406 474.173 123.291 474.185 C 121.894 470.534 120.648 466.91 120.233 463.192 C 120.063 461.679 121.33 459.003 122.582 458.524 C 126.038 457.2 129.802 456.312 133.499 456.065 C 139.262 455.68 145.07 455.966 151.798 456.013 C 176.849 456.059 200.96 456.059 225.072 456.059 C 220.713 452.333 216.11 449.833 211.595 447.185 C 193.504 436.578 175.429 425.943 157.389 415.251 C 156.077 414.473 155.084 413.158 154.412 412.094 C 178.975 412.136 203.07 412.177 227.164 412.219 Z"/>
    <path fill="#3E425C" opacity="1.000000" stroke="none" d="M -113.098 387.355 C -109.158 398.058 -105.57 408.909 -101.166 419.417 C -97.638 427.834 -95.942 436.371 -95.987 445.432 C -96.012 450.374 -95.407 455.32 -95.07 461.129 C -94.749 465.702 -94.445 469.408 -94.345 473.259 C -94.427 473.948 -94.305 474.492 -94.183 475.036 C -94.141 477.514 -94.145 479.993 -94.043 482.469 C -93.954 484.639 -94.989 487.05 -91.411 488.101 C -90.337 488.416 -90.24 492.061 -89.619 494.479 C -91.791 494.914 -93.211 495.199 -95.318 495.777 C -98.734 496.445 -101.464 496.818 -104.194 497.192 C -105.57 497.532 -106.945 497.872 -108.984 498.375 C -109.368 490.54 -109.724 483.3 -110.1 475.314 C -110.429 474.077 -110.737 473.585 -111.04 472.637 C -111.375 467.408 -111.6 462.625 -112.079 457.867 C -112.853 450.176 -112.648 442.142 -114.923 434.902 C -118.764 422.676 -124.144 410.925 -129.116 399.075 C -129.595 397.934 -131.759 397.5 -133.454 396.565 C -134.75 407.611 -135.446 417.486 -137.156 427.181 C -139.749 441.885 -143.047 456.464 -146.047 471.478 C -146.056 472.37 -146.063 472.881 -146.18 473.615 C -146.541 474.262 -146.792 474.687 -147.094 475.51 C -147.438 478.333 -147.731 480.757 -148.024 483.182 C -148.919 486.886 -149.814 490.59 -151.243 494.672 C -156.528 493.753 -161.278 492.455 -166.028 491.158 C -165.37 486.089 -164.711 481.02 -163.806 475.351 C -163.418 474.169 -163.277 473.588 -163.137 473.006 C -160.932 460.688 -158.692 448.375 -156.543 436.046 C -155.921 432.479 -155.382 428.879 -155.117 425.271 C -154.354 414.889 -153.751 404.494 -152.725 393.611 C -148.041 393.297 -145.43 391.039 -143.479 387.19 C -133.046 387.244 -123.072 387.3 -113.098 387.355 Z"/>
    <path opacity="1.000000" stroke="none" d="M 435.741 474.025 C 429.159 447.323 422.584 421.009 416.315 394.105 C 420.828 393.042 425.036 392.568 429.69 392.095 C 441.81 392.072 453.482 392.05 465.387 392.274 C 466.075 394.041 466.531 395.562 466.515 397.087 C 453.081 397.093 440.119 397.175 427.158 397.045 C 423.494 397.008 422.314 398.259 423.32 401.803 C 424.539 406.1 425.933 410.394 426.59 414.789 C 427.16 418.592 429.147 419.187 432.404 419.141 C 441.875 419.008 451.348 419.095 460.824 419.507 C 460.93 421.282 461.033 422.646 460.654 424.035 C 449.964 424.061 439.755 424.061 429.062 424.061 C 430.562 430.381 431.946 435.806 433.116 441.276 C 433.911 444.998 435.902 446.236 439.75 446.18 C 454.525 445.965 469.305 446.101 484.083 446.08 C 485.53 446.078 486.977 445.898 488.953 445.765 C 487.173 438.124 485.498 430.933 484.165 423.576 C 486.303 423.274 488.1 423.139 489.897 423.004 C 490.957 428.638 491.831 434.315 493.124 439.895 C 494.864 447.41 496.928 454.85 498.903 463.033 C 499.23 464.517 499.506 465.291 499.782 466.065 C 500.495 468.144 501.209 470.224 501.943 472.972 C 502.232 474.134 502.5 474.628 502.769 475.122 C 506.238 489.976 509.719 504.828 513.164 519.689 C 513.601 521.571 513.852 523.497 514.186 525.391 C 509.303 527.644 507.857 524.631 507.055 521.296 C 503.533 506.653 500.163 491.973 496.722 477.243 C 478.766 477.243 461.143 477.243 442.681 477.243 C 444.156 483.594 445.508 489.664 446.983 495.704 C 449.025 504.066 451.29 512.377 453.14 520.78 C 453.489 522.365 452.344 524.279 451.889 526.041 C 450.262 524.781 447.672 523.817 447.177 522.208 C 445.273 516.027 444.043 509.64 442.558 503.33 C 440.29 493.69 438.018 484.051 435.741 474.025 M 495.052 471.35 C 495.131 471.396 495.209 471.442 495.287 471.488 C 495.174 471.357 495.06 471.226 494.946 470.272 C 493.655 464.807 492.174 459.378 491.149 453.863 C 490.603 450.925 489.196 450.056 486.433 450.068 C 470.819 450.133 455.204 450.122 439.59 450.078 C 436.854 450.07 435.484 450.777 436.336 453.882 C 437.693 458.825 438.643 463.888 440.184 468.768 C 440.608 470.114 442.527 471.947 443.749 471.938 C 460.816 471.822 477.881 471.424 495.052 471.35 Z" style="fill: rgb(89, 60, 248);"/>
    <path fill="#593DF9" opacity="1.000000" stroke="none" d="M -112.999 324.561 C -112.993 325.741 -113.028 326.461 -113.535 327.593 C -125.785 328.002 -137.566 327.914 -149.343 328.08 C -151.301 328.107 -153.778 328.695 -155.084 329.974 C -158.133 332.963 -160.616 336.53 -163.616 340.065 C -166.206 342.471 -165.109 344.35 -163.261 346.529 C -159.58 354.042 -155.976 361.19 -152.302 368.684 C -151.158 371.052 -150.085 373.073 -149.102 375.378 C -150.083 376.371 -150.972 377.081 -152.22 377.88 C -154.482 379 -156.385 380.03 -158.649 381.1 C -160.502 380.11 -161.994 379.08 -163.598 377.725 C -164.15 376.627 -164.591 375.852 -165.088 374.728 C -166.409 371.918 -167.675 369.458 -169.025 366.649 C -172.508 359.589 -175.906 352.878 -179.373 345.823 C -179.918 343.678 -180.394 341.876 -180.647 339.835 C -177.351 335.46 -174.277 331.325 -171.202 327.19 C -166.11 320.982 -161.556 314.195 -155.727 308.78 C -152.156 305.463 -146.631 304.248 -141.498 302.271 C -141.012 302.452 -140.919 302.884 -140.959 303.349 C -140.999 306.725 -140.999 309.636 -140.999 312.544 C -136.091 311.588 -131.875 310.767 -127.102 309.838 C -127.707 308.133 -128.458 306.02 -129.179 303.677 C -129.15 303.446 -128.943 303.03 -128.943 303.03 C -117.298 303.272 -113.114 306.581 -113.057 315.607 C -113.039 318.438 -113.045 321.27 -112.999 324.561 Z"/>
    <path opacity="1.000000" stroke="none" d="M 262.892 114.207 C 249.541 114.157 236.191 114.108 222.374 114.008 C 222.158 108.851 220.788 103.387 224.961 99.122 C 226.626 97.42 228.48 95.904 231.028 94.178 C 237.099 94.409 242.318 94.388 247.076 91.488 C 249.124 96.12 252.697 96.099 255.919 94.302 C 259.046 92.558 259.613 89.418 257.535 86.143 C 256.919 85.171 256.521 84.061 256.024 83.014 C 262.179 82.375 268.327 81.305 274.491 81.2 C 282.858 81.057 289.744 84.636 294.075 91.929 C 298.216 98.9 301.84 106.178 305.835 113.637 C 299.65 113.991 293.321 114.029 286.452 113.691 C 280.527 106.135 268.81 106.588 262.892 114.207 Z" style="fill: rgb(255, 165, 0);"/>
    <path fill="#DBDFFC" opacity="1.000000" stroke="none" d="M 391.006 205.888 C 390.991 185.969 390.544 166.037 391.097 146.134 C 391.533 130.456 385.962 119.547 370.217 114.506 C 378.866 114.133 387.792 112.881 395.735 118.967 C 402.336 124.024 406.325 130.161 406.963 138.448 C 407.288 142.673 407.619 146.897 408.002 151.578 C 407.691 154.113 407.022 156.19 407.009 158.272 C 406.909 173.891 406.938 189.511 406.433 205.605 C 400.961 206.016 395.984 205.952 391.006 205.888 Z"/>
    <path fill="#C9CDEA" opacity="1.000000" stroke="none" d="M -163.487 378.049 C -161.994 379.08 -160.502 380.11 -158.582 381.495 C -158.474 383.968 -158.794 386.088 -159.114 388.209 C -171.224 388.17 -183.335 388.129 -195.446 388.094 C -203.818 388.071 -206.054 385.807 -206.052 377.321 C -206.049 365.208 -206.043 353.096 -205.509 340.519 C -196.943 340.062 -188.906 340.068 -180.869 340.074 C -180.394 341.876 -179.918 343.678 -179.822 345.826 C -184.179 346.164 -188.202 345.814 -192.11 346.328 C -193.561 346.519 -195.724 348.634 -195.872 350.048 C -196.354 354.638 -195.982 359.312 -196.08 363.95 C -196.142 366.888 -194.92 368.186 -191.948 368.133 C -186.812 368.042 -181.669 368.23 -176.538 368.064 C -173.996 367.981 -171.472 367.369 -168.94 366.997 C -167.675 369.458 -166.409 371.918 -165.558 374.733 C -174.266 375.089 -182.561 375.033 -190.854 375.142 C -192.502 375.164 -194.143 375.819 -195.787 376.182 C -195.688 376.804 -195.588 377.427 -195.488 378.049 C -184.821 378.049 -174.154 378.049 -163.487 378.049 Z"/>
    <path opacity="1.000000" stroke="none" d="M -199.836 210.376 C -192.959 203.454 -181.002 202.876 -174.725 208.909 C -167.671 215.689 -166.625 227.761 -172.539 234.134 C -179.074 241.177 -191.416 242.537 -197.783 236.916 C -205.847 229.795 -206.84 218.534 -199.836 210.376 Z" style="fill: rgb(255, 165, 0);"/>
    <path fill="#2B2E3E" opacity="1.000000" stroke="none" d="M -143.094 276.937 C -143.405 274.169 -144.176 271.359 -143.929 268.641 C -143.463 263.496 -140.806 261.13 -135.812 261.149 C -129.638 261.173 -123.663 261.615 -119.03 255.936 C -117.031 253.486 -110.963 255.148 -108.74 257.932 C -105.948 261.43 -106.552 265.726 -111.165 270.031 C -114.703 270.504 -117.497 271.09 -120.279 271.042 C -123.924 270.979 -127.557 270.242 -131.202 270.168 C -132.392 270.144 -134.708 271.48 -134.64 271.866 C -133.94 275.851 -132.997 279.814 -131.748 283.662 C -131.524 284.352 -129.077 285.181 -128.531 284.774 C -122.348 280.157 -116.738 281.869 -111.222 285.936 C -110.826 295.58 -116.933 301.064 -128.811 300.884 C -135.658 299.293 -138.68 294.772 -140.864 289.406 C -140.965 288.838 -141.067 288.271 -141.002 287.002 C -137.769 285.691 -136.181 283.679 -136.657 280.722 C -137.222 277.209 -140.166 276.888 -143.094 276.937 Z"/>
    <path opacity="1.000000" stroke="none" d="M 412.945 42.1 C 389.113 42.1 365.781 42.037 342.449 42.144 C 336.681 42.17 330.916 42.904 325.146 42.965 C 323.585 42.982 322.01 41.729 320.442 41.059 C 321.145 39.711 321.591 38.122 322.594 37.056 C 327.421 31.923 332.293 26.527 339.821 25.796 C 343.766 25.413 348.24 25.265 351.755 26.734 C 359.13 29.815 364.261 27.14 369.335 22.272 C 373.147 18.615 377.557 16.295 383.141 15.986 C 389.58 15.629 394.39 17.871 397.595 23.289 C 402.642 31.822 410.519 35.125 419.88 36.148 C 422.756 36.463 425.593 37.318 428.379 38.155 C 429.313 38.435 430.032 39.428 430.85 40.096 C 429.881 40.763 428.934 41.965 427.939 42.006 C 423.115 42.208 418.277 42.099 412.945 42.1 M 362.865 31.704 C 358.972 31.393 354.823 31.84 351.234 30.628 C 340.477 26.997 332.555 31.173 327.923 38.406 C 354.181 38.406 380.793 38.406 406.817 38.406 C 403.489 35.202 399.464 32.528 397.074 28.804 C 389.188 16.513 379.524 18.415 371.865 25.506 C 369.41 27.779 366.255 29.297 362.865 31.704 Z" style="fill: rgb(255, 165, 0);"/>
    <path opacity="1.000000" stroke="none" d="M 246.924 91.161 C 242.318 94.388 237.099 94.409 231.348 94.059 C 224.468 89.502 221.158 82.724 218.008 75.204 C 224.542 70.921 231.003 67.319 237.368 63.77 C 239.394 66.727 241.05 69.143 242.707 71.559 C 243.111 71.441 243.515 71.322 243.919 71.203 C 243.59 67.224 244.774 64.412 248.991 63.94 C 253.717 65.042 255.489 68.13 252.554 71.583 C 250.491 74.01 252.707 74.827 252.73 76.953 C 250.654 82.08 248.789 86.621 246.924 91.161 M 240.261 83.107 C 237.397 84.649 234.534 86.191 231.071 88.056 C 236.982 91.168 240.97 88.705 240.261 83.107 Z" fill="#E3BD9C"/>
    <path fill="#2B2E3E" opacity="1.000000" stroke="none" d="M 248.973 63.556 C 244.774 64.412 243.59 67.224 243.919 71.203 C 243.515 71.322 243.111 71.441 242.707 71.559 C 241.05 69.143 239.394 66.727 237.368 63.77 C 231.003 67.319 224.542 70.921 217.92 74.844 C 208.525 75.634 205.884 68.934 209.143 61.17 C 209.983 59.17 211.188 55.793 214.989 58.271 C 215.621 58.683 217.317 57.614 218.449 57.076 C 221.836 55.466 225.047 53.262 228.6 52.307 C 230.977 51.668 233.829 52.705 236.45 53.111 C 237.552 53.281 238.587 53.942 239.687 54.061 C 246.47 54.797 247.899 56.162 248.973 63.556 Z"/>
    <path fill="#98B9F9" opacity="1.000000" stroke="none" d="M -180.647 339.835 C -188.906 340.068 -196.943 340.062 -205.438 340.052 C -205.949 338.89 -206.045 337.731 -206.047 336.571 C -206.057 329.824 -203.481 327.175 -196.544 327.107 C -188.4 327.027 -180.254 327.116 -171.656 327.161 C -174.277 331.325 -177.351 335.46 -180.647 339.835 Z"/>
    <path fill="#E2BC9D" opacity="1.000000" stroke="none" d="M -111.162 285.481 C -116.738 281.869 -122.348 280.157 -128.531 284.774 C -129.077 285.181 -131.524 284.352 -131.748 283.662 C -132.997 279.814 -133.94 275.851 -134.64 271.866 C -134.708 271.48 -132.392 270.144 -131.202 270.168 C -127.557 270.242 -123.924 270.979 -120.279 271.042 C -117.497 271.09 -114.703 270.504 -111.501 270.159 C -111.093 275.088 -111.098 280.057 -111.162 285.481 Z"/>
    <path fill="#E4BE9E" opacity="1.000000" stroke="none" d="M 213.851 113.717 C 211.494 114.991 208.898 115.768 206.514 116.967 C 203.868 118.298 201.571 120.404 198.849 121.483 C 192.982 123.808 189.284 121.105 189.061 114.283 C 195.695 105.974 206.312 105.78 213.851 113.717 Z"/>
    <path fill="#E1B17A" opacity="1.000000" stroke="none" d="M -158.984 388.532 C -158.794 386.088 -158.474 383.968 -158.222 381.454 C -156.385 380.03 -154.482 379 -151.894 377.974 C -150.542 378.084 -149.874 378.189 -148.953 378.528 C -145.079 380.421 -143.877 383.449 -143.938 387.191 C -145.43 391.039 -148.041 393.297 -152.759 393.182 C -155.053 391.781 -156.953 390.318 -158.984 388.532 Z"/>
    <path fill="#2C3541" opacity="1.000000" stroke="none" d="M -157.031 501.189 C -157.381 504.761 -154.648 505.231 -152.202 506.205 C -148.733 507.587 -144.292 507.662 -143.486 512.686 C -151.59 512.037 -159.293 511.108 -166.996 510.18 C -166.707 506.819 -166.418 503.458 -165.74 499.631 C -162.578 499.84 -159.804 500.514 -157.031 501.189 Z"/>
    <path fill="#2C3541" opacity="1.000000" stroke="none" d="M -104.138 497.618 C -101.464 496.818 -98.734 496.445 -95.591 496.058 C -95.355 498.841 -94.499 500.309 -91.242 500.207 C -88.311 500.116 -85.31 500.632 -82.435 501.291 C -81.468 501.513 -80.792 502.997 -80.416 504.416 C -88.208 505.709 -95.567 506.491 -102.926 507.272 C -103.312 504.196 -103.697 501.121 -104.138 497.618 Z"/>
    <path fill="#525775" opacity="1.000000" stroke="none" d="M -156.631 501.19 C -159.804 500.514 -162.578 499.84 -165.766 499.203 C -167.405 499.068 -168.63 498.897 -170.86 498.585 C -169.352 495.81 -168.104 493.512 -166.442 491.186 C -161.278 492.455 -156.528 493.753 -151.364 495.043 C -150.502 497.189 -150.054 499.343 -149.427 502.361 C -152.349 501.859 -154.29 501.525 -156.631 501.19 Z"/>
    <path opacity="1.000000" stroke="none" d="M -248.538 362.921 C -253.547 366.119 -252.295 359.857 -255.324 359.329 C -256.736 360.001 -258.631 360.902 -260.768 361.919 C -264.478 357.061 -257.898 357.603 -257.591 356.538 C -258.083 352.972 -258.399 350.678 -258.716 348.383 C -256.808 349.667 -254.9 350.951 -252.896 352.3 C -251.092 352.112 -248.68 351.86 -246.269 351.607 C -247.651 353.485 -249.034 355.363 -250.711 357.641 C -250.133 358.845 -249.223 360.74 -248.538 362.921 Z" style="fill: rgb(255, 165, 0);"/>
    <path opacity="1.000000" stroke="none" d="M 247.076 91.488 C 248.789 86.621 250.654 82.08 252.826 77.286 C 254.07 78.791 255.007 80.548 255.984 82.66 C 256.521 84.061 256.919 85.171 257.535 86.143 C 259.613 89.418 259.046 92.558 255.919 94.302 C 252.697 96.099 249.124 96.12 247.076 91.488 Z" fill="#DFB390"/>
    <path fill="#DFB390" opacity="1.000000" stroke="none" d="M -140.914 289.845 C -138.68 294.772 -135.658 299.293 -129.245 300.897 C -129 301.549 -129.023 301.974 -128.995 302.714 C -128.943 303.03 -129.15 303.446 -129.407 303.943 C -130.253 305.927 -130.842 307.415 -131.549 309.203 C -133.423 307.979 -134.943 307.012 -136.435 306.004 C -137.944 304.985 -139.425 303.926 -140.919 302.884 C -140.919 302.884 -141.012 302.452 -141.101 302.251 C -141.116 298.127 -141.04 294.205 -140.914 289.845 Z"/>
    <path fill="#DCB797" opacity="1.000000" stroke="none" d="M 69.925 557.473 C 73.035 557.121 75.978 557.116 79.362 557.118 C 79.976 565.118 79.583 565.41 68.755 564.717 C 69.092 562.405 69.425 560.114 69.925 557.473 Z"/>
    <path fill="#E2BC9D" opacity="1.000000" stroke="none" d="M -143.425 277.104 C -140.166 276.888 -137.222 277.209 -136.657 280.722 C -136.181 283.679 -137.769 285.691 -141.068 286.574 C -147.123 284.104 -147.735 281.713 -143.425 277.104 Z"/>
    <path fill="#E3BD9C" opacity="1.000000" stroke="none" d="M 118.033 557.527 C 121.043 557.04 123.983 556.947 127.364 556.844 C 127.852 558.951 127.901 561.068 127.957 563.633 C 125.272 564.123 122.578 564.167 119.447 564.108 C 118.661 561.977 118.312 559.949 118.033 557.527 Z"/>
    <path fill="#C3C6E7" opacity="1.000000" stroke="none" d="M -167.017 510.584 C -159.293 511.108 -151.59 512.037 -143.49 513.054 C -143.402 513.786 -143.808 515.019 -144.007 514.986 C -151.695 513.725 -159.365 512.349 -167.017 510.584 Z"/>
    <path fill="#C7CBE9" opacity="1.000000" stroke="none" d="M -102.983 507.67 C -95.567 506.491 -88.208 505.709 -80.414 504.793 C -79.86 505.421 -79.741 506.183 -79.622 506.946 C -87.288 507.909 -94.954 508.876 -102.63 509.76 C -102.701 509.768 -102.9 508.657 -102.983 507.67 Z"/>
    <path opacity="1.000000" stroke="none" d="M 93.049 461.14 C 95.001 465.147 96.952 469.154 98.983 473.512 C 97.34 473.934 95.618 474.006 93.467 474.096 C 93.038 474.114 92.926 474.106 92.917 473.616 C 92.955 469.131 93.002 465.135 93.049 461.14 Z" style="fill: rgb(255, 165, 0);"/>
    <path fill="#7F8ED5" opacity="1.000000" stroke="none" d="M 499.951 465.762 C 499.506 465.291 499.23 464.517 498.955 463.419 C 499.733 463.101 500.51 463.108 501.675 463.126 C 501.415 463.911 500.767 464.685 499.951 465.762 Z"/>
    <path fill="#5C69C2" opacity="1.000000" stroke="none" d="M 99.264 474.217 C 99.499 474.14 99.681 474.331 99.853 474.774 C 99.64 474.849 99.43 474.669 99.264 474.217 Z"/>
    <path fill="#7F8ED5" opacity="1.000000" stroke="none" d="M 506.219 460.878 C 506.123 460.599 506.331 460.398 506.807 460.188 C 506.937 460.451 506.753 460.71 506.219 460.878 Z"/>
    <path fill="#3E425D" opacity="1.000000" stroke="none" d="M 466.987 397.082 C 466.531 395.562 466.075 394.041 465.337 391.894 C 462.462 384.171 459.869 377.076 457.208 369.64 C 456.718 368.231 456.296 367.163 455.855 365.723 C 453.36 358.217 450.884 351.082 448.329 343.59 C 447.814 341.853 447.378 340.474 446.941 338.702 C 444.835 330.881 442.727 323.453 440.561 315.818 C 431.249 317.856 422.711 319.724 413.459 321.749 C 415.339 327.855 417.077 333.501 418.821 339.516 C 419.231 341.286 419.636 342.687 420.04 344.474 C 422.06 351.939 424.08 359.018 426.099 366.443 C 426.448 367.898 426.798 369.006 427.143 370.482 C 426.654 373.585 432.209 377.289 425.373 379.082 C 421.852 379.538 418.777 379.99 415.333 380.334 C 413.531 379.043 411.453 378.142 410.795 376.626 C 409.193 372.936 408.25 368.96 406.998 364.709 C 402.689 349.916 398.511 335.486 394.103 321.126 C 392.811 316.917 392.633 313.063 395.496 309.217 C 396.933 308.332 398.048 307.555 399.519 306.848 C 402.207 306.252 404.54 305.587 407.234 304.849 C 414.8 302.501 422.004 300.225 429.653 297.997 C 442.703 298.721 455.308 299.397 467.913 300.074 C 467.543 301.687 467.72 303.896 466.716 304.817 C 459.306 311.61 463.714 319.527 464.443 326.98 C 467.048 353.599 478.028 377.944 485.452 403.256 C 485.962 404.992 486.342 406.767 486.161 408.828 C 482.272 409.472 479.006 409.811 475.357 410.148 C 473.605 409.111 471.694 408.36 470.976 406.986 C 469.336 403.847 468.28 400.403 466.987 397.082 Z"/>
    <path fill="#593CF8" opacity="1.000000" stroke="none" d="M 468.327 300.035 C 455.308 299.397 442.703 298.721 429.598 297.565 C 428.998 294.745 428.899 292.404 428.812 289.721 C 428.58 288.269 428.336 287.16 428.081 285.589 C 427.715 278.802 427.36 272.475 427.325 266.286 C 428.267 266.613 429.086 267.16 429.484 266.941 C 435.701 263.523 442.073 260.32 447.96 256.395 C 451.577 253.984 452.08 247.97 449.937 244.14 C 447.88 240.463 442.804 238.716 438.304 240.133 C 435.151 241.126 431.997 242.116 428.908 242.781 C 429.988 241.047 431.002 239.64 432.371 238.138 C 435.809 237.049 438.892 236.056 442.43 235.128 C 446.587 235.168 450.288 235.141 453.99 235.115 C 463.956 237.81 467.488 242.659 468.016 252.805 C 468.755 267.016 470.041 281.199 470.863 295.407 C 470.949 296.891 469.486 298.464 468.327 300.035 Z"/>
    <path opacity="1.000000" stroke="none" d="M 441.975 235.062 C 438.892 236.056 435.809 237.049 432.078 237.823 C 423.258 237.437 415.087 237.272 406.665 237.12 C 406.252 237.17 406.089 237.208 405.463 237.216 C 400.347 237.241 395.695 237.293 390.596 237.276 C 387.901 237.205 385.653 237.205 382.876 237.205 C 384.069 243.318 385.126 248.734 385.793 254.136 C 383.907 253.731 382.409 253.34 380.813 252.74 C 380.543 252.241 380.288 252.084 379.957 252.079 C 379.961 252.097 379.994 252.073 379.994 252.073 C 377.483 240.774 375.051 229.457 372.434 218.183 C 370.56 210.112 368.292 202.13 366.54 194.036 C 366.168 192.319 367.272 190.284 367.696 188.395 C 368.989 189.776 370.822 190.943 371.469 192.579 C 373.147 196.828 373.039 203.146 376.006 205.162 C 379.344 207.43 385.269 205.893 390.537 205.949 C 395.984 205.952 400.961 206.016 406.396 206.07 C 411.265 206.079 419.77 205.855 424.568 206.237 C 424.682 208.005 425.147 209.738 424.404 211.153 C 419.896 211.168 411.025 211.083 406.518 211.037 C 401.018 211.027 395.985 211.067 390.486 211.076 C 385.513 211.046 381.006 211.046 376.003 211.046 C 377.431 216.742 379.059 221.45 379.708 226.29 C 380.468 231.956 383.269 233.942 388.64 233.01 C 389.449 232.869 390.268 232.792 391.533 232.76 C 396.879 232.879 401.774 232.922 407.154 233 C 415.725 233.055 423.812 233.075 431.898 233.093 C 433.893 233.098 436.102 233.397 436.33 230.249 C 438.436 230.196 440.122 230.174 441.852 230.558 C 441.923 232.33 441.949 233.696 441.975 235.062 Z" style="fill: rgb(89, 60, 248);"/>
    <path fill="#2B2E3E" opacity="1.000000" stroke="none" d="M 423.828 199.896 C 418.801 195.307 418.303 190.203 422.128 186.34 C 425.383 183.053 430.099 182.676 433.065 186.207 C 436.125 189.85 439.644 190.889 444.042 190.28 C 444.856 190.167 445.694 190.213 446.521 190.211 C 454.456 190.186 457.261 193.111 456.879 201.122 C 456.809 202.593 456.437 204.05 455.718 205.93 C 453.548 207.198 451.922 208.228 450.15 208.816 C 449.415 209.061 448.367 208.362 447.624 207.674 C 448.362 198.629 448.203 198.745 439.684 199.597 C 434.511 200.114 429.06 199.965 423.828 199.896 Z"/>
    <path opacity="1.000000" stroke="none" d="M 447.461 208.092 C 448.367 208.362 449.415 209.061 450.15 208.816 C 451.922 208.228 453.548 207.198 455.603 206.333 C 460.273 210.015 460.142 212.172 455.754 215.789 C 454.818 216.56 454.548 218.14 453.67 219.94 C 450.653 225.106 447.962 229.711 441.807 230.151 C 440.122 230.174 438.436 230.196 435.986 230.146 C 428.324 227.551 423.975 223.096 424.407 215.292 C 426.523 214.55 428.248 213.824 429.955 213.092 C 429.938 213.086 429.947 213.122 430.312 213.002 C 432.105 212.961 433.532 213.042 434.958 213.103 C 434.957 213.085 434.919 213.081 434.793 213.479 C 437.035 213.947 439.802 214.817 441.667 213.883 C 443.995 212.717 445.58 210.066 447.489 208.069 C 447.492 208.082 447.461 208.092 447.461 208.092 M 434.118 222.989 C 435.396 222.083 436.673 221.177 438.947 219.564 C 434.358 219.564 431.313 219.564 428.269 219.564 C 428.157 220.087 428.045 220.61 427.934 221.134 C 429.734 221.77 431.535 222.406 434.118 222.989 Z" fill="#E2BC9D"/>
    <path fill="#2C3541" opacity="1.000000" stroke="none" d="M 475.739 410.15 C 479.006 409.811 482.272 409.472 485.931 409.158 C 487.479 413.54 488.636 417.897 489.845 422.629 C 488.1 423.139 486.303 423.274 483.707 423.551 C 475.65 423.798 468.393 423.904 461.136 424.009 C 461.033 422.646 460.93 421.282 461.065 419.228 C 466.227 416.947 471.15 415.357 476.368 413.673 C 476.186 412.655 475.962 411.403 475.739 410.15 Z"/>
    <path opacity="1.000000" stroke="none" d="M 447.624 207.674 C 447.461 208.092 451.478 209.847 451.049 209.833 C 449.259 209.138 443.476 215.245 442.089 214.62 C 440.5 213.903 441.29 214.636 440.575 215.171 C 436.228 218.419 428.511 216.4 424.411 215.125 C 423.958 214.985 424.453 203.989 423.958 203.982 C 423.949 202.787 423.94 201.591 423.965 199.947 C 429.231 199.566 434.511 200.114 439.684 199.597 C 448.203 198.745 448.362 198.629 447.624 207.674 Z" style="fill: rgb(226, 188, 157);"/>
    <path fill="#DFB390" opacity="1.000000" stroke="none" d="M 441.852 230.558 C 447.962 229.711 450.653 225.106 453.625 220.327 C 453.93 224.808 453.98 229.494 454.009 234.648 C 450.288 235.141 446.587 235.168 442.43 235.128 C 441.949 233.696 441.923 232.33 441.852 230.558 Z"/>
    <path fill="#FFFFFF" opacity="1.000000" stroke="none" d="M 1.137 143.117 C 40.108 143.092 79.079 143.051 118.05 143.046 C 197.158 143.034 276.266 143.042 355.374 143.043 C 362.015 143.043 362.017 143.048 362.019 149.896 C 362.028 182.039 362.037 214.182 361.641 246.762 C 358.119 246.224 354.495 245.938 352.007 244.108 C 348.39 241.448 344.949 241.038 340.949 241.703 C 340.943 220.901 340.944 200.575 340.939 180.249 C 340.936 170.228 338.921 168.118 329.058 168.112 C 289.906 168.089 250.753 168.09 211.601 168.113 C 203.355 168.118 200.951 170.596 200.95 178.865 C 200.947 231.512 200.947 284.16 200.949 336.807 C 200.95 345.756 203.215 348.078 212.082 348.081 C 251.235 348.095 290.387 348.093 329.54 348.083 C 338.724 348.081 340.933 345.826 340.937 336.495 C 340.949 310.337 340.949 284.18 341.34 258.088 C 348.479 259.155 355.231 260.158 361.994 261.622 C 362.009 297.539 361.927 332.994 362.123 368.448 C 362.149 373.105 360.773 374.271 356.235 374.261 C 291.485 374.122 226.734 374.174 161.984 374.124 C 160.252 374.122 158.52 373.486 156.963 372.845 C 161.033 367.909 164.926 363.275 168.902 358.543 C 167.72 357.291 166.719 356.229 165.854 354.874 C 166.676 353.79 167.361 353 168.223 352.486 C 170.396 353.187 172.871 354.504 174.249 353.768 C 175.439 353.133 175.38 350.162 175.936 347.854 C 177.225 341.855 175.775 339.473 169.936 337.395 C 167.922 335.304 166.011 333.516 164.063 331.368 C 162.988 325.453 159.739 323.114 154.109 324.087 C 151.669 324.508 149.207 324.895 146.739 325.059 C 139.34 325.551 135.785 320.745 138.364 313.702 C 140.26 316.728 142.414 317.131 145.383 315.928 C 152.622 312.995 159.928 310.219 167.263 307.532 C 170.498 306.348 172.641 305.01 170.833 301.027 C 169.184 297.394 167.723 294.495 162.759 296.755 C 156.106 299.785 149.29 302.501 142.402 304.953 C 138.21 306.445 136.321 308.643 137.462 313.158 C 132.521 317.03 136.306 320.694 137.699 323.938 C 138.386 325.538 141.406 326.56 143.543 326.996 C 145.739 327.445 148.189 327.097 150.453 326.687 C 158.88 325.161 159.135 325.212 162.92 332.426 C 163.199 335.152 163.603 337.548 163.737 340.205 C 162.29 343.682 161.112 346.899 159.594 349.978 C 156.532 347.466 155.452 350.153 154.179 351.624 C 148.848 357.784 143.683 364.089 138.287 370.189 C 137.176 371.444 135.385 372.716 133.814 372.846 C 123.224 373.727 112.61 374.302 101.919 374.759 C 101.836 374.542 101.555 374.17 101.604 373.792 C 101.45 371.649 101.247 369.886 101.325 367.929 C 102.637 367.196 103.651 366.619 104.702 366.122 C 110.707 363.28 111.549 357.009 113.602 351.812 C 114.413 349.759 112.55 346.649 112.192 343.824 C 117.601 341.055 119.73 334.796 116.977 330.405 C 114.712 326.792 111.364 327.012 105.831 330.626 C 104.672 331.383 102.572 331.304 101.11 330.89 C 94.188 328.927 87.748 329.293 81.652 333.885 C 78.843 333.795 76.348 333.839 73.458 333.905 C 66.701 334.711 63.439 338.294 61.903 345.91 C 59.895 355.874 63.585 364.88 66.457 374.035 C 44.989 374.059 23.521 374.083 1.587 373.623 C 1.126 296.465 1.132 219.791 1.137 143.117 M 157.444 168.103 C 115.816 168.103 74.188 168.103 32.56 168.104 C 31.061 168.104 29.55 167.999 28.067 168.154 C 22.464 168.735 20.952 170.449 20.946 176.157 C 20.931 189.645 20.934 203.132 20.944 216.62 C 20.948 223.036 21.964 224.082 28.521 224.085 C 76.143 224.102 123.766 224.101 171.388 224.085 C 177.278 224.083 178.932 222.335 178.942 216.223 C 178.962 202.902 178.957 189.581 178.944 176.26 C 178.938 170.337 177.349 168.494 171.427 168.166 C 167.111 167.927 162.771 168.109 157.444 168.103 M 131.093 243.954 C 129.33 243.667 127.566 243.133 125.802 243.13 C 93.336 243.08 60.871 243.092 28.405 243.095 C 25.072 243.096 21.142 242.56 21.045 247.482 C 20.949 252.385 24.766 252.103 28.185 252.1 C 45.001 252.085 61.816 252.094 78.632 252.093 C 94.448 252.093 110.265 252.13 126.081 252.072 C 131.389 252.052 133.234 249.426 131.093 243.954 M 94.521 271.67 C 95.209 269.667 96.615 267.547 96.314 265.706 C 96.133 264.609 93.277 263.22 91.614 263.207 C 69.824 263.041 48.031 263.105 26.239 263.087 C 23.113 263.084 20.973 264.254 21.004 267.643 C 21.036 271.049 23.252 272.111 26.343 272.103 C 48.799 272.04 71.254 272.007 94.521 271.67 M 73.447 293.095 C 79.098 293.095 84.75 293.054 90.4 293.11 C 93.594 293.142 96.74 292.957 96.862 288.801 C 96.994 284.315 93.738 284.069 90.32 284.075 C 69.378 284.112 48.435 284.109 27.492 284.077 C 24.3 284.073 21.151 284.224 21.029 288.383 C 20.897 292.865 24.15 293.123 27.57 293.113 C 42.529 293.07 57.488 293.095 73.447 293.095 Z"/>
    <path fill="#E4BE9E" opacity="1.000000" stroke="none" d="M 340.953 242.179 C 344.949 241.038 348.39 241.448 352.007 244.108 C 354.495 245.938 358.119 246.224 361.65 247.242 C 367.767 248.897 373.471 250.509 379.585 252.097 C 379.994 252.073 379.961 252.097 380.048 252.292 C 380.33 252.747 380.589 252.901 380.912 252.949 C 382.409 253.34 383.907 253.731 386.094 254.29 C 388.143 254.725 389.501 254.992 391.124 255.508 C 393.405 256.414 395.388 257.21 397.445 257.697 C 400.659 258.458 404.006 260.446 407.386 257.129 C 411.851 255.326 415.95 253.563 420.342 251.997 C 422.422 255.832 424.209 259.47 425.765 263.372 C 419.325 266.467 413.116 269.298 406.545 272.154 C 401.13 271.412 396.077 270.646 390.76 269.646 C 388.657 268.946 386.819 268.48 384.713 267.761 C 376.957 265.393 369.471 263.276 361.984 261.16 C 355.231 260.158 348.479 259.155 341.164 257.793 C 335.195 251.775 335.268 248.599 340.953 242.179 Z"/>
    <path fill="#313646" opacity="1.000000" stroke="none" d="M 66.659 374.312 C 63.585 364.88 59.895 355.874 61.903 345.91 C 63.439 338.294 66.701 334.711 73.834 334.013 C 76.396 335.088 78.188 336.076 79.98 337.065 C 78.774 338.563 77.433 339.975 76.401 341.585 C 75.462 343.051 73.995 344.915 74.285 346.28 C 74.896 349.154 76.505 351.815 77.857 354.909 C 80.678 358.874 83.347 362.495 86.103 366.472 C 87.121 369.603 88.053 372.377 89.048 375.511 C 90.426 381.002 91.908 386.098 92.996 391.276 C 93.705 394.649 91.858 396.182 88.463 396.12 C 83.966 396.038 79.466 396.086 74.737 395.809 C 73.258 392.43 72.011 389.32 70.763 386.21 C 69.462 382.337 68.161 378.463 66.659 374.312 Z"/>
    <path opacity="1.000000" stroke="none" d="M 0.698 143.112 C 1.132 219.791 1.126 296.465 1.13 373.606 C -3.861 374.801 -3.053 371.272 -3.053 368.346 C -3.055 301.794 -3.054 235.243 -3.054 168.691 C -3.054 161.537 -3.015 154.383 -3.074 147.229 C -3.094 144.841 -2.968 142.775 0.698 143.112 Z" style="fill: rgb(255, 255, 255);"/>
    <path opacity="1.000000" stroke="none" d="M 70.524 386.418 C 72.011 389.32 73.258 392.43 74.462 396.071 C 74.984 401.922 75.177 407.182 71.642 412.097 C 71.108 413.885 70.111 416.049 70.785 416.924 C 72.61 419.291 75.145 421.109 77.573 423.494 C 78.137 427.185 78.526 430.528 78.914 433.872 C 77.141 436.814 75.367 439.756 73.307 442.87 C 67.24 436.454 61.562 429.773 55.635 423.322 C 52.863 420.305 51.191 417.188 52.274 412.63 C 58.351 403.689 64.318 395.157 70.524 386.418 Z" style=""/>
    <path fill="#E4BE9E" opacity="1.000000" stroke="none" d="M 262.768 114.525 C 268.81 106.588 280.527 106.135 285.992 113.66 C 283.911 114.973 281.726 115.89 279.596 116.92 C 276.103 118.607 272.808 121.114 269.133 121.911 C 264.391 122.938 262.187 120.051 262.768 114.525 Z"/>
    <path fill="#C9CDEA" opacity="1.000000" stroke="none" d="M -143.479 387.19 C -143.877 383.449 -145.079 380.421 -148.475 378.468 C -131.935 378.013 -115.604 378.378 -99.299 377.976 C -99.303 377.016 -99.306 376.055 -99.31 375.094 C -115.877 375.094 -132.444 375.094 -149.011 375.094 C -150.085 373.073 -151.158 371.052 -151.813 368.616 C -143.264 368.171 -135.132 368.024 -127.005 368.167 C -123.525 368.228 -122.157 366.681 -122.142 363.465 C -122.125 359.648 -122.256 355.827 -122.092 352.017 C -121.909 347.769 -123.721 346.041 -127.996 346.094 C -139.775 346.241 -151.557 346.157 -163.338 346.164 C -165.109 344.35 -166.206 342.471 -163.128 340.124 C -132.02 340.035 -101.686 340.088 -71.353 340.142 C -71.303 352.923 -71.135 365.705 -71.252 378.484 C -71.308 384.605 -74.126 387.119 -80.296 387.155 C -90.92 387.218 -101.545 387.201 -112.633 387.287 C -123.072 387.3 -133.046 387.244 -143.479 387.19 Z"/>
    <path fill="#98B9F9" opacity="1.000000" stroke="none" d="M -71.255 339.721 C -101.686 340.088 -132.02 340.035 -162.84 339.922 C -160.616 336.53 -158.133 332.963 -155.084 329.974 C -153.778 328.695 -151.301 328.107 -149.343 328.08 C -137.566 327.914 -125.785 328.002 -113.541 327.954 C -102.669 327.945 -92.263 327.992 -81.857 328.03 C -73.052 328.062 -70.892 330.332 -71.255 339.721 Z"/>
    <path fill="#FDFDFF" opacity="1.000000" stroke="none" d="M -63.348 303.478 C -61.154 300.883 -59.182 298.536 -57.438 296.459 C -55.787 298.742 -53.812 301.473 -51.908 304.105 C -53.751 306.629 -55.746 309.362 -57.533 311.809 C -59.39 309.323 -61.479 306.524 -63.348 303.478 Z"/>
    <path fill="#CACEEA" opacity="1.000000" stroke="none" d="M 361.994 261.622 C 369.471 263.276 376.957 265.393 384.711 268.168 C 387.264 278.262 389.549 287.696 391.572 297.447 C 391.191 299.578 390.973 301.392 390.972 303.207 C 390.95 331.004 391.165 358.804 390.749 386.595 C 390.679 391.221 388.38 396.051 386.241 400.354 C 382.984 406.907 375.996 408.893 370.011 411.998 C 349.952 412.038 329.893 412.078 309.362 412.163 C 281.948 412.188 255.005 412.169 227.613 412.184 C 203.07 412.177 178.975 412.136 154.057 412.098 C 152.76 412.121 152.287 412.141 151.814 412.162 C 140.297 412.163 128.78 412.165 116.712 411.775 C 116.162 410.328 116.163 409.273 116.315 407.828 C 116.987 401.667 117.509 395.896 118.45 390.094 C 122.843 389.724 126.811 389.277 130.792 389.068 C 139.116 388.631 146.992 387.547 151.611 379.149 C 152.857 376.884 155.036 375.133 156.787 373.146 C 158.52 373.486 160.252 374.122 161.984 374.124 C 226.734 374.174 291.485 374.122 356.235 374.261 C 360.773 374.271 362.149 373.105 362.123 368.448 C 361.927 332.994 362.009 297.539 361.994 261.622 M 195.023 400.557 C 200.197 393.18 198.07 384.221 190.398 381.079 C 184.532 378.676 178.073 380.8 174.86 386.188 C 171.409 391.976 172.565 398.174 177.913 402.567 C 182.658 406.464 189.17 405.894 195.023 400.557 Z"/>
    <path fill="#D9DDFB" opacity="1.000000" stroke="none" d="M 370.471 412.035 C 375.996 408.893 382.984 406.907 386.241 400.354 C 388.38 396.051 390.679 391.221 390.749 386.595 C 391.165 358.804 390.95 331.004 390.972 303.207 C 390.973 301.392 391.191 299.578 391.668 297.821 C 393.077 301.694 394.125 305.509 395.174 309.325 C 392.633 313.063 392.811 316.917 394.103 321.126 C 398.511 335.486 402.689 349.916 406.933 365.17 C 406.906 372.677 406.9 379.332 406.54 386.1 C 401.757 386.95 398.962 388.868 400.463 394.332 C 401.997 394.332 403.427 394.332 404.856 394.332 C 401.615 404.395 391.638 411.814 380.888 412.084 C 377.571 412.167 374.25 412.082 370.471 412.035 Z"/>
    <path fill="#2C3541" opacity="1.000000" stroke="none" d="M 405.313 394.252 C 403.427 394.332 401.997 394.332 400.463 394.332 C 398.962 388.868 401.757 386.95 406.949 386.116 C 409.313 385.725 410.912 385.192 412.515 385.182 C 416.074 385.16 416.594 383.335 415.702 380.443 C 418.777 379.99 421.852 379.538 425.434 379.47 C 427.042 383.935 428.143 388.015 429.244 392.095 C 425.036 392.568 420.828 393.042 416.264 393.706 C 412.529 393.989 409.149 394.08 405.313 394.252 Z"/>
    <path opacity="1.000000" stroke="none" d="M 156.963 372.845 C 155.036 375.133 152.857 376.884 151.611 379.149 C 146.992 387.547 139.116 388.631 130.792 389.068 C 126.811 389.277 122.843 389.724 117.999 390.083 C 114.58 390.104 112.033 390.104 108.369 390.104 C 111.283 396.875 113.724 402.546 116.164 408.218 C 116.163 409.273 116.162 410.328 116.27 411.764 C 115.908 417.928 115.252 423.705 115.035 429.498 C 114.908 432.889 113.744 434.123 110.266 434.054 C 100.132 433.853 89.991 433.966 79.383 433.914 C 78.526 430.528 78.137 427.185 77.483 423.109 C 77.254 421.589 77.29 420.802 77.416 419.911 C 77.589 419.511 77.485 419.291 77.127 418.726 C 76.478 415.269 78.319 410.299 71.94 411.885 C 75.177 407.182 74.984 401.922 74.692 396.34 C 79.466 396.086 83.966 396.038 88.463 396.12 C 91.858 396.182 93.705 394.649 92.996 391.276 C 91.908 386.098 90.426 381.002 89.504 375.496 C 93.579 375.105 97.26 375.091 101.209 375.078 C 101.652 375.046 101.828 375.011 102.003 374.975 C 112.61 374.302 123.224 373.727 133.814 372.846 C 135.385 372.716 137.176 371.444 138.287 370.189 C 143.683 364.089 148.848 357.784 154.179 351.624 C 155.452 350.153 156.532 347.466 159.752 350.264 C 162.071 352.182 163.894 353.675 165.717 355.168 C 166.719 356.229 167.72 357.291 168.902 358.543 C 164.926 363.275 161.033 367.909 156.963 372.845 Z" style=""/>
    <path fill="#C9CDEA" opacity="1.000000" stroke="none" d="M 151.859 412.623 C 152.287 412.141 152.76 412.121 153.588 412.097 C 155.084 413.158 156.077 414.473 157.389 415.251 C 175.429 425.943 193.504 436.578 211.595 447.185 C 216.11 449.833 220.713 452.333 225.072 456.059 C 200.96 456.059 176.849 456.059 152.256 456.031 C 151.817 441.697 151.861 427.39 151.859 412.623 Z"/>
    <path opacity="1.000000" stroke="none" d="M 92.596 461.124 C 93.002 465.135 92.955 469.131 92.872 473.583 C 89.739 469.969 86.641 465.898 82.996 461.107 C 86.633 461.107 89.388 461.107 92.596 461.124 Z" style="fill: rgb(62, 66, 93); stroke-miterlimit: 1; stroke-width: 0px;"/>
    <path fill="#5136E1" opacity="1.000000" stroke="none" d="M 92.42 476.549 C 92.469 476.521 92.371 476.577 92.42 476.549 Z"/>
    <path fill="#FDFDFF" opacity="1.000000" stroke="none" d="M -95.879 119.693 C -97.454 120.185 -99.721 120.839 -99.783 121.661 C -99.999 124.531 -101.222 125.426 -103.897 125.298 C -106.293 125.184 -108.688 125.441 -108.917 121.999 C -109.166 118.254 -111.282 118.203 -113.498 120.27 C -115.763 122.382 -117.16 121.497 -118.9 119.733 C -120.725 117.882 -121.875 116.371 -119.594 113.877 C -116.993 111.033 -118.181 109.264 -121.803 109.118 C -124.93 108.992 -125.07 106.976 -125.081 104.641 C -125.092 102.285 -124.877 100.339 -121.795 100.149 C -117.824 99.904 -117.287 98.275 -119.648 95.009 C -120.38 93.998 -120.303 91.233 -119.502 90.546 C -118.163 89.396 -115.329 88.239 -114.208 88.906 C -110.687 91.004 -109.336 90.776 -108.558 86.487 C -108.36 85.4 -105.321 84.297 -103.543 84.219 C -102.403 84.168 -100.384 85.814 -100.141 86.987 C -99.309 90.993 -98.105 91.989 -94.52 89.221 C -93.611 88.519 -90.784 89.156 -89.712 90.135 C -88.669 91.087 -87.862 93.859 -88.492 94.798 C -90.638 97.996 -91.185 99.624 -86.47 100.448 C -85.153 100.678 -83.76 103.311 -83.327 105.069 C -82.721 107.533 -84.032 109.126 -86.915 109.131 C -90.531 109.137 -90.998 111.11 -88.986 113.57 C -87.473 115.419 -86.894 116.75 -88.815 118.626 C -90.845 120.607 -92.72 122.51 -95.879 119.693 M -110.597 109.89 C -107.697 113.183 -103.903 114.472 -100.52 111.68 C -98.323 109.867 -96.511 106.39 -96.376 103.571 C -96.2 99.876 -99.197 96.928 -103.026 96.814 C -105.511 96.74 -109.397 97.797 -110.252 99.531 C -111.582 102.231 -110.869 105.937 -110.597 109.89 Z"/>
    <path opacity="1.000000" stroke="none" d="M 460.654 424.035 C 468.393 423.904 475.65 423.798 483.365 423.718 C 485.498 430.933 487.173 438.124 488.953 445.765 C 486.977 445.898 485.53 446.078 484.083 446.08 C 469.305 446.101 454.525 445.965 439.75 446.18 C 435.902 446.236 433.911 444.998 433.116 441.276 C 431.946 435.806 430.562 430.381 429.062 424.061 C 439.755 424.061 449.964 424.061 460.654 424.035 Z" style="fill: rgb(255, 165, 0);"/>
    <path opacity="1.000000" stroke="none" d="M 494.947 470.683 C 477.881 471.424 460.816 471.822 443.749 471.938 C 442.527 471.947 440.608 470.114 440.184 468.768 C 438.643 463.888 437.693 458.825 436.336 453.882 C 435.484 450.777 436.854 450.07 439.59 450.078 C 455.204 450.122 470.819 450.133 486.433 450.068 C 489.196 450.056 490.603 450.925 491.149 453.863 C 492.174 459.378 493.655 464.807 494.947 470.683 Z" style="fill: rgb(255, 165, 0);"/>
    <path opacity="1.000000" stroke="none" d="M 475.357 410.148 C 475.962 411.403 476.186 412.655 476.368 413.673 C 471.15 415.357 466.227 416.947 461.062 418.816 C 451.348 419.095 441.875 419.008 432.404 419.141 C 429.147 419.187 427.16 418.592 426.59 414.789 C 425.933 410.394 424.539 406.1 423.32 401.803 C 422.314 398.259 423.494 397.008 427.158 397.045 C 440.119 397.175 453.081 397.093 466.515 397.087 C 468.28 400.403 469.336 403.847 470.976 406.986 C 471.694 408.36 473.605 409.111 475.357 410.148 Z" style="fill: rgb(255, 165, 0);"/>
    <path opacity="1.000000" stroke="none" d="M 429.69 392.095 C 428.143 388.015 427.042 383.935 425.88 379.466 C 432.209 377.289 426.654 373.585 427.596 370.476 C 437.794 370.062 447.535 370.021 457.276 369.981 C 459.869 377.076 462.462 384.171 465.105 391.647 C 453.482 392.05 441.81 392.072 429.69 392.095 Z" style="fill: rgb(255, 165, 0);"/>
    <path fill="#7F8ED6" opacity="1.000000" stroke="none" d="M 495 471.222 C 495.06 471.226 495.174 471.357 495.287 471.488 C 495.209 471.442 495.131 471.396 495 471.222 Z"/>
    <path fill="#FDFDFF" opacity="1.000000" stroke="none" d="M -163.261 346.529 C -151.557 346.157 -139.775 346.241 -127.996 346.094 C -123.721 346.041 -121.909 347.769 -122.092 352.017 C -122.256 355.827 -122.125 359.648 -122.142 363.465 C -122.157 366.681 -123.525 368.228 -127.005 368.167 C -135.132 368.024 -143.264 368.171 -151.884 368.269 C -155.976 361.19 -159.58 354.042 -163.261 346.529 Z"/>
    <path fill="#FDFDFF" opacity="1.000000" stroke="none" d="M -169.025 366.649 C -171.472 367.369 -173.996 367.981 -176.538 368.064 C -181.669 368.23 -186.812 368.042 -191.948 368.133 C -194.92 368.186 -196.142 366.888 -196.08 363.95 C -195.982 359.312 -196.354 354.638 -195.872 350.048 C -195.724 348.634 -193.561 346.519 -192.11 346.328 C -188.202 345.814 -184.179 346.164 -179.753 346.169 C -175.906 352.878 -172.508 359.589 -169.025 366.649 Z"/>
    <path fill="#FFFFFF" opacity="1.000000" stroke="none" d="M -149.102 375.378 C -132.444 375.094 -115.877 375.094 -99.31 375.094 C -99.306 376.055 -99.303 377.016 -99.299 377.976 C -115.604 378.378 -131.935 378.013 -148.727 378.235 C -149.874 378.189 -150.542 378.084 -151.537 377.884 C -150.972 377.081 -150.083 376.371 -149.102 375.378 Z"/>
    <path fill="#FFFFFF" opacity="1.000000" stroke="none" d="M -163.598 377.725 C -174.154 378.049 -184.821 378.049 -195.488 378.049 C -195.588 377.427 -195.688 376.804 -195.787 376.182 C -194.143 375.819 -192.502 375.164 -190.854 375.142 C -182.561 375.033 -174.266 375.089 -165.501 375.082 C -164.591 375.852 -164.15 376.627 -163.598 377.725 Z"/>
    <path opacity="1.000000" stroke="none" d="M -140.959 303.349 C -139.425 303.926 -137.944 304.985 -136.435 306.004 C -134.943 307.012 -133.423 307.979 -131.549 309.203 C -130.842 307.415 -130.253 305.927 -129.436 304.174 C -128.458 306.02 -127.707 308.133 -127.102 309.838 C -131.875 310.767 -136.091 311.588 -140.999 312.544 C -140.999 309.636 -140.999 306.725 -140.959 303.349 Z" style="fill: rgb(255, 165, 0);"/>
    <path fill="#FDFDFF" opacity="1.000000" stroke="none" d="M 240.601 83.186 C 240.97 88.705 236.982 91.168 231.071 88.056 C 234.534 86.191 237.397 84.649 240.601 83.186 Z"/>
    <path fill="#3E425C" opacity="1.000000" stroke="none" d="M -126.974 473.233 C -127.019 473.06 -126.583 473.108 -126.37 473.158 C -126.414 473.274 -126.672 473.34 -126.974 473.233 Z"/>
    <path opacity="1.000000" stroke="none" d="M 426.1 366.096 C 424.08 359.018 422.06 351.939 420.501 344.476 C 430.111 344.044 439.259 343.996 448.408 343.948 C 450.884 351.082 453.36 358.217 455.393 365.723 C 445.333 366.095 435.716 366.095 426.1 366.096 Z" style="fill: rgb(255, 165, 0);"/>
    <path opacity="1.000000" stroke="none" d="M 418.814 339.146 C 417.077 333.501 415.339 327.855 413.459 321.749 C 422.711 319.724 431.249 317.856 440.561 315.818 C 442.727 323.453 444.835 330.881 446.473 338.702 C 436.941 339.112 427.878 339.129 418.814 339.146 Z" style="fill: rgb(255, 165, 0);"/>
    <path opacity="1.000000" stroke="none" d="M 395.496 309.217 C 394.125 305.509 393.077 301.694 391.931 297.504 C 389.549 287.696 387.264 278.262 384.98 268.42 C 386.819 268.48 388.657 268.946 390.748 270.068 C 391.262 271.848 391.521 272.974 391.785 274.098 C 394.603 286.107 394.603 286.107 407.306 286.061 C 414.552 286.067 421.322 286.058 428.092 286.05 C 428.336 287.16 428.58 288.269 428.357 289.732 C 420.822 290.127 413.753 290.171 406.25 290.225 C 402.622 290.236 399.429 290.236 395.931 290.236 C 397.148 296.463 398.156 301.62 399.164 306.778 C 398.048 307.555 396.933 308.332 395.496 309.217 Z" style="fill: rgb(89, 60, 248);"/>
    <path opacity="1.000000" stroke="none" d="M 406.685 290.214 C 413.753 290.171 420.822 290.127 428.345 290.074 C 428.899 292.404 428.998 294.745 429.153 297.518 C 422.004 300.225 414.8 302.501 407.257 304.396 C 406.841 299.415 406.763 294.814 406.685 290.214 Z" style="fill: rgb(255, 165, 0);"/>
    <path fill="#D9DDFB" opacity="1.000000" stroke="none" d="M 406.25 290.225 C 406.763 294.814 406.841 299.415 406.896 304.469 C 404.54 305.587 402.207 306.252 399.519 306.848 C 398.156 301.62 397.148 296.463 395.931 290.236 C 399.429 290.236 402.622 290.236 406.25 290.225 Z"/>
    <path fill="#8A93C8" opacity="1.000000" stroke="none" d="M 418.821 339.516 C 427.878 339.129 436.941 339.112 446.473 339.095 C 447.378 340.474 447.814 341.853 448.329 343.59 C 439.259 343.996 430.111 344.044 420.501 344.09 C 419.636 342.687 419.231 341.286 418.821 339.516 Z"/>
    <path fill="#8A93C8" opacity="1.000000" stroke="none" d="M 426.099 366.443 C 435.716 366.095 445.333 366.095 455.412 366.094 C 456.296 367.163 456.718 368.231 457.208 369.64 C 447.535 370.021 437.794 370.062 427.6 370.108 C 426.798 369.006 426.448 367.898 426.099 366.443 Z"/>
    <path fill="#7F8ED5" opacity="1.000000" stroke="none" d="M 415.333 380.334 C 416.594 383.335 416.074 385.16 412.515 385.182 C 410.912 385.192 409.313 385.725 407.303 386.004 C 406.9 379.332 406.906 372.677 406.976 365.56 C 408.25 368.96 409.193 372.936 410.795 376.626 C 411.453 378.142 413.531 379.043 415.333 380.334 Z"/>
    <path opacity="1.000000" stroke="none" d="M 425.995 263.108 C 424.209 259.47 422.422 255.832 420.307 251.652 C 418.576 247.984 419.569 246.295 422.929 245.516 C 424.977 245.041 426.877 243.932 428.843 243.108 C 431.997 242.116 435.151 241.126 438.304 240.133 C 442.804 238.716 447.88 240.463 449.937 244.14 C 452.08 247.97 451.577 253.984 447.96 256.395 C 442.073 260.32 435.701 263.523 429.484 266.941 C 429.086 267.16 428.267 266.613 427.296 265.948 C 426.631 264.685 426.313 263.896 425.995 263.108 Z" style="fill: rgb(89, 60, 248);"/>
    <path opacity="1.000000" stroke="none" d="M 425.765 263.372 C 426.313 263.896 426.631 264.685 426.977 265.811 C 427.36 272.475 427.715 278.802 428.081 285.589 C 421.322 286.058 414.552 286.067 407.351 285.603 C 406.916 280.797 406.911 276.463 406.907 272.13 C 413.116 269.298 419.325 266.467 425.765 263.372 Z" style="fill: rgb(255, 165, 0);"/>
    <path opacity="1.000000" stroke="none" d="M 428.908 242.781 C 426.877 243.932 424.977 245.041 422.929 245.516 C 419.569 246.295 418.576 247.984 420.013 251.455 C 415.95 253.563 411.851 255.326 407.365 256.653 C 406.937 250.18 406.896 244.143 406.893 237.857 C 406.925 237.441 406.92 237.274 406.916 237.107 C 415.087 237.272 423.258 237.437 431.723 237.918 C 431.002 239.64 429.988 241.047 428.908 242.781 Z" style="fill: rgb(255, 165, 0);"/>
    <path opacity="1.000000" stroke="none" d="M 423.609 211.226 C 423.378 212.989 424.156 212.964 424.295 214.764 C 424.495 222.776 428.604 227.431 435.845 230.056 C 436.382 233.277 433.893 233.098 431.898 233.093 C 423.812 233.075 415.725 233.055 407.243 232.551 C 406.894 225.073 406.94 218.079 406.987 211.086 C 411.025 211.083 419.101 211.241 423.609 211.226 Z" style="fill: rgb(255, 165, 0);"/>
    <path fill="#DBDFFC" opacity="1.000000" stroke="none" d="M 406.518 211.037 C 406.94 218.079 406.894 225.073 406.759 232.516 C 401.774 232.922 396.879 232.879 391.493 232.334 C 390.986 224.924 390.969 218.016 390.953 211.107 C 395.985 211.067 401.018 211.027 406.518 211.037 Z"/>
    <path fill="#DBDFFC" opacity="1.000000" stroke="none" d="M 406.856 238.105 C 406.896 244.143 406.937 250.18 406.999 256.694 C 404.006 260.446 400.659 258.458 397.445 257.697 C 395.388 257.21 393.405 256.414 391.157 255.023 C 390.965 248.642 391.004 242.994 391.043 237.346 C 395.695 237.293 400.347 237.241 405.583 237.393 C 406.36 237.818 406.589 237.987 406.856 238.105 Z"/>
    <path fill="#C7CBE9" opacity="1.000000" stroke="none" d="M 390.486 211.076 C 390.969 218.016 390.986 224.924 391.043 232.259 C 390.268 232.792 389.449 232.869 388.64 233.01 C 383.269 233.942 380.468 231.956 379.708 226.29 C 379.059 221.45 377.431 216.742 376.003 211.046 C 381.006 211.046 385.513 211.046 390.486 211.076 Z"/>
    <path fill="#C7CBE9" opacity="1.000000" stroke="none" d="M 390.596 237.276 C 391.004 242.994 390.965 248.642 390.893 254.775 C 389.501 254.992 388.143 254.725 386.484 254.305 C 385.126 248.734 384.069 243.318 382.876 237.205 C 385.653 237.205 387.901 237.205 390.596 237.276 Z"/>
    <path fill="#CACDEA" opacity="1.000000" stroke="none" d="M 380.813 252.74 C 380.589 252.901 380.33 252.747 380.044 252.273 C 380.288 252.084 380.543 252.241 380.813 252.74 Z"/>
    <path fill="#C7CBE9" opacity="1.000000" stroke="none" d="M 406.893 237.857 C 406.589 237.987 406.36 237.818 406.047 237.422 C 406.089 237.208 406.252 237.17 406.665 237.12 C 406.92 237.274 406.925 237.441 406.893 237.857 Z"/>
    <path opacity="1.000000" stroke="none" d="M 433.727 223.016 C 431.535 222.406 429.734 221.77 427.934 221.134 C 428.045 220.61 428.157 220.087 428.269 219.564 C 431.313 219.564 434.358 219.564 438.947 219.564 C 436.673 221.177 435.396 222.083 433.727 223.016 Z" fill="#FDFDFF"/>
    <path fill="#ECEDFD" opacity="1.000000" stroke="none" d="M 340.949 241.703 C 335.268 248.599 335.195 251.775 340.777 257.728 C 340.949 284.18 340.949 310.337 340.937 336.495 C 340.933 345.826 338.724 348.081 329.54 348.083 C 290.387 348.093 251.235 348.095 212.082 348.081 C 203.215 348.078 200.95 345.756 200.949 336.807 C 200.947 284.16 200.947 231.512 200.95 178.865 C 200.951 170.596 203.355 168.118 211.601 168.113 C 250.753 168.09 289.906 168.089 329.058 168.112 C 338.921 168.118 340.936 170.228 340.939 180.249 C 340.944 200.575 340.943 220.901 340.949 241.703 M 219.957 253.901 C 219.933 264.19 221.861 267.065 229.125 267.077 C 256.38 267.121 283.634 267.11 310.889 267.079 C 315.581 267.073 318.582 264.203 318.902 259.499 C 319.048 257.348 318.931 255.18 318.967 252.092 C 318.981 235.285 319.026 218.478 318.995 201.672 C 318.983 194.815 316.194 192.11 309.203 192.103 C 282.745 192.079 256.286 192.08 229.828 192.102 C 222.631 192.108 219.959 194.814 219.951 202.083 C 219.932 219.056 219.958 236.029 219.957 253.901 M 256.447 317.095 C 272.412 317.095 288.377 317.096 304.342 317.094 C 308 317.094 311.681 317.309 315.305 316.956 C 316.559 316.834 318.574 315.339 318.629 314.379 C 318.701 313.116 317.401 311.503 316.266 310.541 C 315.54 309.925 314.048 310.111 312.899 310.11 C 283.962 310.091 255.026 310.1 226.089 310.087 C 223.297 310.086 220.09 310.266 220.42 313.775 C 220.54 315.046 224.02 316.878 226.017 316.945 C 235.817 317.274 245.635 317.095 256.447 317.095 M 278.015 289.1 C 260.557 289.099 243.098 288.988 225.644 289.256 C 223.784 289.285 221.958 291.532 220.116 292.75 C 221.73 293.864 223.333 295.924 224.962 295.946 C 242.583 296.178 260.209 296.149 277.831 295.972 C 279.189 295.959 280.53 294.286 281.879 293.384 C 280.89 291.966 279.901 290.548 278.015 289.1 Z"/>
    <path fill="#ECEDFD" opacity="1.000000" stroke="none" d="M 157.943 168.103 C 162.771 168.109 167.111 167.927 171.427 168.166 C 177.349 168.494 178.938 170.337 178.944 176.26 C 178.957 189.581 178.962 202.902 178.942 216.223 C 178.932 222.335 177.278 224.083 171.388 224.085 C 123.766 224.101 76.143 224.102 28.521 224.085 C 21.964 224.082 20.948 223.036 20.944 216.62 C 20.934 203.132 20.931 189.645 20.946 176.157 C 20.952 170.449 22.464 168.735 28.067 168.154 C 29.55 167.999 31.061 168.104 32.56 168.104 C 74.188 168.103 115.816 168.103 157.943 168.103 M 64.491 203.74 C 64.784 202.621 65.097 201.507 65.366 200.382 C 67.426 191.77 62.326 182.983 53.859 180.543 C 44.823 177.94 35.82 182.365 32.871 190.859 C 29.942 199.295 33.759 208.687 41.6 212.341 C 49.926 216.222 58.368 213.235 64.491 203.74 M 141.445 191.243 C 146.796 191.243 152.147 191.243 157.499 191.243 C 157.461 190.742 157.422 190.241 157.384 189.74 C 133.052 189.74 108.721 189.74 84.389 189.74 C 84.388 190.241 84.387 190.742 84.386 191.243 C 103.073 191.243 121.759 191.243 141.445 191.243 M 116.447 202.095 C 105.746 202.095 95.046 202.095 84.345 202.095 C 84.365 202.604 84.384 203.112 84.403 203.62 C 108.734 203.62 133.065 203.62 157.397 203.62 C 157.403 203.112 157.409 202.604 157.415 202.095 C 144.093 202.095 130.77 202.095 116.447 202.095 Z"/>
    <path fill="#ECEDFD" opacity="1.000000" stroke="none" d="M 131.349 244.257 C 133.234 249.426 131.389 252.052 126.081 252.072 C 110.265 252.13 94.448 252.093 78.632 252.093 C 61.816 252.094 45.001 252.085 28.185 252.1 C 24.766 252.103 20.949 252.385 21.045 247.482 C 21.142 242.56 25.072 243.096 28.405 243.095 C 60.871 243.092 93.336 243.08 125.802 243.13 C 127.566 243.133 129.33 243.667 131.349 244.257 Z"/>
    <path fill="#2B2F3F" opacity="1.000000" stroke="none" d="M 86.016 366.116 C 83.347 362.495 80.678 358.874 77.92 354.499 C 77.834 351.937 77.618 350.093 77.906 348.332 C 78.165 346.754 78.536 344.51 79.626 343.872 C 84.08 341.267 84.543 338.1 81.965 334.018 C 87.748 329.293 94.188 328.927 101.11 330.89 C 102.572 331.304 104.672 331.383 105.831 330.626 C 111.364 327.012 114.712 326.792 116.977 330.405 C 119.73 334.796 117.601 341.055 111.751 343.774 C 108.724 344.03 106.425 344.139 105.265 344.195 C 103.594 346.181 102.685 347.573 101.482 348.63 C 98.683 351.092 98.673 353.911 101.648 355.537 C 104.661 357.184 104.269 359.184 103.254 361.203 C 102.183 363.332 100.388 365.098 98.514 367.053 C 94.085 366.761 90.05 366.438 86.016 366.116 Z"/>
    <path fill="#ECEDFD" opacity="1.000000" stroke="none" d="M 94.115 271.818 C 71.254 272.007 48.799 272.04 26.343 272.103 C 23.252 272.111 21.036 271.049 21.004 267.643 C 20.973 264.254 23.113 263.084 26.239 263.087 C 48.031 263.105 69.824 263.041 91.614 263.207 C 93.277 263.22 96.133 264.609 96.314 265.706 C 96.615 267.547 95.209 269.667 94.115 271.818 Z"/>
    <path fill="#ECEDFD" opacity="1.000000" stroke="none" d="M 72.947 293.095 C 57.488 293.095 42.529 293.07 27.57 293.113 C 24.15 293.123 20.897 292.865 21.029 288.383 C 21.151 284.224 24.3 284.073 27.492 284.077 C 48.435 284.109 69.378 284.112 90.32 284.075 C 93.738 284.069 96.994 284.315 96.862 288.801 C 96.74 292.957 93.594 293.142 90.4 293.11 C 84.75 293.054 79.098 293.095 72.947 293.095 Z"/>
    <path opacity="1.000000" stroke="none" d="M 137.876 313.062 C 136.321 308.643 138.21 306.445 142.402 304.953 C 149.29 302.501 156.106 299.785 162.759 296.755 C 167.723 294.495 169.184 297.394 170.833 301.027 C 172.641 305.01 170.498 306.348 167.263 307.532 C 159.928 310.219 152.622 312.995 145.383 315.928 C 142.414 317.131 140.26 316.728 138.383 313.618 C 138.118 313.309 137.876 313.062 137.876 313.062 Z" style="fill: rgb(89, 60, 248);"/>
    <path fill="#E3BD9C" opacity="1.000000" stroke="none" d="M 98.909 367.023 C 100.388 365.098 102.183 363.332 103.254 361.203 C 104.269 359.184 104.661 357.184 101.648 355.537 C 98.673 353.911 98.683 351.092 101.482 348.63 C 102.685 347.573 103.594 346.181 105.265 344.195 C 106.425 344.139 108.724 344.03 111.463 343.971 C 112.55 346.649 114.413 349.759 113.602 351.812 C 111.549 357.009 110.707 363.28 104.702 366.122 C 103.651 366.619 102.637 367.196 101.009 367.894 C 99.91 367.71 99.41 367.366 98.909 367.023 Z"/>
    <path fill="#E6C1A2" opacity="1.000000" stroke="none" d="M 165.854 354.874 C 163.894 353.675 162.071 352.182 160.091 350.402 C 161.112 346.899 162.29 343.682 164.043 340.034 C 166.424 338.966 168.231 338.331 170.038 337.696 C 175.775 339.473 177.225 341.855 175.643 348.007 C 172.875 349.756 170.461 350.984 168.047 352.211 C 167.361 353 166.676 353.79 165.854 354.874 Z"/>
    <path fill="#DFB390" opacity="1.000000" stroke="none" d="M 98.514 367.053 C 99.41 367.366 99.91 367.71 100.728 368.087 C 101.247 369.886 101.45 371.649 101.466 373.913 C 101.12 374.61 101.006 374.83 100.941 375.076 C 97.26 375.091 93.579 375.105 89.441 375.136 C 88.053 372.377 87.121 369.603 86.103 366.472 C 90.05 366.438 94.085 366.761 98.514 367.053 Z"/>
    <path opacity="1.000000" stroke="none" d="M 81.652 333.885 C 84.543 338.1 84.08 341.267 79.626 343.872 C 78.536 344.51 78.165 346.754 77.906 348.332 C 77.618 350.093 77.834 351.937 77.768 354.154 C 76.505 351.815 74.896 349.154 74.285 346.28 C 73.995 344.915 75.462 343.051 76.401 341.585 C 77.433 339.975 78.774 338.563 79.98 337.065 C 78.188 336.076 76.396 335.088 74.228 333.991 C 76.348 333.839 78.843 333.795 81.652 333.885 Z" style="fill: rgb(255, 165, 0);"/>
    <path fill="#CACEEA" opacity="1.000000" stroke="none" d="M 137.462 313.158 C 137.876 313.062 138.118 313.309 138.099 313.394 C 135.785 320.745 139.34 325.551 146.739 325.059 C 149.207 324.895 151.669 324.508 154.109 324.087 C 159.739 323.114 162.988 325.453 163.811 331.495 C 163.411 332.02 163.228 332.058 163.044 332.096 C 159.135 325.212 158.88 325.161 150.453 326.687 C 148.189 327.097 145.739 327.445 143.543 326.996 C 141.406 326.56 138.386 325.538 137.699 323.938 C 136.306 320.694 132.521 317.03 137.462 313.158 Z"/>
    <path fill="#9199CB" opacity="1.000000" stroke="none" d="M 162.92 332.426 C 163.228 332.058 163.411 332.02 163.847 331.855 C 166.011 333.516 167.922 335.304 169.936 337.395 C 168.231 338.331 166.424 338.966 164.311 339.773 C 163.603 337.548 163.199 335.152 162.92 332.426 Z"/>
    <path fill="#9199CB" opacity="1.000000" stroke="none" d="M 168.223 352.486 C 170.461 350.984 172.875 349.756 175.581 348.376 C 175.38 350.162 175.439 353.133 174.249 353.768 C 172.871 354.504 170.396 353.187 168.223 352.486 Z"/>
    <path fill="#E3BD9C" opacity="1.000000" stroke="none" d="M 101.209 375.078 C 101.006 374.83 101.12 374.61 101.418 374.292 C 101.555 374.17 101.836 374.542 101.919 374.759 C 101.828 375.011 101.652 375.046 101.209 375.078 Z"/>
    <path fill="#D9DDFB" opacity="1.000000" stroke="none" d="M 406.545 272.154 C 406.911 276.463 406.916 280.797 406.876 285.589 C 394.603 286.107 394.603 286.107 391.785 274.098 C 391.521 272.974 391.262 271.848 391.013 270.301 C 396.077 270.646 401.13 271.412 406.545 272.154 Z"/>
    <path fill="#5E6BC4" opacity="1.000000" stroke="none" d="M 77.326 420.015 C 77.29 420.802 77.254 421.589 77.307 422.761 C 75.145 421.109 72.61 419.291 70.785 416.924 C 70.111 416.049 71.108 413.885 71.642 412.097 C 78.319 410.299 76.478 415.269 77.102 418.952 C 77.144 419.598 77.326 420.015 77.326 420.015 Z"/>
    <path fill="#9199CB" opacity="1.000000" stroke="none" d="M 194.765 400.836 C 189.17 405.894 182.658 406.464 177.913 402.567 C 172.565 398.174 171.409 391.976 174.86 386.188 C 178.073 380.8 184.532 378.676 190.398 381.079 C 198.07 384.221 200.197 393.18 194.765 400.836 M 176.737 387.56 C 174.375 391.876 174.715 396.333 178.213 399.409 C 180.406 401.337 184.152 402.456 187.13 402.324 C 192.304 402.094 195.166 398.123 195.541 393.281 C 195.86 389.173 194.088 385.471 189.888 383.575 C 185.083 381.405 181.33 382.365 176.737 387.56 Z"/>
    <path opacity="1.000000" stroke="none" d="M 116.315 407.828 C 113.724 402.546 111.283 396.875 108.369 390.104 C 112.033 390.104 114.58 390.104 117.579 390.114 C 117.509 395.896 116.987 401.667 116.315 407.828 Z" style=""/>
    <path fill="#CF667E" opacity="1.000000" stroke="none" d="M 77.416 419.911 C 77.326 420.015 77.144 419.598 77.169 419.372 C 77.485 419.291 77.589 419.511 77.416 419.911 Z"/>
    <path opacity="1.000000" stroke="none" d="M -110.809 109.554 C -110.869 105.937 -111.582 102.231 -110.252 99.531 C -109.397 97.797 -105.511 96.74 -103.026 96.814 C -99.197 96.928 -96.2 99.876 -96.376 103.571 C -96.511 106.39 -98.323 109.867 -100.52 111.68 C -103.903 114.472 -107.697 113.183 -110.809 109.554 Z" style="fill: rgb(255, 165, 0);"/>
    <path fill="#95B8FB" opacity="1.000000" stroke="none" d="M 219.966 253.003 C 219.958 236.029 219.932 219.056 219.951 202.083 C 219.959 194.814 222.631 192.108 229.828 192.102 C 256.286 192.08 282.745 192.079 309.203 192.103 C 316.194 192.11 318.983 194.815 318.995 201.672 C 319.026 218.478 318.981 235.285 318.656 252.414 C 310 244.431 301.548 236.23 293.37 227.764 C 290.588 224.885 288.647 224.347 285.837 227.622 C 282.93 231.011 279.564 234.005 276.397 237.171 C 268.777 244.791 268.777 244.791 262.096 235.671 C 270.775 226.331 270.583 215.168 261.775 207.224 C 254.287 200.47 242.156 201.372 235.391 209.185 C 228.418 217.239 229.776 230.547 237.905 235.616 C 231.823 241.605 225.894 247.304 219.966 253.003 Z"/>
    <path fill="#FFFFFF" opacity="1.000000" stroke="none" d="M 219.961 253.452 C 225.894 247.304 231.823 241.605 238.175 235.411 C 242.097 231.263 245.597 227.61 249.06 223.996 C 253.743 228.349 257.838 232.155 261.933 235.961 C 268.777 244.791 268.777 244.791 276.397 237.171 C 279.564 234.005 282.93 231.011 285.837 227.622 C 288.647 224.347 290.588 224.885 293.37 227.764 C 301.548 236.23 310 244.431 318.639 252.878 C 318.931 255.18 319.048 257.348 318.902 259.499 C 318.582 264.203 315.581 267.073 310.889 267.079 C 283.634 267.11 256.38 267.121 229.125 267.077 C 221.861 267.065 219.933 264.19 219.961 253.452 Z"/>
    <path fill="#FFFFFF" opacity="1.000000" stroke="none" d="M 255.947 317.095 C 245.635 317.095 235.817 317.274 226.017 316.945 C 224.02 316.878 220.54 315.046 220.42 313.775 C 220.09 310.266 223.297 310.086 226.089 310.087 C 255.026 310.1 283.962 310.091 312.899 310.11 C 314.048 310.111 315.54 309.925 316.266 310.541 C 317.401 311.503 318.701 313.116 318.629 314.379 C 318.574 315.339 316.559 316.834 315.305 316.956 C 311.681 317.309 308 317.094 304.342 317.094 C 288.377 317.096 272.412 317.095 255.947 317.095 Z"/>
    <path fill="#FFFFFF" opacity="1.000000" stroke="none" d="M 278.464 289.115 C 279.901 290.548 280.89 291.966 281.879 293.384 C 280.53 294.286 279.189 295.959 277.831 295.972 C 260.209 296.149 242.583 296.178 224.962 295.946 C 223.333 295.924 221.73 293.864 220.116 292.75 C 221.958 291.532 223.784 289.285 225.644 289.256 C 243.098 288.988 260.557 289.099 278.464 289.115 Z"/>
    <path fill="#95B8FB" opacity="1.000000" stroke="none" d="M 64.283 204.064 C 58.368 213.235 49.926 216.222 41.6 212.341 C 33.759 208.687 29.942 199.295 32.871 190.859 C 35.82 182.365 44.823 177.94 53.859 180.543 C 62.326 182.983 67.426 191.77 65.366 200.382 C 65.097 201.507 64.784 202.621 64.283 204.064 Z"/>
    <path fill="#9199CB" opacity="1.000000" stroke="none" d="M 140.945 191.243 C 121.759 191.243 103.073 191.243 84.386 191.243 C 84.387 190.742 84.388 190.241 84.389 189.74 C 108.721 189.74 133.052 189.74 157.384 189.74 C 157.422 190.241 157.461 190.742 157.499 191.243 C 152.147 191.243 146.796 191.243 140.945 191.243 Z"/>
    <path fill="#8D96C9" opacity="1.000000" stroke="none" d="M 116.947 202.095 C 130.77 202.095 144.093 202.095 157.415 202.095 C 157.409 202.604 157.403 203.112 157.397 203.62 C 133.065 203.62 108.734 203.62 84.403 203.62 C 84.384 203.112 84.365 202.604 84.345 202.095 C 95.046 202.095 105.746 202.095 116.947 202.095 Z"/>
    <path fill="#C7CBE9" opacity="1.000000" stroke="none" d="M 176.912 387.224 C 181.33 382.365 185.083 381.405 189.888 383.575 C 194.088 385.471 195.86 389.173 195.541 393.281 C 195.166 398.123 192.304 402.094 187.13 402.324 C 184.152 402.456 180.406 401.337 178.213 399.409 C 174.715 396.333 174.375 391.876 176.912 387.224 Z"/>
    <path fill="#593DF9" opacity="1.000000" stroke="none" d="M 262.096 235.671 C 257.838 232.155 253.743 228.349 249.06 223.996 C 245.597 227.61 242.097 231.263 238.328 235.12 C 229.776 230.547 228.418 217.239 235.391 209.185 C 242.156 201.372 254.287 200.47 261.775 207.224 C 270.583 215.168 270.775 226.331 262.096 235.671 Z"/>
    <path fill="#2C3541" opacity="1.000000" stroke="none" d="M 77.185 563.197 C 78.336 563.217 85.212 564.172 86.348 564.053 C 91.94 563.464 89.627 565.14 91.113 570.852 C 83.479 571.213 75.792 571.213 67.636 571.213 C 67.405 568.762 67.643 566.31 68.493 563.594 C 71.798 563.285 74.492 563.241 77.185 563.197 Z"/>
  </g>
</svg>